G04*
G04 #@! TF.GenerationSoftware,Altium Limited,Altium Designer,22.8.2 (66)*
G04*
G04 Layer_Color=32896*
%FSLAX25Y25*%
%MOIN*%
G70*
G04*
G04 #@! TF.SameCoordinates,3C8BE9B3-E5C5-456B-A35A-4EEED5C43101*
G04*
G04*
G04 #@! TF.FilePolarity,Positive*
G04*
G01*
G75*
%ADD10C,0.00984*%
%ADD11C,0.01181*%
%ADD12C,0.00787*%
%ADD13C,0.01968*%
%ADD15C,0.00118*%
%ADD16C,0.00394*%
%ADD17C,0.00394*%
%ADD18C,0.00197*%
%ADD21C,0.00800*%
%ADD22C,0.01575*%
%ADD23R,0.00040X0.00995*%
G36*
X262794Y344996D02*
X262902D01*
X263351Y344560D01*
Y344444D01*
X264321Y343475D01*
Y342960D01*
X264924Y342358D01*
Y341686D01*
X265160Y341449D01*
Y340670D01*
X265660Y340170D01*
Y338708D01*
X265992Y338375D01*
Y337754D01*
X265513D01*
X264978Y338289D01*
X264812D01*
Y338540D01*
X264428Y338924D01*
Y339960D01*
X264188Y340200D01*
Y341008D01*
X263603Y341593D01*
Y342350D01*
X262925Y343028D01*
Y343348D01*
X262123Y344150D01*
X261939D01*
X261521Y344568D01*
X260478D01*
X260061Y344152D01*
X259902D01*
Y344022D01*
X258680Y342799D01*
Y342255D01*
X258072Y341647D01*
Y341314D01*
X257218D01*
X256925Y341606D01*
X257050Y341686D01*
Y342079D01*
X257443Y342473D01*
Y342867D01*
X259805Y345623D01*
X262168D01*
X262794Y344996D01*
D02*
G37*
G36*
X260199Y337749D02*
X257837Y336567D01*
X258231Y338142D01*
X258624D01*
X260199Y337749D01*
D02*
G37*
G36*
X256268Y340986D02*
X260073Y339947D01*
X263273Y338247D01*
X265773Y336647D01*
X268102Y334892D01*
X267198Y334151D01*
X264173Y336447D01*
X260089Y338578D01*
X255219Y339965D01*
X253997Y340052D01*
X252436Y339804D01*
X251630Y339348D01*
X251186Y338211D01*
X251563Y336759D01*
X252582Y335063D01*
X251831Y334195D01*
X250398Y336528D01*
X250022Y337856D01*
X250448Y339734D01*
X251477Y340657D01*
X252716Y341076D01*
X254190Y341192D01*
X256268Y340986D01*
D02*
G37*
G36*
X265164Y334847D02*
X266165Y334072D01*
X266302Y333266D01*
X265214Y332331D01*
X265146Y334861D01*
X265164Y334847D01*
D02*
G37*
G36*
X254849Y331385D02*
X253897Y332042D01*
X253973Y332114D01*
X254722Y332820D01*
X254849Y331385D01*
D02*
G37*
G36*
X256262Y338930D02*
X257359Y338777D01*
X256951Y335480D01*
X256827Y333055D01*
X256865Y331937D01*
X255825Y330591D01*
X255673Y334047D01*
X255940Y337335D01*
X256217Y339007D01*
X256262Y338930D01*
D02*
G37*
G36*
X271577Y330485D02*
X271961Y328951D01*
X271871Y327954D01*
X271273Y326747D01*
X270078Y326086D01*
X268297Y325753D01*
X266161Y325897D01*
X266473Y327006D01*
X267975Y326903D01*
X269488Y327115D01*
X270347Y327580D01*
X270790Y328380D01*
X270774Y329166D01*
X270108Y330810D01*
X269326Y331959D01*
X270155Y332759D01*
X271577Y330485D01*
D02*
G37*
G36*
X268966Y341137D02*
X270481Y340676D01*
X271420Y339917D01*
X271873Y338547D01*
X271842Y337233D01*
X270841Y335101D01*
X269167Y333068D01*
X266873Y330947D01*
X263020Y328498D01*
X258771Y326625D01*
X258508Y327269D01*
X259190Y328010D01*
X261073Y328847D01*
X264868Y330992D01*
X268473Y334047D01*
X269802Y335644D01*
X270773Y337047D01*
X270816Y338111D01*
X270726Y338799D01*
X270198Y339487D01*
X269453Y339840D01*
X268026Y340046D01*
X266476Y339941D01*
X266168Y341055D01*
X267701Y341197D01*
X268966Y341137D01*
D02*
G37*
G36*
X263302Y326604D02*
X262362Y327152D01*
X263573Y327729D01*
X263302Y326604D01*
D02*
G37*
G36*
X254787Y334214D02*
X253602Y332993D01*
X252494Y331726D01*
X251605Y330279D01*
X251220Y329168D01*
X251295Y328093D01*
X252026Y327312D01*
X253038Y326985D01*
X252259Y325977D01*
X251893Y326102D01*
X250703Y326884D01*
X250168Y327808D01*
X250054Y329150D01*
X250754Y331164D01*
X252796Y333850D01*
X254768Y335658D01*
X254787Y334214D01*
D02*
G37*
G36*
X265626Y327322D02*
X264703Y324546D01*
X263692Y322790D01*
X262373Y321647D01*
X261332Y321197D01*
X260666D01*
X258939Y322090D01*
X258030Y323203D01*
X256905Y325527D01*
X257796Y326495D01*
X258095Y325642D01*
X259013Y323796D01*
X259869Y322823D01*
X260775Y322379D01*
X261689Y322531D01*
X262675Y323378D01*
X263394Y324505D01*
X264213Y326552D01*
X264703Y328424D01*
X265877Y329189D01*
X265626Y327322D01*
D02*
G37*
G36*
X251127Y321874D02*
X251334Y321666D01*
X251447Y321395D01*
Y321249D01*
Y321241D01*
Y321095D01*
X251334Y320823D01*
X251127Y320616D01*
X250855Y320503D01*
X250557D01*
X250286Y320615D01*
X250078Y320823D01*
X249966Y321094D01*
Y321241D01*
Y321247D01*
Y321394D01*
X250079Y321666D01*
X250286Y321874D01*
X250558Y321986D01*
X250856D01*
X251127Y321874D01*
D02*
G37*
G36*
X262791Y335665D02*
X263173Y335347D01*
X263673Y334447D01*
X263773Y332947D01*
X263170Y331591D01*
X261973Y330747D01*
X261074Y330548D01*
X253113Y322394D01*
X252789Y321898D01*
X252542Y321148D01*
X252131Y320127D01*
X251573Y319547D01*
X250734Y319471D01*
X251119Y320147D01*
X251875Y321054D01*
X251468Y322163D01*
X250305Y322365D01*
X249549Y321458D01*
X249955Y320350D01*
X251119Y320147D01*
X250734Y319471D01*
X249577Y319890D01*
X249373Y320247D01*
X248873Y320847D01*
X249340Y322443D01*
X249673Y322647D01*
X250510Y323114D01*
X251237Y323657D01*
X257638Y331930D01*
X258083Y333010D01*
X258073Y333947D01*
X258717Y335285D01*
X259873Y336147D01*
X260946Y336331D01*
X262791Y335665D01*
D02*
G37*
G36*
X266338Y311270D02*
X265205D01*
Y312759D01*
X264342Y312647D01*
X263540Y311270D01*
X262222D01*
Y311355D01*
X263176Y313048D01*
X262773Y313451D01*
X262549Y313898D01*
X262469Y314547D01*
X262549Y315001D01*
X262844Y315573D01*
X263636Y316130D01*
X265169Y316166D01*
Y315171D01*
X264198D01*
X263729Y314943D01*
X263586Y314566D01*
X263683Y314057D01*
X264200Y313747D01*
X265205Y313747D01*
X265169Y316166D01*
X266338D01*
Y311270D01*
D02*
G37*
G36*
X272403D02*
X271270D01*
X270934Y311986D01*
X268917D01*
X268582Y311270D01*
X267449D01*
X269703Y316232D01*
X270156D01*
X272403Y311270D01*
D02*
G37*
G36*
X261494Y315171D02*
X260252D01*
Y311270D01*
X259134D01*
Y315171D01*
X257898D01*
Y316166D01*
X261494D01*
Y315171D01*
D02*
G37*
G36*
X257015Y315200D02*
X256423D01*
Y312244D01*
X257066D01*
Y311270D01*
X254662D01*
Y312244D01*
X255305D01*
Y315200D01*
X254713D01*
Y316166D01*
X257015D01*
Y315200D01*
D02*
G37*
G36*
X251873Y316147D02*
X252565Y315861D01*
X253173Y315247D01*
X253473Y314747D01*
X253652Y314188D01*
X253671Y313711D01*
X253529Y312785D01*
X253138Y312073D01*
X252773Y311647D01*
X252244Y311404D01*
X250982Y311147D01*
X249858Y311422D01*
X249715Y311270D01*
X248529D01*
X249036Y312259D01*
X248743Y312933D01*
X248660Y313387D01*
Y313711D01*
X248789Y314646D01*
X249180Y315361D01*
X249570Y315750D01*
X250081Y316034D01*
X251157Y316253D01*
X251873Y316147D01*
D02*
G37*
G36*
X254005Y298473D02*
X245828D01*
Y300228D01*
X254005D01*
Y298473D01*
D02*
G37*
G36*
X269799Y290530D02*
X269747D01*
X265847Y300228D01*
X268057D01*
X269890Y295145D01*
X271996Y300228D01*
X274154D01*
X269799Y290530D01*
D02*
G37*
G36*
X263702Y294105D02*
X263702Y294059D01*
X263702Y294020D01*
X263701Y293982D01*
X263700Y293943D01*
X263699Y293905D01*
X263697Y293867D01*
X263695Y293829D01*
X263693Y293791D01*
X263690Y293753D01*
X263688Y293716D01*
X263685Y293678D01*
X263682Y293641D01*
X263678Y293604D01*
X263674Y293568D01*
X263670Y293531D01*
X263666Y293495D01*
X263661Y293458D01*
X263656Y293422D01*
X263651Y293386D01*
X263645Y293350D01*
X263639Y293315D01*
X263633Y293279D01*
X263627Y293244D01*
X263620Y293209D01*
X263613Y293174D01*
X263606Y293140D01*
X263599Y293105D01*
X263591Y293071D01*
X263582Y293031D01*
X263572Y292991D01*
X263562Y292952D01*
X263551Y292913D01*
X263540Y292874D01*
X263529Y292836D01*
X263517Y292798D01*
X263505Y292760D01*
X263493Y292722D01*
X263480Y292685D01*
X263465Y292642D01*
X263450Y292600D01*
X263434Y292558D01*
X263417Y292517D01*
X263400Y292476D01*
X263383Y292435D01*
X263363Y292389D01*
X263342Y292345D01*
X263320Y292300D01*
X263296Y292251D01*
X263271Y292203D01*
X263271D01*
X263267Y292196D01*
X263260Y292183D01*
X263253Y292170D01*
X263246Y292157D01*
X263242Y292151D01*
X263238Y292144D01*
X263230Y292129D01*
X263222Y292115D01*
X263214Y292101D01*
X263210Y292094D01*
Y292094D01*
X263205Y292087D01*
X263196Y292072D01*
X263187Y292057D01*
X263178Y292042D01*
X263174Y292034D01*
X263169Y292026D01*
X263159Y292010D01*
X263149Y291994D01*
X263139Y291978D01*
X263133Y291970D01*
X263127Y291962D01*
X263116Y291944D01*
X263104Y291926D01*
X263092Y291908D01*
X263086Y291899D01*
X263078Y291889D01*
X263064Y291868D01*
X263049Y291847D01*
X263034Y291827D01*
X263026Y291817D01*
X263015Y291802D01*
X262994Y291774D01*
X262971Y291745D01*
X262949Y291717D01*
X262937Y291703D01*
X262891Y291647D01*
X262793Y291539D01*
X262689Y291436D01*
X262581Y291339D01*
X262525Y291293D01*
X262515Y291284D01*
X262495Y291268D01*
X262474Y291252D01*
X262454Y291237D01*
X262444Y291229D01*
X262444Y291229D01*
X262435Y291222D01*
X262418Y291209D01*
X262400Y291196D01*
X262383Y291184D01*
X262374Y291177D01*
X262374Y291177D01*
X262366Y291172D01*
X262351Y291161D01*
X262335Y291150D01*
X262319Y291139D01*
X262311Y291134D01*
X262304Y291129D01*
X262291Y291120D01*
X262277Y291111D01*
X262263Y291102D01*
X262256Y291097D01*
X262250Y291093D01*
X262237Y291085D01*
X262224Y291077D01*
X262212Y291069D01*
X262205Y291065D01*
X262199Y291061D01*
X262186Y291053D01*
X262173Y291045D01*
X262160Y291037D01*
X262153Y291033D01*
X262105Y291005D01*
X262061Y290981D01*
X262017Y290957D01*
X261972Y290933D01*
X261931Y290913D01*
X261890Y290893D01*
X261849Y290874D01*
X261807Y290855D01*
X261770Y290839D01*
X261733Y290823D01*
X261695Y290807D01*
X261657Y290792D01*
X261619Y290777D01*
X261580Y290763D01*
X261541Y290749D01*
X261507Y290737D01*
X261473Y290726D01*
X261439Y290715D01*
X261405Y290704D01*
X261370Y290693D01*
X261335Y290683D01*
X261300Y290673D01*
X261264Y290663D01*
X261229Y290654D01*
X261193Y290645D01*
X261156Y290636D01*
X261120Y290627D01*
X261083Y290619D01*
X261046Y290611D01*
X261009Y290603D01*
X260972Y290595D01*
X260940Y290589D01*
X260909Y290584D01*
X260877Y290578D01*
X260845Y290573D01*
X260813Y290567D01*
X260781Y290562D01*
X260749Y290558D01*
X260716Y290553D01*
X260683Y290548D01*
X260650Y290544D01*
X260617Y290540D01*
X260584Y290536D01*
X260551Y290533D01*
X260517Y290529D01*
X260483Y290526D01*
X260449Y290523D01*
X260415Y290521D01*
X260381Y290518D01*
X260347Y290516D01*
X260312Y290513D01*
X260277Y290512D01*
X260242Y290510D01*
X260207Y290508D01*
X260172Y290507D01*
X260137Y290506D01*
X260101Y290505D01*
X260065Y290504D01*
X260029Y290504D01*
X259993Y290504D01*
X259971Y290504D01*
X259854D01*
Y292324D01*
X259971D01*
X259992Y292324D01*
X260009Y292324D01*
X260025Y292324D01*
X260042Y292325D01*
X260059Y292325D01*
X260075Y292326D01*
X260092Y292327D01*
X260108Y292328D01*
X260124Y292329D01*
X260140Y292330D01*
X260156Y292331D01*
X260173Y292332D01*
X260189Y292334D01*
X260204Y292335D01*
X260220Y292337D01*
X260236Y292339D01*
X260252Y292340D01*
X260267Y292342D01*
X260286Y292345D01*
X260304Y292348D01*
X260323Y292351D01*
X260341Y292354D01*
X260359Y292357D01*
X260377Y292360D01*
X260395Y292364D01*
X260413Y292367D01*
X260430Y292371D01*
X260448Y292375D01*
X260465Y292379D01*
X260483Y292383D01*
X260500Y292388D01*
X260520Y292393D01*
X260540Y292398D01*
X260559Y292404D01*
X260579Y292410D01*
X260598Y292416D01*
X260617Y292423D01*
X260639Y292430D01*
X260660Y292438D01*
X260681Y292446D01*
X260705Y292455D01*
X260729Y292465D01*
X260752Y292475D01*
X260755Y292476D01*
X260761Y292479D01*
X260768Y292482D01*
X260774Y292485D01*
X260777Y292486D01*
X260777Y292486D01*
X260781Y292488D01*
X260787Y292491D01*
X260794Y292494D01*
X260801Y292497D01*
X260805Y292499D01*
Y292499D01*
X260808Y292501D01*
X260815Y292504D01*
X260822Y292508D01*
X260828Y292511D01*
X260832Y292513D01*
X260832D01*
X260836Y292515D01*
X260843Y292518D01*
X260850Y292522D01*
X260857Y292526D01*
X260861Y292528D01*
X260865Y292530D01*
X260874Y292535D01*
X260882Y292540D01*
X260890Y292544D01*
X260894Y292547D01*
X260899Y292549D01*
X260909Y292555D01*
X260918Y292560D01*
X260927Y292566D01*
X260932Y292569D01*
X260932Y292569D01*
X260938Y292572D01*
X260949Y292579D01*
X260961Y292587D01*
X260972Y292594D01*
X260978Y292598D01*
X260978Y292598D01*
X260987Y292604D01*
X261005Y292616D01*
X261023Y292629D01*
X261041Y292642D01*
X261050Y292649D01*
X261071Y292666D01*
X261114Y292700D01*
X261155Y292736D01*
X261195Y292774D01*
X261214Y292793D01*
X261219Y292798D01*
X261228Y292809D01*
X261238Y292819D01*
X261248Y292829D01*
X261252Y292834D01*
X261256Y292839D01*
X261264Y292847D01*
X261271Y292856D01*
X261279Y292864D01*
X261282Y292868D01*
X261285Y292872D01*
X261291Y292879D01*
X261297Y292886D01*
X261303Y292894D01*
X261306Y292897D01*
X261306D01*
X261309Y292901D01*
X261314Y292908D01*
X261320Y292914D01*
X261325Y292921D01*
X261328Y292925D01*
X261330Y292928D01*
X261335Y292934D01*
X261340Y292941D01*
X261345Y292947D01*
X261347Y292951D01*
X261350Y292953D01*
X261354Y292959D01*
X261358Y292966D01*
X261363Y292972D01*
X261365Y292975D01*
X261380Y292997D01*
X261395Y293019D01*
X261410Y293042D01*
X261423Y293063D01*
X261436Y293084D01*
X261448Y293106D01*
X261459Y293125D01*
X261470Y293144D01*
X261480Y293164D01*
X261490Y293184D01*
X261500Y293204D01*
X261509Y293221D01*
X261517Y293239D01*
X261525Y293257D01*
X261533Y293275D01*
X261541Y293294D01*
X261549Y293312D01*
X261556Y293331D01*
X261563Y293349D01*
X261571Y293368D01*
X261578Y293387D01*
X261584Y293406D01*
X261590Y293423D01*
X261596Y293440D01*
X261601Y293456D01*
X261607Y293473D01*
X261612Y293490D01*
X261617Y293507D01*
X261622Y293524D01*
X261627Y293541D01*
X261631Y293559D01*
X261636Y293576D01*
X261640Y293594D01*
X261644Y293611D01*
X261649Y293629D01*
X261653Y293647D01*
X261656Y293665D01*
X261660Y293683D01*
X261664Y293701D01*
X261667Y293719D01*
X261671Y293738D01*
X261674Y293756D01*
X261677Y293774D01*
X261680Y293793D01*
X261683Y293812D01*
X261686Y293830D01*
X261688Y293849D01*
X261691Y293868D01*
X261693Y293887D01*
X261696Y293906D01*
X261698Y293926D01*
X261700Y293945D01*
X261701Y293964D01*
X261703Y293984D01*
X261705Y294003D01*
X261706Y294023D01*
X261707Y294043D01*
X261709Y294063D01*
X261710Y294083D01*
X261711Y294103D01*
X261711Y294123D01*
X261712Y294143D01*
X261713Y294163D01*
X261713Y294183D01*
X261713Y294204D01*
X261713Y294224D01*
X261713Y294235D01*
Y300228D01*
X263702D01*
Y294105D01*
D02*
G37*
G36*
X258229Y290816D02*
X258187Y290833D01*
X258148Y290850D01*
X258110Y290867D01*
X258073Y290884D01*
X258032Y290904D01*
X257991Y290924D01*
X257951Y290945D01*
X257908Y290967D01*
X257865Y290991D01*
X257819Y291017D01*
X257813Y291020D01*
X257801Y291027D01*
X257789Y291035D01*
X257777Y291042D01*
X257771Y291045D01*
Y291046D01*
X257765Y291049D01*
X257753Y291056D01*
X257741Y291064D01*
X257729Y291071D01*
X257723Y291075D01*
X257723D01*
X257717Y291079D01*
X257704Y291087D01*
X257691Y291095D01*
X257679Y291103D01*
X257673Y291107D01*
X257665Y291112D01*
X257651Y291121D01*
X257637Y291131D01*
X257624Y291140D01*
X257616Y291145D01*
X257609Y291150D01*
X257593Y291161D01*
X257578Y291172D01*
X257563Y291183D01*
X257555Y291188D01*
Y291188D01*
X257547Y291194D01*
X257530Y291206D01*
X257514Y291219D01*
X257497Y291231D01*
X257489Y291237D01*
X257479Y291245D01*
X257459Y291261D01*
X257439Y291277D01*
X257419Y291293D01*
X257409Y291301D01*
X257395Y291312D01*
X257368Y291335D01*
X257340Y291359D01*
X257313Y291383D01*
X257300Y291395D01*
X257247Y291443D01*
X257146Y291544D01*
X257050Y291650D01*
X256959Y291761D01*
X256916Y291818D01*
X256908Y291829D01*
X256893Y291850D01*
X256877Y291871D01*
X256862Y291893D01*
X256855Y291903D01*
X256849Y291912D01*
X256837Y291930D01*
X256825Y291947D01*
X256813Y291965D01*
X256807Y291974D01*
Y291974D01*
X256802Y291982D01*
X256792Y291998D01*
X256782Y292013D01*
X256773Y292029D01*
X256768Y292037D01*
X256768Y292037D01*
X256763Y292044D01*
X256755Y292058D01*
X256746Y292072D01*
X256738Y292087D01*
X256733Y292094D01*
X256730Y292101D01*
X256722Y292114D01*
X256714Y292128D01*
X256706Y292141D01*
X256702Y292148D01*
X256702Y292148D01*
X256699Y292155D01*
X256692Y292167D01*
X256684Y292180D01*
X256677Y292193D01*
X256674Y292200D01*
X256648Y292249D01*
X256623Y292298D01*
X256601Y292345D01*
X256581Y292388D01*
X256561Y292432D01*
X256542Y292476D01*
X256525Y292517D01*
X256509Y292558D01*
X256493Y292600D01*
X256478Y292642D01*
X256464Y292680D01*
X256451Y292719D01*
X256438Y292758D01*
X256426Y292797D01*
X256414Y292837D01*
X256403Y292873D01*
X256393Y292909D01*
X256383Y292945D01*
X256374Y292982D01*
X256364Y293019D01*
X256356Y293056D01*
X256347Y293093D01*
X256339Y293130D01*
X256331Y293168D01*
X256323Y293206D01*
X256316Y293244D01*
X256310Y293278D01*
X256304Y293312D01*
X256298Y293346D01*
X256293Y293381D01*
X256288Y293415D01*
X256283Y293450D01*
X256278Y293485D01*
X256274Y293520D01*
X256270Y293556D01*
X256266Y293591D01*
X256263Y293627D01*
X256259Y293663D01*
X256256Y293699D01*
X256254Y293735D01*
X256251Y293771D01*
X256249Y293808D01*
X256247Y293844D01*
X256245Y293881D01*
X256244Y293918D01*
X256243Y293955D01*
X256242Y293992D01*
X256241Y294029D01*
X256241Y294067D01*
X256240Y294105D01*
Y300228D01*
X258229D01*
Y290816D01*
D02*
G37*
G36*
X250911Y290673D02*
X248922D01*
Y296848D01*
X250911D01*
X250911Y290673D01*
D02*
G37*
G36*
X274336Y290628D02*
X272269D01*
X276065Y300183D01*
X278184D01*
X274336Y290628D01*
D02*
G37*
%LPC*%
G36*
X260340Y335209D02*
X259163Y333791D01*
X259803Y332061D01*
X261620Y331752D01*
X262797Y333170D01*
X262158Y334899D01*
X260340Y335209D01*
D02*
G37*
%LPD*%
G36*
X261473Y333947D02*
X261741Y333470D01*
X261573Y332947D01*
X260998Y332732D01*
X260473Y332947D01*
X260260Y333476D01*
X260373Y333847D01*
X261004Y334215D01*
X261473Y333947D01*
D02*
G37*
%LPC*%
G36*
X269934Y314461D02*
X269260Y312931D01*
X270591D01*
X269934Y314461D01*
D02*
G37*
G36*
X251157Y315157D02*
X250684Y315036D01*
X250242Y314806D01*
X249891Y314243D01*
X249813Y313711D01*
X249981Y312955D01*
X250473Y312447D01*
X251157Y312255D01*
X251673Y312347D01*
X252073Y312608D01*
X252424Y313176D01*
X252482Y313427D01*
X252424Y314243D01*
X252073Y314847D01*
X251673Y315036D01*
X251157Y315157D01*
D02*
G37*
%LPD*%
D10*
X588603Y317509D02*
G03*
X588603Y317509I-492J0D01*
G01*
X338224Y120540D02*
G03*
X338224Y120540I-492J0D01*
G01*
X722222Y44094D02*
G03*
X722222Y44094I-492J0D01*
G01*
X400734Y271755D02*
G03*
X400734Y271755I-492J0D01*
G01*
X669193Y113976D02*
G03*
X669193Y113976I-492J0D01*
G01*
X675504Y67569D02*
G03*
X675504Y67569I-492J0D01*
G01*
X476108Y267167D02*
G03*
X476108Y267167I-492J0D01*
G01*
X658181Y67372D02*
G03*
X658181Y67372I-492J0D01*
G01*
X615709Y268347D02*
G03*
X615709Y268347I-492J0D01*
G01*
X789272Y40157D02*
G03*
X789272Y40157I-492J0D01*
G01*
X413133Y88629D02*
G03*
X413133Y88629I-492J0D01*
G01*
X353124Y245037D02*
G03*
X353124Y245037I-492J0D01*
G01*
X682413Y225354D02*
G03*
X682413Y225354I-492J0D01*
G01*
X723053Y56982D02*
G03*
X723053Y56982I-492J0D01*
G01*
X709547Y183681D02*
G03*
X709547Y183681I-492J0D01*
G01*
X690650Y131404D02*
G03*
X690650Y131404I-492J0D01*
G01*
X709547Y122138D02*
G03*
X709547Y122138I-492J0D01*
G01*
X812874Y136693D02*
G03*
X812874Y136693I-492J0D01*
G01*
X709547Y89230D02*
G03*
X709547Y89230I-492J0D01*
G01*
X664480Y37647D02*
G03*
X664480Y37647I-492J0D01*
G01*
X658190Y50958D02*
G03*
X658190Y50958I-492J0D01*
G01*
X353124Y304880D02*
G03*
X353124Y304880I-492J0D01*
G01*
X433884Y305632D02*
G03*
X433884Y305632I-492J0D01*
G01*
X476108Y313624D02*
G03*
X476108Y313624I-492J0D01*
G01*
X434179Y330553D02*
G03*
X434179Y330553I-492J0D01*
G01*
X396923Y331455D02*
G03*
X396923Y331455I-492J0D01*
G01*
X487329Y330159D02*
G03*
X487329Y330159I-492J0D01*
G01*
X433884Y245789D02*
G03*
X433884Y245789I-492J0D01*
G01*
X434179Y270711D02*
G03*
X434179Y270711I-492J0D01*
G01*
X487329Y283703D02*
G03*
X487329Y283703I-492J0D01*
G01*
X791362Y196272D02*
G03*
X791362Y196272I-492J0D01*
G01*
X148130Y185256D02*
G03*
X148130Y185256I-492J0D01*
G01*
X272712Y171260D02*
G03*
X272712Y171260I-492J0D01*
G01*
X547167Y307628D02*
G03*
X547167Y307628I-492J0D01*
G01*
X542500Y313197D02*
G03*
X542500Y313197I-492J0D01*
G01*
X775617Y80214D02*
G03*
X775617Y80214I-492J0D01*
G01*
X828820Y109131D02*
G03*
X828820Y109131I-492J0D01*
G01*
X834646Y98031D02*
G03*
X834646Y98031I-492J0D01*
G01*
X520965Y218799D02*
G03*
X520965Y218799I-492J0D01*
G01*
X335433Y64173D02*
G03*
X335433Y64173I-492J0D01*
G01*
X516631Y338188D02*
G03*
X516631Y338188I-492J0D01*
G01*
X499743Y251697D02*
G03*
X499743Y251697I-492J0D01*
G01*
X499848Y302346D02*
G03*
X499848Y302346I-492J0D01*
G01*
X775648Y95537D02*
G03*
X775648Y95537I-492J0D01*
G01*
D11*
X469317Y262640D02*
G03*
X469317Y262640I-591J0D01*
G01*
Y309097D02*
G03*
X469317Y309097I-591J0D01*
G01*
D12*
X270040Y57273D02*
G03*
X266461Y55034I-2127J-580D01*
G01*
X270040Y80895D02*
G03*
X266461Y78656I-2127J-580D01*
G01*
X258465Y50906D02*
Y53031D01*
X265945Y55709D02*
X266634D01*
X266535Y58268D02*
X269291D01*
X265945Y57677D02*
X269882D01*
X272244Y42520D02*
Y46654D01*
X258465Y42520D02*
X272244D01*
Y57284D02*
Y61417D01*
X258465D02*
X272244D01*
X348957Y328799D02*
Y336161D01*
X341595Y328799D02*
X348957D01*
X341595D02*
Y336161D01*
X348957D01*
X338716Y112272D02*
X350921D01*
X338716Y115816D02*
X350921D01*
Y112272D02*
Y115816D01*
X338716Y112272D02*
Y115816D01*
X709131Y48720D02*
Y52067D01*
X720549D01*
Y48720D02*
Y52067D01*
X709131Y48720D02*
X720549D01*
X391974Y259157D02*
X395123D01*
X391974D02*
Y270574D01*
X395123D01*
Y259157D02*
Y270574D01*
X664862Y104528D02*
Y112795D01*
X662697D02*
X664862D01*
X662697Y104528D02*
Y112795D01*
Y104528D02*
X664862D01*
X670780Y54970D02*
Y66388D01*
X668220D02*
X670780D01*
X668220Y54970D02*
Y66388D01*
Y54970D02*
X670780D01*
X471285Y245120D02*
Y265199D01*
X456718Y245120D02*
Y265199D01*
X471285D01*
X456718Y245120D02*
X471285D01*
X642630Y54773D02*
X651488D01*
X642630D02*
Y66584D01*
X651488D01*
Y54773D02*
Y66584D01*
X650701D02*
X651488Y65797D01*
X649913Y66584D02*
X651488Y65010D01*
X649126Y66584D02*
X651488Y64222D01*
X648339Y66584D02*
X651488Y63435D01*
X647551Y66584D02*
X651488Y62647D01*
X611870Y274843D02*
X614035D01*
Y286653D01*
X611870D02*
X614035D01*
X594744D02*
X596909D01*
X594744Y274843D02*
Y286653D01*
Y274843D02*
X596909D01*
X788386Y42717D02*
Y49409D01*
X783268Y42717D02*
Y49409D01*
Y44094D02*
X788386D01*
X783268Y44882D02*
X788386D01*
X783268Y45669D02*
X788386D01*
X661811Y220866D02*
Y224803D01*
X655512Y220866D02*
Y224803D01*
X131572Y31299D02*
Y35630D01*
X263386Y187598D02*
Y193504D01*
X237402Y187598D02*
Y193504D01*
X249803Y197244D02*
X250984D01*
X249803Y183858D02*
X250984D01*
X385082Y67960D02*
X386066D01*
X385082D02*
Y68944D01*
X407720Y67960D02*
X408704D01*
Y68944D01*
X385082Y91582D02*
X386066D01*
X385082Y90598D02*
Y91582D01*
X407720D02*
X407916D01*
X408704Y90795D01*
Y90598D02*
Y90795D01*
X367396Y253896D02*
X368380D01*
Y252911D02*
Y253896D01*
X356569D02*
X357553D01*
X356569Y252911D02*
Y253896D01*
X367396Y242085D02*
X368380D01*
Y243069D01*
X357356Y242085D02*
X357553D01*
X356569Y242872D02*
X357356Y242085D01*
X356569Y242872D02*
Y243069D01*
X674932Y223779D02*
X675523D01*
X674932Y226928D02*
X675523D01*
X236614Y214567D02*
Y216929D01*
X248425Y214567D02*
Y216929D01*
X724234Y48026D02*
X729746D01*
X404718Y111932D02*
X409048D01*
X404718Y105633D02*
X409048D01*
X17028Y42520D02*
X21555D01*
X345604Y97610D02*
Y102137D01*
X693504Y162992D02*
X705709D01*
X693504Y182677D02*
X705709D01*
X693504Y162992D02*
Y182677D01*
X705709Y162992D02*
Y182677D01*
X693504Y152093D02*
X705709D01*
X693504Y132407D02*
X705709D01*
Y152093D01*
X693504Y132407D02*
Y152093D01*
X693504Y101449D02*
X705709D01*
X693504Y121134D02*
X705709D01*
X693504Y101449D02*
Y121134D01*
X705709Y101449D02*
Y121134D01*
X806476Y116220D02*
Y135906D01*
X791910D02*
X806476D01*
X791910Y116220D02*
Y135906D01*
Y116220D02*
X806476D01*
X705709Y68541D02*
Y88226D01*
X693504Y68541D02*
Y88226D01*
X705709D01*
X693504Y68541D02*
X705709D01*
X668614Y50246D02*
X671961D01*
Y38829D02*
Y50246D01*
X668614Y38829D02*
X671961D01*
X668614D02*
Y50246D01*
X647561Y50171D02*
X651498Y46234D01*
X648348Y50171D02*
X651498Y47021D01*
X649135Y50171D02*
X651498Y47808D01*
X649923Y50171D02*
X651498Y48596D01*
X650710Y50171D02*
X651498Y49383D01*
Y38359D02*
Y50171D01*
X642639D02*
X651498D01*
X642639Y38359D02*
Y50171D01*
Y38359D02*
X651498D01*
X252756Y217717D02*
Y221654D01*
X259842Y217717D02*
Y221654D01*
X305217Y79921D02*
X309744D01*
X205512Y226083D02*
Y230610D01*
X263878Y222047D02*
X268406D01*
X205906Y214567D02*
X209842D01*
X205906Y221654D02*
X209842D01*
X367396Y313738D02*
X368380D01*
Y312754D02*
Y313738D01*
X356569D02*
X357553D01*
X356569Y312754D02*
Y313738D01*
X367396Y301927D02*
X368380D01*
Y302911D01*
X357356Y301927D02*
X357553D01*
X356569Y302714D02*
X357356Y301927D01*
X356569Y302714D02*
Y302911D01*
X425419Y293034D02*
X428766D01*
X425419D02*
Y304451D01*
X428766D01*
Y293034D02*
Y304451D01*
X456718Y291577D02*
X471285D01*
X456718Y311656D02*
X471285D01*
X456718Y291577D02*
Y311656D01*
X471285Y291577D02*
Y311656D01*
X428569Y317955D02*
Y329372D01*
X425419D02*
X428569D01*
X425419Y317955D02*
Y329372D01*
Y317955D02*
X428569D01*
X391313Y318856D02*
Y330274D01*
X388163D02*
X391313D01*
X388163Y318856D02*
Y330274D01*
Y318856D02*
X391313D01*
X478864Y317561D02*
X482211D01*
X478864D02*
Y328978D01*
X482211D01*
Y317561D02*
Y328978D01*
X663779Y184252D02*
Y188189D01*
X670079Y184252D02*
Y188189D01*
X428766Y233191D02*
Y244608D01*
X425419D02*
X428766D01*
X425419Y233191D02*
Y244608D01*
Y233191D02*
X428766D01*
X428569Y258112D02*
Y269530D01*
X425419D02*
X428569D01*
X425419Y258112D02*
Y269530D01*
Y258112D02*
X428569D01*
X478864Y271104D02*
X482211D01*
X478864D02*
Y282522D01*
X482211D01*
Y271104D02*
Y282522D01*
X791874Y192926D02*
X811559D01*
X791874Y180721D02*
X811559D01*
X791874D02*
Y192926D01*
X811559Y180721D02*
Y192926D01*
X132087Y164567D02*
X144291D01*
X132087Y184252D02*
X144291D01*
X132087Y164567D02*
Y184252D01*
X144291Y164567D02*
Y184252D01*
X292909Y155709D02*
Y167913D01*
X273224Y155709D02*
Y167913D01*
Y155709D02*
X292909D01*
X273224Y167913D02*
X292909D01*
X179331Y183858D02*
X180512D01*
X179331Y197244D02*
X180512D01*
X166929Y187598D02*
Y193504D01*
X192913Y187598D02*
Y193504D01*
X131693Y151575D02*
X136024D01*
X141142D02*
X145472D01*
X305901Y154527D02*
Y158858D01*
Y163976D02*
Y168307D01*
X581418Y300979D02*
Y308341D01*
X574056D02*
X581418D01*
X574056Y300979D02*
Y308341D01*
Y300979D02*
X581418D01*
X792362Y112815D02*
X799724D01*
Y105453D02*
Y112815D01*
X792362Y105453D02*
X799724D01*
X792362D02*
Y112815D01*
X798287Y101713D02*
X805650D01*
Y94350D02*
Y101713D01*
X798287Y94350D02*
X805650D01*
X798287D02*
Y101713D01*
X516791Y182933D02*
Y190295D01*
X524154D01*
Y182933D02*
Y190295D01*
X516791Y182933D02*
X524154D01*
X523484Y341167D02*
X530847D01*
X523484Y333805D02*
Y341167D01*
Y333805D02*
X530847D01*
Y341167D01*
X754738Y74685D02*
Y82048D01*
X747376Y74685D02*
X754738D01*
X747376D02*
Y82048D01*
X754738D01*
X782539Y94350D02*
Y101713D01*
X789902D01*
Y94350D02*
Y101713D01*
X782539Y94350D02*
X789902D01*
X782539Y82933D02*
Y90295D01*
X789902D01*
Y82933D02*
Y90295D01*
X782539Y82933D02*
X789902D01*
X553072Y309203D02*
X553663D01*
X553072Y306054D02*
X553663D01*
X540433Y319595D02*
Y320185D01*
X543583Y319595D02*
Y320185D01*
X768137Y78639D02*
X768727D01*
X768137Y81789D02*
X768727D01*
X821340Y110706D02*
X821930D01*
X821340Y107556D02*
X821930D01*
X827165Y99606D02*
X827756D01*
X827165Y96457D02*
X827756D01*
X522047Y211811D02*
Y212402D01*
X518898Y211811D02*
Y212402D01*
X338504Y268979D02*
X345866D01*
Y261617D02*
Y268979D01*
X338504Y261617D02*
X345866D01*
X338504D02*
Y268979D01*
X649412Y76230D02*
X654924D01*
X649412Y67962D02*
X654924D01*
X348425Y80118D02*
Y84449D01*
X342126Y80118D02*
Y84449D01*
X814373Y169107D02*
X818704D01*
X814373Y162808D02*
X818704D01*
X331004Y66142D02*
Y66339D01*
X330217Y67126D02*
X331004Y66339D01*
X330020Y67126D02*
X330217D01*
X307382Y66142D02*
Y67126D01*
X308366D01*
X331004Y43504D02*
Y44488D01*
X330020Y43504D02*
X331004D01*
X307382D02*
Y44488D01*
Y43504D02*
X308366D01*
X181881Y224583D02*
X184243D01*
X181881Y212772D02*
X184243D01*
X164049Y31299D02*
Y35630D01*
X178347Y31299D02*
Y35630D01*
X145735Y31299D02*
Y35630D01*
X380413Y108268D02*
X384941D01*
X514564Y344585D02*
Y345176D01*
X517714Y344585D02*
Y345176D01*
X505648Y253272D02*
X506239D01*
X505648Y250122D02*
X506239D01*
X505754Y303921D02*
X506344D01*
X505754Y300772D02*
X506344D01*
X773581Y101935D02*
Y102525D01*
X776731Y101935D02*
Y102525D01*
X660492Y87539D02*
X667854D01*
X660492Y80177D02*
Y87539D01*
Y80177D02*
X667854D01*
Y87539D01*
X508032Y267516D02*
Y274878D01*
X500670D02*
X508032D01*
X500670Y267516D02*
Y274878D01*
Y267516D02*
X508032D01*
X503248Y319392D02*
Y326754D01*
X495886D02*
X503248D01*
X495886Y319392D02*
Y326754D01*
Y319392D02*
X503248D01*
X225121Y160098D02*
Y167461D01*
X217758D02*
X225121D01*
X217758Y160098D02*
Y167461D01*
Y160098D02*
X225121D01*
X635303Y294387D02*
X642665D01*
X635303D02*
Y301749D01*
X642665D01*
Y294387D02*
Y301749D01*
X794319Y83052D02*
X801682D01*
X794319D02*
Y90414D01*
X801682D01*
Y83052D02*
Y90414D01*
X271886Y97278D02*
X279248D01*
X271886D02*
Y104640D01*
X279248D01*
Y97278D02*
Y104640D01*
X320982Y149862D02*
X328344D01*
X320982D02*
Y157224D01*
X328344D01*
Y149862D02*
Y157224D01*
X554174Y85236D02*
X561536D01*
X554174D02*
Y92598D01*
X561536D01*
Y85236D02*
Y92598D01*
X660492Y88839D02*
X667854D01*
X660492D02*
Y96201D01*
X667854D01*
Y88839D02*
Y96201D01*
X280580Y65948D02*
X287943D01*
X280580D02*
Y73310D01*
X287943D01*
Y65948D02*
Y73310D01*
X461142Y274556D02*
X468504D01*
X461142D02*
Y281919D01*
X468504D01*
Y274556D02*
Y281919D01*
X276886Y48681D02*
X284248D01*
X276886D02*
Y56043D01*
X284248D01*
Y48681D02*
Y56043D01*
X382561Y128887D02*
Y136249D01*
X389923D01*
Y128887D02*
Y136249D01*
X382561Y128887D02*
X389923D01*
X394657D02*
Y136249D01*
X402019D01*
Y128887D02*
Y136249D01*
X394657Y128887D02*
X402019D01*
X355374Y72303D02*
X362736D01*
X355374D02*
Y79665D01*
X362736D01*
Y72303D02*
Y79665D01*
X355374Y60886D02*
X362736D01*
X355374D02*
Y68248D01*
X362736D01*
Y60886D02*
Y68248D01*
X258465Y74528D02*
Y76653D01*
X265945Y79331D02*
X266634D01*
X266535Y81890D02*
X269291D01*
X265945Y81299D02*
X269882D01*
X272244Y66142D02*
Y70276D01*
X258465Y66142D02*
X272244D01*
Y80905D02*
Y85039D01*
X258465D02*
X272244D01*
X16379Y350792D02*
X20906D01*
X508268Y273112D02*
X509806D01*
X459055Y282522D02*
X461811D01*
X459055D02*
Y283858D01*
X824606Y90295D02*
Y94969D01*
X363130Y64173D02*
X364567D01*
X352362Y75472D02*
X353543D01*
X352362Y49606D02*
Y75472D01*
Y49606D02*
X353543D01*
X364567Y59008D02*
Y64173D01*
X802697Y81890D02*
X803682Y80905D01*
X829408D01*
X821930Y112815D02*
Y114567D01*
X790870D02*
X821930D01*
X525787Y186614D02*
X527249D01*
X524016Y212402D02*
X527249D01*
Y181496D02*
Y212402D01*
Y181496D02*
X527559D01*
X553663Y302346D02*
Y303937D01*
Y302346D02*
X572848D01*
X569424D02*
X572848D01*
X569424Y297899D02*
Y302346D01*
Y297899D02*
Y302346D01*
X433884Y279528D02*
X435689D01*
X512992Y238311D02*
X514548D01*
X514564Y238327D01*
Y251026D01*
X510275Y255315D02*
X514564Y251026D01*
X512992Y302362D02*
X514548D01*
X514564Y302346D01*
Y314101D01*
X513138Y315527D02*
X514564Y314101D01*
X508268Y315527D02*
X513138D01*
X499848D02*
Y317509D01*
Y315527D02*
X508268D01*
Y317323D01*
X536057Y317973D02*
X538566D01*
X535433Y318597D02*
X536057Y317973D01*
X535433Y318597D02*
Y320185D01*
X529868Y327022D02*
X532140D01*
X527165Y329725D02*
X529868Y327022D01*
X527165Y329725D02*
Y331890D01*
X273622Y45669D02*
X275197D01*
X276886Y47244D01*
X275197Y68248D02*
X279134D01*
X275197D02*
X278346D01*
Y86614D01*
X275197Y41732D02*
Y45669D01*
X368248Y91929D02*
X369704D01*
Y107087D01*
X359449Y103543D02*
X360886D01*
X359449D02*
Y107087D01*
X769685Y109843D02*
X770149Y109378D01*
X775156Y108858D02*
Y109378D01*
X787008Y108858D02*
X790945D01*
X787008D02*
Y111458D01*
X770149Y109378D02*
X775156D01*
X750787Y72441D02*
Y73622D01*
Y72441D02*
X764961D01*
X779134Y86862D02*
X781025D01*
X779134Y97874D02*
X781025D01*
X779134Y77030D02*
Y97874D01*
X805512Y90596D02*
X806878Y89230D01*
X805512Y90596D02*
Y92913D01*
X861811Y79134D02*
Y83070D01*
X859843D01*
X859187Y82414D01*
Y81102D01*
X859843Y80446D01*
X861811D01*
X855252Y82414D02*
X855907Y83070D01*
X857219D01*
X857875Y82414D01*
Y81758D01*
X857219Y81102D01*
X855907D01*
X855252Y80446D01*
Y79790D01*
X855907Y79134D01*
X857219D01*
X857875Y79790D01*
X848036Y83070D02*
X849348D01*
X850004Y82414D01*
Y79790D01*
X849348Y79134D01*
X848036D01*
X847380Y79790D01*
Y82414D01*
X848036Y83070D01*
X846068Y79134D02*
Y83070D01*
X843444Y79134D01*
Y83070D01*
X838197D02*
Y79134D01*
X836229D01*
X835573Y79790D01*
Y80446D01*
X836229Y81102D01*
X838197D01*
X836229D01*
X835573Y81758D01*
Y82414D01*
X836229Y83070D01*
X838197D01*
X834261Y79134D02*
Y83070D01*
X832293D01*
X831637Y82414D01*
Y81102D01*
X832293Y80446D01*
X834261D01*
X350630Y147636D02*
X349318D01*
X349974D01*
Y143701D01*
X350630D01*
X349318D01*
X344726Y146981D02*
X345382Y147636D01*
X346694D01*
X347350Y146981D01*
Y146325D01*
X346694Y145669D01*
X345382D01*
X344726Y145013D01*
Y144357D01*
X345382Y143701D01*
X346694D01*
X347350Y144357D01*
X340791Y147636D02*
X343414D01*
Y143701D01*
X340791D01*
X343414Y145669D02*
X342103D01*
X339479Y143701D02*
Y147636D01*
X336855Y143701D01*
Y147636D01*
X332919Y146981D02*
X333575Y147636D01*
X334887D01*
X335543Y146981D01*
Y146325D01*
X334887Y145669D01*
X333575D01*
X332919Y145013D01*
Y144357D01*
X333575Y143701D01*
X334887D01*
X335543Y144357D01*
X328983Y147636D02*
X331607D01*
Y143701D01*
X328983D01*
X331607Y145669D02*
X330295D01*
X323736Y143701D02*
Y147636D01*
X321112Y143701D01*
Y147636D01*
X279793Y40156D02*
Y37532D01*
X278481Y36220D01*
X277169Y37532D01*
Y40156D01*
X275857D02*
Y36220D01*
X273889D01*
X273234Y36876D01*
Y37532D01*
X273889Y38188D01*
X275857D01*
X273889D01*
X273234Y38844D01*
Y39500D01*
X273889Y40156D01*
X275857D01*
X271922D02*
X270610D01*
X271266D01*
Y36220D01*
X271922D01*
X270610D01*
X268642D02*
Y38844D01*
X267330Y40156D01*
X266018Y38844D01*
Y36220D01*
Y38188D01*
X268642D01*
X260770Y36220D02*
Y40156D01*
X258803D01*
X258147Y39500D01*
Y38188D01*
X258803Y37532D01*
X260770D01*
X252899Y40156D02*
Y36220D01*
X250931D01*
X250275Y36876D01*
Y39500D01*
X250931Y40156D01*
X252899D01*
X248963Y36220D02*
Y38844D01*
X247651Y40156D01*
X246339Y38844D01*
Y36220D01*
Y38188D01*
X248963D01*
X242404Y39500D02*
X243059Y40156D01*
X244372D01*
X245027Y39500D01*
Y36876D01*
X244372Y36220D01*
X243059D01*
X242404Y36876D01*
X580631Y291968D02*
Y295904D01*
X578663D01*
X578007Y295248D01*
Y293936D01*
X578663Y293280D01*
X580631D01*
X574071Y295904D02*
X576695D01*
Y293936D01*
X575383Y294592D01*
X574727D01*
X574071Y293936D01*
Y292624D01*
X574727Y291968D01*
X576039D01*
X576695Y292624D01*
X572759Y295904D02*
Y293280D01*
X571447Y291968D01*
X570135Y293280D01*
Y295904D01*
X566200D02*
X568823D01*
Y293936D01*
X567512Y294592D01*
X566856D01*
X566200Y293936D01*
Y292624D01*
X566856Y291968D01*
X568167D01*
X568823Y292624D01*
X535433Y176509D02*
Y180445D01*
X533465D01*
X532809Y179788D01*
Y178477D01*
X533465Y177821D01*
X535433D01*
X531497Y179788D02*
X530841Y180445D01*
X529529D01*
X528873Y179788D01*
Y179133D01*
X529529Y178477D01*
X530185D01*
X529529D01*
X528873Y177821D01*
Y177165D01*
X529529Y176509D01*
X530841D01*
X531497Y177165D01*
X527562Y180445D02*
Y177821D01*
X526250Y176509D01*
X524938Y177821D01*
Y180445D01*
X523626Y179788D02*
X522970Y180445D01*
X521658D01*
X521002Y179788D01*
Y179133D01*
X521658Y178477D01*
X522314D01*
X521658D01*
X521002Y177821D01*
Y177165D01*
X521658Y176509D01*
X522970D01*
X523626Y177165D01*
X519690Y176509D02*
Y179133D01*
X518378Y180445D01*
X517066Y179133D01*
Y176509D01*
Y178477D01*
X519690D01*
X371259Y107874D02*
X367323D01*
Y109842D01*
X367979Y110498D01*
X370603D01*
X371259Y109842D01*
Y107874D01*
Y114434D02*
Y111810D01*
X367323D01*
Y114434D01*
X369291Y111810D02*
Y113122D01*
X371259Y115745D02*
Y118369D01*
Y117057D01*
X367323D01*
Y123617D02*
X371259D01*
Y125585D01*
X370603Y126241D01*
X369291D01*
X368635Y125585D01*
Y123617D01*
Y124929D02*
X367323Y126241D01*
Y127553D02*
X371259D01*
X369947Y128865D01*
X371259Y130177D01*
X367323D01*
X370603Y134112D02*
X371259Y133456D01*
Y132144D01*
X370603Y131489D01*
X369947D01*
X369291Y132144D01*
Y133456D01*
X368635Y134112D01*
X367979D01*
X367323Y133456D01*
Y132144D01*
X367979Y131489D01*
X367323Y139360D02*
X371259D01*
Y141328D01*
X370603Y141984D01*
X369291D01*
X368635Y141328D01*
Y139360D01*
Y140672D02*
X367323Y141984D01*
X371259Y145920D02*
Y143296D01*
X367323D01*
Y145920D01*
X369291Y143296D02*
Y144608D01*
X371259Y147231D02*
X368635D01*
X367323Y148543D01*
X368635Y149855D01*
X371259D01*
X531360Y275038D02*
X533984D01*
Y273070D01*
X532672D01*
X533984D01*
Y271102D01*
X530048Y275038D02*
Y271102D01*
X528736Y272414D01*
X527425Y271102D01*
Y275038D01*
X526113D02*
Y271102D01*
X524145D01*
X523489Y271758D01*
Y274382D01*
X524145Y275038D01*
X526113D01*
X516273D02*
X517585D01*
X518241Y274382D01*
Y271758D01*
X517585Y271102D01*
X516273D01*
X515617Y271758D01*
Y274382D01*
X516273Y275038D01*
X514305Y271102D02*
Y275038D01*
X512338D01*
X511682Y274382D01*
Y273070D01*
X512338Y272414D01*
X514305D01*
X657874Y94881D02*
Y90945D01*
X655906D01*
X655250Y91601D01*
Y94225D01*
X655906Y94881D01*
X657874D01*
X651314D02*
X653938D01*
Y90945D01*
X651314D01*
X653938Y92913D02*
X652626D01*
X650002Y94881D02*
X647379D01*
X648691D01*
Y90945D01*
X642131D02*
Y94881D01*
X640163D01*
X639507Y94225D01*
Y92913D01*
X640163Y92257D01*
X642131D01*
X640819D02*
X639507Y90945D01*
X635571Y94225D02*
X636228Y94881D01*
X637539D01*
X638195Y94225D01*
Y93569D01*
X637539Y92913D01*
X636228D01*
X635571Y92257D01*
Y91601D01*
X636228Y90945D01*
X637539D01*
X638195Y91601D01*
X634260Y94881D02*
X631636D01*
X632948D01*
Y90945D01*
X461199Y285527D02*
Y289463D01*
X459232D01*
X458576Y288807D01*
Y287495D01*
X459232Y286839D01*
X461199D01*
X459888D02*
X458576Y285527D01*
X454640Y289463D02*
X457264D01*
Y287495D01*
X455952D01*
X457264D01*
Y285527D01*
X447424Y289463D02*
X448736D01*
X449392Y288807D01*
Y286183D01*
X448736Y285527D01*
X447424D01*
X446768Y286183D01*
Y288807D01*
X447424Y289463D01*
X442833D02*
X445457D01*
Y287495D01*
X444144D01*
X445457D01*
Y285527D01*
X438897Y289463D02*
X441521D01*
Y287495D01*
X440209D01*
X441521D01*
Y285527D01*
X545801Y94013D02*
X548425D01*
Y92045D01*
X547113D01*
X548425D01*
Y90077D01*
X544489Y94013D02*
X543178D01*
X543833D01*
Y90077D01*
X544489D01*
X543178D01*
X541210D02*
Y94013D01*
X538586Y90077D01*
Y94013D01*
X534650D02*
X537274D01*
Y90077D01*
X534650D01*
X537274Y92045D02*
X535962D01*
X548425Y87400D02*
X545801D01*
X547113D01*
Y83465D01*
X544489Y87400D02*
Y84121D01*
X543833Y83465D01*
X542522D01*
X541866Y84121D01*
Y87400D01*
X540554Y83465D02*
Y87400D01*
X537930Y83465D01*
Y87400D01*
X533994D02*
X536618D01*
Y83465D01*
X533994D01*
X536618Y85432D02*
X535306D01*
X381496Y53543D02*
Y57479D01*
X379528D01*
X378872Y56823D01*
Y55511D01*
X379528Y54855D01*
X381496D01*
X380184D02*
X378872Y53543D01*
X374937Y57479D02*
X377560D01*
Y53543D01*
X374937D01*
X377560Y55511D02*
X376248D01*
X373625Y57479D02*
Y54855D01*
X372313Y53543D01*
X371001Y54855D01*
Y57479D01*
X365753D02*
X363129D01*
X364441D01*
Y53543D01*
X361817D02*
Y57479D01*
X359850D01*
X359193Y56823D01*
Y55511D01*
X359850Y54855D01*
X361817D01*
X360506D02*
X359193Y53543D01*
X357882Y57479D02*
Y53543D01*
Y55511D01*
X355258D01*
Y57479D01*
Y53543D01*
X279921Y91731D02*
Y89107D01*
X278609Y87795D01*
X277297Y89107D01*
Y91731D01*
X275986D02*
Y87795D01*
X274018D01*
X273362Y88451D01*
Y89107D01*
X274018Y89763D01*
X275986D01*
X274018D01*
X273362Y90419D01*
Y91075D01*
X274018Y91731D01*
X275986D01*
X272050D02*
X270738D01*
X271394D01*
Y87795D01*
X272050D01*
X270738D01*
X268770D02*
Y90419D01*
X267458Y91731D01*
X266146Y90419D01*
Y87795D01*
Y89763D01*
X268770D01*
X260898Y87795D02*
Y91731D01*
X258931D01*
X258275Y91075D01*
Y89763D01*
X258931Y89107D01*
X260898D01*
X253027Y91731D02*
Y87795D01*
X251059D01*
X250403Y88451D01*
Y91075D01*
X251059Y91731D01*
X253027D01*
X249091Y87795D02*
Y90419D01*
X247779Y91731D01*
X246467Y90419D01*
Y87795D01*
Y89763D01*
X249091D01*
X242532Y91075D02*
X243188Y91731D01*
X244500D01*
X245156Y91075D01*
Y88451D01*
X244500Y87795D01*
X243188D01*
X242532Y88451D01*
X777953Y72376D02*
X777297Y73032D01*
Y74344D01*
X777953Y75000D01*
X780577D01*
X781233Y74344D01*
Y73032D01*
X780577Y72376D01*
X779265D01*
Y73688D01*
X781233Y71064D02*
X777297D01*
X781233Y68440D01*
X777297D01*
Y67128D02*
X781233D01*
Y65161D01*
X780577Y64505D01*
X777953D01*
X777297Y65161D01*
Y67128D01*
X772166Y128740D02*
X768230D01*
Y126772D01*
X768886Y126116D01*
X770198D01*
X770854Y126772D01*
Y128740D01*
X772166Y124804D02*
Y123493D01*
Y124148D01*
X768230D01*
X768886Y124804D01*
X772166Y118901D02*
Y121525D01*
X769542Y118901D01*
X768886D01*
X768230Y119557D01*
Y120869D01*
X768886Y121525D01*
X768230Y117589D02*
X770854D01*
X772166Y116277D01*
X770854Y114965D01*
X768230D01*
X768886Y113653D02*
X768230Y112997D01*
Y111685D01*
X768886Y111029D01*
X771510D01*
X772166Y111685D01*
Y112997D01*
X771510Y113653D01*
X768886D01*
X789114Y111493D02*
Y115429D01*
X787146D01*
X786490Y114773D01*
Y113461D01*
X787146Y112805D01*
X789114D01*
X785178Y114773D02*
X784522Y115429D01*
X783211D01*
X782555Y114773D01*
Y114117D01*
X783211Y113461D01*
X783867D01*
X783211D01*
X782555Y112805D01*
Y112149D01*
X783211Y111493D01*
X784522D01*
X785178Y112149D01*
X781243Y115429D02*
Y112805D01*
X779931Y111493D01*
X778619Y112805D01*
Y115429D01*
X777307Y114773D02*
X776651Y115429D01*
X775339D01*
X774683Y114773D01*
Y114117D01*
X775339Y113461D01*
X775995D01*
X775339D01*
X774683Y112805D01*
Y112149D01*
X775339Y111493D01*
X776651D01*
X777307Y112149D01*
X270079Y104723D02*
X268767D01*
X269423D01*
Y100787D01*
X270079D01*
X268767D01*
X264175Y104067D02*
X264831Y104723D01*
X266143D01*
X266799Y104067D01*
Y103411D01*
X266143Y102755D01*
X264831D01*
X264175Y102099D01*
Y101443D01*
X264831Y100787D01*
X266143D01*
X266799Y101443D01*
X260239Y104723D02*
X262863D01*
Y100787D01*
X260239D01*
X262863Y102755D02*
X261551D01*
X258927Y100787D02*
Y104723D01*
X256304Y100787D01*
Y104723D01*
X252368Y104067D02*
X253024Y104723D01*
X254336D01*
X254992Y104067D01*
Y103411D01*
X254336Y102755D01*
X253024D01*
X252368Y102099D01*
Y101443D01*
X253024Y100787D01*
X254336D01*
X254992Y101443D01*
X248432Y104723D02*
X251056D01*
Y100787D01*
X248432D01*
X251056Y102755D02*
X249744D01*
X243184Y100787D02*
Y104723D01*
X241217D01*
X240561Y104067D01*
Y102755D01*
X241217Y102099D01*
X243184D01*
X428191Y281889D02*
X430815D01*
Y279921D01*
X429503D01*
X430815D01*
Y277953D01*
X426879Y281889D02*
Y277953D01*
X425567Y279265D01*
X424255Y277953D01*
Y281889D01*
X422943D02*
Y277953D01*
X420976D01*
X420320Y278609D01*
Y281233D01*
X420976Y281889D01*
X422943D01*
X415072Y277953D02*
Y281889D01*
X413104D01*
X412448Y281233D01*
Y279921D01*
X413104Y279265D01*
X415072D01*
X413760D02*
X412448Y277953D01*
X411136D02*
Y281889D01*
X409824Y280577D01*
X408512Y281889D01*
Y277953D01*
X404577Y281233D02*
X405233Y281889D01*
X406545D01*
X407200Y281233D01*
Y280577D01*
X406545Y279921D01*
X405233D01*
X404577Y279265D01*
Y278609D01*
X405233Y277953D01*
X406545D01*
X407200Y278609D01*
X399329Y277953D02*
Y281889D01*
X397361D01*
X396705Y281233D01*
Y279921D01*
X397361Y279265D01*
X399329D01*
X395393Y281889D02*
Y277953D01*
X394081Y279265D01*
X392770Y277953D01*
Y281889D01*
X537779Y338583D02*
X533843D01*
Y336615D01*
X534499Y335959D01*
X535811D01*
X536467Y336615D01*
Y338583D01*
X533843Y332023D02*
Y334647D01*
X535811D01*
X535155Y333335D01*
Y332679D01*
X535811Y332023D01*
X537123D01*
X537779Y332679D01*
Y333991D01*
X537123Y334647D01*
X533843Y330711D02*
X536467D01*
X537779Y329399D01*
X536467Y328087D01*
X533843D01*
X534499Y326776D02*
X533843Y326119D01*
Y324808D01*
X534499Y324152D01*
X537123D01*
X537779Y324808D01*
Y326119D01*
X537123Y326776D01*
X534499D01*
X656299Y303430D02*
Y307366D01*
X654331D01*
X653675Y306710D01*
Y305398D01*
X654331Y304742D01*
X656299D01*
X654987D02*
X653675Y303430D01*
X649740Y307366D02*
X652363D01*
Y305398D01*
X651052D01*
X652363D01*
Y303430D01*
X644492Y307366D02*
Y303430D01*
X642524D01*
X641868Y304086D01*
Y306710D01*
X642524Y307366D01*
X644492D01*
X640556D02*
X639244D01*
X639900D01*
Y303430D01*
X640556D01*
X639244D01*
X634653Y306710D02*
X635309Y307366D01*
X636621D01*
X637277Y306710D01*
Y306054D01*
X636621Y305398D01*
X635309D01*
X634653Y304742D01*
Y304086D01*
X635309Y303430D01*
X636621D01*
X637277Y304086D01*
X510291Y340748D02*
X506355D01*
Y338780D01*
X507011Y338124D01*
X508323D01*
X508979Y338780D01*
Y340748D01*
Y339436D02*
X510291Y338124D01*
X506355Y334188D02*
Y336812D01*
X510291D01*
Y334188D01*
X508323Y336812D02*
Y335500D01*
X506355Y332876D02*
X508979D01*
X510291Y331565D01*
X508979Y330253D01*
X506355D01*
Y323037D02*
Y324349D01*
X507011Y325005D01*
X509635D01*
X510291Y324349D01*
Y323037D01*
X509635Y322381D01*
X507011D01*
X506355Y323037D01*
X510291Y321069D02*
X506355D01*
Y319101D01*
X507011Y318445D01*
X508323D01*
X508979Y319101D01*
Y321069D01*
X828620Y84252D02*
Y88188D01*
X826652D01*
X825996Y87532D01*
Y86220D01*
X826652Y85564D01*
X828620D01*
X824685Y87532D02*
X824029Y88188D01*
X822717D01*
X822061Y87532D01*
Y86876D01*
X822717Y86220D01*
X823373D01*
X822717D01*
X822061Y85564D01*
Y84908D01*
X822717Y84252D01*
X824029D01*
X824685Y84908D01*
X820749Y88188D02*
Y85564D01*
X819437Y84252D01*
X818125Y85564D01*
Y88188D01*
X816813Y87532D02*
X816157Y88188D01*
X814845D01*
X814189Y87532D01*
Y86876D01*
X814845Y86220D01*
X815501D01*
X814845D01*
X814189Y85564D01*
Y84908D01*
X814845Y84252D01*
X816157D01*
X816813Y84908D01*
X812877Y84252D02*
Y88188D01*
X811565Y86876D01*
X810254Y88188D01*
Y84252D01*
X808942D02*
Y88188D01*
X806974D01*
X806318Y87532D01*
Y86220D01*
X806974Y85564D01*
X808942D01*
X685627Y229705D02*
Y233641D01*
X683659D01*
X683003Y232985D01*
Y231673D01*
X683659Y231017D01*
X685627D01*
X679723Y229705D02*
Y233641D01*
X681691Y231673D01*
X679067D01*
X677755Y232985D02*
X677099Y233641D01*
X675787D01*
X675131Y232985D01*
Y232329D01*
X675787Y231673D01*
X675131Y231017D01*
Y230361D01*
X675787Y229705D01*
X677099D01*
X677755Y230361D01*
Y231017D01*
X677099Y231673D01*
X677755Y232329D01*
Y232985D01*
X677099Y231673D02*
X675787D01*
X673819Y233641D02*
Y231017D01*
X672507Y229705D01*
X671196Y231017D01*
Y233641D01*
X669884Y232985D02*
X669228Y233641D01*
X667916D01*
X667260Y232985D01*
Y230361D01*
X667916Y229705D01*
X669228D01*
X669884Y230361D01*
Y232985D01*
X770079Y73898D02*
X766143D01*
Y71930D01*
X766799Y71274D01*
X768111D01*
X768767Y71930D01*
Y73898D01*
X770079Y69962D02*
Y68650D01*
Y69306D01*
X766143D01*
X766799Y69962D01*
X770079Y64059D02*
Y66682D01*
X767455Y64059D01*
X766799D01*
X766143Y64715D01*
Y66027D01*
X766799Y66682D01*
X766143Y62747D02*
X768767D01*
X770079Y61435D01*
X768767Y60123D01*
X766143D01*
X766799Y58811D02*
X766143Y58155D01*
Y56843D01*
X766799Y56187D01*
X769423D01*
X770079Y56843D01*
Y58155D01*
X769423Y58811D01*
X766799D01*
Y52251D02*
X766143Y52907D01*
Y54219D01*
X766799Y54875D01*
X767455D01*
X768111Y54219D01*
Y52907D01*
X768767Y52251D01*
X769423D01*
X770079Y52907D01*
Y54219D01*
X769423Y54875D01*
X766143Y50940D02*
X770079D01*
X768767Y49628D01*
X770079Y48316D01*
X766143D01*
X245669Y161811D02*
Y165747D01*
X243701D01*
X243045Y165091D01*
Y163779D01*
X243701Y163123D01*
X245669D01*
X239766Y161811D02*
Y165747D01*
X241734Y163779D01*
X239110D01*
X237798Y165091D02*
X237142Y165747D01*
X235830D01*
X235174Y165091D01*
Y164435D01*
X235830Y163779D01*
X235174Y163123D01*
Y162467D01*
X235830Y161811D01*
X237142D01*
X237798Y162467D01*
Y163123D01*
X237142Y163779D01*
X237798Y164435D01*
Y165091D01*
X237142Y163779D02*
X235830D01*
X233862Y165747D02*
Y163123D01*
X232550Y161811D01*
X231238Y163123D01*
Y165747D01*
X229926Y165091D02*
X229270Y165747D01*
X227958D01*
X227303Y165091D01*
Y162467D01*
X227958Y161811D01*
X229270D01*
X229926Y162467D01*
Y165091D01*
X364172Y107874D02*
X360236D01*
Y109842D01*
X360892Y110498D01*
X363516D01*
X364172Y109842D01*
Y107874D01*
Y114434D02*
Y111810D01*
X360236D01*
Y114434D01*
X362204Y111810D02*
Y113122D01*
X364172Y115745D02*
Y118369D01*
Y117057D01*
X360236D01*
Y123617D02*
X364172D01*
Y125585D01*
X363516Y126241D01*
X362204D01*
X361548Y125585D01*
Y123617D01*
Y124929D02*
X360236Y126241D01*
Y127553D02*
X364172D01*
X362860Y128865D01*
X364172Y130177D01*
X360236D01*
X363516Y134112D02*
X364172Y133456D01*
Y132144D01*
X363516Y131489D01*
X362860D01*
X362204Y132144D01*
Y133456D01*
X361548Y134112D01*
X360892D01*
X360236Y133456D01*
Y132144D01*
X360892Y131489D01*
X364172Y141984D02*
Y139360D01*
X362204D01*
Y140672D01*
Y139360D01*
X360236D01*
X364172Y143296D02*
X360236D01*
X361548Y144608D01*
X360236Y145920D01*
X364172D01*
Y147231D02*
X360236D01*
Y149199D01*
X360892Y149855D01*
X363516D01*
X364172Y149199D01*
Y147231D01*
X378872Y51180D02*
X381496D01*
Y49212D01*
X380184D01*
X381496D01*
Y47244D01*
X377560Y51180D02*
Y47244D01*
X376248Y48556D01*
X374937Y47244D01*
Y51180D01*
X373625D02*
Y47244D01*
X371657D01*
X371001Y47900D01*
Y50524D01*
X371657Y51180D01*
X373625D01*
X365753D02*
X363129D01*
X364441D01*
Y47244D01*
X361817D02*
Y51180D01*
X359850D01*
X359193Y50524D01*
Y49212D01*
X359850Y48556D01*
X361817D01*
X360506D02*
X359193Y47244D01*
X357882Y51180D02*
Y47244D01*
Y49212D01*
X355258D01*
Y51180D01*
Y47244D01*
X658088Y83379D02*
Y87314D01*
X656121D01*
X655465Y86659D01*
Y85347D01*
X656121Y84691D01*
X658088D01*
X656777D02*
X655465Y83379D01*
X651529Y87314D02*
X654153D01*
Y85347D01*
X652841D01*
X654153D01*
Y83379D01*
X646281Y87314D02*
Y83379D01*
X644313D01*
X643657Y84035D01*
Y86659D01*
X644313Y87314D01*
X646281D01*
X642346D02*
X641034D01*
X641690D01*
Y83379D01*
X642346D01*
X641034D01*
X636442Y86659D02*
X637098Y87314D01*
X638410D01*
X639066Y86659D01*
Y86003D01*
X638410Y85347D01*
X637098D01*
X636442Y84691D01*
Y84035D01*
X637098Y83379D01*
X638410D01*
X639066Y84035D01*
D13*
X803524Y131968D02*
G03*
X803524Y131968I-984J0D01*
G01*
D15*
X249180Y315361D02*
G03*
X248789Y314646I1790J-1443D01*
G01*
X248743Y312930D02*
G03*
X249036Y312259I2334J621D01*
G01*
X248644Y313711D02*
G03*
X248660Y313387I3272J-4D01*
G01*
D02*
G03*
X248743Y312930I2809J274D01*
G01*
X248789Y314646D02*
G03*
X248644Y313711I2753J-906D01*
G01*
X250081Y316034D02*
G03*
X249180Y315361I913J-2159D01*
G01*
X249833Y313993D02*
G03*
X249813Y313711I1892J-277D01*
G01*
Y313711D02*
G03*
X249891Y313176I1769J-17D01*
G01*
Y314243D02*
G03*
X249833Y313993I1519J-481D01*
G01*
X249891Y313176D02*
G03*
X249981Y312955I1345J423D01*
G01*
X249966Y321247D02*
G03*
X250704Y320503I744J0D01*
G01*
X250709Y321986D02*
G03*
X249966Y321247I3J-746D01*
G01*
X251447Y321241D02*
G03*
X250709Y321986I-746J-1D01*
G01*
X249924Y311492D02*
G03*
X250038Y311435I1170J2193D01*
G01*
X250242Y314806D02*
G03*
X249891Y314243I888J-946D01*
G01*
X249981Y312955D02*
G03*
X251157Y312255I1157J605D01*
G01*
X250038Y311435D02*
G03*
X251175Y311186I1128J2434D01*
G01*
X251157Y316253D02*
G03*
X250081Y316034I-4J-2736D01*
G01*
X251157Y315157D02*
G03*
X250242Y314806I-9J-1346D01*
G01*
X250704Y320503D02*
G03*
X251447Y321241I-2J745D01*
G01*
X251157Y312255D02*
G03*
X252073Y312608I8J1340D01*
G01*
X251175Y311186D02*
G03*
X252244Y311404I4J2716D01*
G01*
X252334Y314461D02*
G03*
X251157Y315157I-1156J-612D01*
G01*
X252565Y315861D02*
G03*
X251157Y316253I-1395J-2287D01*
G01*
X252073Y312608D02*
G03*
X252424Y313176I-900J950D01*
G01*
X252424Y314243D02*
G03*
X252334Y314461I-1328J-421D01*
G01*
X252424Y313176D02*
G03*
X252482Y313427I-1542J485D01*
G01*
X252502Y313711D02*
G03*
X252424Y314243I-1743J17D01*
G01*
X252482Y313427D02*
G03*
X252502Y313711I-1921J279D01*
G01*
X252244Y311404D02*
G03*
X253138Y312073I-907J2145D01*
G01*
X253633Y314207D02*
G03*
X252565Y315861I-2291J-307D01*
G01*
X253138Y312073D02*
G03*
X253526Y312783I-1778J1434D01*
G01*
X253526Y312783D02*
G03*
X253671Y313711I-2734J900D01*
G01*
D02*
G03*
X253633Y314207I-3167J8D01*
G01*
X262547Y315001D02*
G03*
X262553Y313898I1759J-541D01*
G01*
X262848Y315573D02*
G03*
X262547Y315001I1286J-1044D01*
G01*
X262553Y313898D02*
G03*
X263180Y313048I1550J487D01*
G01*
X263528Y316051D02*
G03*
X262848Y315573I530J-1476D01*
G01*
X263590Y314566D02*
G03*
X263585Y314464I881J-98D01*
G01*
X263637Y314765D02*
G03*
X263590Y314566I789J-290D01*
G01*
X263966Y316153D02*
G03*
X263528Y316051I205J-1872D01*
G01*
X264205Y316166D02*
G03*
X263966Y316153I5J-2185D01*
G01*
X263585Y314464D02*
G03*
X263643Y314152I877J2D01*
G01*
X263679Y314858D02*
G03*
X263637Y314765I650J-349D01*
G01*
X263643Y314152D02*
G03*
X263687Y314057I711J276D01*
G01*
X263733Y314943D02*
G03*
X263679Y314858I527J-397D01*
G01*
X263687Y314057D02*
G03*
X263744Y313971I599J333D01*
G01*
Y313971D02*
G03*
X263812Y313896I488J376D01*
G01*
X263974Y315128D02*
G03*
X263733Y314943I208J-519D01*
G01*
X263812Y313896D02*
G03*
X264204Y313747I382J412D01*
G01*
X264202Y315171D02*
G03*
X263974Y315128I-1J-628D01*
G01*
X257898Y316166D02*
X261494D01*
X260252Y311270D02*
Y315171D01*
X248529Y311270D02*
Y311334D01*
X249063Y312217D01*
X249036Y312259D02*
X249063Y312217D01*
X248529Y311270D02*
X249715D01*
X249036Y312259D02*
X249924Y311492D01*
X249549Y321458D02*
X249955Y320350D01*
X249715Y311270D02*
X249853Y311530D01*
X249924Y311492D01*
X249549Y321458D02*
X250305Y322365D01*
X251468Y322163D01*
X251875Y321054D01*
X249955Y320350D02*
X251119Y320147D01*
X251875Y321054D01*
X254713Y315200D02*
X255305D01*
X254662Y311270D02*
Y312244D01*
X254713Y315200D02*
Y316166D01*
X254662Y312244D02*
X255305D01*
X264977Y315172D02*
X265008Y315172D01*
X265038Y315171D01*
X265069Y315171D01*
X265129Y315171D01*
X265209D01*
X265209Y311270D02*
Y312759D01*
X265209Y313747D02*
Y315171D01*
X266342Y311270D02*
Y316166D01*
X267449Y311360D02*
X269703Y316232D01*
X269260Y312886D02*
X269934Y314416D01*
X269260Y312886D02*
X270591D01*
X269934Y314416D02*
X270591Y312886D01*
X254662Y311270D02*
X257066D01*
X255305Y312244D02*
Y315200D01*
X254713Y316166D02*
X257015D01*
X256423Y312244D02*
Y315200D01*
X257015D01*
X256423Y312244D02*
X257066D01*
X257015Y315200D02*
Y316166D01*
X257066Y311270D02*
Y312244D01*
X257898Y315171D02*
Y316166D01*
Y315171D02*
X259134D01*
Y311270D02*
Y315171D01*
X260252D02*
X261494D01*
Y316166D01*
X262226Y311355D02*
X263244Y313005D01*
X263180Y313048D02*
X263244Y313005D01*
X264264Y315173D02*
X264325Y315174D01*
X264387Y315174D01*
X264449Y315175D01*
X264511Y315175D01*
X264574Y315175D01*
X264637Y315174D01*
X264699Y315174D01*
X264824Y315173D01*
X264855Y315173D01*
X264886Y315172D01*
X264916Y315172D01*
X264205Y316166D02*
X266342D01*
X269703Y316187D02*
X270156D01*
X264204Y313747D02*
X265209D01*
X264411Y312759D02*
X265209D01*
X264947Y315172D02*
X264977Y315172D01*
X270934Y311941D02*
X271270Y311225D01*
X268917Y311941D02*
X270934D01*
X270156Y316187D02*
X272403Y311315D01*
X268582Y311225D02*
X268917Y311941D01*
X259134Y311270D02*
X260252D01*
X262226D02*
Y311355D01*
Y311270D02*
X263544D01*
X265209D02*
X266342D01*
X267449D02*
Y311360D01*
Y311270D02*
X268582D01*
X271270Y311225D02*
X272403D01*
Y311315D01*
X264916Y315172D02*
X264947Y315172D01*
X263544Y311270D02*
X264411Y312759D01*
X264202Y315171D02*
X264264Y315173D01*
D16*
X260080Y329913D02*
G03*
X259847Y329699I4530J-5165D01*
G01*
X260293Y330091D02*
G03*
X260080Y329913I3365J-4257D01*
G01*
X260955Y330503D02*
G03*
X260817Y330438I781J-1829D01*
G01*
X261074Y330548D02*
G03*
X260955Y330503I483J-1455D01*
G01*
X251057Y335267D02*
G03*
X251246Y334982I8654J5533D01*
G01*
Y334982D02*
G03*
X251440Y334708I9895J6801D01*
G01*
X250163Y337235D02*
G03*
X250398Y336528I5809J1540D01*
G01*
X271901Y337434D02*
G03*
X271969Y337906I-3625J767D01*
G01*
X262236Y337551D02*
G03*
X261625Y337865I-13047J-24633D01*
G01*
X271956Y328392D02*
G03*
X271961Y328906I-3328J293D01*
G01*
X271565Y336403D02*
G03*
X271674Y336673I-6399J2739D01*
G01*
X270841Y335056D02*
G03*
X271565Y336403I-7338J4813D01*
G01*
X271577Y330440D02*
G03*
X271263Y331097I-6452J-2677D01*
G01*
X271821Y329727D02*
G03*
X271577Y330440I-5737J-1566D01*
G01*
X271961Y328906D02*
G03*
X271821Y329727I-4153J-287D01*
G01*
X271842Y337188D02*
G03*
X271901Y337434I-4276J1155D01*
G01*
X271674Y336673D02*
G03*
X271766Y336935I-5539J2101D01*
G01*
D02*
G03*
X271842Y337188I-4840J1581D01*
G01*
X260946Y336331D02*
G03*
X258717Y335285I-4J-2888D01*
G01*
X262791Y335665D02*
G03*
X260946Y336331I-1843J-2216D01*
G01*
X257880Y332385D02*
G03*
X257962Y332575I-3039J1411D01*
G01*
X257962Y332575D02*
G03*
X258020Y332742I-2401J940D01*
G01*
X258020Y332742D02*
G03*
X258083Y333010I-1647J527D01*
G01*
X258718Y335285D02*
G03*
X258083Y333010I2223J-1846D01*
G01*
X260260Y333476D02*
G03*
X260998Y332732I744J0D01*
G01*
X261004Y334215D02*
G03*
X260260Y333476I2J-745D01*
G01*
X260998Y332732D02*
G03*
X261741Y333470I-2J745D01*
G01*
D02*
G03*
X261004Y334215I-745J-1D01*
G01*
X257638Y331930D02*
G03*
X257774Y332170I-4752J2845D01*
G01*
X257268Y331371D02*
G03*
X257470Y331664I-7196J5184D01*
G01*
D02*
G03*
X257638Y331930I-5870J3881D01*
G01*
X261074Y330548D02*
G03*
X263170Y331591I-126J2881D01*
G01*
X260487Y330235D02*
G03*
X260293Y330091I2446J-3483D01*
G01*
X260662Y330350D02*
G03*
X260487Y330235I1733J-2830D01*
G01*
X260817Y330438D02*
G03*
X260662Y330350I1189J-2283D01*
G01*
X259190Y328011D02*
G03*
X263767Y330275I-9400J24764D01*
G01*
X259847Y329699D02*
G03*
X259594Y329446I5985J-6223D01*
G01*
X259594D02*
G03*
X259026Y328805I8691J-8286D01*
G01*
X264667Y328327D02*
G03*
X264662Y328305I1051J-262D01*
G01*
X264672Y328349D02*
G03*
X264667Y328327I708J-200D01*
G01*
X264679Y328370D02*
G03*
X264672Y328349I489J-160D01*
G01*
X264686Y328390D02*
G03*
X264679Y328370I332J-131D01*
G01*
X264694Y328408D02*
G03*
X264686Y328390I216J-106D01*
G01*
X264703Y328424D02*
G03*
X264694Y328408I131J-85D01*
G01*
X264713Y328436D02*
G03*
X264703Y328424I72J-66D01*
G01*
X264724Y328446D02*
G03*
X264713Y328437I35J-51D01*
G01*
X263767Y330275D02*
G03*
X264868Y330992I-15039J24310D01*
G01*
X263170Y331591D02*
G03*
X262791Y335665I-2225J1848D01*
G01*
X254770Y334174D02*
G03*
X254780Y334194I-263J132D01*
G01*
X254672Y334043D02*
G03*
X254713Y334088I-466J465D01*
G01*
Y334088D02*
G03*
X254730Y334110I-439J365D01*
G01*
Y334110D02*
G03*
X254745Y334132I-403J302D01*
G01*
X254745D02*
G03*
X254759Y334153I-359J241D01*
G01*
D02*
G03*
X254770Y334174I-312J184D01*
G01*
X254780Y334194D02*
G03*
X254787Y334214I-215J89D01*
G01*
X254787D02*
G03*
X254794Y334250I-149J48D01*
G01*
X255802Y336181D02*
G03*
X255753Y331420I27912J-2669D01*
G01*
X256879Y334665D02*
G03*
X256827Y333055I19501J-1429D01*
G01*
X254848Y331736D02*
G03*
X254825Y332118I-8081J-294D01*
G01*
X254839Y331241D02*
G03*
X254849Y331385I-2112J224D01*
G01*
X254852Y331553D02*
G03*
X254848Y331736I-5776J-24D01*
G01*
X254849Y331385D02*
G03*
X254852Y331553I-3822J149D01*
G01*
X253135Y334190D02*
G03*
X252796Y333850I13361J-13631D01*
G01*
X252180Y333178D02*
G03*
X251638Y332512I10166J-8819D01*
G01*
X252796Y333850D02*
G03*
X252180Y333178I11609J-11279D01*
G01*
X252724Y332020D02*
G03*
X252494Y331726I8415J-6847D01*
G01*
X253243Y332618D02*
G03*
X252724Y332020I9625J-8868D01*
G01*
X251188Y328920D02*
G03*
X251182Y328680I2210J-174D01*
G01*
D02*
G03*
X251202Y328448I2053J62D01*
G01*
X269980Y330975D02*
G03*
X269848Y331179I-9811J-6200D01*
G01*
X270108Y330765D02*
G03*
X269980Y330975I-7877J-4687D01*
G01*
X251186Y338211D02*
G03*
X251304Y337414I2959J32D01*
G01*
D02*
G03*
X251415Y337089I3395J979D01*
G01*
D02*
G03*
X251563Y336759I3859J1532D01*
G01*
D02*
G03*
X251651Y336592I4274J2139D01*
G01*
X251651D02*
G03*
X251782Y336359I10939J6029D01*
G01*
X254852Y335725D02*
G03*
X254852Y335724I30J7D01*
G01*
X255940Y337335D02*
G03*
X255802Y336181I25623J-3658D01*
G01*
X254859Y335678D02*
G03*
X254858Y335683I-189J-17D01*
G01*
X254859Y335673D02*
G03*
X254859Y335678I-137J-8D01*
G01*
X254859Y335669D02*
G03*
X254859Y335673I-105J-2D01*
G01*
X254859Y335665D02*
G03*
X254859Y335669I-84J3D01*
G01*
X254852Y335724D02*
G03*
X254852Y335723I24J7D01*
G01*
D02*
G03*
X254852Y335722I21J7D01*
G01*
X254858Y335683D02*
G03*
X254858Y335688I-274J-31D01*
G01*
X254851Y335726D02*
G03*
X254852Y335725I36J7D01*
G01*
X258153Y337913D02*
G03*
X258093Y337799I206J-182D01*
G01*
X258211Y337978D02*
G03*
X258153Y337913I573J-566D01*
G01*
X258281Y338044D02*
G03*
X258211Y337978I797J-919D01*
G01*
X258361Y338109D02*
G03*
X258281Y338044I908J-1201D01*
G01*
X261625Y337865D02*
G03*
X260089Y338578I-13106J-26206D01*
G01*
X264924Y338175D02*
G03*
X265074Y338076I582J715D01*
G01*
X265145Y338037D02*
G03*
X265074Y338076I-1936J-3446D01*
G01*
X270729Y337531D02*
G03*
X270816Y338066I-2619J703D01*
G01*
X269418Y335075D02*
G03*
X269802Y335599I-8953J6959D01*
G01*
D02*
G03*
X269970Y335851I-7367J5064D01*
G01*
Y335851D02*
G03*
X270121Y336098I-6546J4181D01*
G01*
D02*
G03*
X270257Y336341I-5916J3475D01*
G01*
X270257Y336341D02*
G03*
X270485Y336818I-5214J2791D01*
G01*
Y336818D02*
G03*
X270729Y337531I-4765J2025D01*
G01*
X267719Y335234D02*
G03*
X264734Y337431I-19310J-23110D01*
G01*
X265216Y337996D02*
G03*
X265145Y338037I-2236J-3813D01*
G01*
X266165Y334072D02*
G03*
X266050Y334167I-626J-643D01*
G01*
X266211Y334022D02*
G03*
X266165Y334072I-501J-412D01*
G01*
X266249Y333970D02*
G03*
X266211Y334022I-460J-296D01*
G01*
X266301Y333860D02*
G03*
X266249Y333970I-449J-145D01*
G01*
X266309Y333373D02*
G03*
X266309Y333431I-3414J21D01*
G01*
X264868Y330992D02*
G03*
X265986Y331796I-15911J23309D01*
G01*
X266311Y333555D02*
G03*
X266310Y333537I847J-56D01*
G01*
X266313Y333572D02*
G03*
X266311Y333555I706J-64D01*
G01*
X266323Y333739D02*
G03*
X266301Y333860I-485J-27D01*
G01*
X266317Y333605D02*
G03*
X266313Y333572I543J-82D01*
G01*
X266317Y333605D02*
G03*
X266324Y333673I-700J107D01*
G01*
X266323D02*
G03*
X266323Y333739I-586J32D01*
G01*
X266108Y333051D02*
G03*
X266270Y333195I-5181J5981D01*
G01*
X266270Y333195D02*
G03*
X266281Y333208I-48J52D01*
G01*
D02*
G03*
X266290Y333225I-86J57D01*
G01*
D02*
G03*
X266297Y333244I-145J62D01*
G01*
X266297D02*
G03*
X266302Y333266I-233J65D01*
G01*
X266302Y333266D02*
G03*
X266305Y333291I-358J65D01*
G01*
X266305D02*
G03*
X266308Y333317I-539J61D01*
G01*
D02*
G03*
X266309Y333344I-810J52D01*
G01*
Y333344D02*
G03*
X266309Y333373I-1265J39D01*
G01*
X270813Y328842D02*
G03*
X270774Y329121I-2519J-214D01*
G01*
X270554Y329868D02*
G03*
X270348Y330329I-5030J-1971D01*
G01*
X270774Y329121D02*
G03*
X270554Y329868I-4281J-851D01*
G01*
X271263Y331097D02*
G03*
X271088Y331404I-7081J-3835D01*
G01*
X270790Y328335D02*
G03*
X270818Y328580I-1700J319D01*
G01*
X270818D02*
G03*
X270813Y328842I-2060J88D01*
G01*
X270367Y334387D02*
G03*
X270841Y335056I-8451J6499D01*
G01*
X270527Y332236D02*
G03*
X270155Y332714I-12102J-9037D01*
G01*
X270717Y331974D02*
G03*
X270527Y332236I-9414J-6609D01*
G01*
X268304Y333833D02*
G03*
X269418Y335120I-11329J10939D01*
G01*
X267452Y333008D02*
G03*
X268304Y333833I-11860J13094D01*
G01*
X269500Y333370D02*
G03*
X269810Y333712I-11382J10636D01*
G01*
X269810Y333712D02*
G03*
X270099Y334051I-10353J9114D01*
G01*
X269167Y333023D02*
G03*
X269500Y333370I-12634J12464D01*
G01*
X270099Y334051D02*
G03*
X270367Y334387I-9515J7846D01*
G01*
X270905Y331696D02*
G03*
X270717Y331974I-8414J-5498D01*
G01*
X271088Y331404D02*
G03*
X270905Y331696I-7671J-4600D01*
G01*
X263020Y328498D02*
G03*
X269167Y333068I-11924J22456D01*
G01*
X264812Y338289D02*
G03*
X264924Y338175I572J449D01*
G01*
X270232Y330550D02*
G03*
X270108Y330765I-6655J-3672D01*
G01*
X270348Y330329D02*
G03*
X270232Y330550I-5818J-2925D01*
G01*
X270816Y338066D02*
G03*
X270816Y338311I-2027J116D01*
G01*
X271969Y337906D02*
G03*
X271911Y338790I-3003J247D01*
G01*
X264734Y337431D02*
G03*
X257219Y340769I-14230J-21903D01*
G01*
X258531Y338220D02*
G03*
X258361Y338109I707J-1264D01*
G01*
X258613Y338260D02*
G03*
X258531Y338220I376J-863D01*
G01*
X258687Y338287D02*
G03*
X258613Y338260I145J-526D01*
G01*
X257774Y332170D02*
G03*
X257880Y332385I-3815J2035D01*
G01*
X256827Y333055D02*
G03*
X256865Y331937I22122J196D01*
G01*
X256745Y330698D02*
G03*
X257027Y331049I-10568J8779D01*
G01*
D02*
G03*
X257268Y331371I-8753J6800D01*
G01*
X253494Y334535D02*
G03*
X253135Y334190I14724J-15732D01*
G01*
X250051Y329143D02*
G03*
X250054Y329150I-145J56D01*
G01*
X250030Y329102D02*
G03*
X250037Y329115I-475J281D01*
G01*
X250037Y329115D02*
G03*
X250041Y329121I-277J154D01*
G01*
X250041Y329121D02*
G03*
X250044Y329128I-221J116D01*
G01*
X250044Y329128D02*
G03*
X250048Y329135I-186J90D01*
G01*
D02*
G03*
X250051Y329143I-163J71D01*
G01*
X250054Y329150D02*
G03*
X250056Y329158I-133J44D01*
G01*
D02*
G03*
X250059Y329174I-119J32D01*
G01*
X250226Y329950D02*
G03*
X250059Y329174I4378J-1349D01*
G01*
X250364Y330346D02*
G03*
X250226Y329950I5013J-1973D01*
G01*
X250540Y330750D02*
G03*
X250364Y330346I5639J-2693D01*
G01*
X254766Y332620D02*
G03*
X254722Y332820I-1294J-183D01*
G01*
X254788Y332472D02*
G03*
X254766Y332620I-4517J-586D01*
G01*
X254808Y332302D02*
G03*
X254788Y332472I-6819J-717D01*
G01*
X254825Y332118D02*
G03*
X254808Y332302I-8313J-690D01*
G01*
X251638Y332512D02*
G03*
X250754Y331164I8942J-6827D01*
G01*
D02*
G03*
X250540Y330750I6485J-3613D01*
G01*
X251278Y329426D02*
G03*
X251220Y329168I2863J-784D01*
G01*
X251363Y329694D02*
G03*
X251278Y329426I3400J-1223D01*
G01*
X251605Y330279D02*
G03*
X251363Y329694I6060J-2850D01*
G01*
X251910Y330857D02*
G03*
X251605Y330279I6255J-3666D01*
G01*
X252281Y331435D02*
G03*
X251910Y330857I6862J-4820D01*
G01*
X252494Y331726D02*
G03*
X252281Y331435I7728J-5858D01*
G01*
X250875Y335564D02*
G03*
X251057Y335267I7770J4554D01*
G01*
X251440Y334708D02*
G03*
X251831Y334195I13273J9705D01*
G01*
X251220Y329168D02*
G03*
X251188Y328920I2474J-446D01*
G01*
X251202Y328448D02*
G03*
X251295Y328093I1582J222D01*
G01*
X267198Y334151D02*
G03*
X262236Y337551I-17056J-19574D01*
G01*
X265986Y331796D02*
G03*
X266501Y332198I-14399J19000D01*
G01*
Y332198D02*
G03*
X267452Y333008I-12885J16089D01*
G01*
X250398Y336528D02*
G03*
X250703Y335873I6451J2602D01*
G01*
D02*
G03*
X250875Y335564I7106J3755D01*
G01*
X251193Y338407D02*
G03*
X251186Y338211I2007J-177D01*
G01*
X263583Y327716D02*
G03*
X263577Y327727I-27J-7D01*
G01*
X264544Y327784D02*
G03*
X264647Y328236I-25297J5965D01*
G01*
X260934Y327480D02*
G03*
X263020Y328498I-12272J27784D01*
G01*
X259831Y327015D02*
G03*
X260934Y327480I-12466J31136D01*
G01*
X252720Y321767D02*
G03*
X252658Y321634I2270J-1130D01*
G01*
X263480Y327730D02*
G03*
X263471Y327727I21J-62D01*
G01*
X263485Y327732D02*
G03*
X263480Y327730I26J-91D01*
G01*
X263490Y327733D02*
G03*
X263485Y327732I26J-112D01*
G01*
X263496Y327734D02*
G03*
X263490Y327733I25J-132D01*
G01*
X263502Y327735D02*
G03*
X263496Y327734I22J-150D01*
G01*
X263514Y327737D02*
G03*
X263502Y327735I12J-171D01*
G01*
X263527Y327737D02*
G03*
X263514Y327737I0J-180D01*
G01*
X263542Y327736D02*
G03*
X263527Y327737I-15J-168D01*
G01*
X263549Y327736D02*
G03*
X263542Y327736I-20J-139D01*
G01*
X263555Y327735D02*
G03*
X263549Y327736I-23J-119D01*
G01*
X263561Y327733D02*
G03*
X263555Y327735I-25J-100D01*
G01*
X263565Y327732D02*
G03*
X263561Y327733I-25J-79D01*
G01*
X263569Y327731D02*
G03*
X263565Y327732I-23J-60D01*
G01*
X263573Y327729D02*
G03*
X263569Y327731I-20J-41D01*
G01*
X263575Y327728D02*
G03*
X263573Y327729I-15J-25D01*
G01*
X263577Y327727D02*
G03*
X263575Y327728I-10J-12D01*
G01*
X263585Y327707D02*
G03*
X263583Y327716I-88J-19D01*
G01*
X263583Y327620D02*
G03*
X263586Y327633I-144J38D01*
G01*
X263587Y327697D02*
G03*
X263585Y327707I-141J-20D01*
G01*
X263586Y327633D02*
G03*
X263588Y327685I-210J35D01*
G01*
X263588D02*
G03*
X263587Y327697I-188J-15D01*
G01*
X263967Y325819D02*
G03*
X264213Y326552I-13457J4926D01*
G01*
X264213D02*
G03*
X264328Y326943I-16171J4960D01*
G01*
Y326943D02*
G03*
X264438Y327353I-18549J5204D01*
G01*
D02*
G03*
X264544Y327784I-21542J5534D01*
G01*
X251705Y327526D02*
G03*
X251856Y327413I1101J1313D01*
G01*
D02*
G03*
X252026Y327312I1111J1666D01*
G01*
D02*
G03*
X252216Y327221I1126J2116D01*
G01*
Y327221D02*
G03*
X252425Y327142I1139J2683D01*
G01*
D02*
G03*
X252849Y327024I1338J3974D01*
G01*
D02*
G03*
X253038Y326985I1029J4585D01*
G01*
X267553Y326914D02*
G03*
X267727Y326907I471J9458D01*
G01*
X267553Y326914D02*
G03*
X267727Y326907I471J9458D01*
G01*
D02*
G03*
X267894Y326904I255J8155D01*
G01*
X267727Y326907D02*
G03*
X267894Y326904I255J8155D01*
G01*
X267727Y326907D02*
G03*
X267975Y326903I250J7965D01*
G01*
D02*
G03*
X268309Y326911I4J6502D01*
G01*
X265495Y326802D02*
G03*
X265626Y327322I-19486J5176D01*
G01*
D02*
G03*
X265865Y328447I-24748J5850D01*
G01*
X265208Y325838D02*
G03*
X265356Y326308I-14736J4894D01*
G01*
D02*
G03*
X265495Y326802I-16834J5003D01*
G01*
X266997Y325793D02*
G03*
X267301Y325769I1134J12358D01*
G01*
X268469Y326922D02*
G03*
X268778Y326956I-408J5195D01*
G01*
X268469Y326922D02*
G03*
X268778Y326956I-408J5195D01*
G01*
X268927Y326934D02*
G03*
X269488Y327070I-697J4101D01*
G01*
X269072Y326961D02*
G03*
X269488Y327070I-818J3983D01*
G01*
X269072Y326961D02*
G03*
X269488Y327070I-818J3983D01*
G01*
Y327070D02*
G03*
X269675Y327135I-1188J3696D01*
G01*
Y327135D02*
G03*
X270155Y327382I-779J2108D01*
G01*
Y327382D02*
G03*
X270347Y327535I-967J1411D01*
G01*
X270347D02*
G03*
X270507Y327707I-1021J1107D01*
G01*
X270507D02*
G03*
X270790Y328335I-1122J883D01*
G01*
X271598Y327255D02*
G03*
X271871Y327909I-2213J1309D01*
G01*
Y327909D02*
G03*
X271956Y328392I-2790J736D01*
G01*
X267975Y326903D02*
G03*
X268469Y326922I10J6254D01*
G01*
X267975Y326903D02*
G03*
X268469Y326922I10J6254D01*
G01*
X268309Y326911D02*
G03*
X268626Y326937I-283J5580D01*
G01*
X268297Y325753D02*
G03*
X268781Y325789I-289J7101D01*
G01*
X268297Y325753D02*
G03*
X268781Y325789I-289J7101D01*
G01*
X268461Y325761D02*
G03*
X268937Y325808I-425J6769D01*
G01*
X268626Y326892D02*
G03*
X268927Y326934I-524J4855D01*
G01*
X268778Y326911D02*
G03*
X269072Y326961I-633J4556D01*
G01*
X268778Y326911D02*
G03*
X269072Y326961I-633J4556D01*
G01*
X268781Y325744D02*
G03*
X269539Y325875I-660J6075D01*
G01*
X268781Y325744D02*
G03*
X269539Y325875I-660J6075D01*
G01*
X268937Y325763D02*
G03*
X269539Y325875I-800J5974D01*
G01*
Y325875D02*
G03*
X270078Y326041I-1005J4228D01*
G01*
X270078D02*
G03*
X270557Y326264I-1288J3389D01*
G01*
Y326264D02*
G03*
X270973Y326542I-1504J2694D01*
G01*
Y326542D02*
G03*
X271598Y327255I-1623J2056D01*
G01*
X252789Y321898D02*
G03*
X252720Y321767I2782J-1548D01*
G01*
X252860Y322021D02*
G03*
X252789Y321898I3264J-1979D01*
G01*
X252932Y322135D02*
G03*
X252860Y322021I3662J-2377D01*
G01*
X252658Y321634D02*
G03*
X252606Y321499I1774J-759D01*
G01*
X253113Y322394D02*
G03*
X252932Y322135I3827J-2860D01*
G01*
X252543Y321160D02*
G03*
X252543Y321146I258J-11D01*
G01*
X252547Y321232D02*
G03*
X252547Y321237I-191J7D01*
G01*
X252606Y321499D02*
G03*
X252547Y321237I1104J-390D01*
G01*
X258680Y322350D02*
G03*
X258939Y322090I3314J3046D01*
G01*
D02*
G03*
X260666Y321197I2423J2568D01*
G01*
X249340Y322443D02*
G03*
X249577Y319890I1394J-1158D01*
G01*
X250380Y323062D02*
G03*
X249340Y322443I348J-1768D01*
G01*
X250380Y323062D02*
G03*
X250510Y323114I-427J1245D01*
G01*
Y323114D02*
G03*
X250636Y323180I-710J1522D01*
G01*
X250636D02*
G03*
X250758Y323255I-1041J1813D01*
G01*
Y323255D02*
G03*
X250873Y323337I-1403J2098D01*
G01*
X250873Y323337D02*
G03*
X250981Y323422I-1769J2350D01*
G01*
X250981D02*
G03*
X251237Y323657I-2222J2677D01*
G01*
X251237D02*
G03*
X251336Y323763I-2112J2089D01*
G01*
X249577Y319890D02*
G03*
X250734Y319471I1155J1384D01*
G01*
Y319471D02*
G03*
X252131Y320127I2J1810D01*
G01*
X252131Y320127D02*
G03*
X252542Y321148I-1386J1152D01*
G01*
X250091Y328083D02*
G03*
X250168Y327808I3029J708D01*
G01*
Y327808D02*
G03*
X250703Y326884I2430J789D01*
G01*
X251295Y328093D02*
G03*
X251705Y327526I1301J510D01*
G01*
X250703Y326884D02*
G03*
X251108Y326523I1963J1794D01*
G01*
D02*
G03*
X251346Y326367I1799J2480D01*
G01*
D02*
G03*
X251893Y326102I1902J3234D01*
G01*
X251928Y326089D02*
G03*
X252001Y326062I1426J3753D01*
G01*
X252147Y326012D02*
G03*
X252259Y325977I1897J5892D01*
G01*
X257796Y326495D02*
G03*
X258095Y325642I13198J4154D01*
G01*
X256905Y325527D02*
G03*
X257001Y325269I14740J5378D01*
G01*
X257001Y325269D02*
G03*
X257427Y324274I13407J5148D01*
G01*
X257427D02*
G03*
X257503Y324119I7493J3561D01*
G01*
D02*
G03*
X257847Y323496I8115J4073D01*
G01*
D02*
G03*
X258030Y323203I9346J5635D01*
G01*
X258030D02*
G03*
X258228Y322911I6747J4365D01*
G01*
X258095Y325642D02*
G03*
X258439Y324841I11689J4541D01*
G01*
X258228Y322911D02*
G03*
X258444Y322625I5189J3690D01*
G01*
X258439Y324841D02*
G03*
X258643Y324428I10276J4817D01*
G01*
X258444Y322625D02*
G03*
X258680Y322350I4114J3289D01*
G01*
X258643Y324428D02*
G03*
X258757Y324217I7243J3774D01*
G01*
D02*
G03*
X258879Y324006I6063J3388D01*
G01*
X258879D02*
G03*
X259013Y323796I5184J3141D01*
G01*
D02*
G03*
X259157Y323589I4490J2979D01*
G01*
X259157D02*
G03*
X259314Y323387I3923J2876D01*
G01*
X259314D02*
G03*
X259669Y323002I3321J2709D01*
G01*
Y323002D02*
G03*
X259869Y322823I2698J2821D01*
G01*
Y322823D02*
G03*
X260319Y322527I1463J1730D01*
G01*
D02*
G03*
X260547Y322434I762J1549D01*
G01*
Y322434D02*
G03*
X260775Y322379I470J1445D01*
G01*
Y322379D02*
G03*
X261689Y322531I224J1473D01*
G01*
Y322531D02*
G03*
X261914Y322662I-922J1847D01*
G01*
Y322662D02*
G03*
X262138Y322831I-1405J2101D01*
G01*
X262138Y322831D02*
G03*
X262675Y323378I-2629J3118D01*
G01*
Y323378D02*
G03*
X262924Y323709I-3924J3201D01*
G01*
X262924D02*
G03*
X263044Y323890I-4880J3364D01*
G01*
Y323890D02*
G03*
X263162Y324083I-5634J3586D01*
G01*
X263162D02*
G03*
X263279Y324288I-6544J3860D01*
G01*
X263279D02*
G03*
X263394Y324505I-7640J4193D01*
G01*
X263445Y322482D02*
G03*
X263692Y322790I-4214J3628D01*
G01*
X261332Y321197D02*
G03*
X262178Y321483I-730J3551D01*
G01*
D02*
G03*
X262874Y321926I-1593J3274D01*
G01*
D02*
G03*
X263174Y322193I-2593J3215D01*
G01*
Y322193D02*
G03*
X263445Y322482I-3303J3367D01*
G01*
X263394Y324505D02*
G03*
X263967Y325819I-10378J5308D01*
G01*
X263692Y322790D02*
G03*
X263915Y323109I-5431J4043D01*
G01*
X263915Y323109D02*
G03*
X264308Y323763I-8290J5424D01*
G01*
D02*
G03*
X264703Y324546I-9879J5475D01*
G01*
Y324546D02*
G03*
X265051Y325388I-11238J5127D01*
G01*
Y325388D02*
G03*
X265208Y325838I-13092J4850D01*
G01*
X267201Y325776D02*
G03*
X267495Y325758I848J11237D01*
G01*
X267301Y325769D02*
G03*
X267590Y325753I721J10770D01*
G01*
X267301Y325769D02*
G03*
X267590Y325753I720J10673D01*
G01*
X267495Y325758D02*
G03*
X267958Y325746I482J9710D01*
G01*
X267590Y325753D02*
G03*
X267958Y325746I384J9569D01*
G01*
X267590Y325753D02*
G03*
X267958Y325746I372J9214D01*
G01*
D02*
G03*
X268297Y325753I4J8163D01*
G01*
X267958Y325746D02*
G03*
X268297Y325753I4J8163D01*
G01*
X267958Y325746D02*
G03*
X268461Y325761I8J7924D01*
G01*
X252201Y335670D02*
X252272Y335557D01*
X250082Y337578D02*
X250092Y337535D01*
X250101Y337492D01*
X250111Y337449D01*
X250121Y337406D01*
X250131Y337363D01*
X250142Y337320D01*
X250163Y337235D01*
X258018Y337314D02*
X258033Y337411D01*
X258048Y337509D01*
X258063Y337605D01*
X252492Y335207D02*
X252522Y335159D01*
X256900Y334937D02*
X256924Y335208D01*
X265146Y334861D02*
X265155Y334854D01*
X265159Y334851D01*
X265164Y334847D01*
X259190Y328011D02*
X259190Y328010D01*
X259190Y328011D02*
X259190Y328010D01*
X264647Y328236D02*
X264652Y328263D01*
X264647Y328236D02*
X264652Y328263D01*
X264662Y328305D01*
X254569Y333941D02*
X254672Y334043D01*
X254794Y334250D02*
X254801Y334361D01*
X254808Y334473D01*
X254814Y334584D01*
X254819Y334696D01*
X254825Y334808D01*
X256879Y334665D02*
X256900Y334937D01*
X255753Y331420D02*
X255759Y331335D01*
X255772Y331167D01*
X255787Y331001D01*
X255802Y330837D01*
X253331Y332712D02*
X253420Y332806D01*
X253510Y332900D01*
X253602Y332993D01*
X253693Y333085D01*
X253243Y332618D02*
X253331Y332712D01*
X269359Y331869D02*
X269370Y331854D01*
X269659Y331457D02*
X269713Y331379D01*
X269848Y331179D01*
X269491Y331689D02*
X269519Y331651D01*
X269548Y331613D01*
X269576Y331574D01*
X269604Y331535D01*
X251782Y336359D02*
X251850Y336243D01*
X251919Y336127D01*
X251989Y336012D01*
X252059Y335898D01*
X252130Y335784D01*
X252201Y335670D01*
X254810Y335694D02*
X254851Y335730D01*
X252272Y335557D02*
X252342Y335445D01*
X254851Y335728D02*
X254851Y335727D01*
X254851Y335727D01*
X254851Y335726D01*
X254524Y335446D02*
X254564Y335481D01*
X254605Y335516D01*
X254646Y335551D01*
X254686Y335587D01*
X254727Y335622D01*
X254768Y335658D01*
X254810Y335694D01*
X252342Y335445D02*
X252402Y335350D01*
X254054Y335039D02*
X254150Y335122D01*
X254246Y335206D01*
X254344Y335291D01*
X254443Y335376D01*
X254524Y335446D01*
X254839Y335142D02*
X254847Y335362D01*
X252432Y335303D02*
X252462Y335255D01*
X257074Y336565D02*
X257107Y336834D01*
X257175Y337368D01*
X257190Y337485D01*
X256951Y335480D02*
X256979Y335752D01*
X257009Y336024D01*
X257041Y336295D01*
X257074Y336565D01*
X252462Y335255D02*
X252492Y335207D01*
X257944Y336820D02*
X257974Y337019D01*
X257988Y337118D01*
X258003Y337216D01*
X256924Y335208D02*
X256951Y335480D01*
X257893Y336480D02*
X257944Y336820D01*
X252402Y335350D02*
X252432Y335303D01*
X254830Y334919D02*
X254834Y335031D01*
X254839Y335142D01*
X254847Y335362D02*
X254859Y335665D01*
X254847Y335362D02*
X254859Y335665D01*
X254852Y335722D02*
X254855Y335707D01*
X254856Y335700D01*
X254857Y335694D01*
X254858Y335688D01*
X254825Y334808D02*
X254830Y334919D01*
X254851Y335730D02*
X254851Y335728D01*
X259925Y337850D02*
X259959Y337837D01*
X259856Y337878D02*
X259890Y337864D01*
X259182Y338145D02*
X259281Y338107D01*
X257944Y336820D02*
X260133Y337767D01*
X257893Y336480D02*
X260133Y337767D01*
X259083Y338183D02*
X259182Y338145D01*
X259281Y338107D02*
X259381Y338068D01*
X259482Y338028D01*
X259583Y337988D01*
X260098Y337781D02*
X260133Y337767D01*
X260028Y337809D02*
X260098Y337781D01*
X259959Y337837D02*
X260028Y337809D01*
X255940Y337335D02*
X255975Y337573D01*
X257190Y337485D02*
X257205Y337603D01*
X256013Y337809D02*
X256032Y337928D01*
X256052Y338047D01*
X256072Y338167D01*
X257235Y337840D02*
X257250Y337959D01*
X257265Y338078D01*
X257280Y338197D01*
X257220Y337721D02*
X257235Y337840D01*
X255994Y337691D02*
X256013Y337809D01*
X255975Y337573D02*
X255994Y337691D01*
X257205Y337603D02*
X257220Y337721D01*
X258003Y337216D02*
X258018Y337314D01*
X259685Y337947D02*
X259788Y337906D01*
X259856Y337878D01*
X258063Y337605D02*
X258078Y337702D01*
X259583Y337988D02*
X259685Y337947D01*
X259890Y337864D02*
X259925Y337850D01*
X258078Y337702D02*
X258093Y337799D01*
X265181Y334833D02*
X265190Y334826D01*
X265164Y334847D02*
X265168Y334844D01*
X265173Y334840D01*
X265181Y334833D01*
X266030Y337515D02*
X266040Y337454D01*
X265986Y337490D02*
X266040Y337454D01*
X267931Y335047D02*
X267958Y335023D01*
X267986Y334998D01*
X268008Y334977D02*
X268019Y334967D01*
X268031Y334957D01*
X268042Y334946D01*
X265855Y337579D02*
X265881Y337561D01*
X265907Y337544D01*
X265933Y337526D01*
X265959Y337508D01*
X265986Y337490D01*
X265803Y337614D02*
X265829Y337596D01*
X265855Y337579D01*
X265778Y337631D02*
X265803Y337614D01*
X265216Y337996D02*
X265286Y337954D01*
X265356Y337911D01*
X265425Y337867D01*
X265495Y337821D01*
X265565Y337775D01*
X265635Y337728D01*
X265778Y337631D01*
X265943Y338059D02*
X265955Y337983D01*
X266020Y337576D02*
X266030Y337515D01*
X268042Y334946D02*
X268054Y334935D01*
X268066Y334925D01*
X266006Y337665D02*
X266011Y337636D01*
X266016Y337606D01*
X266020Y337576D01*
X266001Y337695D02*
X266006Y337665D01*
X265968Y337908D02*
X265980Y337831D01*
X265955Y337983D02*
X265968Y337908D01*
X265980Y337831D02*
X265992Y337754D01*
X266001Y337695D01*
X265876Y328505D02*
X265887Y328564D01*
X265851Y329173D02*
X265877Y329189D01*
X265782Y334363D02*
X265848Y334313D01*
X265915Y334264D01*
X265982Y334215D01*
X266050Y334167D01*
X266309Y333467D02*
Y333485D01*
Y333467D02*
X266309Y333449D01*
X266309Y333485D02*
X266309Y333502D01*
X266309Y333449D02*
X266309Y333431D01*
X266309Y333502D02*
X266310Y333520D01*
X266310Y333537D01*
X265865Y328447D02*
X265876Y328505D01*
X264724Y328446D02*
X264924Y328579D01*
X265024Y328645D01*
X265125Y328710D01*
X265227Y328776D01*
X265330Y328842D01*
X265433Y328907D01*
X265537Y328974D01*
X265642Y329040D01*
X265749Y329107D01*
X265800Y329140D01*
X265825Y329156D02*
X265851Y329173D01*
X265877Y329189D02*
X265903Y329206D01*
X265887Y328564D02*
X265897Y328623D01*
X265908Y328682D01*
X265918Y328741D01*
X265903Y329206D02*
X265929Y329222D01*
X265918Y328741D02*
X265928Y328801D01*
X265939Y328861D01*
X265929Y329222D02*
X265955Y329239D01*
X265939Y328861D02*
X265949Y328922D01*
X265970Y329045D01*
X265955Y329239D02*
X265981Y329255D01*
X265970Y329045D02*
X265973Y329067D01*
X265984Y329135D01*
X266007Y329272D01*
X265981Y329255D02*
X266007Y329272D01*
X265146Y332277D02*
X265150Y332280D01*
X265146Y332277D02*
Y334861D01*
Y332277D02*
Y334861D01*
X265150Y332280D02*
X265155Y332284D01*
X265159Y332287D01*
X265164Y332291D01*
X265168Y332294D01*
X265177Y332301D01*
X265190Y332312D01*
X265198Y332318D01*
X265206Y332324D01*
X265214Y332331D01*
X266025Y332980D02*
X266108Y333051D01*
X265418Y332491D02*
X265508Y332562D01*
X265597Y332632D01*
X265684Y332701D01*
X265771Y332771D01*
X265190Y334826D02*
X265206Y334814D01*
X265214Y334807D01*
X265223Y334801D01*
X265230Y334795D01*
X265238Y334788D01*
X265246Y334782D01*
X265254Y334776D01*
X265262Y334770D01*
X265270Y334763D01*
X265293Y334746D01*
X265304Y334737D01*
X265246Y332356D02*
X265254Y332362D01*
X265214Y332331D02*
X265223Y332337D01*
X265230Y332343D01*
X265238Y332349D01*
X265246Y332356D01*
X265254Y332362D02*
X265270Y332375D01*
X265285Y332386D01*
X265300Y332398D01*
X265315Y332410D01*
X265330Y332421D01*
X265344Y332433D01*
X265359Y332445D01*
X265374Y332456D01*
X265389Y332468D01*
X265418Y332491D01*
X265304Y334737D02*
X265315Y334728D01*
X265326Y334719D01*
X265338Y334710D01*
X265349Y334702D01*
X265360Y334693D01*
X265371Y334684D01*
X265382Y334676D01*
X265517Y334569D01*
X265583Y334516D01*
X265650Y334465D01*
X265716Y334413D01*
X265782Y334363D01*
X265771Y332771D02*
X265857Y332840D01*
X265941Y332910D01*
X266025Y332980D01*
X269463Y331727D02*
X269491Y331689D01*
X269403Y331810D02*
X269414Y331795D01*
X269436Y331765D01*
X269463Y331727D01*
X269604Y331535D02*
X269631Y331496D01*
X269659Y331457D01*
X269326Y331914D02*
X269337Y331899D01*
X269348Y331884D01*
X269359Y331869D01*
X269326Y331914D02*
X270155Y332714D01*
X269326Y331914D02*
X270155Y332714D01*
X269370Y331854D02*
X269381Y331839D01*
X269392Y331824D01*
X269403Y331810D01*
X265906Y338281D02*
X265919Y338208D01*
X265931Y338133D02*
X265943Y338059D01*
X265919Y338208D02*
X265931Y338133D01*
X258983Y338220D02*
X259083Y338183D01*
X257280Y338197D02*
X257295Y338316D01*
X256072Y338167D02*
X256093Y338287D01*
X258784Y338292D02*
X258983Y338220D01*
X255802Y330837D02*
X255809Y330755D01*
X255825Y330591D01*
X255999Y329742D02*
X256397Y330252D01*
X255825Y330591D02*
X256865Y331937D01*
X255825Y330591D02*
X256865Y331937D01*
X256397Y330252D02*
X256745Y330698D01*
X253678Y334704D02*
X253771Y334788D01*
X252522Y335159D02*
X252552Y335111D01*
X252582Y335063D01*
X252642Y334967D01*
X253494Y334535D02*
X253678Y334704D01*
X250028Y329099D02*
X250029Y329100D01*
X250030Y329102D01*
X253878Y333267D02*
X253970Y333357D01*
X254205Y333585D02*
X254257Y333635D01*
X253970Y333357D02*
X254154Y333535D01*
X254205Y333585D01*
X254257Y333635D02*
X254309Y333685D01*
X254361Y333736D01*
X254413Y333787D01*
X254465Y333838D01*
X254517Y333889D01*
X254569Y333941D01*
X253897Y332042D02*
X254722Y332820D01*
X253785Y333176D02*
X253878Y333267D01*
X253693Y333085D02*
X253785Y333176D01*
X253897Y332042D02*
X254722Y332820D01*
X253897Y332042D02*
X254839Y331241D01*
X253897Y332042D02*
X254839Y331241D01*
X251831Y334195D02*
X252642Y334967D01*
X251831Y334195D02*
X252642Y334967D01*
X267986Y334998D02*
X268008Y334977D01*
X268066Y334925D02*
X268078Y334914D01*
X265800Y329140D02*
X265825Y329156D01*
X267253Y334107D02*
X268102Y334892D01*
X267772Y335189D02*
X267798Y335166D01*
X267824Y335143D01*
X267851Y335120D01*
X267877Y335096D01*
X267904Y335072D01*
X267931Y335047D01*
X267719Y335234D02*
X267772Y335189D01*
X268078Y334914D02*
X268090Y334903D01*
X268102Y334892D01*
X267198Y334151D02*
X267204Y334146D01*
X267209Y334142D01*
X267215Y334137D01*
X267220Y334133D01*
X267226Y334128D01*
X267232Y334124D01*
X267237Y334120D01*
X267243Y334115D01*
X267253Y334107D01*
X268102Y334892D01*
X250027Y329097D02*
X250028Y329099D01*
X250021Y328378D02*
Y329086D01*
X250023Y329089D01*
X250024Y329090D01*
X250025Y329092D01*
X250026Y329094D01*
X250027Y329096D01*
X250027Y329097D01*
X250021Y329086D02*
X250091Y328083D01*
X250021Y328378D02*
X250091Y328083D01*
X250022Y337856D02*
Y338566D01*
X253771Y334788D02*
X253865Y334872D01*
X253959Y334955D01*
X254054Y335039D01*
X250064Y337663D02*
X250073Y337620D01*
X250082Y337578D01*
X250022Y337856D02*
X250034Y337798D01*
X250064Y337663D01*
X250022Y337856D02*
Y338566D01*
X259678Y326955D02*
X259831Y327015D01*
X258735Y326612D02*
X258771Y326625D01*
X258806Y326638D01*
X258841Y326651D01*
X258876Y326663D01*
X258911Y326676D01*
X258946Y326688D01*
X258980Y326700D01*
X259049Y326725D01*
X259130Y326754D01*
X259210Y326783D01*
X259290Y326811D01*
X259368Y326840D01*
X259446Y326868D01*
X259524Y326897D01*
X259601Y326926D01*
X259678Y326955D01*
X262123Y327027D02*
X262362Y327152D01*
X262590Y327271D01*
X262702Y327330D01*
X262123Y327027D02*
X263302Y326604D01*
X262702Y327330D02*
X262814Y327388D01*
X262362Y327152D02*
X263367Y326836D01*
X262814Y327388D02*
X262925Y327445D01*
X263035Y327502D01*
X263144Y327559D01*
X263253Y327615D01*
X263362Y327671D01*
X263302Y326604D02*
X263367Y326836D01*
X263390Y326917D01*
X263412Y326997D01*
X263362Y327671D02*
X263471Y327727D01*
X263412Y326997D02*
X263435Y327077D01*
X263457Y327156D01*
X263478Y327234D01*
X263500Y327312D01*
X263521Y327389D01*
X263542Y327467D01*
X263583Y327620D01*
X253489Y326526D02*
X254205Y327443D01*
X255999Y329742D01*
X258508Y327269D02*
X259190Y328010D01*
X258700Y326600D02*
X259190Y328010D01*
X267100Y325784D02*
X267301Y325769D01*
X267183Y326940D02*
X267257Y326933D01*
X267332Y326928D01*
X267405Y326923D01*
X267479Y326918D01*
X267553Y326914D01*
X267597Y326912D01*
X267727Y326907D01*
X267894Y326904D02*
X267975Y326903D01*
X267894Y326904D02*
X267975Y326903D01*
X266473Y327006D02*
X266608Y326993D01*
X266161Y325897D02*
X266185Y325894D01*
X266209Y325891D01*
X266232Y325888D01*
X266256Y325884D01*
X266279Y325881D01*
X266303Y325878D01*
X266326Y325875D01*
X266161Y325897D02*
X266473Y327006D01*
X266161Y325897D02*
X266473Y327006D01*
X266326Y325875D02*
X266349Y325872D01*
X266396Y325865D01*
X266458Y325857D01*
X266519Y325849D01*
X266579Y325841D01*
X266639Y325833D01*
X266608Y326993D02*
X266674Y326987D01*
X266639Y325833D02*
X266699Y325826D01*
X266674Y326987D02*
X266740Y326981D01*
X266699Y325826D02*
X266758Y325818D01*
X266740Y326981D02*
X266805Y326974D01*
X266758Y325818D02*
X266818Y325811D01*
X266877Y325805D01*
X266805Y326974D02*
X266958Y326960D01*
X266877Y325805D02*
X266997Y325793D01*
X266958Y326960D02*
X267034Y326953D01*
X266997Y325793D02*
X267100Y325784D01*
X267034Y326953D02*
X267109Y326946D01*
X266997Y325793D02*
X267201Y325776D01*
X267109Y326946D02*
X267183Y326940D01*
X252543Y321160D02*
X252544Y321170D01*
X252544Y321181D01*
X252545Y321192D01*
X252545Y321203D01*
X252546Y321214D01*
X252546Y321224D01*
X252547Y321232D01*
X251336Y323763D02*
X252030Y324654D01*
X252756Y325586D01*
X252542Y321148D02*
X252543Y321146D01*
X251893Y326102D02*
X251928Y326089D01*
X252001Y326062D02*
X252074Y326036D01*
X252147Y326012D01*
X252259Y325977D02*
X253038Y326985D01*
X252259Y325977D02*
X253038Y326985D01*
X252756Y325586D02*
X253489Y326526D01*
X256905Y325527D02*
X257796Y326495D01*
X256905Y325527D02*
X257796Y326495D01*
X258508Y327269D02*
X258700Y326600D01*
X258735Y326612D01*
X253113Y322394D02*
X259026Y328805D01*
X260666Y321197D02*
X261332D01*
X260666D02*
X261332D01*
D17*
X254852Y335724D02*
D03*
D18*
X260340Y335209D02*
X262158Y334899D01*
X261620Y331752D02*
X262797Y333170D01*
X259163Y333791D02*
X259803Y332061D01*
X259163Y333791D02*
X260340Y335209D01*
X259803Y332061D02*
X261620Y331752D01*
X262158Y334899D02*
X262797Y333170D01*
D21*
X222441Y314031D02*
Y310033D01*
X221108Y311366D01*
X219775Y310033D01*
Y314031D01*
X218442D02*
Y310699D01*
X217776Y310033D01*
X216443D01*
X215776Y310699D01*
Y314031D01*
X214443D02*
X211778D01*
X213111D01*
Y310033D01*
X206446Y314031D02*
X205113D01*
X205780D01*
Y310033D01*
X206446D01*
X205113D01*
X200448Y313365D02*
X201115Y314031D01*
X202447D01*
X203114Y313365D01*
Y312699D01*
X202447Y312032D01*
X201115D01*
X200448Y311366D01*
Y310699D01*
X201115Y310033D01*
X202447D01*
X203114Y310699D01*
X196449Y314031D02*
X199115D01*
Y310033D01*
X196449D01*
X199115Y312032D02*
X197782D01*
X188452Y310033D02*
X191118D01*
X188452Y312699D01*
Y313365D01*
X189118Y314031D01*
X190451D01*
X191118Y313365D01*
X187119D02*
X186452Y314031D01*
X185120D01*
X184453Y313365D01*
Y310699D01*
X185120Y310033D01*
X186452D01*
X187119Y310699D01*
Y313365D01*
X180455Y310033D02*
X183120D01*
X180455Y312699D01*
Y313365D01*
X181121Y314031D01*
X182454D01*
X183120Y313365D01*
X179122D02*
X178455Y314031D01*
X177122D01*
X176456Y313365D01*
Y312699D01*
X177122Y312032D01*
X177789D01*
X177122D01*
X176456Y311366D01*
Y310699D01*
X177122Y310033D01*
X178455D01*
X179122Y310699D01*
D22*
X237283Y327330D02*
Y323394D01*
X235315Y321427D01*
X233347Y323394D01*
Y327330D01*
X231379D02*
Y321427D01*
Y324378D01*
X227444D01*
Y327330D01*
Y321427D01*
X221540Y327330D02*
X225476D01*
Y324378D01*
X223508D01*
X225476D01*
Y321427D01*
X213668D02*
Y325362D01*
X211701Y327330D01*
X209733Y325362D01*
Y321427D01*
Y324378D01*
X213668D01*
X207765Y321427D02*
Y327330D01*
X205797Y325362D01*
X203829Y327330D01*
Y321427D01*
X201861D02*
Y327330D01*
X198909D01*
X197925Y326346D01*
Y324378D01*
X198909Y323394D01*
X201861D01*
X190054Y325362D02*
X188086Y321427D01*
X186118Y325362D01*
X184150Y321427D02*
X182183D01*
X183167D01*
Y327330D01*
X184150Y326346D01*
X179231Y321427D02*
Y322410D01*
X178247D01*
Y321427D01*
X179231D01*
X174311Y326346D02*
X173327Y327330D01*
X171359D01*
X170375Y326346D01*
Y322410D01*
X171359Y321427D01*
X173327D01*
X174311Y322410D01*
Y326346D01*
D23*
X265189Y315669D02*
D03*
M02*
