G04*
G04 #@! TF.GenerationSoftware,Altium Limited,Altium Designer,22.8.2 (66)*
G04*
G04 Layer_Color=8388736*
%FSLAX25Y25*%
%MOIN*%
G70*
G04*
G04 #@! TF.SameCoordinates,0D4134F5-1D43-4ED5-91CB-E042AC42DECA*
G04*
G04*
G04 #@! TF.FilePolarity,Negative*
G04*
G01*
G75*
%ADD12C,0.00394*%
%ADD25R,0.03937X0.02362*%
%ADD79R,0.01575X0.01575*%
%ADD99R,1.60616X0.05052*%
%ADD100R,1.56693X0.05118*%
%ADD101R,2.16553X0.05103*%
%ADD102R,2.29473X0.04962*%
%ADD103R,0.12992X0.06299*%
%ADD104R,0.04331X0.02756*%
%ADD105R,0.04331X0.04331*%
%ADD106R,0.04331X0.04134*%
%ADD107R,0.13780X0.07677*%
%ADD108R,0.06496X0.06496*%
%ADD109R,0.02835X0.02835*%
%ADD110R,0.07480X0.04921*%
%ADD111R,0.03937X0.04331*%
%ADD112R,0.13189X0.13189*%
%ADD113O,0.01772X0.04528*%
%ADD114O,0.04528X0.01772*%
%ADD115R,0.04921X0.07480*%
%ADD116R,0.07480X0.04921*%
%ADD117R,0.07677X0.13780*%
%ADD118R,0.04921X0.07480*%
%ADD119R,0.04331X0.03937*%
%ADD120R,0.06890X0.03386*%
%ADD121R,0.04134X0.04331*%
%ADD122R,0.10236X0.12205*%
%ADD123R,0.04528X0.02362*%
%ADD124R,0.01181X0.02126*%
%ADD125R,0.02126X0.01181*%
%ADD126R,0.04331X0.04134*%
%ADD127R,0.09055X0.05118*%
%ADD128R,0.08189X0.04409*%
%ADD129R,0.05315X0.11024*%
%ADD130R,0.02835X0.02756*%
%ADD131R,0.05906X0.04134*%
%ADD132R,0.04134X0.05906*%
G04:AMPARAMS|DCode=133|XSize=62.21mil|YSize=207.09mil|CornerRadius=0mil|HoleSize=0mil|Usage=FLASHONLY|Rotation=45.000|XOffset=0mil|YOffset=0mil|HoleType=Round|Shape=Rectangle|*
%AMROTATEDRECTD133*
4,1,4,0.05122,-0.09521,-0.09521,0.05122,-0.05122,0.09521,0.09521,-0.05122,0.05122,-0.09521,0.0*
%
%ADD133ROTATEDRECTD133*%

%ADD134R,0.13110X0.07795*%
%ADD135R,0.13110X0.08268*%
%ADD136R,0.02638X0.03071*%
%ADD137R,0.02835X0.02677*%
%ADD138R,0.02756X0.04724*%
%ADD139R,0.02362X0.03937*%
%ADD140R,0.42126X0.35827*%
%ADD141R,0.04528X0.12008*%
%ADD142R,0.04646X0.04016*%
%ADD143R,0.11024X0.04921*%
%ADD144R,0.04921X0.11024*%
%ADD145R,0.02835X0.02835*%
%ADD146R,0.06102X0.02165*%
%ADD147R,0.04134X0.04134*%
%ADD148R,0.04724X0.02756*%
%ADD149R,0.02677X0.02835*%
%ADD150C,0.02953*%
%ADD151R,0.09449X0.31496*%
%ADD152R,0.09449X0.13780*%
%ADD153R,0.10236X0.15354*%
%ADD154R,0.02756X0.06496*%
%ADD155R,0.03543X0.03150*%
%ADD156R,0.01968X0.01968*%
%ADD157R,0.02953X0.04528*%
%ADD158R,0.06102X0.04724*%
%ADD159R,0.09449X0.08858*%
%ADD160R,0.04528X0.02953*%
%ADD161R,0.06299X0.06299*%
%ADD162R,0.04528X0.05906*%
%ADD163R,0.05906X0.04528*%
%ADD164R,0.04724X0.11417*%
%ADD165R,0.09882X0.12591*%
%ADD166R,0.06496X0.02756*%
%ADD167R,0.03543X0.04331*%
%ADD168R,0.22047X0.23425*%
%ADD169R,0.04331X0.08661*%
%ADD170R,0.03937X0.01968*%
%ADD171R,0.04724X0.06102*%
%ADD172R,0.10827X0.10827*%
%ADD173O,0.03740X0.01575*%
%ADD174O,0.01575X0.03740*%
%ADD175R,0.06299X0.12992*%
%ADD176C,0.22047*%
%ADD177C,0.08594*%
%ADD178C,0.07087*%
%ADD179C,0.07874*%
%ADD180C,0.09843*%
%ADD181C,0.04724*%
%ADD182C,0.06693*%
%ADD183R,0.07874X0.07874*%
%ADD184C,0.25591*%
%ADD185C,0.08268*%
%ADD186R,0.08268X0.08268*%
%ADD187C,0.08661*%
%ADD188C,0.09055*%
%ADD189C,0.11811*%
%ADD190C,0.10236*%
G36*
X722441Y380118D02*
Y365551D01*
Y28543D01*
Y13976D01*
Y13386D01*
X707874D01*
Y13976D01*
X509842D01*
Y12598D01*
X495276D01*
Y13976D01*
X35827D01*
Y27165D01*
X35630D01*
X35630Y44488D01*
X-9939Y44488D01*
Y59055D01*
X35630Y59055D01*
X35630Y115354D01*
X-9831Y115354D01*
Y129921D01*
X35630Y129921D01*
X35630Y201181D01*
X-10314Y201181D01*
Y208661D01*
X-10433D01*
X-10433Y291339D01*
X4724Y291339D01*
X4724Y215748D01*
X50472Y215748D01*
Y201181D01*
X50197D01*
X50197Y129921D01*
X54713D01*
Y129527D01*
X262598Y129528D01*
Y114961D01*
X262598D01*
X262598Y28543D01*
X392520D01*
X392520Y185827D01*
X400000D01*
Y187402D01*
X495276Y187402D01*
Y365551D01*
X50591Y365551D01*
X50590Y287402D01*
X36024D01*
X36024Y336417D01*
X-10392Y336417D01*
Y350984D01*
X36024Y350984D01*
X36024Y365551D01*
X35827D01*
Y380118D01*
X722441Y380118D01*
D02*
G37*
%LPC*%
G36*
X509842Y365551D02*
Y28543D01*
X707874D01*
Y365551D01*
X509842Y365551D01*
D02*
G37*
G36*
X495276Y172835D02*
X407087Y172835D01*
X407087Y28543D01*
X495276D01*
Y172835D01*
D02*
G37*
G36*
X248031Y114961D02*
X50197Y114961D01*
X50197Y59055D01*
X50591D01*
Y52716D01*
X50591D01*
X50591Y28543D01*
X248031D01*
X248031Y114961D01*
D02*
G37*
%LPD*%
G36*
X72992Y92044D02*
X73029Y92033D01*
X73063Y92015D01*
X73093Y91990D01*
X73118Y91960D01*
X73136Y91926D01*
X73147Y91889D01*
X73151Y91850D01*
Y88465D01*
X73147Y88426D01*
X73136Y88389D01*
X73118Y88355D01*
X73093Y88325D01*
X73063Y88300D01*
X73029Y88282D01*
X72992Y88271D01*
X72953Y88267D01*
X69567D01*
X69529Y88271D01*
X69492Y88282D01*
X69457Y88300D01*
X69427Y88325D01*
X69403Y88355D01*
X69384Y88389D01*
X69373Y88426D01*
X69370Y88465D01*
Y91063D01*
X69370Y91073D01*
Y91082D01*
X69372Y91092D01*
X69373Y91102D01*
X69376Y91111D01*
X69378Y91120D01*
X69382Y91129D01*
X69384Y91139D01*
X69389Y91147D01*
X69393Y91156D01*
X69398Y91164D01*
X69403Y91173D01*
X69409Y91180D01*
X69414Y91189D01*
X69421Y91195D01*
X69427Y91203D01*
X69435Y91209D01*
X69442Y91216D01*
X69450Y91221D01*
X69457Y91227D01*
X69466Y91232D01*
X69474Y91237D01*
X69483Y91241D01*
X69492Y91246D01*
X69501Y91249D01*
X69510Y91252D01*
X69519Y91254D01*
X69529Y91257D01*
X69538Y91258D01*
X69548Y91260D01*
X69672Y91272D01*
X69893Y91363D01*
X70054Y91525D01*
X70146Y91745D01*
X70158Y91870D01*
X70160Y91879D01*
X70161Y91889D01*
X70164Y91898D01*
X70165Y91908D01*
X70169Y91917D01*
X70172Y91926D01*
X70177Y91935D01*
X70180Y91944D01*
X70186Y91952D01*
X70190Y91960D01*
X70196Y91968D01*
X70202Y91976D01*
X70209Y91983D01*
X70215Y91990D01*
X70222Y91996D01*
X70229Y92003D01*
X70237Y92009D01*
X70245Y92015D01*
X70253Y92019D01*
X70261Y92025D01*
X70270Y92028D01*
X70279Y92033D01*
X70288Y92036D01*
X70297Y92040D01*
X70307Y92042D01*
X70316Y92044D01*
X70326Y92045D01*
X70335Y92047D01*
X70345D01*
X70355Y92048D01*
X72953D01*
X72992Y92044D01*
D02*
G37*
D12*
X1348404Y-32379D02*
D03*
D25*
X851575Y91948D02*
D03*
X841339D02*
D03*
D79*
X71260Y90158D02*
D03*
D99*
X552584Y6298D02*
D03*
D100*
X79042Y6496D02*
D03*
D101*
X285281Y6310D02*
D03*
D102*
X746589Y6181D02*
D03*
D103*
X138976Y166535D02*
D03*
Y146063D02*
D03*
X116142Y166535D02*
D03*
Y146063D02*
D03*
X160630Y166535D02*
D03*
Y146063D02*
D03*
Y271654D02*
D03*
Y251181D02*
D03*
X161417Y200394D02*
D03*
Y220866D02*
D03*
X181890Y271654D02*
D03*
Y251181D02*
D03*
X140945Y200394D02*
D03*
Y220866D02*
D03*
D104*
X814370Y146260D02*
D03*
Y138779D02*
D03*
X805315D02*
D03*
D105*
Y145473D02*
D03*
D106*
X824803Y114370D02*
D03*
Y120669D02*
D03*
X576673Y334569D02*
D03*
Y328270D02*
D03*
X62205Y90139D02*
D03*
Y96438D02*
D03*
X124803Y103543D02*
D03*
Y97244D02*
D03*
X71260Y106299D02*
D03*
Y100000D02*
D03*
X848032Y127218D02*
D03*
Y133517D02*
D03*
X785039Y201181D02*
D03*
Y194882D02*
D03*
X562913Y167264D02*
D03*
Y160965D02*
D03*
X525787Y193307D02*
D03*
Y199606D02*
D03*
X562913Y237402D02*
D03*
Y231102D02*
D03*
Y210866D02*
D03*
Y217165D02*
D03*
D107*
X610890Y298316D02*
D03*
Y320166D02*
D03*
X636850Y324694D02*
D03*
Y346544D02*
D03*
D108*
X434882Y155295D02*
D03*
Y132106D02*
D03*
X454882D02*
D03*
Y155295D02*
D03*
X455079Y49429D02*
D03*
Y72618D02*
D03*
X435079D02*
D03*
Y49429D02*
D03*
D109*
X415009Y128084D02*
D03*
Y124541D02*
D03*
X473179Y127913D02*
D03*
Y124370D02*
D03*
X80315Y93898D02*
D03*
Y97441D02*
D03*
X206299Y39134D02*
D03*
Y35591D02*
D03*
Y89173D02*
D03*
Y92716D02*
D03*
X767717Y37598D02*
D03*
Y34055D02*
D03*
X449016Y118937D02*
D03*
Y122480D02*
D03*
X333429Y164354D02*
D03*
Y160811D02*
D03*
X369921Y159630D02*
D03*
Y156087D02*
D03*
X438976Y88779D02*
D03*
Y92323D02*
D03*
X439173Y118937D02*
D03*
Y122480D02*
D03*
X449016Y92323D02*
D03*
Y88780D02*
D03*
D110*
X585433Y348675D02*
D03*
Y336864D02*
D03*
X534772Y337218D02*
D03*
Y325408D02*
D03*
X116535Y100394D02*
D03*
Y88583D02*
D03*
X348031Y222835D02*
D03*
Y211024D02*
D03*
Y231102D02*
D03*
Y242913D02*
D03*
D111*
X545401Y348872D02*
D03*
X539102D02*
D03*
X560756D02*
D03*
X554457D02*
D03*
X569094Y261648D02*
D03*
X562795D02*
D03*
X82677Y72047D02*
D03*
X76378D02*
D03*
X101181Y55512D02*
D03*
X94882D02*
D03*
Y65630D02*
D03*
X101181D02*
D03*
X107087Y38189D02*
D03*
X100787D02*
D03*
X113386Y46063D02*
D03*
X107087D02*
D03*
X113386Y74410D02*
D03*
X107087D02*
D03*
X92520Y86516D02*
D03*
X86221D02*
D03*
X168110Y51181D02*
D03*
X174409D02*
D03*
X186614Y56693D02*
D03*
X192913D02*
D03*
X225197Y66142D02*
D03*
X231496D02*
D03*
X231102Y56693D02*
D03*
X237402D02*
D03*
X168110Y71260D02*
D03*
X174409D02*
D03*
X186614Y66417D02*
D03*
X192913D02*
D03*
X85039Y106299D02*
D03*
X78740D02*
D03*
X225631Y106224D02*
D03*
X219332D02*
D03*
X425984Y97047D02*
D03*
X419685D02*
D03*
X645512Y283257D02*
D03*
X639213D02*
D03*
X470472Y64173D02*
D03*
X464173D02*
D03*
D112*
X556031Y332140D02*
D03*
X156890Y95669D02*
D03*
D113*
X550913Y341392D02*
D03*
X553472D02*
D03*
X556031D02*
D03*
X558590D02*
D03*
X561150D02*
D03*
Y322888D02*
D03*
X558590D02*
D03*
X556031D02*
D03*
X553472D02*
D03*
X550913D02*
D03*
X162008Y104921D02*
D03*
X159449D02*
D03*
X156890D02*
D03*
X154331D02*
D03*
X151772D02*
D03*
Y86417D02*
D03*
X154331D02*
D03*
X156890D02*
D03*
X159449D02*
D03*
X162008D02*
D03*
D114*
X565283Y337258D02*
D03*
Y334699D02*
D03*
Y332140D02*
D03*
Y329581D02*
D03*
Y327022D02*
D03*
X546779D02*
D03*
Y329581D02*
D03*
Y332140D02*
D03*
Y334699D02*
D03*
Y337258D02*
D03*
X166142Y90551D02*
D03*
Y93110D02*
D03*
Y95669D02*
D03*
Y98228D02*
D03*
Y100787D02*
D03*
X147638D02*
D03*
Y98228D02*
D03*
Y95669D02*
D03*
Y93110D02*
D03*
Y90551D02*
D03*
D115*
X565400Y311614D02*
D03*
X577211D02*
D03*
X762205Y259842D02*
D03*
X750394D02*
D03*
D116*
X546653Y270703D02*
D03*
Y282514D02*
D03*
X614961Y161945D02*
D03*
Y150134D02*
D03*
X628385Y161945D02*
D03*
Y150134D02*
D03*
X641810Y161945D02*
D03*
Y150134D02*
D03*
X601536Y161945D02*
D03*
Y150134D02*
D03*
X603071Y68542D02*
D03*
Y56731D02*
D03*
X631756Y298217D02*
D03*
Y310028D02*
D03*
X643173Y298217D02*
D03*
Y310028D02*
D03*
X629920Y56731D02*
D03*
Y68542D02*
D03*
X643344Y56731D02*
D03*
Y68542D02*
D03*
X616495Y56731D02*
D03*
Y68542D02*
D03*
D117*
X580905Y282514D02*
D03*
X559055D02*
D03*
D118*
X187402Y103542D02*
D03*
X175591D02*
D03*
X219291Y38976D02*
D03*
X231102D02*
D03*
X231496Y89134D02*
D03*
X219685D02*
D03*
X185827Y300787D02*
D03*
X174016D02*
D03*
X186221Y324787D02*
D03*
X174409D02*
D03*
D119*
X65197Y72087D02*
D03*
Y65787D02*
D03*
X131572Y97243D02*
D03*
Y103542D02*
D03*
X138661Y103543D02*
D03*
Y97244D02*
D03*
X224410Y50433D02*
D03*
Y56732D02*
D03*
X231890Y72441D02*
D03*
Y66142D02*
D03*
X186221Y72835D02*
D03*
Y66535D02*
D03*
X574409Y64764D02*
D03*
Y71063D02*
D03*
Y84193D02*
D03*
Y77894D02*
D03*
X774016Y40551D02*
D03*
Y34252D02*
D03*
X450787Y344094D02*
D03*
Y350394D02*
D03*
D120*
X85787Y65630D02*
D03*
Y60630D02*
D03*
Y55630D02*
D03*
X73268D02*
D03*
Y60630D02*
D03*
Y65630D02*
D03*
X202795Y66417D02*
D03*
Y56417D02*
D03*
X215315D02*
D03*
Y61417D02*
D03*
Y66417D02*
D03*
D121*
X113386Y65748D02*
D03*
X107087D02*
D03*
X113386Y55512D02*
D03*
X107087D02*
D03*
X65354Y78740D02*
D03*
X71653D02*
D03*
X168110Y57874D02*
D03*
X174409D02*
D03*
X168110Y64567D02*
D03*
X174409D02*
D03*
X851181Y100610D02*
D03*
X844882D02*
D03*
X802362Y155512D02*
D03*
X808661D02*
D03*
X797612Y170669D02*
D03*
X791313D02*
D03*
D122*
X132677Y60630D02*
D03*
D123*
X143898Y68130D02*
D03*
Y63130D02*
D03*
Y58130D02*
D03*
Y53130D02*
D03*
X121457D02*
D03*
Y58130D02*
D03*
Y63130D02*
D03*
Y68130D02*
D03*
D124*
X69291Y93799D02*
D03*
X71260D02*
D03*
X73228D02*
D03*
Y86516D02*
D03*
X71260D02*
D03*
X69291D02*
D03*
D125*
X74902Y92126D02*
D03*
Y90158D02*
D03*
Y88189D02*
D03*
X67618D02*
D03*
Y90158D02*
D03*
Y92126D02*
D03*
D126*
X86221Y93898D02*
D03*
Y99803D02*
D03*
X94488Y100000D02*
D03*
Y93701D02*
D03*
D127*
X105905Y97441D02*
D03*
Y88386D02*
D03*
X546063Y50197D02*
D03*
Y59252D02*
D03*
D128*
X156299Y44606D02*
D03*
Y53031D02*
D03*
Y77047D02*
D03*
Y68622D02*
D03*
X463386Y127441D02*
D03*
Y119016D02*
D03*
X424803Y127441D02*
D03*
Y119016D02*
D03*
D129*
X199409Y38976D02*
D03*
X180905D02*
D03*
X181299Y89370D02*
D03*
X199803D02*
D03*
D130*
X211811Y42756D02*
D03*
Y39134D02*
D03*
X212205Y92756D02*
D03*
Y89134D02*
D03*
D131*
X105905Y230315D02*
D03*
Y222441D02*
D03*
X84984Y230602D02*
D03*
Y222728D02*
D03*
X97976Y241339D02*
D03*
Y249213D02*
D03*
X77110Y240945D02*
D03*
Y248819D02*
D03*
X432283Y89370D02*
D03*
Y81496D02*
D03*
X424016D02*
D03*
Y89370D02*
D03*
X422047Y144488D02*
D03*
Y136614D02*
D03*
X466142Y144882D02*
D03*
Y137008D02*
D03*
X325827Y248409D02*
D03*
Y240535D02*
D03*
X325984Y205512D02*
D03*
Y213386D02*
D03*
X307480Y205512D02*
D03*
Y213386D02*
D03*
Y241339D02*
D03*
Y249213D02*
D03*
D132*
X99606Y230315D02*
D03*
X91732D02*
D03*
X91677Y249213D02*
D03*
X83803D02*
D03*
X464173Y40157D02*
D03*
X472047D02*
D03*
X464173Y49213D02*
D03*
X472047D02*
D03*
X817319Y194108D02*
D03*
X825193D02*
D03*
X472047Y72362D02*
D03*
X464173D02*
D03*
X422441Y208661D02*
D03*
X430315D02*
D03*
X422441Y246850D02*
D03*
X430315D02*
D03*
Y237402D02*
D03*
X422441D02*
D03*
X430315Y217717D02*
D03*
X422441D02*
D03*
X364803Y253134D02*
D03*
X372677D02*
D03*
X326217Y257858D02*
D03*
X334091D02*
D03*
X325984Y196063D02*
D03*
X333858D02*
D03*
X345118Y192110D02*
D03*
X352992D02*
D03*
X362835Y201953D02*
D03*
X370709D02*
D03*
X345114Y262976D02*
D03*
X352988D02*
D03*
D133*
X260634Y286038D02*
D03*
X255901Y266718D02*
D03*
X268106Y211600D02*
D03*
X272839Y230920D02*
D03*
D134*
X50365Y271299D02*
D03*
Y241299D02*
D03*
X21682D02*
D03*
Y271299D02*
D03*
D135*
X50365Y259567D02*
D03*
Y253031D02*
D03*
X21682D02*
D03*
Y259567D02*
D03*
D136*
X464213Y55512D02*
D03*
X468071D02*
D03*
D137*
X328067Y169016D02*
D03*
Y172716D02*
D03*
X580315Y77835D02*
D03*
Y74134D02*
D03*
X762992Y34528D02*
D03*
Y30827D02*
D03*
X807550Y214016D02*
D03*
Y210315D02*
D03*
X375157Y165457D02*
D03*
Y169157D02*
D03*
X339606Y327716D02*
D03*
Y324016D02*
D03*
X329331Y324016D02*
D03*
Y327717D02*
D03*
X334055D02*
D03*
Y324016D02*
D03*
D138*
X851772Y119114D02*
D03*
X848032D02*
D03*
X844291D02*
D03*
Y108878D02*
D03*
X851772D02*
D03*
D139*
X856999Y136929D02*
D03*
Y126693D02*
D03*
D140*
X550394Y123425D02*
D03*
D141*
X563779Y85827D02*
D03*
X557087D02*
D03*
X550394D02*
D03*
X543701D02*
D03*
X537008D02*
D03*
D142*
X589764Y46063D02*
D03*
Y58661D02*
D03*
D143*
X575984Y58268D02*
D03*
Y46457D02*
D03*
X561024Y58268D02*
D03*
Y46457D02*
D03*
D144*
X522638Y70079D02*
D03*
X534449D02*
D03*
X522638Y55118D02*
D03*
X534449D02*
D03*
D145*
X553740Y73740D02*
D03*
X557283D02*
D03*
X817126Y201181D02*
D03*
X813583D02*
D03*
D146*
X793307Y114370D02*
D03*
Y111811D02*
D03*
Y109252D02*
D03*
Y106693D02*
D03*
Y104134D02*
D03*
Y101575D02*
D03*
Y99016D02*
D03*
X816142D02*
D03*
Y101575D02*
D03*
Y104134D02*
D03*
Y106693D02*
D03*
Y109252D02*
D03*
Y111811D02*
D03*
Y114370D02*
D03*
D147*
X602598Y243701D02*
D03*
X608504D02*
D03*
D148*
X810316Y89370D02*
D03*
Y85630D02*
D03*
Y81890D02*
D03*
X799685D02*
D03*
Y85630D02*
D03*
Y89370D02*
D03*
D149*
X830866Y106693D02*
D03*
X827165D02*
D03*
X830984Y99016D02*
D03*
X827283D02*
D03*
X783740Y106693D02*
D03*
X780039D02*
D03*
X783740Y114567D02*
D03*
X780039D02*
D03*
X792244Y155512D02*
D03*
X795945D02*
D03*
X802244Y164567D02*
D03*
X798543D02*
D03*
X328067Y160118D02*
D03*
X324366D02*
D03*
Y164354D02*
D03*
X328067D02*
D03*
X375157Y155083D02*
D03*
X378858D02*
D03*
Y160083D02*
D03*
X375157D02*
D03*
D150*
X603228Y228858D02*
D03*
X648228D02*
D03*
Y223858D02*
D03*
Y218858D02*
D03*
Y213858D02*
D03*
Y208858D02*
D03*
Y203858D02*
D03*
Y198858D02*
D03*
Y193858D02*
D03*
Y188858D02*
D03*
Y183858D02*
D03*
Y178858D02*
D03*
X643228Y228858D02*
D03*
Y223858D02*
D03*
Y218858D02*
D03*
Y213858D02*
D03*
Y208858D02*
D03*
Y203858D02*
D03*
Y198858D02*
D03*
Y193858D02*
D03*
Y188858D02*
D03*
Y183858D02*
D03*
Y178858D02*
D03*
X638228Y228858D02*
D03*
Y223858D02*
D03*
Y218858D02*
D03*
Y213858D02*
D03*
Y208858D02*
D03*
Y203858D02*
D03*
Y198858D02*
D03*
Y193858D02*
D03*
Y188858D02*
D03*
Y183858D02*
D03*
Y178858D02*
D03*
X633228Y228858D02*
D03*
Y223858D02*
D03*
Y218858D02*
D03*
Y213858D02*
D03*
Y208858D02*
D03*
Y203858D02*
D03*
Y198858D02*
D03*
Y193858D02*
D03*
Y188858D02*
D03*
Y183858D02*
D03*
Y178858D02*
D03*
X628228Y228858D02*
D03*
Y223858D02*
D03*
Y218858D02*
D03*
Y213858D02*
D03*
Y208858D02*
D03*
Y203858D02*
D03*
Y198858D02*
D03*
Y193858D02*
D03*
Y188858D02*
D03*
Y183858D02*
D03*
Y178858D02*
D03*
X623228Y228858D02*
D03*
Y223858D02*
D03*
Y218858D02*
D03*
Y213858D02*
D03*
Y208858D02*
D03*
Y203858D02*
D03*
Y198858D02*
D03*
Y193858D02*
D03*
Y188858D02*
D03*
Y183858D02*
D03*
Y178858D02*
D03*
X618228Y228858D02*
D03*
Y223858D02*
D03*
Y218858D02*
D03*
Y213858D02*
D03*
Y208858D02*
D03*
Y203858D02*
D03*
Y198858D02*
D03*
Y193858D02*
D03*
Y188858D02*
D03*
Y183858D02*
D03*
Y178858D02*
D03*
X613228Y228858D02*
D03*
Y223858D02*
D03*
Y218858D02*
D03*
Y213858D02*
D03*
Y208858D02*
D03*
Y203858D02*
D03*
Y198858D02*
D03*
Y193858D02*
D03*
Y188858D02*
D03*
Y183858D02*
D03*
Y178858D02*
D03*
X608228Y228858D02*
D03*
Y223858D02*
D03*
Y218858D02*
D03*
Y213858D02*
D03*
Y208858D02*
D03*
Y203858D02*
D03*
Y198858D02*
D03*
Y193858D02*
D03*
Y188858D02*
D03*
Y183858D02*
D03*
Y178858D02*
D03*
X603228Y223858D02*
D03*
Y218858D02*
D03*
Y213858D02*
D03*
Y208858D02*
D03*
Y203858D02*
D03*
Y198858D02*
D03*
Y193858D02*
D03*
Y188858D02*
D03*
Y183858D02*
D03*
Y178858D02*
D03*
X598228Y228858D02*
D03*
Y223858D02*
D03*
Y218858D02*
D03*
Y213858D02*
D03*
Y208858D02*
D03*
Y203858D02*
D03*
Y198858D02*
D03*
Y193858D02*
D03*
Y188858D02*
D03*
Y183858D02*
D03*
Y178858D02*
D03*
X597953Y86024D02*
D03*
Y91024D02*
D03*
Y96024D02*
D03*
Y101024D02*
D03*
Y106024D02*
D03*
Y111024D02*
D03*
Y116024D02*
D03*
Y121024D02*
D03*
Y126024D02*
D03*
Y131024D02*
D03*
Y136024D02*
D03*
X602953Y86024D02*
D03*
Y91024D02*
D03*
Y96024D02*
D03*
Y101024D02*
D03*
Y106024D02*
D03*
Y111024D02*
D03*
Y116024D02*
D03*
Y121024D02*
D03*
Y126024D02*
D03*
Y131024D02*
D03*
Y136024D02*
D03*
X607953Y86024D02*
D03*
Y91024D02*
D03*
Y96024D02*
D03*
Y101024D02*
D03*
Y106024D02*
D03*
Y111024D02*
D03*
Y116024D02*
D03*
Y121024D02*
D03*
Y126024D02*
D03*
Y131024D02*
D03*
Y136024D02*
D03*
X612953Y86024D02*
D03*
Y91024D02*
D03*
Y96024D02*
D03*
Y101024D02*
D03*
Y106024D02*
D03*
Y111024D02*
D03*
Y116024D02*
D03*
Y121024D02*
D03*
Y126024D02*
D03*
Y131024D02*
D03*
Y136024D02*
D03*
X617953Y86024D02*
D03*
Y91024D02*
D03*
Y96024D02*
D03*
Y101024D02*
D03*
Y106024D02*
D03*
Y111024D02*
D03*
Y116024D02*
D03*
Y121024D02*
D03*
Y126024D02*
D03*
Y131024D02*
D03*
Y136024D02*
D03*
X622953Y86024D02*
D03*
Y91024D02*
D03*
Y96024D02*
D03*
Y101024D02*
D03*
Y106024D02*
D03*
Y111024D02*
D03*
Y116024D02*
D03*
Y121024D02*
D03*
Y126024D02*
D03*
Y131024D02*
D03*
Y136024D02*
D03*
X627953Y86024D02*
D03*
Y91024D02*
D03*
Y96024D02*
D03*
Y101024D02*
D03*
Y106024D02*
D03*
Y111024D02*
D03*
Y116024D02*
D03*
Y121024D02*
D03*
Y126024D02*
D03*
Y131024D02*
D03*
Y136024D02*
D03*
X632953Y86024D02*
D03*
Y91024D02*
D03*
Y96024D02*
D03*
Y101024D02*
D03*
Y106024D02*
D03*
Y111024D02*
D03*
Y116024D02*
D03*
Y121024D02*
D03*
Y126024D02*
D03*
Y131024D02*
D03*
Y136024D02*
D03*
X637953Y86024D02*
D03*
Y91024D02*
D03*
Y96024D02*
D03*
Y101024D02*
D03*
Y106024D02*
D03*
Y111024D02*
D03*
Y116024D02*
D03*
Y121024D02*
D03*
Y126024D02*
D03*
Y131024D02*
D03*
Y136024D02*
D03*
X642953Y86024D02*
D03*
Y91024D02*
D03*
Y96024D02*
D03*
Y101024D02*
D03*
Y106024D02*
D03*
Y111024D02*
D03*
Y116024D02*
D03*
Y121024D02*
D03*
Y126024D02*
D03*
Y131024D02*
D03*
Y136024D02*
D03*
X647953Y86024D02*
D03*
Y91024D02*
D03*
Y96024D02*
D03*
Y101024D02*
D03*
Y106024D02*
D03*
Y111024D02*
D03*
Y116024D02*
D03*
Y121024D02*
D03*
Y126024D02*
D03*
Y131024D02*
D03*
Y136024D02*
D03*
D151*
X736614Y298819D02*
D03*
D152*
X776771Y289961D02*
D03*
D153*
X764960Y329725D02*
D03*
Y275787D02*
D03*
X748031Y329725D02*
D03*
Y275787D02*
D03*
D154*
X807500Y201181D02*
D03*
X802500D02*
D03*
X797500D02*
D03*
X792500D02*
D03*
X807500Y179921D02*
D03*
X802500D02*
D03*
X797500D02*
D03*
X792500D02*
D03*
X739744Y19291D02*
D03*
X744744D02*
D03*
X749744D02*
D03*
X754744D02*
D03*
X739744Y40551D02*
D03*
X744744D02*
D03*
X749744D02*
D03*
X754744D02*
D03*
D155*
X807480Y221260D02*
D03*
X815354D02*
D03*
D156*
X811417Y219882D02*
D03*
D157*
X794183Y221811D02*
D03*
X797924Y212756D02*
D03*
X790443D02*
D03*
D158*
X790729Y268898D02*
D03*
Y261811D02*
D03*
X780902Y268898D02*
D03*
Y261811D02*
D03*
D159*
X809252Y257087D02*
D03*
X826181D02*
D03*
D160*
X763189Y24016D02*
D03*
X772244Y27756D02*
D03*
Y20276D02*
D03*
D161*
X619527Y283257D02*
D03*
X627402D02*
D03*
D162*
X474016Y216929D02*
D03*
X481102D02*
D03*
X473622Y237543D02*
D03*
X480709D02*
D03*
X345118Y253134D02*
D03*
X352205D02*
D03*
X363366Y192110D02*
D03*
X370453D02*
D03*
X345118Y201953D02*
D03*
X352205D02*
D03*
X340787Y135811D02*
D03*
X333701D02*
D03*
X340787Y146441D02*
D03*
X333701D02*
D03*
X365354Y262992D02*
D03*
X372441D02*
D03*
D163*
X336221Y213386D02*
D03*
Y220472D02*
D03*
X336063Y240535D02*
D03*
Y233449D02*
D03*
X287402Y213386D02*
D03*
Y206299D02*
D03*
X287795Y248425D02*
D03*
Y241339D02*
D03*
D164*
X364567Y237008D02*
D03*
X376378D02*
D03*
X364567Y216929D02*
D03*
X376378D02*
D03*
D165*
X351417Y162583D02*
D03*
D166*
X340984Y155083D02*
D03*
Y160083D02*
D03*
Y165083D02*
D03*
Y170083D02*
D03*
X361850D02*
D03*
Y165083D02*
D03*
Y160083D02*
D03*
Y155083D02*
D03*
D167*
X329331Y334252D02*
D03*
X336024D02*
D03*
D168*
X543701Y166142D02*
D03*
X544681Y237203D02*
D03*
D169*
X534724Y192913D02*
D03*
X552677D02*
D03*
X553658Y210432D02*
D03*
X535705D02*
D03*
D170*
X457677Y346654D02*
D03*
Y344094D02*
D03*
Y341535D02*
D03*
X465945D02*
D03*
Y346654D02*
D03*
D171*
X753150Y345910D02*
D03*
X760236D02*
D03*
D172*
X444095Y104724D02*
D03*
D173*
X436417Y99803D02*
D03*
Y101772D02*
D03*
Y103740D02*
D03*
Y105709D02*
D03*
Y107677D02*
D03*
Y109646D02*
D03*
X451772D02*
D03*
Y107677D02*
D03*
Y105709D02*
D03*
Y103740D02*
D03*
Y101772D02*
D03*
Y99803D02*
D03*
D174*
X439173Y112402D02*
D03*
X441142D02*
D03*
X443110D02*
D03*
X445079D02*
D03*
X447047D02*
D03*
X449016D02*
D03*
Y97047D02*
D03*
X447047D02*
D03*
X445079D02*
D03*
X443110D02*
D03*
X441142D02*
D03*
X439173D02*
D03*
D175*
X670441Y299541D02*
D03*
X690914D02*
D03*
X690551Y47638D02*
D03*
X670079D02*
D03*
X690914Y139972D02*
D03*
X670441D02*
D03*
X690914Y94381D02*
D03*
X670441D02*
D03*
X690914Y162768D02*
D03*
X670441D02*
D03*
X690914Y117177D02*
D03*
X670441D02*
D03*
X690914Y71586D02*
D03*
X670441D02*
D03*
X690914Y322337D02*
D03*
X670441D02*
D03*
X690914Y276746D02*
D03*
X670441D02*
D03*
X690914Y231155D02*
D03*
X670441D02*
D03*
X690914Y253950D02*
D03*
X670441D02*
D03*
X690945Y344488D02*
D03*
X670472D02*
D03*
D176*
X43701Y20866D02*
D03*
X109449Y313386D02*
D03*
X42913Y208858D02*
D03*
X714567Y372441D02*
D03*
Y20866D02*
D03*
X215016Y191290D02*
D03*
X714567Y204252D02*
D03*
X502362Y20866D02*
D03*
X253937D02*
D03*
X399094D02*
D03*
X43701Y52953D02*
D03*
X237402Y372441D02*
D03*
X42264Y343504D02*
D03*
X502362Y372441D02*
D03*
Y180315D02*
D03*
X43701Y372441D02*
D03*
X399094Y180197D02*
D03*
X43701Y122835D02*
D03*
X253543D02*
D03*
D177*
X201933Y239701D02*
D03*
X187433Y234701D02*
D03*
X228433Y239701D02*
D03*
X243433Y234701D02*
D03*
X59842Y324787D02*
D03*
Y300787D02*
D03*
X158343Y324787D02*
D03*
Y300787D02*
D03*
X388933Y237543D02*
D03*
Y217543D02*
D03*
X461933Y237543D02*
D03*
Y217543D02*
D03*
D178*
X747363Y191811D02*
D03*
X757363D02*
D03*
X747363Y201811D02*
D03*
X757363D02*
D03*
X747363Y211811D02*
D03*
X757363D02*
D03*
Y221811D02*
D03*
X747363D02*
D03*
X757363Y231811D02*
D03*
X747363D02*
D03*
Y141811D02*
D03*
X757363D02*
D03*
X747363Y151811D02*
D03*
X757363D02*
D03*
X747363Y161811D02*
D03*
X757363D02*
D03*
Y171811D02*
D03*
X747363D02*
D03*
X757363Y181811D02*
D03*
X747363D02*
D03*
Y91811D02*
D03*
X757363D02*
D03*
X747363Y101811D02*
D03*
X757363D02*
D03*
X747363Y111811D02*
D03*
X757363D02*
D03*
Y121811D02*
D03*
X747363D02*
D03*
X757363Y131811D02*
D03*
X747363D02*
D03*
D179*
X3937Y165354D02*
D03*
X796457Y231496D02*
D03*
D180*
X-6063Y175354D02*
D03*
Y155354D02*
D03*
X13937D02*
D03*
Y175354D02*
D03*
X811811Y301181D02*
D03*
X789871Y316791D02*
D03*
X789851Y285543D02*
D03*
D181*
X813780Y47638D02*
D03*
X797244D02*
D03*
X857874Y31890D02*
D03*
X858268Y39764D02*
D03*
X857874Y47638D02*
D03*
X858268Y55512D02*
D03*
X857874Y63386D02*
D03*
X858268Y71260D02*
D03*
X852362Y31890D02*
D03*
X852756Y39764D02*
D03*
X852362Y47638D02*
D03*
X852756Y55512D02*
D03*
X852362Y63386D02*
D03*
X852756Y71260D02*
D03*
X846850Y31890D02*
D03*
X847244Y39764D02*
D03*
X846850Y47638D02*
D03*
X847244Y55512D02*
D03*
X846850Y63386D02*
D03*
X847244Y71260D02*
D03*
X841339Y31890D02*
D03*
X841732Y39764D02*
D03*
X841339Y47638D02*
D03*
X841732Y55512D02*
D03*
X841339Y63386D02*
D03*
X841732Y71260D02*
D03*
X835827Y31890D02*
D03*
X836220Y39764D02*
D03*
X835827Y47638D02*
D03*
X836220Y55512D02*
D03*
X835827Y63386D02*
D03*
X836220Y71260D02*
D03*
X830315Y31890D02*
D03*
X830709Y39764D02*
D03*
X830315Y47638D02*
D03*
X830709Y55512D02*
D03*
X830315Y63386D02*
D03*
X830709Y71260D02*
D03*
X824803Y31890D02*
D03*
X825197Y39764D02*
D03*
X824803Y47638D02*
D03*
X825197Y55512D02*
D03*
X824803Y63386D02*
D03*
X825197Y71260D02*
D03*
X819291Y31890D02*
D03*
X819685Y39764D02*
D03*
X819291Y47638D02*
D03*
X819685Y55512D02*
D03*
X819291Y63386D02*
D03*
X819685Y71260D02*
D03*
X813780Y31890D02*
D03*
X814173Y39764D02*
D03*
Y55512D02*
D03*
X813780Y63386D02*
D03*
X814173Y71260D02*
D03*
X808268Y31890D02*
D03*
X808661Y39764D02*
D03*
X808268Y47638D02*
D03*
X808661Y55512D02*
D03*
X808268Y63386D02*
D03*
X808661Y71260D02*
D03*
X802756Y31890D02*
D03*
X803150Y39764D02*
D03*
X802756Y47638D02*
D03*
X803150Y55512D02*
D03*
X802756Y63386D02*
D03*
X803150Y71260D02*
D03*
X797244Y31890D02*
D03*
X797638Y39764D02*
D03*
Y55512D02*
D03*
X797244Y63386D02*
D03*
X797638Y71260D02*
D03*
D182*
X842913Y219764D02*
D03*
X852913D02*
D03*
X842913Y209764D02*
D03*
X852913D02*
D03*
Y239764D02*
D03*
X842913D02*
D03*
X842756Y160315D02*
D03*
X852756D02*
D03*
X842756Y150315D02*
D03*
X852756D02*
D03*
Y180315D02*
D03*
X842756D02*
D03*
D183*
X796457Y241339D02*
D03*
D184*
X297480Y124394D02*
D03*
X297874Y329512D02*
D03*
D185*
X297480Y190646D02*
D03*
X307480D02*
D03*
X297874Y263260D02*
D03*
X287874D02*
D03*
D186*
X287480Y190646D02*
D03*
X307874Y263260D02*
D03*
D187*
X15748Y87008D02*
D03*
X17717Y312598D02*
D03*
D188*
X5748Y97008D02*
D03*
X25748D02*
D03*
Y77008D02*
D03*
X5748D02*
D03*
X7717Y302598D02*
D03*
X27716D02*
D03*
Y322598D02*
D03*
X7717D02*
D03*
D189*
X839764Y350787D02*
D03*
D190*
X789370Y342520D02*
D03*
X811024Y359055D02*
D03*
Y342520D02*
D03*
X789370Y359055D02*
D03*
M02*
