G04*
G04 #@! TF.GenerationSoftware,Altium Limited,Altium Designer,22.8.2 (66)*
G04*
G04 Layer_Color=65535*
%FSLAX25Y25*%
%MOIN*%
G70*
G04*
G04 #@! TF.SameCoordinates,0D4134F5-1D43-4ED5-91CB-E042AC42DECA*
G04*
G04*
G04 #@! TF.FilePolarity,Positive*
G04*
G01*
G75*
%ADD10C,0.00118*%
%ADD11C,0.00394*%
%ADD12C,0.00394*%
%ADD13C,0.00984*%
%ADD14C,0.00787*%
%ADD15C,0.01181*%
%ADD16C,0.01000*%
%ADD17C,0.01968*%
%ADD18C,0.00197*%
%ADD19C,0.00500*%
%ADD20C,0.00591*%
%ADD21C,0.01575*%
%ADD22C,0.00800*%
%ADD23R,0.00040X0.00995*%
G36*
X429274Y328081D02*
Y327687D01*
X429667Y327294D01*
Y326900D01*
X429792Y326821D01*
X429499Y326528D01*
X428645D01*
Y326862D01*
X428037Y327470D01*
Y328013D01*
X426815Y329236D01*
Y329366D01*
X426656D01*
X426239Y329783D01*
X425196D01*
X424778Y329364D01*
X424594D01*
X423792Y328562D01*
Y328242D01*
X423114Y327564D01*
Y326807D01*
X422529Y326222D01*
Y325414D01*
X422289Y325174D01*
Y324139D01*
X421905Y323755D01*
Y323503D01*
X421739D01*
X421204Y322968D01*
X420725D01*
Y323590D01*
X421057Y323922D01*
Y325384D01*
X421557Y325884D01*
Y326663D01*
X421793Y326900D01*
Y327572D01*
X422396Y328175D01*
Y328689D01*
X423365Y329659D01*
Y329774D01*
X423815Y330210D01*
X423923D01*
X424549Y330837D01*
X426911D01*
X429274Y328081D01*
D02*
G37*
G36*
X420549Y326270D02*
X420241Y325156D01*
X418690Y325260D01*
X417264Y325054D01*
X416519Y324701D01*
X415991Y324013D01*
X415900Y323325D01*
X415944Y322261D01*
X416915Y320858D01*
X418244Y319261D01*
X421849Y316206D01*
X425644Y314061D01*
X427527Y313224D01*
X428209Y312483D01*
X427946Y311840D01*
X423697Y313712D01*
X419844Y316161D01*
X417550Y318282D01*
X415876Y320315D01*
X414875Y322447D01*
X414844Y323761D01*
X415297Y325132D01*
X416235Y325890D01*
X417751Y326351D01*
X419016Y326412D01*
X420549Y326270D01*
D02*
G37*
G36*
X424549Y324931D02*
X424156Y324538D01*
X423368D01*
Y325325D01*
X423762D01*
X424549Y324931D01*
D02*
G37*
G36*
X428880Y321782D02*
X426518Y322963D01*
X428092Y323357D01*
X428486D01*
X428880Y321782D01*
D02*
G37*
G36*
X434001Y326291D02*
X435240Y325871D01*
X436269Y324948D01*
X436695Y323070D01*
X436318Y321743D01*
X434886Y319409D01*
X434135Y320278D01*
X435154Y321974D01*
X435531Y323425D01*
X435086Y324563D01*
X434280Y325018D01*
X432720Y325266D01*
X431497Y325179D01*
X426627Y323793D01*
X422544Y321661D01*
X419519Y319366D01*
X418615Y320107D01*
X420944Y321861D01*
X423444Y323461D01*
X426644Y325161D01*
X430449Y326200D01*
X432527Y326406D01*
X434001Y326291D01*
D02*
G37*
G36*
X421502Y317545D02*
X420415Y318481D01*
X420552Y319286D01*
X421553Y320062D01*
X421571Y320076D01*
X421502Y317545D01*
D02*
G37*
G36*
X432744Y317328D02*
X432820Y317256D01*
X431868Y316599D01*
X431995Y318034D01*
X432744Y317328D01*
D02*
G37*
G36*
X430777Y322550D02*
X431044Y319261D01*
X430892Y315806D01*
X429852Y317151D01*
X429890Y318269D01*
X429766Y320695D01*
X429358Y323991D01*
X430455Y324144D01*
X430500Y324222D01*
X430777Y322550D01*
D02*
G37*
G36*
X424355Y312366D02*
X423415Y311818D01*
X423144Y312944D01*
X424355Y312366D01*
D02*
G37*
G36*
X433920Y319064D02*
X435963Y316378D01*
X436663Y314365D01*
X436549Y313023D01*
X436014Y312099D01*
X434824Y311317D01*
X434458Y311192D01*
X433679Y312200D01*
X434691Y312526D01*
X435422Y313307D01*
X435497Y314383D01*
X435112Y315493D01*
X434223Y316941D01*
X433115Y318207D01*
X431930Y319428D01*
X431948Y320872D01*
X433920Y319064D01*
D02*
G37*
G36*
X417391Y317173D02*
X416608Y316024D01*
X415943Y314380D01*
X415927Y313595D01*
X416369Y312794D01*
X417229Y312329D01*
X418742Y312118D01*
X420244Y312220D01*
X420555Y311111D01*
X418420Y310967D01*
X416639Y311300D01*
X415444Y311961D01*
X414846Y313168D01*
X414756Y314165D01*
X415140Y315699D01*
X416562Y317973D01*
X417391Y317173D01*
D02*
G37*
G36*
X422014Y313638D02*
X422504Y311767D01*
X423323Y309719D01*
X424041Y308592D01*
X425028Y307745D01*
X425942Y307593D01*
X426848Y308037D01*
X427704Y309011D01*
X428622Y310857D01*
X428921Y311709D01*
X429812Y310741D01*
X428687Y308417D01*
X427778Y307304D01*
X426051Y306411D01*
X425385D01*
X424344Y306861D01*
X423025Y308004D01*
X422014Y309760D01*
X421091Y312537D01*
X420840Y314404D01*
X422014Y313638D01*
D02*
G37*
G36*
X436431Y307088D02*
X436638Y306880D01*
X436751Y306609D01*
Y306462D01*
Y306455D01*
Y306308D01*
X436638Y306037D01*
X436431Y305830D01*
X436160Y305717D01*
X435862D01*
X435590Y305830D01*
X435383Y306038D01*
X435270Y306309D01*
Y306456D01*
Y306463D01*
Y306610D01*
X435383Y306881D01*
X435590Y307088D01*
X435861Y307200D01*
X436159D01*
X436431Y307088D01*
D02*
G37*
G36*
X426844Y321361D02*
X427999Y320500D01*
X428644Y319161D01*
X428634Y318224D01*
X429079Y317145D01*
X435480Y308872D01*
X436207Y308329D01*
X437044Y307861D01*
X437377Y307657D01*
X437844Y306061D01*
X437344Y305461D01*
X437140Y305104D01*
X435983Y304685D01*
X435598Y305362D01*
X436762Y305564D01*
X437168Y306673D01*
X436412Y307579D01*
X435249Y307377D01*
X434842Y306269D01*
X435598Y305362D01*
X435983Y304685D01*
X435144Y304761D01*
X434586Y305341D01*
X434175Y306362D01*
X433928Y307112D01*
X433604Y307609D01*
X425643Y315762D01*
X424744Y315961D01*
X423547Y316805D01*
X422944Y318161D01*
X423044Y319661D01*
X423544Y320561D01*
X423925Y320879D01*
X425771Y321545D01*
X426844Y321361D01*
D02*
G37*
G36*
X423081Y301344D02*
X423873Y300787D01*
X424168Y300215D01*
X424248Y299761D01*
X424168Y299113D01*
X423944Y298665D01*
X423541Y298263D01*
X424495Y296569D01*
Y296485D01*
X423177D01*
X422375Y297861D01*
X421512Y297973D01*
Y296485D01*
X420379D01*
Y301381D01*
X421548D01*
X421512Y298961D01*
X422516Y298961D01*
X423034Y299272D01*
X423131Y299780D01*
X422988Y300157D01*
X422518Y300385D01*
X421548D01*
Y301381D01*
X423081Y301344D01*
D02*
G37*
G36*
X436636Y301249D02*
X437147Y300965D01*
X437537Y300575D01*
X437927Y299861D01*
X438057Y298926D01*
Y298601D01*
X437973Y298147D01*
X437680Y297473D01*
X438188Y296485D01*
X437002D01*
X436859Y296636D01*
X435735Y296361D01*
X434473Y296618D01*
X433944Y296861D01*
X433579Y297288D01*
X433188Y298000D01*
X433046Y298926D01*
X433065Y299402D01*
X433244Y299961D01*
X433544Y300461D01*
X434152Y301076D01*
X434844Y301361D01*
X435559Y301467D01*
X436636Y301249D01*
D02*
G37*
G36*
X432004Y300414D02*
X431412D01*
Y297459D01*
X432055D01*
Y296485D01*
X429651D01*
Y297459D01*
X430294D01*
Y300414D01*
X429702D01*
Y301381D01*
X432004D01*
Y300414D01*
D02*
G37*
G36*
X428818Y300385D02*
X427583D01*
Y296485D01*
X426465D01*
Y300385D01*
X425223D01*
Y301381D01*
X428818D01*
Y300385D01*
D02*
G37*
G36*
X419268Y296485D02*
X418135D01*
X417800Y297200D01*
X415783D01*
X415447Y296485D01*
X414314D01*
X416561Y301446D01*
X417014D01*
X419268Y296485D01*
D02*
G37*
G36*
X442861Y281994D02*
X434684D01*
Y283749D01*
X442861D01*
Y281994D01*
D02*
G37*
G36*
X418941Y274051D02*
X418889D01*
X414534Y283749D01*
X416692D01*
X418798Y278666D01*
X420631Y283749D01*
X422841D01*
X418941Y274051D01*
D02*
G37*
G36*
X432448Y277626D02*
X432448Y277589D01*
X432447Y277551D01*
X432447Y277514D01*
X432446Y277477D01*
X432445Y277439D01*
X432443Y277402D01*
X432442Y277366D01*
X432440Y277329D01*
X432437Y277293D01*
X432435Y277256D01*
X432432Y277220D01*
X432429Y277184D01*
X432426Y277149D01*
X432422Y277113D01*
X432418Y277077D01*
X432414Y277042D01*
X432410Y277007D01*
X432405Y276972D01*
X432401Y276937D01*
X432395Y276902D01*
X432390Y276868D01*
X432384Y276833D01*
X432378Y276799D01*
X432372Y276765D01*
X432365Y276727D01*
X432358Y276689D01*
X432350Y276652D01*
X432341Y276614D01*
X432333Y276577D01*
X432324Y276540D01*
X432315Y276503D01*
X432305Y276467D01*
X432296Y276431D01*
X432285Y276394D01*
X432275Y276359D01*
X432263Y276319D01*
X432250Y276280D01*
X432238Y276241D01*
X432224Y276202D01*
X432211Y276164D01*
X432195Y276121D01*
X432179Y276080D01*
X432163Y276039D01*
X432146Y275998D01*
X432127Y275954D01*
X432108Y275910D01*
X432088Y275866D01*
X432065Y275820D01*
X432040Y275770D01*
X432015Y275722D01*
X432015D01*
X432011Y275715D01*
X432004Y275702D01*
X431997Y275689D01*
X431990Y275676D01*
X431986Y275670D01*
X431986Y275670D01*
X431982Y275663D01*
X431975Y275649D01*
X431967Y275636D01*
X431959Y275622D01*
X431955Y275615D01*
X431951Y275608D01*
X431942Y275594D01*
X431934Y275580D01*
X431925Y275566D01*
X431921Y275558D01*
X431916Y275551D01*
X431906Y275535D01*
X431896Y275519D01*
X431886Y275504D01*
X431881Y275496D01*
Y275496D01*
X431875Y275487D01*
X431864Y275469D01*
X431852Y275451D01*
X431840Y275434D01*
X431834Y275425D01*
X431834Y275425D01*
X431826Y275414D01*
X431811Y275393D01*
X431796Y275371D01*
X431780Y275350D01*
X431773Y275340D01*
X431730Y275282D01*
X431639Y275172D01*
X431543Y275066D01*
X431441Y274965D01*
X431388Y274917D01*
X431388D01*
X431375Y274904D01*
X431348Y274881D01*
X431321Y274857D01*
X431293Y274834D01*
X431279Y274822D01*
X431270Y274814D01*
X431250Y274798D01*
X431230Y274782D01*
X431210Y274767D01*
X431200Y274759D01*
X431191Y274753D01*
X431175Y274740D01*
X431158Y274728D01*
X431142Y274716D01*
X431133Y274710D01*
X431126Y274704D01*
X431110Y274693D01*
X431095Y274682D01*
X431080Y274672D01*
X431072Y274667D01*
X431065Y274662D01*
X431051Y274652D01*
X431037Y274643D01*
X431023Y274634D01*
X431016Y274629D01*
X431010Y274625D01*
X430997Y274617D01*
X430984Y274609D01*
X430972Y274601D01*
X430966Y274597D01*
X430960Y274593D01*
X430948Y274585D01*
X430936Y274578D01*
X430924Y274571D01*
X430918Y274567D01*
Y274567D01*
X430912Y274564D01*
X430900Y274556D01*
X430888Y274549D01*
X430875Y274542D01*
X430869Y274538D01*
X430824Y274513D01*
X430781Y274489D01*
X430738Y274466D01*
X430697Y274446D01*
X430657Y274426D01*
X430616Y274406D01*
X430578Y274389D01*
X430540Y274372D01*
X430502Y274355D01*
X430459Y274337D01*
Y283749D01*
X432448D01*
Y277626D01*
D02*
G37*
G36*
X439767Y274194D02*
X437778D01*
X437778Y280369D01*
X439767D01*
Y274194D01*
D02*
G37*
G36*
X416419D02*
X414352D01*
X410504Y283749D01*
X412623D01*
X416419Y274194D01*
D02*
G37*
G36*
X426975Y277756D02*
X426975Y277746D01*
X426975Y277726D01*
X426975Y277705D01*
X426976Y277685D01*
X426976Y277664D01*
X426977Y277644D01*
X426978Y277624D01*
X426979Y277604D01*
X426980Y277584D01*
X426981Y277564D01*
X426982Y277545D01*
X426984Y277525D01*
X426985Y277505D01*
X426987Y277486D01*
X426989Y277467D01*
X426991Y277447D01*
X426993Y277428D01*
X426995Y277409D01*
X426998Y277390D01*
X427000Y277371D01*
X427003Y277352D01*
X427005Y277333D01*
X427008Y277315D01*
X427011Y277296D01*
X427014Y277277D01*
X427018Y277259D01*
X427021Y277241D01*
X427025Y277223D01*
X427028Y277204D01*
X427032Y277186D01*
X427036Y277168D01*
X427040Y277151D01*
X427044Y277133D01*
X427048Y277115D01*
X427053Y277098D01*
X427057Y277080D01*
X427062Y277063D01*
X427067Y277046D01*
X427072Y277029D01*
X427077Y277012D01*
X427082Y276995D01*
X427087Y276978D01*
X427093Y276961D01*
X427098Y276944D01*
X427104Y276928D01*
X427111Y276909D01*
X427118Y276890D01*
X427125Y276871D01*
X427132Y276852D01*
X427140Y276834D01*
X427147Y276815D01*
X427155Y276797D01*
X427163Y276779D01*
X427171Y276761D01*
X427180Y276743D01*
X427188Y276725D01*
X427198Y276705D01*
X427208Y276686D01*
X427219Y276666D01*
X427229Y276646D01*
X427240Y276627D01*
X427253Y276606D01*
X427265Y276585D01*
X427278Y276564D01*
X427293Y276541D01*
X427308Y276518D01*
X427324Y276496D01*
X427326Y276493D01*
X427330Y276487D01*
X427335Y276481D01*
X427339Y276475D01*
X427341Y276472D01*
X427341Y276472D01*
X427344Y276469D01*
X427348Y276462D01*
X427353Y276456D01*
X427358Y276449D01*
X427361Y276446D01*
X427363Y276443D01*
X427369Y276436D01*
X427374Y276429D01*
X427380Y276422D01*
X427382Y276419D01*
X427385Y276415D01*
X427391Y276408D01*
X427397Y276401D01*
X427403Y276394D01*
X427406Y276390D01*
X427406Y276390D01*
X427410Y276386D01*
X427417Y276377D01*
X427425Y276369D01*
X427432Y276360D01*
X427436Y276356D01*
X427441Y276351D01*
X427450Y276340D01*
X427460Y276330D01*
X427470Y276320D01*
X427474Y276315D01*
Y276315D01*
X427494Y276296D01*
X427533Y276258D01*
X427574Y276222D01*
X427617Y276187D01*
X427639Y276171D01*
X427647Y276164D01*
X427665Y276151D01*
X427683Y276138D01*
X427702Y276126D01*
X427711Y276119D01*
X427717Y276116D01*
X427728Y276108D01*
X427739Y276101D01*
X427751Y276094D01*
X427757Y276090D01*
X427757Y276090D01*
X427761Y276087D01*
X427771Y276082D01*
X427780Y276076D01*
X427789Y276071D01*
X427794Y276068D01*
X427798Y276066D01*
X427807Y276061D01*
X427815Y276057D01*
X427823Y276052D01*
X427828Y276050D01*
X427831Y276048D01*
X427838Y276044D01*
X427846Y276040D01*
X427853Y276036D01*
X427857Y276034D01*
X427860Y276033D01*
X427867Y276029D01*
X427874Y276026D01*
X427880Y276022D01*
X427884Y276021D01*
Y276021D01*
X427887Y276019D01*
X427894Y276016D01*
X427901Y276012D01*
X427908Y276009D01*
X427911Y276008D01*
X427915Y276006D01*
X427921Y276003D01*
X427927Y276000D01*
X427934Y275998D01*
X427937Y275996D01*
X427937D01*
X427960Y275986D01*
X427983Y275977D01*
X428007Y275967D01*
X428028Y275959D01*
X428050Y275952D01*
X428071Y275944D01*
X428091Y275938D01*
X428110Y275932D01*
X428129Y275926D01*
X428149Y275920D01*
X428169Y275915D01*
X428189Y275909D01*
X428206Y275905D01*
X428223Y275901D01*
X428241Y275897D01*
X428258Y275892D01*
X428276Y275889D01*
X428294Y275885D01*
X428311Y275882D01*
X428330Y275878D01*
X428348Y275875D01*
X428366Y275872D01*
X428384Y275869D01*
X428403Y275867D01*
X428421Y275864D01*
X428437Y275862D01*
X428452Y275860D01*
X428468Y275858D01*
X428484Y275857D01*
X428500Y275855D01*
X428516Y275854D01*
X428532Y275852D01*
X428548Y275851D01*
X428564Y275850D01*
X428581Y275849D01*
X428597Y275848D01*
X428613Y275848D01*
X428630Y275847D01*
X428647Y275846D01*
X428663Y275846D01*
X428680Y275846D01*
X428697Y275845D01*
X428717Y275845D01*
X428834D01*
Y274025D01*
X428717D01*
X428695Y274025D01*
X428659Y274026D01*
X428623Y274026D01*
X428588Y274027D01*
X428552Y274028D01*
X428517Y274029D01*
X428481Y274030D01*
X428446Y274031D01*
X428411Y274033D01*
X428376Y274035D01*
X428342Y274037D01*
X428307Y274040D01*
X428273Y274042D01*
X428239Y274045D01*
X428205Y274048D01*
X428171Y274051D01*
X428138Y274055D01*
X428104Y274058D01*
X428071Y274062D01*
X428038Y274066D01*
X428005Y274070D01*
X427973Y274075D01*
X427940Y274079D01*
X427908Y274084D01*
X427875Y274089D01*
X427843Y274094D01*
X427811Y274100D01*
X427780Y274105D01*
X427748Y274111D01*
X427717Y274117D01*
X427679Y274125D01*
X427642Y274132D01*
X427605Y274140D01*
X427568Y274149D01*
X427532Y274157D01*
X427496Y274166D01*
X427460Y274176D01*
X427424Y274185D01*
X427389Y274195D01*
X427353Y274205D01*
X427319Y274215D01*
X427284Y274226D01*
X427249Y274236D01*
X427215Y274248D01*
X427181Y274259D01*
X427147Y274271D01*
X427108Y274285D01*
X427070Y274299D01*
X427031Y274314D01*
X426993Y274329D01*
X426956Y274344D01*
X426918Y274360D01*
X426882Y274376D01*
X426840Y274395D01*
X426798Y274415D01*
X426757Y274434D01*
X426717Y274455D01*
X426672Y274478D01*
X426627Y274502D01*
X426583Y274527D01*
X426535Y274555D01*
X426529Y274559D01*
X426516Y274567D01*
X426503Y274574D01*
X426490Y274582D01*
X426483Y274586D01*
X426477Y274590D01*
X426464Y274599D01*
X426451Y274607D01*
X426439Y274615D01*
X426432Y274619D01*
Y274619D01*
X426425Y274623D01*
X426411Y274632D01*
X426398Y274641D01*
X426384Y274651D01*
X426377Y274655D01*
X426369Y274661D01*
X426354Y274672D01*
X426338Y274682D01*
X426322Y274693D01*
X426314Y274699D01*
X426314Y274699D01*
X426306Y274705D01*
X426288Y274718D01*
X426271Y274731D01*
X426253Y274744D01*
X426244Y274751D01*
X426244Y274751D01*
X426234Y274758D01*
X426214Y274774D01*
X426194Y274790D01*
X426174Y274806D01*
X426164Y274814D01*
X426164Y274814D01*
X426107Y274860D01*
X425999Y274958D01*
X425896Y275061D01*
X425798Y275168D01*
X425751Y275225D01*
X425740Y275239D01*
X425717Y275267D01*
X425695Y275295D01*
X425673Y275324D01*
X425662Y275338D01*
X425655Y275348D01*
X425640Y275369D01*
X425625Y275390D01*
X425610Y275411D01*
X425603Y275421D01*
X425597Y275430D01*
X425585Y275447D01*
X425573Y275465D01*
X425561Y275483D01*
X425555Y275492D01*
X425550Y275500D01*
X425540Y275516D01*
X425530Y275532D01*
X425520Y275548D01*
X425515Y275556D01*
X425510Y275563D01*
X425501Y275578D01*
X425492Y275593D01*
X425483Y275608D01*
X425479Y275616D01*
X425475Y275623D01*
X425466Y275637D01*
X425458Y275651D01*
X425450Y275665D01*
X425446Y275672D01*
X425443Y275679D01*
X425435Y275692D01*
X425428Y275705D01*
X425421Y275718D01*
X425418Y275725D01*
X425418D01*
X425392Y275773D01*
X425368Y275822D01*
X425347Y275866D01*
X425326Y275911D01*
X425306Y275957D01*
X425288Y275997D01*
X425271Y276038D01*
X425255Y276080D01*
X425239Y276121D01*
X425223Y276164D01*
X425208Y276206D01*
X425196Y276244D01*
X425183Y276281D01*
X425171Y276319D01*
X425160Y276358D01*
X425148Y276396D01*
X425137Y276435D01*
X425127Y276474D01*
X425117Y276513D01*
X425107Y276553D01*
X425098Y276592D01*
X425090Y276627D01*
X425082Y276661D01*
X425075Y276696D01*
X425068Y276731D01*
X425062Y276766D01*
X425055Y276801D01*
X425049Y276836D01*
X425043Y276872D01*
X425038Y276908D01*
X425033Y276944D01*
X425028Y276980D01*
X425023Y277016D01*
X425019Y277053D01*
X425014Y277089D01*
X425010Y277126D01*
X425007Y277163D01*
X425004Y277200D01*
X425001Y277238D01*
X424998Y277275D01*
X424996Y277313D01*
X424993Y277350D01*
X424991Y277388D01*
X424990Y277427D01*
X424989Y277465D01*
X424988Y277503D01*
X424987Y277542D01*
X424986Y277581D01*
X424986Y277626D01*
Y283749D01*
X426975D01*
Y277756D01*
D02*
G37*
%LPC*%
G36*
X426377Y320423D02*
X424559Y320114D01*
X423920Y318385D01*
X425097Y316966D01*
X426914Y317276D01*
X427554Y319005D01*
X426377Y320423D01*
D02*
G37*
%LPD*%
G36*
X426344Y319061D02*
X426457Y318691D01*
X426244Y318161D01*
X425719Y317947D01*
X425144Y318161D01*
X424976Y318685D01*
X425244Y319161D01*
X425713Y319429D01*
X426344Y319061D01*
D02*
G37*
%LPC*%
G36*
X435559Y300371D02*
X435044Y300251D01*
X434644Y300061D01*
X434293Y299457D01*
X434235Y298642D01*
X434293Y298390D01*
X434644Y297822D01*
X435044Y297561D01*
X435559Y297469D01*
X436244Y297661D01*
X436736Y298170D01*
X436904Y298926D01*
X436826Y299457D01*
X436475Y300021D01*
X436033Y300251D01*
X435559Y300371D01*
D02*
G37*
G36*
X416783Y299676D02*
X416126Y298145D01*
X417457D01*
X416783Y299676D01*
D02*
G37*
%LPD*%
D10*
X436013Y305717D02*
G03*
X436751Y306462I-7J744D01*
G01*
X436751D02*
G03*
X436007Y307200I-746J-7D01*
G01*
D02*
G03*
X435270Y306456I9J-746D01*
G01*
D02*
G03*
X436013Y305717I745J7D01*
G01*
X423537Y298263D02*
G03*
X424164Y299113I-923J1337D01*
G01*
D02*
G03*
X424170Y300215I-1752J562D01*
G01*
D02*
G03*
X423869Y300787I-1588J-472D01*
G01*
Y300787D02*
G03*
X423189Y301265I-1210J-998D01*
G01*
D02*
G03*
X422751Y301367I-643J-1770D01*
G01*
X422751Y301367D02*
G03*
X422512Y301381I-244J-2171D01*
G01*
X422743Y300343D02*
G03*
X422514Y300385I-228J-586D01*
G01*
X422984Y300157D02*
G03*
X422743Y300343I-449J-334D01*
G01*
X423038Y300072D02*
G03*
X422984Y300157I-582J-312D01*
G01*
X423080Y299979D02*
G03*
X423038Y300072I-692J-256D01*
G01*
X423127Y299780D02*
G03*
X423080Y299979I-836J-91D01*
G01*
X423132Y299678D02*
G03*
X423127Y299780I-886J4D01*
G01*
X423074Y299366D02*
G03*
X423132Y299678I-819J314D01*
G01*
X423030Y299272D02*
G03*
X423074Y299366I-667J370D01*
G01*
X422973Y299186D02*
G03*
X423030Y299272I-543J418D01*
G01*
X422905Y299111D02*
G03*
X422973Y299186I-419J451D01*
G01*
X422512Y298961D02*
G03*
X422905Y299111I10J562D01*
G01*
X437680Y297473D02*
G03*
X437974Y298145I-2040J1292D01*
G01*
Y298145D02*
G03*
X438057Y298601I-2726J730D01*
G01*
D02*
G03*
X438073Y298926I-3256J321D01*
G01*
X438073Y298926D02*
G03*
X437927Y299861I-2898J29D01*
G01*
X437927D02*
G03*
X437537Y300575I-2180J-729D01*
G01*
X437537D02*
G03*
X436636Y301249I-1814J-1486D01*
G01*
X436636Y301249D02*
G03*
X435559Y301467I-1072J-2517D01*
G01*
Y301467D02*
G03*
X434152Y301076I-13J-2678D01*
G01*
D02*
G03*
X433084Y299421I1223J-1961D01*
G01*
X433084D02*
G03*
X433046Y298926I3129J-487D01*
G01*
D02*
G03*
X433190Y297997I2878J-29D01*
G01*
X433190Y297997D02*
G03*
X433579Y297288I2166J725D01*
G01*
Y297288D02*
G03*
X434473Y296618I1802J1476D01*
G01*
Y296618D02*
G03*
X435542Y296401I1065J2498D01*
G01*
Y296401D02*
G03*
X436679Y296649I8J2683D01*
G01*
D02*
G03*
X436793Y296707I-1056J2251D01*
G01*
X434644Y297822D02*
G03*
X435559Y297469I907J988D01*
G01*
X434293Y298390D02*
G03*
X434644Y297822I1251J382D01*
G01*
X434235Y298642D02*
G03*
X434293Y298390I1599J233D01*
G01*
X434215Y298926D02*
G03*
X434235Y298642I1941J-5D01*
G01*
X434293Y299457D02*
G03*
X434215Y298926I1665J-515D01*
G01*
X434383Y299676D02*
G03*
X434293Y299457I1237J-640D01*
G01*
X435559Y300371D02*
G03*
X434383Y299676I-21J-1307D01*
G01*
X436475Y300021D02*
G03*
X435559Y300371I-906J-996D01*
G01*
X436826Y299457D02*
G03*
X436475Y300021I-1239J-382D01*
G01*
X436884Y299207D02*
G03*
X436826Y299457I-1577J-231D01*
G01*
X436904Y298926D02*
G03*
X436884Y299207I-1912J5D01*
G01*
X436826Y298390D02*
G03*
X436904Y298926I-1691J519D01*
G01*
X436736Y298170D02*
G03*
X436826Y298390I-1255J643D01*
G01*
X435559Y297469D02*
G03*
X436736Y298170I19J1306D01*
G01*
X421588Y300385D02*
X421648Y300386D01*
X421679Y300386D01*
X421709Y300386D01*
X421739Y300386D01*
X421770Y300386D01*
X421801Y300386D01*
X421831Y300387D01*
X421862Y300387D01*
X421893Y300387D01*
X422018Y300388D01*
X422080Y300389D01*
X422143Y300389D01*
X422205Y300389D01*
X422268Y300389D01*
X422330Y300388D01*
X422392Y300388D01*
X422453Y300387D01*
X422514Y300385D01*
X435598Y305362D02*
X436762Y305564D01*
X437168Y306673D01*
X436412Y307579D02*
X437168Y306673D01*
X435249Y307377D02*
X436412Y307579D01*
X434842Y306269D02*
X435249Y307377D01*
X434842Y306269D02*
X435598Y305362D01*
X414314Y296530D02*
X416561Y301401D01*
X414314Y296440D02*
Y296530D01*
Y296440D02*
X415447D01*
X415783Y297155D01*
Y297200D02*
X417800D01*
X418135Y296485D01*
X419268D01*
Y296575D01*
X417014Y301446D02*
X419268Y296575D01*
X416561Y301401D02*
X417014D01*
X416126Y298100D02*
X416783Y299631D01*
X417457Y298100D01*
X416126D02*
X417457D01*
X420375Y301381D02*
X422512D01*
X420375Y296485D02*
Y301381D01*
Y296485D02*
X421508D01*
Y297973D01*
X422306D01*
X423173Y296485D01*
X424491D01*
Y296569D01*
X423473Y298219D02*
X424491Y296569D01*
X423473Y298219D02*
X423537Y298263D01*
X421508Y298961D02*
X422512D01*
X421508D02*
Y300385D01*
X421588D01*
X426465Y296485D02*
Y300385D01*
Y296485D02*
X427583D01*
Y300385D01*
X428818D01*
Y301381D01*
X425223D02*
X428818D01*
X425223Y300385D02*
Y301381D01*
Y300385D02*
X426465D01*
X429702Y300414D02*
Y301381D01*
Y300414D02*
X430294D01*
Y297459D02*
Y300414D01*
X429651Y297459D02*
X430294D01*
X429651Y296485D02*
Y297459D01*
Y296485D02*
X432055D01*
Y297459D01*
X431412D02*
X432055D01*
X431412D02*
Y300414D01*
X432004D01*
Y301381D01*
X429702D02*
X432004D01*
X436793Y296707D02*
X436864Y296744D01*
X437002Y296485D01*
X438188D01*
Y296548D01*
X437654Y297431D02*
X438188Y296548D01*
X437654Y297431D02*
X437680Y297473D01*
X436793Y296707D02*
X437680Y297473D01*
D11*
X424481Y322765D02*
G03*
X419519Y319366I12094J-22973D01*
G01*
X425092Y323079D02*
G03*
X424481Y322765I12436J-24947D01*
G01*
X426627Y323793D02*
G03*
X425092Y323079I11571J-26919D01*
G01*
X427365Y324095D02*
G03*
X426627Y323793I8773J-22489D01*
G01*
X428086Y324361D02*
G03*
X427365Y324095I7081J-20266D01*
G01*
X428791Y324592D02*
G03*
X428086Y324361I5662J-18453D01*
G01*
X430163Y324952D02*
G03*
X428791Y324592I3588J-16479D01*
G01*
X431497Y325179D02*
G03*
X430163Y324952I1815J-14711D01*
G01*
X432156Y325244D02*
G03*
X431497Y325179I1055J-14011D01*
G01*
X432332Y325255D02*
G03*
X432156Y325244I477J-8753D01*
G01*
X432501Y325263D02*
G03*
X432332Y325255I246J-7636D01*
G01*
X432720Y325266D02*
G03*
X432501Y325263I2J-6811D01*
G01*
X433347Y325232D02*
G03*
X432720Y325266I-614J-5434D01*
G01*
X433736Y325170D02*
G03*
X433347Y325232I-903J-4429D01*
G01*
X434280Y325018D02*
G03*
X433736Y325170I-1332J-3724D01*
G01*
X434619Y324877D02*
G03*
X434280Y325018I-1586J-3334D01*
G01*
X434949Y324679D02*
G03*
X434619Y324877I-1140J-1524D01*
G01*
X435086Y324563D02*
G03*
X434949Y324679I-1082J-1135D01*
G01*
X435524Y323622D02*
G03*
X435086Y324563I-1429J-92D01*
G01*
X435531Y323425D02*
G03*
X435524Y323622I-2015J19D01*
G01*
X435413Y322628D02*
G03*
X435531Y323425I-2841J829D01*
G01*
X435302Y322304D02*
G03*
X435413Y322628I-3284J1303D01*
G01*
X435154Y321974D02*
G03*
X435302Y322304I-3711J1862D01*
G01*
X435066Y321807D02*
G03*
X435154Y321974I-4186J2306D01*
G01*
X434935Y321573D02*
G03*
X435066Y321807I-10807J6262D01*
G01*
X434886Y319409D02*
G03*
X435277Y319923I-12882J10218D01*
G01*
X435277Y319923D02*
G03*
X435471Y320196I-9702J7075D01*
G01*
Y320196D02*
G03*
X435660Y320481I-8465J5818D01*
G01*
D02*
G03*
X435842Y320778I-7588J4851D01*
G01*
D02*
G03*
X436014Y321087I-6933J4064D01*
G01*
D02*
G03*
X436318Y321743I-6147J3257D01*
G01*
D02*
G03*
X436554Y322449I-5574J2246D01*
G01*
X436664Y323873D02*
G03*
X436666Y323864I488J140D01*
G01*
X436661Y323883D02*
G03*
X436664Y323873I430J113D01*
G01*
X436658Y323893D02*
G03*
X436661Y323883I387J91D01*
G01*
X436654Y323914D02*
G03*
X436658Y323893I340J59D01*
G01*
X436654Y323914D02*
G03*
X436509Y324465I-2946J-480D01*
G01*
D02*
G03*
X436269Y324948I-2362J-873D01*
G01*
X436269D02*
G03*
X435726Y325550I-2122J-1370D01*
G01*
D02*
G03*
X435496Y325718I-1869J-2313D01*
G01*
D02*
G03*
X435240Y325871I-1864J-2824D01*
G01*
X435240Y325871D02*
G03*
X434960Y326009I-1870J-3460D01*
G01*
D02*
G03*
X434386Y326207I-1524J-3477D01*
G01*
X434386Y326207D02*
G03*
X434194Y326253I-1166J-4452D01*
G01*
Y326253D02*
G03*
X434001Y326291I-1087J-5029D01*
G01*
Y326291D02*
G03*
X433810Y326321I-1013J-5733D01*
G01*
X433810D02*
G03*
X433621Y326345I-945J-6630D01*
G01*
X433621D02*
G03*
X433435Y326364I-891J-7843D01*
G01*
Y326364D02*
G03*
X433253Y326379I-865J-9645D01*
G01*
X433077Y326390D02*
G03*
X432527Y326406I-545J-9521D01*
G01*
D02*
G03*
X431060Y326301I18J-10595D01*
G01*
X431060D02*
G03*
X430449Y326200I1705J-12193D01*
G01*
X430449Y326200D02*
G03*
X429820Y326064I2606J-13607D01*
G01*
X429820Y326064D02*
G03*
X429498Y325984I3573J-14903D01*
G01*
Y325984D02*
G03*
X421983Y322645I6714J-25242D01*
G01*
X421983Y322645D02*
G03*
X418998Y320448I16325J-25307D01*
G01*
X421572Y323251D02*
G03*
X421501Y323211I2166J-3854D01*
G01*
X421643Y323290D02*
G03*
X421572Y323251I1865J-3485D01*
G01*
X421643Y323290D02*
G03*
X421793Y323390I-432J814D01*
G01*
X421793D02*
G03*
X421905Y323503I-461J563D01*
G01*
Y323503D02*
G03*
X421985Y323631I-580J452D01*
G01*
X421985Y323631D02*
G03*
X422015Y323701I-787J388D01*
G01*
D02*
G03*
X422041Y323773I-993J388D01*
G01*
X422041D02*
G03*
X422062Y323850I-1311J405D01*
G01*
D02*
G03*
X422080Y323930I-1825J450D01*
G01*
X422289Y324855D02*
G03*
X422080Y323930I19068J-4791D01*
G01*
X422405Y325290D02*
G03*
X422289Y324855I15933J-4479D01*
G01*
X422529Y325708D02*
G03*
X422405Y325290I14254J-4460D01*
G01*
X422802Y326496D02*
G03*
X422529Y325708I12207J-4685D01*
G01*
X423114Y327229D02*
G03*
X422802Y326496I10354J-4828D01*
G01*
X422192Y327971D02*
G03*
X421557Y326460I11151J-5579D01*
G01*
X421557D02*
G03*
X421291Y325619I14556J-5052D01*
G01*
X421291Y325619D02*
G03*
X421170Y325172I17153J-4884D01*
G01*
X421170Y325172D02*
G03*
X421057Y324707I19286J-4955D01*
G01*
X421057D02*
G03*
X420950Y324222I21847J-5056D01*
G01*
X420950D02*
G03*
X420850Y323715I24917J-5188D01*
G01*
X418990Y312121D02*
G03*
X419164Y312128I-296J9465D01*
G01*
X418823Y312118D02*
G03*
X418990Y312121I-88J8158D01*
G01*
X418248Y312136D02*
G03*
X418742Y312118I484J6235D01*
G01*
X417939Y312170D02*
G03*
X418248Y312136I717J5162D01*
G01*
X417645Y312221D02*
G03*
X417939Y312170I927J4505D01*
G01*
X417229Y312329D02*
G03*
X417645Y312221I1233J3875D01*
G01*
X417042Y312350D02*
G03*
X417229Y312284I1376J3631D01*
G01*
X416562Y312596D02*
G03*
X417042Y312350I1259J1862D01*
G01*
X416369Y312749D02*
G03*
X416562Y312596I1159J1258D01*
G01*
X416210Y312922D02*
G03*
X416369Y312749I1181J934D01*
G01*
X415927Y313550D02*
G03*
X416210Y312922I1405J255D01*
G01*
X415899Y313795D02*
G03*
X415927Y313550I1728J74D01*
G01*
X415904Y314057D02*
G03*
X415899Y313795I2054J-175D01*
G01*
X415943Y314335D02*
G03*
X415904Y314057I2479J-493D01*
G01*
X416163Y315082D02*
G03*
X415943Y314335I4061J-1598D01*
G01*
X416369Y315544D02*
G03*
X416163Y315082I4824J-2433D01*
G01*
X416485Y315765D02*
G03*
X416369Y315544I5702J-3146D01*
G01*
X416608Y315980D02*
G03*
X416485Y315765I6532J-3887D01*
G01*
X416737Y316189D02*
G03*
X416608Y315980I7749J-4897D01*
G01*
X416869Y316393D02*
G03*
X416737Y316189I9679J-6405D01*
G01*
X416562Y317928D02*
G03*
X416189Y317450I11730J-9516D01*
G01*
X416189Y317450D02*
G03*
X416000Y317188I9224J-6872D01*
G01*
Y317188D02*
G03*
X415812Y316910I8226J-5775D01*
G01*
D02*
G03*
X415629Y316618I7488J-4893D01*
G01*
X415629Y316618D02*
G03*
X415453Y316311I6906J-4142D01*
G01*
X415453Y316311D02*
G03*
X415140Y315654I6139J-3334D01*
G01*
X415140Y315654D02*
G03*
X414896Y314942I5493J-2279D01*
G01*
D02*
G03*
X414756Y314120I4013J-1108D01*
G01*
D02*
G03*
X414761Y313606I3334J-222D01*
G01*
X414761D02*
G03*
X414846Y313123I2874J253D01*
G01*
Y313123D02*
G03*
X415119Y312469I2486J654D01*
G01*
D02*
G03*
X415744Y311757I2249J1344D01*
G01*
Y311757D02*
G03*
X416160Y311478I1919J2415D01*
G01*
Y311478D02*
G03*
X416639Y311255I1767J3166D01*
G01*
X416639D02*
G03*
X417178Y311089I1544J4062D01*
G01*
Y311134D02*
G03*
X417936Y311003I1418J5943D01*
G01*
X417936D02*
G03*
X418420Y310967I773J7065D01*
G01*
D02*
G03*
X418759Y310960I335J8157D01*
G01*
D02*
G03*
X419222Y310972I-18J9722D01*
G01*
D02*
G03*
X419516Y310990I-554J11255D01*
G01*
X418742Y312118D02*
G03*
X418990Y312121I-2J7968D01*
G01*
X418990D02*
G03*
X419164Y312128I-296J9465D01*
G01*
X418823Y312118D02*
G03*
X418990Y312121I-88J8158D01*
G01*
X417229Y312329D02*
G03*
X417790Y312193I1257J3965D01*
G01*
X417790Y312193D02*
G03*
X418091Y312151I826J4813D01*
G01*
D02*
G03*
X418408Y312126I600J5555D01*
G01*
X418408Y312126D02*
G03*
X418742Y312118I329J6494D01*
G01*
X418248Y312136D02*
G03*
X418742Y312118I484J6235D01*
G01*
X417939Y312170D02*
G03*
X418248Y312136I717J5162D01*
G01*
X417645Y312221D02*
G03*
X417939Y312170I927J4505D01*
G01*
X417229Y312329D02*
G03*
X417645Y312221I1233J3875D01*
G01*
X418256Y310976D02*
G03*
X418759Y310960I495J7909D01*
G01*
X417779Y311022D02*
G03*
X418256Y310976I901J6722D01*
G01*
X417178Y311134D02*
G03*
X417779Y311022I1402J5862D01*
G01*
X417178Y311134D02*
G03*
X417936Y311003I1418J5943D01*
G01*
X417936D02*
G03*
X418420Y310967I773J7065D01*
G01*
D02*
G03*
X418759Y310960I335J8157D01*
G01*
X419416Y310983D02*
G03*
X419720Y311007I-830J12382D01*
G01*
X419127Y310968D02*
G03*
X419416Y310983I-432J10786D01*
G01*
X418759Y310960D02*
G03*
X419127Y310968I-16J9577D01*
G01*
X418759Y310960D02*
G03*
X419127Y310968I-4J9222D01*
G01*
D02*
G03*
X419416Y310983I-430J10689D01*
G01*
X428624Y323013D02*
G03*
X428563Y323127I-267J-68D01*
G01*
X428563D02*
G03*
X428506Y323192I-631J-501D01*
G01*
Y323192D02*
G03*
X428435Y323258I-867J-853D01*
G01*
D02*
G03*
X428356Y323323I-987J-1137D01*
G01*
D02*
G03*
X428186Y323434I-877J-1153D01*
G01*
D02*
G03*
X428104Y323475I-458J-823D01*
G01*
Y323475D02*
G03*
X428029Y323501I-220J-500D01*
G01*
Y323501D02*
G03*
X427966Y323511I-69J-243D01*
G01*
D02*
G03*
X427945Y323509I-0J-116D01*
G01*
D02*
G03*
X427936Y323507I18J-100D01*
G01*
D02*
G03*
X427933Y323506I25J-91D01*
G01*
X420667Y319382D02*
G03*
X420552Y319286I511J-738D01*
G01*
D02*
G03*
X420506Y319236I455J-462D01*
G01*
D02*
G03*
X420468Y319184I423J-348D01*
G01*
Y319184D02*
G03*
X420416Y319074I396J-256D01*
G01*
X420416Y319074D02*
G03*
X420393Y318953I463J-148D01*
G01*
X420393D02*
G03*
X420393Y318888I586J-33D01*
G01*
X420393D02*
G03*
X420400Y318819I707J38D01*
G01*
X420404Y318786D02*
G03*
X420400Y318819I-547J-49D01*
G01*
X420406Y318769D02*
G03*
X420404Y318786I-708J-47D01*
G01*
X420407Y318752D02*
G03*
X420406Y318769I-848J-38D01*
G01*
X420407Y318646D02*
G03*
X420407Y318587I3414J-38D01*
G01*
Y318587D02*
G03*
X420408Y318559I1266J10D01*
G01*
Y318559D02*
G03*
X420409Y318531I811J25D01*
G01*
D02*
G03*
X420411Y318505I541J35D01*
G01*
X420411D02*
G03*
X420415Y318481I362J41D01*
G01*
X420415Y318481D02*
G03*
X420420Y318459I238J43D01*
G01*
X420420D02*
G03*
X420427Y318439I152J42D01*
G01*
D02*
G03*
X420436Y318423I95J40D01*
G01*
D02*
G03*
X420447Y318410I59J39D01*
G01*
X420447Y318410D02*
G03*
X420609Y318265I5344J5837D01*
G01*
X423214Y324404D02*
G03*
X423244Y324392I565J1359D01*
G01*
D02*
G03*
X423271Y324381I340J871D01*
G01*
X423271Y324381D02*
G03*
X423296Y324373I207J583D01*
G01*
X423296Y324373D02*
G03*
X423319Y324367I126J409D01*
G01*
X423319Y324367D02*
G03*
X423340Y324362I75J302D01*
G01*
Y324362D02*
G03*
X423359Y324360I42J239D01*
G01*
Y324360D02*
G03*
X423378Y324359I19J205D01*
G01*
Y324359D02*
G03*
X423421Y324364I-1J199D01*
G01*
Y324364D02*
G03*
X423436Y324367I-57J260D01*
G01*
D02*
G03*
X423451Y324372I-89J317D01*
G01*
D02*
G03*
X423468Y324378I-134J401D01*
G01*
D02*
G03*
X423485Y324385I-199J524D01*
G01*
X423485D02*
G03*
X423503Y324393I-296J707D01*
G01*
D02*
G03*
X423522Y324402I-444J990D01*
G01*
X431995Y318034D02*
G03*
X431951Y317834I1250J-383D01*
G01*
Y317834D02*
G03*
X431929Y317687I4496J-734D01*
G01*
D02*
G03*
X431909Y317517I6799J-887D01*
G01*
D02*
G03*
X431892Y317332I8296J-875D01*
G01*
D02*
G03*
X431869Y316950I8058J-676D01*
G01*
X431869Y316950D02*
G03*
X431865Y316767I5772J-207D01*
G01*
X431865D02*
G03*
X431868Y316599I3824J-18D01*
G01*
X431868Y316599D02*
G03*
X431878Y316455I2123J79D01*
G01*
X423190Y312951D02*
G03*
X423174Y312951I-0J-168D01*
G01*
D02*
G03*
X423168Y312950I13J-140D01*
G01*
X423168Y312950D02*
G03*
X423162Y312949I17J-120D01*
G01*
D02*
G03*
X423156Y312948I19J-101D01*
G01*
X423156D02*
G03*
X423152Y312947I20J-81D01*
G01*
X423152D02*
G03*
X423148Y312945I19J-61D01*
G01*
D02*
G03*
X423144Y312944I16J-43D01*
G01*
D02*
G03*
X423142Y312942I13J-26D01*
G01*
D02*
G03*
X423140Y312941I8J-13D01*
G01*
D02*
G03*
X423134Y312930I21J-18D01*
G01*
Y312930D02*
G03*
X423132Y312921I86J-28D01*
G01*
X423132D02*
G03*
X423130Y312911I139J-30D01*
G01*
X423130Y312911D02*
G03*
X423129Y312899I186J-26D01*
G01*
X423129D02*
G03*
X423131Y312847I213J-17D01*
G01*
X423131D02*
G03*
X423134Y312835I147J25D01*
G01*
X423246Y312941D02*
G03*
X423237Y312945I-29J-58D01*
G01*
Y312945D02*
G03*
X423232Y312946I-31J-89D01*
G01*
D02*
G03*
X423227Y312948I-31J-110D01*
G01*
Y312948D02*
G03*
X423221Y312949I-30J-131D01*
G01*
D02*
G03*
X423215Y312950I-28J-149D01*
G01*
Y312950D02*
G03*
X423203Y312951I-25J-169D01*
G01*
D02*
G03*
X423190Y312951I-13J-180D01*
G01*
X425719Y317947D02*
G03*
X426457Y318691I-7J744D01*
G01*
X426457Y318691D02*
G03*
X425713Y319429I-745J-7D01*
G01*
D02*
G03*
X424976Y318685I8J-745D01*
G01*
D02*
G03*
X425719Y317947I745J7D01*
G01*
X427999Y320500D02*
G03*
X425771Y321545I-2224J-1843D01*
G01*
X428634Y318224D02*
G03*
X427999Y320500I-2857J430D01*
G01*
X428634Y318224D02*
G03*
X428696Y317956I1709J259D01*
G01*
X428696Y317956D02*
G03*
X428755Y317789I2460J773D01*
G01*
X428755Y317789D02*
G03*
X428836Y317599I3120J1221D01*
G01*
X428836D02*
G03*
X428943Y317385I3922J1820D01*
G01*
Y317385D02*
G03*
X429079Y317145I4887J2606D01*
G01*
X429079D02*
G03*
X429246Y316879I6038J3615D01*
G01*
D02*
G03*
X429449Y316585I7398J4890D01*
G01*
Y316585D02*
G03*
X429690Y316263I8993J6478D01*
G01*
D02*
G03*
X429972Y315912I10850J8428D01*
G01*
X435381Y308977D02*
G03*
X435480Y308872I2212J1984D01*
G01*
X435480D02*
G03*
X435736Y308636I2478J2442D01*
G01*
X435736D02*
G03*
X435843Y308552I1876J2266D01*
G01*
X435843Y308552D02*
G03*
X435959Y308470I1518J2016D01*
G01*
Y308470D02*
G03*
X436081Y308394I1163J1738D01*
G01*
X436081D02*
G03*
X436207Y308329I836J1456D01*
G01*
Y308329D02*
G03*
X436337Y308276I557J1192D01*
G01*
X437377Y307657D02*
G03*
X436337Y308276I-1388J-1149D01*
G01*
X437140Y305104D02*
G03*
X437377Y307657I-1157J1395D01*
G01*
X435983Y304685D02*
G03*
X437140Y305104I2J1802D01*
G01*
X434586Y305341D02*
G03*
X435983Y304685I1394J1155D01*
G01*
X434175Y306362D02*
G03*
X434586Y305341I1797J131D01*
G01*
X434174Y306361D02*
G03*
X434174Y306375I-258J3D01*
G01*
X434170Y306452D02*
G03*
X434170Y306446I191J1D01*
G01*
X434170Y306452D02*
G03*
X434110Y306713I-1164J-129D01*
G01*
X434110D02*
G03*
X434059Y306848I-1826J-624D01*
G01*
X434059Y306848D02*
G03*
X433997Y306982I-2332J-996D01*
G01*
X433997D02*
G03*
X433928Y307112I-2850J-1418D01*
G01*
D02*
G03*
X433856Y307236I-3336J-1856D01*
G01*
D02*
G03*
X433785Y307350I-3734J-2263D01*
G01*
D02*
G03*
X433604Y307609I-4007J-2601D01*
G01*
X427691Y314019D02*
G03*
X427123Y314660I-9259J-7645D01*
G01*
X427123D02*
G03*
X426870Y314914I-6238J-5969D01*
G01*
Y314914D02*
G03*
X426637Y315128I-4763J-4951D01*
G01*
D02*
G03*
X426424Y315305I-3578J-4079D01*
G01*
Y315305D02*
G03*
X426230Y315450I-2640J-3339D01*
G01*
X426230Y315450D02*
G03*
X426055Y315564I-1908J-2716D01*
G01*
X426055Y315564D02*
G03*
X425900Y315652I-1344J-2195D01*
G01*
D02*
G03*
X425762Y315717I-919J-1764D01*
G01*
X425762D02*
G03*
X425643Y315762I-602J-1409D01*
G01*
X423547Y316805D02*
G03*
X425643Y315762I2222J1839D01*
G01*
X423925Y320879D02*
G03*
X423547Y316805I1847J-2226D01*
G01*
X425771Y321545D02*
G03*
X423925Y320879I-2J-2882D01*
G01*
X422950Y315490D02*
G03*
X427527Y313226I13977J22500D01*
G01*
X421849Y316206D02*
G03*
X422950Y315490I16140J23594D01*
G01*
X420731Y317010D02*
G03*
X421849Y316206I17029J22505D01*
G01*
X420216Y317412D02*
G03*
X420731Y317010I14914J18598D01*
G01*
X419265Y318222D02*
G03*
X420216Y317412I13835J15279D01*
G01*
X418413Y319047D02*
G03*
X419265Y318222I12711J12269D01*
G01*
X417299Y320334D02*
G03*
X418413Y319047I12444J9652D01*
G01*
X416915Y320813D02*
G03*
X417299Y320289I9337J6435D01*
G01*
X416747Y321065D02*
G03*
X416915Y320813I7534J4812D01*
G01*
X416596Y321312D02*
G03*
X416747Y321065I6697J3934D01*
G01*
X416460Y321555D02*
G03*
X416596Y321312I6052J3232D01*
G01*
X416231Y322033D02*
G03*
X416460Y321555I5443J2313D01*
G01*
X415988Y322746D02*
G03*
X416231Y322033I5009J1312D01*
G01*
X415900Y323280D02*
G03*
X415988Y322746I2707J169D01*
G01*
X415901Y323525D02*
G03*
X415900Y323280I2026J-129D01*
G01*
X415931Y323755D02*
G03*
X415901Y323525I1689J-339D01*
G01*
X415991Y323968D02*
G03*
X415931Y323755I1430J-513D01*
G01*
X416519Y324656D02*
G03*
X415991Y323968I828J-1182D01*
G01*
X416722Y324784D02*
G03*
X416519Y324656I900J-1659D01*
G01*
X417011Y324920D02*
G03*
X416722Y324784I1025J-2555D01*
G01*
X417264Y325009D02*
G03*
X417011Y324920I920J-3007D01*
G01*
X417330Y325028D02*
G03*
X417264Y325009I918J-3226D01*
G01*
X418281Y325242D02*
G03*
X417330Y325073I375J-4869D01*
G01*
X418690Y325260D02*
G03*
X418281Y325242I47J-5774D01*
G01*
X419121Y325250D02*
G03*
X418690Y325260I-377J-6718D01*
G01*
X419346Y325234D02*
G03*
X419121Y325250I-651J-7676D01*
G01*
X419742Y326367D02*
G03*
X419417Y326393I-1265J-14350D01*
G01*
X419212Y326404D02*
G03*
X419016Y326412I-518J-10745D01*
G01*
X419016D02*
G03*
X418827Y326415I-288J-9636D01*
G01*
X418736Y326416D02*
G03*
X418130Y326393I-12J-7554D01*
G01*
X418130Y326393D02*
G03*
X417751Y326351I502J-6293D01*
G01*
Y326351D02*
G03*
X417390Y326288I784J-5562D01*
G01*
X417390Y326243D02*
G03*
X416877Y326108I1029J-4946D01*
G01*
D02*
G03*
X416235Y325845I1262J-3998D01*
G01*
Y325845D02*
G03*
X415958Y325685I1504J-2925D01*
G01*
X415958Y325685D02*
G03*
X415709Y325505I1563J-2426D01*
G01*
D02*
G03*
X415297Y325087I1592J-1980D01*
G01*
D02*
G03*
X414887Y324306I2027J-1562D01*
G01*
Y324306D02*
G03*
X414806Y324004I2934J-957D01*
G01*
D02*
G03*
X414747Y323120I2945J-637D01*
G01*
D02*
G03*
X414816Y322648I3694J295D01*
G01*
Y322648D02*
G03*
X414875Y322402I4335J909D01*
G01*
Y322402D02*
G03*
X414950Y322149I4915J1328D01*
G01*
D02*
G03*
X415043Y321888I5632J1840D01*
G01*
X415043D02*
G03*
X415152Y321618I6508J2468D01*
G01*
Y321618D02*
G03*
X415876Y320270I8062J3465D01*
G01*
D02*
G03*
X416350Y319602I8926J5831D01*
G01*
X416350Y319602D02*
G03*
X416618Y319266I9783J7510D01*
G01*
X416618D02*
G03*
X416906Y318927I10641J8775D01*
G01*
X416906Y318927D02*
G03*
X417217Y318584I11693J10294D01*
G01*
Y318629D02*
G03*
X417550Y318282I12968J12117D01*
G01*
D02*
G03*
X423697Y313712I18071J17886D01*
G01*
D02*
G03*
X425783Y312694I14358J26766D01*
G01*
Y312694D02*
G03*
X426886Y312229I13569J30672D01*
G01*
X436679Y314329D02*
G03*
X436687Y314316I482J268D01*
G01*
X436676Y314336D02*
G03*
X436679Y314329I280J147D01*
G01*
X436672Y314343D02*
G03*
X436676Y314336I225J109D01*
G01*
X436669Y314350D02*
G03*
X436672Y314343I190J83D01*
G01*
X436666Y314357D02*
G03*
X436669Y314350I166J64D01*
G01*
X436663Y314365D02*
G03*
X436666Y314357I148J49D01*
G01*
X436661Y314372D02*
G03*
X436663Y314365I135J36D01*
G01*
X436658Y314389D02*
G03*
X436661Y314372I122J16D01*
G01*
X436658Y314389D02*
G03*
X436491Y315164I-4545J-573D01*
G01*
Y315164D02*
G03*
X436352Y315561I-5152J-1577D01*
G01*
D02*
G03*
X436177Y315965I-5815J-2289D01*
G01*
Y315965D02*
G03*
X435963Y316378I-6698J-3199D01*
G01*
D02*
G03*
X435079Y317726I-9826J-5480D01*
G01*
X435079D02*
G03*
X434537Y318393I-10708J-8152D01*
G01*
Y318393D02*
G03*
X433920Y319064I-12226J-10607D01*
G01*
Y319064D02*
G03*
X433582Y319405I-13700J-13291D01*
G01*
X433582Y319405D02*
G03*
X433223Y319749I-15084J-15388D01*
G01*
X431865Y320939D02*
G03*
X431865Y320940I-35J8D01*
G01*
X431865Y320938D02*
G03*
X431865Y320939I-26J7D01*
G01*
X431865Y320937D02*
G03*
X431865Y320938I-23J7D01*
G01*
X431859Y320902D02*
G03*
X431858Y320897I273J-37D01*
G01*
X431858Y320897D02*
G03*
X431858Y320892I189J-22D01*
G01*
X431858D02*
G03*
X431858Y320888I137J-12D01*
G01*
D02*
G03*
X431857Y320884I104J-6D01*
G01*
D02*
G03*
X431857Y320880I84J-1D01*
G01*
X431923Y319464D02*
G03*
X431930Y319428I156J12D01*
G01*
X431930D02*
G03*
X431937Y319409I222J69D01*
G01*
Y319409D02*
G03*
X431946Y319388I272J112D01*
G01*
X431947Y319388D02*
G03*
X431958Y319367I323J163D01*
G01*
D02*
G03*
X431971Y319346I373J219D01*
G01*
X431971D02*
G03*
X431987Y319324I418J280D01*
G01*
Y319324D02*
G03*
X432004Y319302I457J343D01*
G01*
Y319302D02*
G03*
X432045Y319258I506J421D01*
G01*
X433992Y317234D02*
G03*
X433474Y317832I-10143J-8270D01*
G01*
X434223Y316941D02*
G03*
X433992Y317234I-8646J-6554D01*
G01*
X434435Y316650D02*
G03*
X434223Y316941I-7940J-5566D01*
G01*
X434807Y316071D02*
G03*
X434435Y316650I-7234J-4242D01*
G01*
X435112Y315493D02*
G03*
X434807Y316071I-6560J-3088D01*
G01*
X435354Y314909D02*
G03*
X435112Y315493I-6302J-2265D01*
G01*
X435438Y314640D02*
G03*
X435354Y314909I-3485J-955D01*
G01*
X435497Y314383D02*
G03*
X435438Y314640I-2921J-527D01*
G01*
X435529Y314134D02*
G03*
X435497Y314383I-2506J-197D01*
G01*
X435535Y313895D02*
G03*
X435529Y314134I-2215J66D01*
G01*
X435514Y313662D02*
G03*
X435535Y313895I-2032J295D01*
G01*
X435422Y313307D02*
G03*
X435514Y313662I-1490J577D01*
G01*
X435011Y312741D02*
G03*
X435422Y313307I-890J1077D01*
G01*
X434861Y312628D02*
G03*
X435011Y312741I-950J1426D01*
G01*
X434691Y312526D02*
G03*
X434861Y312628I-940J1767D01*
G01*
X434501Y312436D02*
G03*
X434691Y312526I-936J2207D01*
G01*
X434292Y312356D02*
G03*
X434501Y312436I-929J2762D01*
G01*
X433868Y312238D02*
G03*
X434292Y312356I-914J4093D01*
G01*
X433679Y312200D02*
G03*
X433868Y312238I-840J4623D01*
G01*
X434458Y311192D02*
G03*
X434570Y311227I-1786J5927D01*
G01*
X434716Y311276D02*
G03*
X434788Y311303I-1354J3780D01*
G01*
X434824Y311317D02*
G03*
X435371Y311581I-1356J3498D01*
G01*
D02*
G03*
X435609Y311737I-1562J2636D01*
G01*
D02*
G03*
X436014Y312099I-1558J2155D01*
G01*
D02*
G03*
X436549Y313023I-1895J1713D01*
G01*
Y313023D02*
G03*
X436626Y313297I-2952J982D01*
G01*
X429890Y318269D02*
G03*
X429838Y319880I-19553J181D01*
G01*
X429852Y317151D02*
G03*
X429890Y318269I-22084J1314D01*
G01*
X430964Y316634D02*
G03*
X430915Y321395I-27961J2093D01*
G01*
X430915Y321395D02*
G03*
X430777Y322550I-25762J-2504D01*
G01*
X429358Y323991D02*
G03*
X429368Y323932I3366J569D01*
G01*
X428622Y310857D02*
G03*
X428921Y311709I-12898J5007D01*
G01*
X428278Y310055D02*
G03*
X428622Y310857I-11346J5342D01*
G01*
X428074Y309642D02*
G03*
X428278Y310055I-10072J5229D01*
G01*
X427960Y309432D02*
G03*
X428074Y309642I-7130J3984D01*
G01*
X427837Y309220D02*
G03*
X427960Y309432I-5940J3599D01*
G01*
X427704Y309011D02*
G03*
X427837Y309220I-5051J3351D01*
G01*
X427560Y308803D02*
G03*
X427704Y309011I-4346J3186D01*
G01*
X427403Y308601D02*
G03*
X427560Y308803I-3766J3079D01*
G01*
X427048Y308216D02*
G03*
X427403Y308601I-2966J3094D01*
G01*
X426848Y308037D02*
G03*
X427048Y308216I-2498J2999D01*
G01*
X426397Y307741D02*
G03*
X426848Y308037I-1013J2027D01*
G01*
X426170Y307648D02*
G03*
X426397Y307741I-534J1641D01*
G01*
X425942Y307593D02*
G03*
X426170Y307648I-241J1500D01*
G01*
X425028Y307745D02*
G03*
X425942Y307593I689J1321D01*
G01*
X424802Y307876D02*
G03*
X425028Y307745I1148J1716D01*
G01*
X424579Y308045D02*
G03*
X424802Y307876I1629J1932D01*
G01*
X424041Y308592D02*
G03*
X424579Y308045I3166J2571D01*
G01*
X423793Y308923D02*
G03*
X424041Y308592I4172J2870D01*
G01*
X423673Y309105D02*
G03*
X423793Y308923I5000J3182D01*
G01*
X423555Y309298D02*
G03*
X423673Y309105I5752J3393D01*
G01*
X423438Y309502D02*
G03*
X423555Y309298I6660J3655D01*
G01*
X423323Y309719D02*
G03*
X423438Y309502I7755J3976D01*
G01*
X422750Y311034D02*
G03*
X423323Y309719I10951J3994D01*
G01*
X422504Y311767D02*
G03*
X422750Y311034I13703J4193D01*
G01*
X422389Y312158D02*
G03*
X422504Y311767I16285J4569D01*
G01*
X422279Y312568D02*
G03*
X422389Y312158I18659J4794D01*
G01*
X422173Y312998D02*
G03*
X422279Y312568I21647J5104D01*
G01*
X422070Y313450D02*
G03*
X422173Y312998I25400J5512D01*
G01*
X422055Y313520D02*
G03*
X422050Y313542I-1057J-240D01*
G01*
D02*
G03*
X422044Y313563I-713J-178D01*
G01*
X422044D02*
G03*
X422038Y313584I-495J-140D01*
G01*
D02*
G03*
X422031Y313604I-339J-111D01*
G01*
D02*
G03*
X422023Y313622I-224J-88D01*
G01*
X422023Y313622D02*
G03*
X422014Y313638I-140J-69D01*
G01*
D02*
G03*
X422004Y313651I-82J-53D01*
G01*
X422004Y313651D02*
G03*
X421993Y313661I-46J-41D01*
G01*
X420852Y313661D02*
G03*
X421091Y312537I24987J4725D01*
G01*
D02*
G03*
X421221Y312017I19617J4656D01*
G01*
Y312017D02*
G03*
X421360Y311523I16973J4508D01*
G01*
D02*
G03*
X421509Y311052I14884J4423D01*
G01*
X421509Y311052D02*
G03*
X421666Y310603I13249J4401D01*
G01*
Y310603D02*
G03*
X422014Y309760I11585J4284D01*
G01*
Y309760D02*
G03*
X422409Y308977I10274J4692D01*
G01*
D02*
G03*
X422801Y308323I8683J4770D01*
G01*
X422801Y308323D02*
G03*
X423025Y308004I5655J3723D01*
G01*
D02*
G03*
X423271Y307697I4461J3321D01*
G01*
X423271D02*
G03*
X423543Y307407I3575J3077D01*
G01*
Y307407D02*
G03*
X423843Y307140I2892J2949D01*
G01*
D02*
G03*
X424539Y306697I2290J2831D01*
G01*
D02*
G03*
X425385Y306411I1576J3264D01*
G01*
X426051D02*
G03*
X427778Y307304I-696J3462D01*
G01*
D02*
G03*
X428037Y307564I-3056J3306D01*
G01*
D02*
G03*
X428273Y307839I-3878J3564D01*
G01*
X428273Y307839D02*
G03*
X428489Y308125I-4973J3976D01*
G01*
Y308125D02*
G03*
X428687Y308417I-6549J4657D01*
G01*
X428687D02*
G03*
X428870Y308711I-9163J5928D01*
G01*
D02*
G03*
X429214Y309334I-7771J4696D01*
G01*
D02*
G03*
X429290Y309489I-7418J3716D01*
G01*
X429290D02*
G03*
X429715Y310483I-12981J6143D01*
G01*
X429715Y310483D02*
G03*
X429812Y310741I-14643J5636D01*
G01*
X419464Y319321D02*
X419474Y319330D01*
X419480Y319334D01*
X419485Y319338D01*
X419491Y319342D01*
X419496Y319347D01*
X419502Y319352D01*
X419508Y319356D01*
X419513Y319361D01*
X419519Y319366D01*
X434867Y321458D02*
X434935Y321573D01*
X434798Y321342D02*
X434867Y321458D01*
X434728Y321227D02*
X434798Y321342D01*
X434658Y321112D02*
X434728Y321227D01*
X434587Y320998D02*
X434658Y321112D01*
X434516Y320884D02*
X434587Y320998D01*
X434445Y320772D02*
X434516Y320884D01*
X434375Y320660D02*
X434445Y320772D01*
X434315Y320565D02*
X434375Y320660D01*
X434285Y320517D02*
X434315Y320565D01*
X434255Y320469D02*
X434285Y320517D01*
X434225Y320422D02*
X434255Y320469D01*
X434195Y320374D02*
X434225Y320422D01*
X434165Y320326D02*
X434195Y320374D01*
X434135Y320278D02*
X434165Y320326D01*
X434075Y320181D02*
X434135Y320278D01*
X436554Y322449D02*
X436575Y322534D01*
X436586Y322577D01*
X436596Y322620D01*
X436606Y322663D01*
X436616Y322706D01*
X436625Y322749D01*
X436634Y322792D01*
X436644Y322835D01*
X436653Y322877D01*
X436682Y323012D01*
X436695Y323070D01*
X436692Y323791D02*
X436695Y323781D01*
X436689Y323799D02*
X436692Y323791D01*
X436687Y323806D02*
X436689Y323799D01*
X436685Y323809D02*
X436687Y323806D01*
X436684Y323813D02*
X436685Y323809D01*
X436683Y323816D02*
X436684Y323813D01*
X436676Y323835D02*
X436683Y323816D01*
X436673Y323845D02*
X436676Y323835D01*
X436670Y323854D02*
X436673Y323845D01*
X436666Y323864D02*
X436670Y323854D01*
X433077Y326390D02*
X433253Y326379D01*
X418945Y320403D02*
X418998Y320448D01*
X418919Y320380D02*
X418945Y320403D01*
X418893Y320357D02*
X418919Y320380D01*
X418866Y320334D02*
X418893Y320357D01*
X418840Y320310D02*
X418866Y320334D01*
X418813Y320286D02*
X418840Y320310D01*
X418786Y320262D02*
X418813Y320286D01*
X418759Y320237D02*
X418786Y320262D01*
X418731Y320212D02*
X418759Y320237D01*
X418709Y320192D02*
X418731Y320212D01*
X418698Y320181D02*
X418709Y320192D01*
X418686Y320171D02*
X418698Y320181D01*
X418675Y320160D02*
X418686Y320171D01*
X418663Y320150D02*
X418675Y320160D01*
X418651Y320139D02*
X418663Y320150D01*
X418639Y320128D02*
X418651Y320139D01*
X418627Y320117D02*
X418639Y320128D01*
X418615Y320107D02*
X418627Y320117D01*
X420939Y322845D02*
X421081Y322942D01*
X421152Y322989D01*
X421222Y323036D01*
X421291Y323081D01*
X421361Y323125D01*
X421431Y323169D01*
X421501Y323211D01*
X428520Y326788D02*
X428561Y326702D01*
X428603Y326615D01*
X428645Y326528D01*
X420823Y323569D02*
X420850Y323715D01*
X420811Y323496D02*
X420823Y323569D01*
X420798Y323422D02*
X420811Y323496D01*
X420786Y323348D02*
X420798Y323422D01*
X420774Y323273D02*
X420786Y323348D01*
X420761Y323198D02*
X420774Y323273D01*
X420749Y323122D02*
X420761Y323198D01*
X420737Y323045D02*
X420749Y323122D01*
X420725Y322968D02*
X420737Y323045D01*
X420715Y322909D02*
X420725Y322968D01*
X420711Y322880D02*
X420715Y322909D01*
X420706Y322850D02*
X420711Y322880D01*
X420701Y322820D02*
X420706Y322850D01*
X420697Y322790D02*
X420701Y322820D01*
X420687Y322730D02*
X420697Y322790D01*
X420677Y322669D02*
X420687Y322730D01*
X420677Y322669D02*
X420731Y322705D01*
X420757Y322722D01*
X420784Y322740D01*
X420810Y322758D01*
X420836Y322776D01*
X420862Y322793D01*
X420888Y322811D01*
X420914Y322828D01*
X420939Y322845D01*
X419759Y312174D02*
X419912Y312189D01*
X419683Y312167D02*
X419759Y312174D01*
X419608Y312160D02*
X419683Y312167D01*
X419534Y312154D02*
X419608Y312160D01*
X419459Y312148D02*
X419534Y312154D01*
X419385Y312142D02*
X419459Y312148D01*
X419312Y312137D02*
X419385Y312142D01*
X419238Y312132D02*
X419312Y312137D01*
X419164Y312128D02*
X419238Y312132D01*
X418742Y312118D02*
X418823Y312118D01*
X416869Y316393D02*
X417004Y316593D01*
X417058Y316672D01*
X417086Y316711D01*
X417113Y316750D01*
X417141Y316788D01*
X417169Y316827D01*
X417197Y316865D01*
X417225Y316904D01*
X417253Y316942D01*
X417281Y316980D01*
X417303Y317009D01*
X417314Y317024D01*
X417325Y317039D01*
X417336Y317054D01*
X417347Y317069D01*
X417358Y317084D01*
X417369Y317098D01*
X417380Y317113D01*
X417391Y317128D01*
X419516Y310990D02*
X419720Y311007D01*
X419840Y311019D01*
X419899Y311026D01*
X419958Y311033D01*
X420018Y311040D01*
X420078Y311047D01*
X420138Y311055D01*
X420198Y311063D01*
X420259Y311071D01*
X420321Y311080D01*
X420367Y311086D01*
X420391Y311089D01*
X420414Y311092D01*
X420438Y311096D01*
X420461Y311099D01*
X420485Y311102D01*
X420508Y311105D01*
X420532Y311108D01*
X420555Y311111D01*
X420109Y312208D02*
X420244Y312220D01*
X420043Y312201D02*
X420109Y312208D01*
X419977Y312195D02*
X420043Y312201D01*
X419912Y312189D02*
X419977Y312195D01*
X418990Y312121D02*
X419120Y312126D01*
X419164Y312128D01*
X418742Y312118D02*
X418823Y312118D01*
X419416Y310983D02*
X419617Y310998D01*
X419720Y311007D01*
X428743Y322233D02*
X428773Y322034D01*
X428728Y322332D02*
X428743Y322233D01*
X428714Y322430D02*
X428728Y322332D01*
X428699Y322528D02*
X428714Y322430D01*
X428684Y322626D02*
X428699Y322528D01*
X428669Y322723D02*
X428684Y322626D01*
X428654Y322820D02*
X428669Y322723D01*
X428639Y322916D02*
X428654Y322820D01*
X428624Y323013D02*
X428639Y322916D01*
X427734Y323434D02*
X427933Y323506D01*
X427634Y323397D02*
X427734Y323434D01*
X427535Y323360D02*
X427634Y323397D01*
X427435Y323321D02*
X427535Y323360D01*
X427336Y323282D02*
X427435Y323321D01*
X427235Y323242D02*
X427336Y323282D01*
X427134Y323202D02*
X427235Y323242D01*
X427032Y323161D02*
X427134Y323202D01*
X426929Y323120D02*
X427032Y323161D01*
X426861Y323092D02*
X426929Y323120D01*
X426827Y323079D02*
X426861Y323092D01*
X426792Y323065D02*
X426827Y323079D01*
X426758Y323051D02*
X426792Y323065D01*
X426689Y323023D02*
X426758Y323051D01*
X426619Y322995D02*
X426689Y323023D01*
X426584Y322982D02*
X426619Y322995D01*
X421511Y320028D02*
X421527Y320041D01*
X421502Y320022D02*
X421511Y320028D01*
X421494Y320015D02*
X421502Y320022D01*
X421486Y320009D02*
X421494Y320015D01*
X421478Y320003D02*
X421486Y320009D01*
X421470Y319997D02*
X421478Y320003D01*
X421462Y319990D02*
X421470Y319997D01*
X421454Y319984D02*
X421462Y319990D01*
X421447Y319978D02*
X421454Y319984D01*
X421424Y319960D02*
X421447Y319978D01*
X421413Y319951D02*
X421424Y319960D01*
X421402Y319942D02*
X421413Y319951D01*
X421390Y319934D02*
X421402Y319942D01*
X421379Y319925D02*
X421390Y319934D01*
X421368Y319916D02*
X421379Y319925D01*
X421357Y319907D02*
X421368Y319916D01*
X421346Y319899D02*
X421357Y319907D01*
X421335Y319890D02*
X421346Y319899D01*
X421200Y319783D02*
X421335Y319890D01*
X421134Y319731D02*
X421200Y319783D01*
X421067Y319679D02*
X421134Y319731D01*
X421001Y319628D02*
X421067Y319679D01*
X420935Y319577D02*
X421001Y319628D01*
X420868Y319527D02*
X420935Y319577D01*
X420802Y319478D02*
X420868Y319527D01*
X420735Y319429D02*
X420802Y319478D01*
X420667Y319382D02*
X420735Y319429D01*
X420407Y318752D02*
X420407Y318734D01*
X420408Y318717D01*
X420408Y318699D01*
Y318681D02*
Y318699D01*
X420408Y318663D02*
X420408Y318681D01*
X420407Y318646D02*
X420408Y318663D01*
X420609Y318265D02*
X420692Y318194D01*
X420775Y318124D01*
X420860Y318055D01*
X420946Y317985D01*
X421033Y317916D01*
X421120Y317846D01*
X421209Y317776D01*
X421299Y317705D01*
X421328Y317682D01*
X421343Y317671D01*
X421358Y317659D01*
X421373Y317647D01*
X421387Y317636D01*
X421402Y317624D01*
X421417Y317612D01*
X421432Y317601D01*
X421447Y317589D01*
X421462Y317576D01*
X421470Y317570D01*
X421478Y317564D01*
X421486Y317558D01*
X421494Y317551D01*
X421502Y317545D01*
X421511Y317539D01*
X421519Y317532D01*
X421527Y317526D01*
X421540Y317515D01*
X421549Y317508D01*
X421553Y317505D01*
X421558Y317501D01*
X421562Y317498D01*
X421567Y317495D01*
X421571Y317491D01*
X421562Y320069D02*
X421571Y320076D01*
X421558Y320065D02*
X421562Y320069D01*
X421553Y320062D02*
X421558Y320065D01*
X421549Y320058D02*
X421553Y320062D01*
X421544Y320055D02*
X421549Y320058D01*
X421535Y320048D02*
X421544Y320055D01*
X421527Y320041D02*
X421535Y320048D01*
X423645Y324464D02*
X423807Y324548D01*
X423889Y324590D01*
X423971Y324632D01*
X424054Y324674D01*
X424137Y324716D01*
X424220Y324759D01*
X424304Y324802D01*
X424390Y324845D01*
X424475Y324889D01*
X423102Y324453D02*
X423180Y324418D01*
X423214Y324404D01*
X423522Y324402D02*
X423543Y324412D01*
X423560Y324420D01*
X423568Y324424D01*
X423577Y324429D01*
X423587Y324434D01*
X423596Y324439D01*
X423606Y324443D01*
X423616Y324449D01*
X423626Y324454D01*
X423636Y324459D01*
X423543Y324412D02*
X423560Y324420D01*
X423568Y324424D01*
X423577Y324429D01*
X423587Y324434D01*
X423596Y324439D01*
X423606Y324443D01*
X423616Y324449D01*
X423626Y324454D01*
X423637Y324459D01*
X423616Y324449D02*
X423636Y324459D01*
X423606Y324443D02*
X423616Y324449D01*
X423596Y324439D02*
X423606Y324443D01*
X423587Y324434D02*
X423596Y324439D01*
X423577Y324429D02*
X423587Y324434D01*
X423568Y324424D02*
X423577Y324429D01*
X423560Y324420D02*
X423568Y324424D01*
X423551Y324416D02*
X423560Y324420D01*
X423543Y324412D02*
X423551Y324416D01*
X423134Y312835D02*
X423175Y312681D01*
X423196Y312604D01*
X423217Y312526D01*
X423239Y312448D01*
X423260Y312370D01*
X423282Y312291D01*
X423305Y312211D01*
X423327Y312131D01*
X423350Y312050D01*
X424127Y312486D02*
X424355Y312366D01*
X424014Y312544D02*
X424127Y312486D01*
X423903Y312602D02*
X424014Y312544D01*
X423792Y312660D02*
X423903Y312602D01*
X423682Y312717D02*
X423792Y312660D01*
X423572Y312773D02*
X423682Y312717D01*
X423463Y312829D02*
X423572Y312773D01*
X423354Y312885D02*
X423463Y312829D01*
X423246Y312941D02*
X423354Y312885D01*
X429972Y315912D02*
X430320Y315466D01*
X430718Y314956D01*
X432512Y312657D01*
X433228Y311740D01*
X433961Y310800D01*
X434687Y309868D01*
X435381Y308977D01*
X434173Y306384D02*
X434174Y306375D01*
X434173Y306395D02*
X434173Y306384D01*
X434172Y306406D02*
X434173Y306395D01*
X434172Y306418D02*
X434172Y306406D01*
X434171Y306428D02*
X434172Y306418D01*
X434171Y306438D02*
X434171Y306428D01*
X434170Y306446D02*
X434171Y306438D01*
X419346Y325234D02*
X419650Y325208D01*
X419718Y325202D01*
X419751Y325199D01*
X419785Y325196D01*
X419818Y325193D01*
X419852Y325190D01*
X419886Y325187D01*
X419919Y325184D01*
X419953Y325182D01*
X419987Y325179D01*
X420503Y326275D02*
X420549Y326270D01*
X420481Y326278D02*
X420503Y326275D01*
X420458Y326281D02*
X420481Y326278D01*
X420435Y326284D02*
X420458Y326281D01*
X420413Y326287D02*
X420435Y326284D01*
X420390Y326290D02*
X420413Y326287D01*
X420367Y326293D02*
X420390Y326290D01*
X420345Y326296D02*
X420367Y326293D01*
X420322Y326299D02*
X420345Y326296D01*
X420202Y326315D02*
X420322Y326299D01*
X420142Y326323D02*
X420202Y326315D01*
X420084Y326330D02*
X420142Y326323D01*
X420025Y326337D02*
X420084Y326330D01*
X419968Y326344D02*
X420025Y326337D01*
X419911Y326351D02*
X419968Y326344D01*
X419854Y326357D02*
X419911Y326351D01*
X419798Y326362D02*
X419854Y326357D01*
X419742Y326367D02*
X419798Y326362D01*
X419212Y326404D02*
X419417Y326393D01*
X418736Y326416D02*
X418827Y326415D01*
X426886Y312229D02*
X427039Y312169D01*
X427116Y312140D01*
X427193Y312111D01*
X427270Y312082D01*
X427349Y312054D01*
X427427Y312025D01*
X427507Y311997D01*
X427587Y311968D01*
X427668Y311939D01*
X427737Y311915D01*
X427771Y311902D01*
X427806Y311890D01*
X427841Y311877D01*
X427876Y311865D01*
X427911Y311852D01*
X427946Y311840D01*
X427981Y311827D01*
X428017Y311814D01*
X433039Y319918D02*
X433223Y319749D01*
X432946Y320003D02*
X433039Y319918D01*
X432852Y320086D02*
X432946Y320003D01*
X432758Y320169D02*
X432852Y320086D01*
X432663Y320253D02*
X432758Y320169D01*
X432567Y320337D02*
X432663Y320253D01*
X432470Y320421D02*
X432567Y320337D01*
X432373Y320505D02*
X432470Y320421D01*
X432274Y320591D02*
X432373Y320505D01*
X432193Y320660D02*
X432274Y320591D01*
X432153Y320695D02*
X432193Y320660D01*
X432112Y320730D02*
X432153Y320695D01*
X432071Y320766D02*
X432112Y320730D01*
X432030Y320801D02*
X432071Y320766D01*
X431989Y320837D02*
X432030Y320801D01*
X431948Y320872D02*
X431989Y320837D01*
X431907Y320908D02*
X431948Y320872D01*
X431866Y320944D02*
X431907Y320908D01*
X431866Y320942D02*
X431866Y320944D01*
X431866Y320942D02*
X431866Y320942D01*
X431866Y320941D02*
X431866Y320942D01*
X431865Y320940D02*
X431866Y320941D01*
X431862Y320921D02*
X431865Y320937D01*
X431861Y320914D02*
X431862Y320921D01*
X431860Y320908D02*
X431861Y320914D01*
X431859Y320902D02*
X431860Y320908D01*
X431870Y320576D02*
X431878Y320356D01*
X431883Y320245D01*
X431887Y320134D01*
X431892Y320022D01*
X431897Y319910D01*
X431903Y319799D01*
X431909Y319687D01*
X431916Y319576D01*
X431923Y319464D01*
X432045Y319258D02*
X432148Y319155D01*
X432200Y319104D01*
X432252Y319052D01*
X432304Y319001D01*
X432356Y318950D01*
X432408Y318900D01*
X432460Y318849D01*
X432512Y318799D01*
X432563Y318749D01*
X432747Y318571D01*
X432839Y318481D01*
X432932Y318390D01*
X433024Y318299D01*
X433115Y318207D01*
X433207Y318114D01*
X433297Y318021D01*
X433386Y317927D01*
X433474Y317832D01*
X434570Y311227D02*
X434643Y311251D01*
X434716Y311276D01*
X434788Y311303D02*
X434824Y311317D01*
X436694Y314303D02*
X436696Y314300D01*
X436693Y314305D02*
X436694Y314303D01*
X436692Y314306D02*
X436693Y314305D01*
X436691Y314308D02*
X436692Y314306D01*
X436690Y314310D02*
X436691Y314308D01*
X436689Y314311D02*
X436690Y314310D01*
X436689Y314313D02*
X436689Y314311D01*
X436688Y314315D02*
X436689Y314313D01*
X436687Y314316D02*
X436688Y314315D01*
X429394Y323769D02*
X429422Y323531D01*
X429437Y323411D01*
X429452Y323292D01*
X429466Y323173D01*
X429481Y323054D01*
X429496Y322935D01*
X429511Y322817D01*
X429527Y322699D01*
X429541Y322582D01*
X429609Y322048D01*
X429643Y321779D01*
X429676Y321509D01*
X429707Y321238D01*
X429738Y320967D01*
X429766Y320695D01*
X429793Y320423D01*
X429817Y320151D01*
X429838Y319880D01*
X430892Y315806D02*
X430907Y315969D01*
X430915Y316051D01*
X430930Y316216D01*
X430944Y316382D01*
X430958Y316549D01*
X430964Y316634D01*
X430741Y322787D02*
X430777Y322550D01*
X430723Y322905D02*
X430741Y322787D01*
X430704Y323024D02*
X430723Y322905D01*
X430685Y323143D02*
X430704Y323024D01*
X430665Y323262D02*
X430685Y323143D01*
X430645Y323381D02*
X430665Y323262D01*
X430624Y323502D02*
X430645Y323381D01*
X430603Y323623D02*
X430624Y323502D01*
X430582Y323746D02*
X430603Y323623D01*
X430563Y323851D02*
X430582Y323746D01*
X430554Y323904D02*
X430563Y323851D01*
X430545Y323956D02*
X430554Y323904D01*
X430536Y324009D02*
X430545Y323956D01*
X430527Y324062D02*
X430536Y324009D01*
X430518Y324115D02*
X430527Y324062D01*
X430500Y324222D02*
X430518Y324115D01*
X430491Y324275D02*
X430500Y324222D01*
X429368Y323932D02*
X429374Y323897D01*
X429377Y323881D01*
X429380Y323864D01*
X429383Y323848D01*
X429385Y323832D01*
X429388Y323816D01*
X429390Y323800D01*
X429392Y323784D01*
X429394Y323769D01*
X422055Y313520D02*
X422064Y313478D01*
X421793Y313793D02*
X421993Y313661D01*
X421693Y313859D02*
X421793Y313793D01*
X421592Y313925D02*
X421693Y313859D01*
X421490Y313990D02*
X421592Y313925D01*
X421387Y314056D02*
X421490Y313990D01*
X421284Y314122D02*
X421387Y314056D01*
X421180Y314188D02*
X421284Y314122D01*
X421075Y314254D02*
X421180Y314188D01*
X420968Y314322D02*
X421075Y314254D01*
X420917Y314354D02*
X420968Y314322D01*
X420891Y314371D02*
X420917Y314354D01*
X420866Y314387D02*
X420891Y314371D01*
X420840Y314404D02*
X420866Y314387D01*
X420814Y314420D02*
X420840Y314404D01*
X420788Y314437D02*
X420814Y314420D01*
X420762Y314453D02*
X420788Y314437D01*
X420736Y314470D02*
X420762Y314453D01*
X420709Y314486D02*
X420736Y314470D01*
X420709Y314486D02*
X420733Y314349D01*
X420744Y314282D01*
X420747Y314260D01*
X420768Y314136D01*
X420778Y314076D01*
X420788Y314015D01*
X420799Y313955D01*
X420809Y313896D01*
X420820Y313837D01*
X420830Y313778D01*
X420841Y313720D01*
X420852Y313661D01*
X418615Y320107D02*
X419464Y319321D01*
X418615Y320107D02*
X419464Y319321D01*
X434075Y320181D02*
X434886Y319409D01*
X434075Y320181D02*
X434886Y319409D01*
X436695Y323070D02*
Y323781D01*
Y323070D02*
Y323781D01*
X428645Y326528D02*
X429792Y326821D01*
X428645Y326528D02*
X429792Y326821D01*
X416562Y317928D02*
X417391Y317128D01*
X416562Y317928D02*
X417391Y317128D01*
X420244Y312220D02*
X420555Y311111D01*
X420244Y312220D02*
X420555Y311111D01*
X426584Y322982D02*
X428824Y321695D01*
X428773Y322034D02*
X428824Y321695D01*
X426584Y322982D02*
X428773Y322034D01*
X421571Y317491D02*
Y320076D01*
Y317491D02*
Y320076D01*
X423636Y324459D02*
X423645Y324464D01*
X423636Y324459D02*
X423645Y324464D01*
X424475Y324889D02*
X424799Y325054D01*
X423421Y325562D02*
X424799Y325054D01*
X423102Y324453D02*
X423421Y325562D01*
X423102Y324453D02*
X424475Y324889D01*
X423637Y324459D02*
X423645Y324464D01*
X423636Y324459D02*
X423645Y324464D01*
X423636Y324459D02*
X423637D01*
X431995Y318034D02*
X432820Y317256D01*
X431995Y318034D02*
X432820Y317256D01*
X431878Y316455D02*
X432820Y317256D01*
X431878Y316455D02*
X432820Y317256D01*
X423350Y312050D02*
X423415Y311818D01*
X424593Y312242D01*
X424355Y312366D02*
X424593Y312242D01*
X423350Y312050D02*
X424355Y312366D01*
X434174Y306361D02*
X434175Y306362D01*
X427691Y314019D02*
X433604Y307609D01*
X427527Y313224D02*
X427527Y313226D01*
X427527Y313224D02*
X427527Y313226D01*
X419987Y325179D02*
X420241Y325156D01*
X420549Y326270D01*
X419987Y325179D02*
X420549Y326270D01*
X428017Y311814D02*
X428209Y312483D01*
X427527Y313224D02*
X428209Y312483D01*
X427527Y313224D02*
X428017Y311814D01*
X431857Y320880D02*
X431870Y320576D01*
X431857Y320880D02*
X431870Y320576D01*
X433679Y312200D02*
X434458Y311192D01*
X433679Y312200D02*
X434458Y311192D01*
X436626Y313297D02*
X436696Y313592D01*
Y314300D01*
X436626Y313297D02*
X436696Y314300D01*
X429852Y317151D02*
X430892Y315806D01*
X429852Y317151D02*
X430892Y315806D01*
X429358Y323991D02*
X430491Y324275D01*
X429358Y323991D02*
X430491Y324275D01*
X422064Y313478D02*
X422070Y313450D01*
X422064Y313478D02*
X422070Y313450D01*
X425385Y306411D02*
X426051D01*
X425385D02*
X426051D01*
X428921Y311709D02*
X429812Y310741D01*
X428921Y311709D02*
X429812Y310741D01*
D12*
X431865Y320939D02*
D03*
X431865Y320937D02*
D03*
D13*
X804823Y149409D02*
G03*
X804823Y149409I-492J0D01*
G01*
X429921Y155118D02*
G03*
X429921Y155118I-492J0D01*
G01*
X542941Y337258D02*
G03*
X542941Y337258I-492J0D01*
G01*
X170965Y90551D02*
G03*
X170965Y90551I-492J0D01*
G01*
X86319Y69193D02*
G03*
X86319Y69193I-492J0D01*
G01*
X118012Y68130D02*
G03*
X118012Y68130I-492J0D01*
G01*
X66634Y95276D02*
G03*
X66634Y95276I-492J0D01*
G01*
X215846Y69980D02*
G03*
X215846Y69980I-492J0D01*
G01*
X13484Y277953D02*
G03*
X13484Y277953I-492J0D01*
G01*
X841043Y94901D02*
G03*
X841043Y94901I-492J0D01*
G01*
X855413Y120295D02*
G03*
X855413Y120295I-492J0D01*
G01*
X854538Y125906D02*
G03*
X854538Y125906I-492J0D01*
G01*
X533366Y81102D02*
G03*
X533366Y81102I-492J0D01*
G01*
X594350Y59488D02*
G03*
X594350Y59488I-492J0D01*
G01*
X792028Y117323D02*
G03*
X792028Y117323I-492J0D01*
G01*
X798997Y92520D02*
G03*
X798997Y92520I-492J0D01*
G01*
X789646Y181102D02*
G03*
X789646Y181102I-492J0D01*
G01*
X807973Y218110D02*
G03*
X807973Y218110I-492J0D01*
G01*
X787589Y211772D02*
G03*
X787589Y211772I-492J0D01*
G01*
X803248Y257087D02*
G03*
X803248Y257087I-492J0D01*
G01*
X758583Y39370D02*
G03*
X758583Y39370I-492J0D01*
G01*
X773721Y16929D02*
G03*
X773721Y16929I-492J0D01*
G01*
X648721Y235748D02*
G03*
X648721Y235748I-492J0D01*
G01*
X364311Y151756D02*
G03*
X364311Y151756I-492J0D01*
G01*
X557185Y196063D02*
G03*
X557185Y196063I-492J0D01*
G01*
X532181Y207282D02*
G03*
X532181Y207282I-492J0D01*
G01*
X457382Y349410D02*
G03*
X457382Y349410I-492J0D01*
G01*
X439665Y93110D02*
G03*
X439665Y93110I-492J0D01*
G01*
X461024Y49606D02*
G03*
X461024Y49606I-492J0D01*
G01*
X648445Y142913D02*
G03*
X648445Y142913I-492J0D01*
G01*
D14*
X619551Y295461D02*
G03*
X623488Y299398I0J3937D01*
G01*
X602228Y323021D02*
G03*
X598291Y319083I0J-3937D01*
G01*
X621648Y319208D02*
G03*
X618961Y322519I-1677J1385D01*
G01*
X600132Y299274D02*
G03*
X602819Y295963I1677J-1385D01*
G01*
X583760Y291176D02*
G03*
X579823Y295113I-3937J0D01*
G01*
X556201Y273853D02*
G03*
X560138Y269916I3937J0D01*
G01*
X560013Y293273D02*
G03*
X556702Y290585I-1385J-1677D01*
G01*
X579947Y271756D02*
G03*
X583258Y274444I1385J1677D01*
G01*
X51122Y234803D02*
G03*
X51516Y235197I0J394D01*
G01*
X20531D02*
G03*
X20925Y234803I394J0D01*
G01*
Y277795D02*
G03*
X20531Y277402I0J-394D01*
G01*
X51516D02*
G03*
X51122Y277795I-394J0D01*
G01*
X768362Y75011D02*
G03*
X768362Y78611I0J1800D01*
G01*
Y160011D02*
G03*
X768362Y163611I0J1800D01*
G01*
Y245011D02*
G03*
X768362Y248611I0J1800D01*
G01*
X-7176Y169354D02*
G03*
X-7176Y161354I11113J-4000D01*
G01*
X7937Y176467D02*
G03*
X-63Y176467I-4000J-11113D01*
G01*
Y154241D02*
G03*
X7937Y154241I4000J11113D01*
G01*
X15050Y161354D02*
G03*
X15050Y169354I-11113J4000D01*
G01*
X776590Y274141D02*
G03*
X776590Y274141I-1969J0D01*
G01*
X772244Y279331D02*
G03*
X774212Y281299I0J1969D01*
G01*
X739173D02*
G03*
X741141Y279331I1969J0D01*
G01*
X774212Y324213D02*
G03*
X772244Y326181I-1969J0D01*
G01*
X741141D02*
G03*
X739173Y324213I0J-1969D01*
G01*
X813088Y224111D02*
G03*
X812723Y224410I-1670J-1670D01*
G01*
X810112D02*
G03*
X809747Y224111I1306J-1969D01*
G01*
X647609Y345586D02*
G03*
X644921Y348897I-1677J1385D01*
G01*
X626092Y325652D02*
G03*
X628780Y322341I1677J-1385D01*
G01*
X645512Y321839D02*
G03*
X649449Y325776I0J3937D01*
G01*
X628189Y349398D02*
G03*
X624252Y345461I0J-3937D01*
G01*
X-17548Y87008D02*
G03*
X-17548Y102756I-21336J7874D01*
G01*
X-21034D02*
G03*
X-21034Y87008I21336J-7874D01*
G01*
D02*
G03*
X-21034Y71260I21336J-7874D01*
G01*
X-17548D02*
G03*
X-17548Y87008I-21336J7874D01*
G01*
X-15580Y296850D02*
G03*
X-15580Y312598I-21336J7874D01*
G01*
X-19066D02*
G03*
X-19066Y296850I21336J-7874D01*
G01*
Y328346D02*
G03*
X-19066Y312598I21336J-7874D01*
G01*
X-15580D02*
G03*
X-15580Y328346I-21336J7874D01*
G01*
X858180Y301181D02*
G03*
X858180Y282432I20621J-9375D01*
G01*
Y319931D02*
G03*
X858180Y301181I20621J-9375D01*
G01*
X860369D02*
G03*
X860369Y319931I-20621J9375D01*
G01*
Y282432D02*
G03*
X860369Y301181I-20621J9375D01*
G01*
X804901Y286243D02*
G03*
X806267Y287010I0J1600D01*
G01*
X804901Y284843D02*
G03*
X807783Y287010I0J3000D01*
G01*
X816001Y306831D02*
G03*
X816701Y306081I701J-47D01*
G01*
Y296281D02*
G03*
X816001Y295531I1J-703D01*
G01*
X835767Y289582D02*
G03*
X833321Y287614I729J-3411D01*
G01*
X806501Y308181D02*
G03*
X804953Y306633I0J-1548D01*
G01*
X833321Y281718D02*
G03*
X835767Y279481I3161J1000D01*
G01*
X833321Y314748D02*
G03*
X835767Y312780I3176J1443D01*
G01*
X835767Y322881D02*
G03*
X833321Y320644I714J-3237D01*
G01*
X131102Y161614D02*
X146850D01*
X131102Y150984D02*
X146850D01*
Y145472D02*
Y167126D01*
X131102Y145472D02*
Y167126D01*
X108268Y161614D02*
X124016D01*
X108268Y150984D02*
X124016D01*
Y145472D02*
Y167126D01*
X108268Y145472D02*
Y167126D01*
X152756Y161614D02*
X168504D01*
X152756Y150984D02*
X168504D01*
Y145472D02*
Y167126D01*
X152756Y145472D02*
Y167126D01*
X808563Y136811D02*
Y148228D01*
X811122D01*
Y136811D02*
Y148228D01*
X808563Y136811D02*
X811122D01*
X618961Y295461D02*
X619551D01*
X623488Y299398D02*
Y316918D01*
X602228Y323021D02*
X602819D01*
X598291Y301564D02*
Y319083D01*
X618961Y321446D02*
X623488Y316918D01*
X598291Y301564D02*
X602819Y297036D01*
X618961Y321839D02*
X622792Y318008D01*
Y317614D02*
Y318008D01*
X621620Y319180D02*
X621648Y319208D01*
X598987Y300474D02*
X602819Y296642D01*
X598987Y300474D02*
Y300868D01*
X600132Y299274D02*
X600159Y299302D01*
X439311Y157697D02*
X450453D01*
X457382Y136535D02*
Y150866D01*
X432382Y136535D02*
Y150866D01*
X439311Y129705D02*
X450453D01*
X439311Y153543D02*
X450453D01*
X451772Y136535D02*
Y150866D01*
X439311Y133858D02*
X450453D01*
X437992Y136535D02*
Y150866D01*
X432382Y150709D02*
X436083D01*
X453681D02*
X457382D01*
X453681D02*
Y150866D01*
X436083Y150709D02*
Y150866D01*
X432382Y136693D02*
X436083D01*
Y136535D02*
Y136693D01*
X453681D02*
X457382D01*
X453681Y136535D02*
Y136693D01*
X588976Y340801D02*
Y344738D01*
X581890Y340801D02*
Y344738D01*
X538315Y329345D02*
Y333281D01*
X531228Y329345D02*
Y333281D01*
X563315Y322297D02*
X565874D01*
Y324856D01*
X546189Y322297D02*
X548748D01*
X546189D02*
Y324856D01*
X563315Y341982D02*
X565874D01*
Y339423D02*
Y341982D01*
X548236D02*
X548748D01*
X546189Y339935D02*
X548236Y341982D01*
X546189Y339423D02*
Y339935D01*
X569140Y308465D02*
X573471D01*
X569140Y314764D02*
X573471D01*
X549803Y274444D02*
Y278774D01*
X543504Y274444D02*
Y278774D01*
X583760Y290585D02*
Y291176D01*
X562303Y295113D02*
X579823D01*
X556201Y273853D02*
Y274444D01*
X560138Y269916D02*
X577657D01*
X557775Y290585D02*
X562303Y295113D01*
X577657Y269916D02*
X582185Y274444D01*
X557382Y290585D02*
X561213Y294417D01*
X561607D01*
X560013Y293273D02*
X560041Y293245D01*
X578747Y270612D02*
X582579Y274444D01*
X578353Y270612D02*
X578747D01*
X579919Y271784D02*
X579947Y271756D01*
X166732Y87874D02*
Y88386D01*
X164685Y85827D02*
X166732Y87874D01*
X164173Y85827D02*
X164685D01*
X147047D02*
Y88386D01*
Y85827D02*
X149606D01*
X166732Y102953D02*
Y105512D01*
X164173D02*
X166732D01*
X147047Y102953D02*
Y105512D01*
X149606D01*
X179528Y99999D02*
X183465D01*
X179528Y107085D02*
X183465D01*
X78091Y54232D02*
Y67028D01*
X80965Y54232D02*
Y67028D01*
X78091Y54232D02*
X80965D01*
X78091Y67028D02*
X80965D01*
X125000Y50984D02*
Y70276D01*
X140354D01*
Y50984D02*
Y70276D01*
X125000Y50984D02*
X140354D01*
X67205Y93701D02*
X67717Y94213D01*
X75315Y86102D02*
Y86614D01*
X67205Y86102D02*
X67717D01*
X67205D02*
Y86614D01*
X74804Y86102D02*
X75315D01*
Y93701D02*
Y94213D01*
X74804D02*
X75315D01*
X102362Y92913D02*
X109449D01*
X120079Y92520D02*
Y96457D01*
X112992Y92520D02*
Y96457D01*
X152894Y47992D02*
Y49646D01*
X159705Y47992D02*
Y49646D01*
X184843Y43898D02*
X195472D01*
X184843Y34055D02*
X195472D01*
X207618Y53917D02*
Y68917D01*
X210492Y53917D02*
Y68917D01*
X207618Y53917D02*
X210492D01*
X207618Y68917D02*
X210492D01*
X223228Y42520D02*
X227165D01*
X223228Y35433D02*
X227165D01*
X159705Y72008D02*
Y73661D01*
X152894Y72008D02*
Y73661D01*
X185236Y84449D02*
X195866D01*
X185236Y94291D02*
X195866D01*
X223622Y85591D02*
X227559D01*
X223622Y92677D02*
X227559D01*
X103740Y226378D02*
X108071D01*
X82819Y226665D02*
X87150D01*
X95669Y228150D02*
Y232480D01*
X95811Y245276D02*
X100142D01*
X74945Y244882D02*
X79276D01*
X87740Y247047D02*
Y251378D01*
X168504Y250590D02*
Y272244D01*
X152756Y250590D02*
Y272244D01*
Y266732D02*
X168504D01*
X152756Y256102D02*
X168504D01*
X153543Y199803D02*
Y221457D01*
X169291Y199803D02*
Y221457D01*
X153543Y205315D02*
X169291D01*
X153543Y215945D02*
X169291D01*
X260946Y267742D02*
X271168Y277965D01*
X245367Y274791D02*
X246514Y273644D01*
X245367Y274791D02*
X255590Y285014D01*
X270021Y279112D02*
X271168Y277965D01*
X189764Y250590D02*
Y272244D01*
X174016Y250590D02*
Y272244D01*
Y266732D02*
X189764D01*
X174016Y256102D02*
X189764D01*
X133071Y199803D02*
Y221457D01*
X148819Y199803D02*
Y221457D01*
X133071Y205315D02*
X148819D01*
X133071Y215945D02*
X148819D01*
X257572Y219673D02*
X267794Y229895D01*
X282226Y223994D02*
X283373Y222847D01*
X273150Y212624D02*
X283373Y222847D01*
X257572Y219673D02*
X258719Y218526D01*
X351575Y214961D02*
Y218898D01*
X344488Y214961D02*
Y218898D01*
X177953Y297244D02*
X181890D01*
X177953Y304331D02*
X181890D01*
X344488Y235039D02*
Y238976D01*
X351575Y235039D02*
Y238976D01*
X178347Y321244D02*
X182283D01*
X178347Y328331D02*
X182283D01*
X17028Y276378D02*
Y281299D01*
X55020Y276378D02*
Y281299D01*
X17028D02*
X55020D01*
X17028Y231299D02*
X55020D01*
Y236221D01*
X17028Y246378D02*
Y247716D01*
X55020Y246378D02*
Y247716D01*
Y264882D02*
Y266220D01*
X17028Y231299D02*
Y236221D01*
Y264882D02*
Y266220D01*
X51516Y235197D02*
Y236221D01*
X20925Y234803D02*
X29390D01*
X20531Y276378D02*
Y277402D01*
X42658Y277795D02*
X51122D01*
X51516Y276378D02*
Y277402D01*
Y264882D02*
Y266220D01*
Y246378D02*
Y247716D01*
X42658Y234803D02*
X51122D01*
X20531Y235197D02*
Y236221D01*
Y246378D02*
Y247716D01*
Y264882D02*
Y266220D01*
X20925Y277795D02*
X29390D01*
X468110Y37992D02*
Y42323D01*
Y47047D02*
Y51378D01*
X542520Y54724D02*
X549606D01*
X736362Y72411D02*
X768362D01*
X736362D02*
Y88811D01*
X737262D01*
X736362Y104811D02*
X737262D01*
X736362D02*
Y208811D01*
Y224811D02*
Y251211D01*
X768362D01*
Y248611D02*
Y251211D01*
Y163611D02*
Y245011D01*
Y78611D02*
Y160011D01*
Y72411D02*
Y75011D01*
X760862Y228061D02*
X768362D01*
X760862Y225271D02*
Y228061D01*
X762277Y211561D02*
X768362D01*
X764762Y228061D02*
Y247211D01*
X739762D02*
X764762D01*
X739762Y170061D02*
Y247211D01*
X736362Y170061D02*
X742763D01*
X736362Y153561D02*
X742763D01*
X737262Y208811D02*
Y224811D01*
X746051Y237711D02*
X758674D01*
X739762Y76411D02*
Y153561D01*
Y76411D02*
X764762D01*
Y86811D01*
X760862Y95561D02*
X768362D01*
X760862D02*
Y98351D01*
X762277Y112061D02*
X768362D01*
X764762D02*
Y211561D01*
X737262Y88811D02*
Y104811D01*
X746051Y85911D02*
X758674D01*
X746362Y75211D02*
X758362D01*
X746362D02*
Y76411D01*
X758362Y75211D02*
Y76411D01*
X758674D02*
Y85911D01*
X746051Y76411D02*
Y85911D01*
X736362Y208811D02*
X737262D01*
Y212711D02*
X739762D01*
X736362Y224811D02*
X737262D01*
Y220911D02*
X739762D01*
X758362Y247211D02*
Y248411D01*
X746362D02*
X758362D01*
X746362Y247211D02*
Y248411D01*
X758674Y237711D02*
Y247211D01*
X746051Y237711D02*
Y247211D01*
X737262Y100911D02*
X739762D01*
X737262Y92711D02*
X739762D01*
X736362Y235211D02*
X739762Y231811D01*
X736362Y228411D02*
X739762Y231811D01*
X846063Y89389D02*
Y94508D01*
X845276Y89389D02*
Y94508D01*
X844488Y89389D02*
Y94508D01*
X843110Y89389D02*
X849803D01*
X843110Y94508D02*
X849803D01*
X842323Y112322D02*
Y115669D01*
Y112322D02*
X853740D01*
Y115669D01*
X842323D02*
X853740D01*
X854440Y131417D02*
X859558D01*
X854440Y130630D02*
X859558D01*
X854440Y129843D02*
X859558D01*
Y128465D02*
Y135158D01*
X854440Y128465D02*
Y135158D01*
X530315Y93307D02*
Y104331D01*
Y93307D02*
X570472D01*
Y104331D01*
X593110Y49409D02*
Y55315D01*
X586417Y49409D02*
Y55315D01*
X593110D01*
X586417Y54527D02*
X593110D01*
X586417Y53740D02*
X593110D01*
X571063Y50197D02*
Y54527D01*
X580905Y50197D02*
Y54527D01*
X526378Y65158D02*
X530709D01*
X526378Y75000D02*
X530709D01*
X526378Y50197D02*
X530709D01*
X526378Y60039D02*
X530709D01*
X556102Y50197D02*
Y54527D01*
X565945Y50197D02*
Y54527D01*
X-21260Y156496D02*
Y174213D01*
X15748Y161182D02*
Y169527D01*
X-236Y177165D02*
X8110D01*
X-21260Y174213D02*
X-12058D01*
X-21654Y173819D02*
X-21260Y174213D01*
X-21654Y156890D02*
Y173819D01*
Y156890D02*
X-21260Y156496D01*
X-12058D01*
X-9449Y160431D02*
Y170277D01*
X-7874Y161182D02*
Y169527D01*
X-236Y153543D02*
X8110D01*
X797441Y96850D02*
X812008D01*
Y116535D01*
X797441D02*
X812008D01*
X797441Y96850D02*
Y116535D01*
X803130Y79921D02*
Y91339D01*
X806871D01*
Y79921D02*
Y91339D01*
X803130Y79921D02*
X806871D01*
X771653Y326181D02*
X772244D01*
X754724D02*
X758661D01*
X739173Y316221D02*
Y324213D01*
X741141Y279331D02*
X741732D01*
X754724D02*
X758661D01*
X774212Y281299D02*
Y281969D01*
X739173Y281299D02*
Y281969D01*
X771653Y279331D02*
X772244D01*
X774212Y298504D02*
Y324213D01*
X741141Y326181D02*
X741732D01*
X848386Y218661D02*
Y224567D01*
Y218661D02*
X848707Y218731D01*
X857119D02*
X857441Y218661D01*
Y224567D01*
X854268Y223877D02*
X857441Y224567D01*
X848386D02*
X851559Y223877D01*
X850551Y224096D02*
Y230709D01*
Y214961D02*
Y216134D01*
Y214961D02*
X851616Y213896D01*
X854211D02*
X855276Y214961D01*
Y216134D01*
Y224096D02*
Y230709D01*
X852913Y233071D02*
X855276Y230709D01*
X850551D02*
X852913Y233071D01*
X838386Y218661D02*
Y224567D01*
Y218661D02*
X838708Y218731D01*
X847119D02*
X847441Y218661D01*
Y224567D01*
X844268Y223877D02*
X847441Y224567D01*
X838386D02*
X841559Y223877D01*
X840551Y224096D02*
Y230709D01*
Y214961D02*
Y216134D01*
Y214961D02*
X841616Y213896D01*
X844211D02*
X845276Y214961D01*
Y216134D01*
Y224096D02*
Y230709D01*
X842913Y233071D02*
X845276Y230709D01*
X840551D02*
X842913Y233071D01*
X834724Y204095D02*
Y245433D01*
Y204095D02*
X861102D01*
Y245433D01*
X834724D02*
X861102D01*
X809055Y227559D02*
Y245276D01*
X800027Y227559D02*
X809055D01*
X786221D02*
Y245276D01*
X791339D01*
X791732Y233931D02*
Y236221D01*
X786221Y231496D02*
X791142D01*
X786221Y241339D02*
X791142D01*
X790158Y231496D02*
Y241339D01*
X786221Y232642D02*
X790158D01*
X786221Y240192D02*
X790158D01*
X801575Y245276D02*
X809055D01*
X786221Y227559D02*
X792886D01*
X848228Y159213D02*
Y165118D01*
Y159213D02*
X848550Y159283D01*
X856962D02*
X857283Y159213D01*
Y165118D01*
X854111Y164428D02*
X857283Y165118D01*
X848228D02*
X851401Y164428D01*
X850394Y164647D02*
Y171260D01*
Y155512D02*
Y156685D01*
Y155512D02*
X851459Y154447D01*
X854053D02*
X855118Y155512D01*
Y156685D01*
Y164647D02*
Y171260D01*
X852756Y173622D02*
X855118Y171260D01*
X850394D02*
X852756Y173622D01*
X838228Y159213D02*
Y165118D01*
Y159213D02*
X838550Y159283D01*
X846962D02*
X847283Y159213D01*
Y165118D01*
X844111Y164428D02*
X847283Y165118D01*
X838228D02*
X841401Y164428D01*
X840394Y164647D02*
Y171260D01*
Y155512D02*
Y156685D01*
Y155512D02*
X841459Y154447D01*
X844053D02*
X845118Y155512D01*
Y156685D01*
Y164647D02*
Y171260D01*
X842756Y173622D02*
X845118Y171260D01*
X840394D02*
X842756Y173622D01*
X834567Y144646D02*
Y185984D01*
Y144646D02*
X860945D01*
Y185984D01*
X834567D02*
X860945D01*
X809842Y184449D02*
Y196653D01*
X790158Y184449D02*
Y196653D01*
X809842D01*
X790158Y184449D02*
X809842D01*
X810112Y224410D02*
X812723D01*
X821256Y191942D02*
Y196273D01*
X754134Y262992D02*
X758465D01*
X754134Y256693D02*
X758465D01*
X788475Y216103D02*
X799892D01*
X788475D02*
Y218465D01*
X799892D01*
Y216103D02*
Y218465D01*
X788465Y265354D02*
X792993D01*
X807283Y262795D02*
Y264173D01*
X828150D01*
Y262795D02*
Y264173D01*
X807283Y250000D02*
Y251378D01*
Y250000D02*
X828150D01*
Y251378D01*
X778639Y265354D02*
X783166D01*
X737401Y23819D02*
Y36024D01*
X757087Y23819D02*
Y36024D01*
X737401Y23819D02*
X757087D01*
X737401Y36024D02*
X757087D01*
X768898Y18307D02*
Y29724D01*
X766535Y18307D02*
X768898D01*
X766535D02*
Y29724D01*
X768898D01*
X593701Y233386D02*
X652756D01*
Y174331D02*
Y233386D01*
X593701Y174331D02*
X652756D01*
X593701D02*
Y233386D01*
X651968D02*
X652756Y232598D01*
X651181Y233386D02*
X652756Y231811D01*
X650394Y233386D02*
X652756Y231024D01*
X649606Y233386D02*
X652756Y230236D01*
X648819Y233386D02*
X652756Y229449D01*
X611811Y153874D02*
Y158204D01*
X618110Y153874D02*
Y158204D01*
X625236Y153874D02*
Y158204D01*
X631535Y153874D02*
Y158204D01*
X638660Y153874D02*
Y158204D01*
X644959Y153874D02*
Y158204D01*
X598386Y153874D02*
Y158204D01*
X604686Y153874D02*
Y158204D01*
X430118Y85433D02*
X434449D01*
X421850D02*
X426181D01*
X468110Y70197D02*
Y74528D01*
X620709Y287390D02*
X626221D01*
X620709Y279123D02*
X626221D01*
X419882Y140551D02*
X424213D01*
X463976Y140945D02*
X468307D01*
X426378Y206496D02*
Y210827D01*
Y244685D02*
Y249016D01*
X477559Y214665D02*
Y219193D01*
X477165Y235279D02*
Y239807D01*
X599921Y60471D02*
Y64802D01*
X606220Y60471D02*
Y64802D01*
X314543Y138146D02*
X318480D01*
X306142Y113146D02*
X318480D01*
X276480Y173146D02*
X318480D01*
X276480Y113146D02*
Y173146D01*
X318480Y113146D02*
Y173146D01*
X288480Y181146D02*
X289980D01*
X284980D02*
X286480D01*
Y184740D01*
X288480Y181146D02*
Y184740D01*
X294980Y181146D02*
X296480D01*
Y184740D01*
X294980Y173146D02*
Y181146D01*
X284980Y173146D02*
Y181146D01*
X289980Y173146D02*
Y181146D01*
X298480D02*
X299980D01*
X298480D02*
Y184740D01*
X308480Y181146D02*
X309980D01*
X304980D02*
X306480D01*
Y184740D01*
X308480Y181146D02*
Y184740D01*
X309980Y173146D02*
Y181146D01*
X304980Y173146D02*
Y181146D01*
X299980Y173146D02*
Y181146D01*
X276539Y113087D02*
X288819D01*
X276480Y113146D02*
X276539Y113087D01*
X276480Y138146D02*
X280417D01*
X284488D02*
X288425D01*
X292362D02*
X293937D01*
X306669D02*
X310606D01*
X301024D02*
X302732D01*
X426378Y235236D02*
Y239567D01*
Y215551D02*
Y219882D01*
X323661Y244472D02*
X327992D01*
X333957Y216929D02*
X338484D01*
X333799Y236992D02*
X338327D01*
X323819Y209449D02*
X328150D01*
X368740Y250969D02*
Y255299D01*
X368110Y232087D02*
X372835D01*
X368110Y241929D02*
X372835D01*
X368110Y212008D02*
X372835D01*
X368110Y221850D02*
X372835D01*
X330154Y255693D02*
Y260024D01*
X348661Y250870D02*
Y255398D01*
X285138Y209842D02*
X289665D01*
X305315Y209449D02*
X309646D01*
X305315Y245276D02*
X309646D01*
X285531Y244882D02*
X290059D01*
X366909Y189846D02*
Y194374D01*
X329921Y193898D02*
Y198228D01*
X349055Y189945D02*
Y194276D01*
X366772Y199787D02*
Y204118D01*
X348661Y199689D02*
Y204217D01*
X276874Y315760D02*
X280811D01*
X276874Y340760D02*
X289213D01*
X276874Y280760D02*
X318874D01*
Y340760D01*
X276874Y280760D02*
Y340760D01*
X305374Y272760D02*
X306874D01*
X308874D02*
X310374D01*
X308874Y269165D02*
Y272760D01*
X306874Y269165D02*
Y272760D01*
X298874D02*
X300374D01*
X298874Y269165D02*
Y272760D01*
X300374D02*
Y280760D01*
X310374Y272760D02*
Y280760D01*
X305374Y272760D02*
Y280760D01*
X295374Y272760D02*
X296874D01*
Y269165D02*
Y272760D01*
X285374D02*
X286874D01*
X288874D02*
X290374D01*
X288874Y269165D02*
Y272760D01*
X286874Y269165D02*
Y272760D01*
X285374D02*
Y280760D01*
X290374Y272760D02*
Y280760D01*
X295374Y272760D02*
Y280760D01*
X306535Y340819D02*
X318815D01*
X318874Y340760D01*
X314937Y315760D02*
X318874D01*
X306929D02*
X310866D01*
X301417D02*
X302992D01*
X284748D02*
X288685D01*
X292622D02*
X294331D01*
X357323Y152937D02*
Y155102D01*
X345512Y152937D02*
X357323D01*
X345512D02*
Y155102D01*
Y170063D02*
Y172228D01*
X357323D01*
Y170063D02*
Y172228D01*
X337244Y133547D02*
Y138075D01*
Y144177D02*
Y148705D01*
X634905Y301958D02*
Y306288D01*
X628606Y301958D02*
Y306288D01*
X646323Y301958D02*
Y306288D01*
X640024Y301958D02*
Y306288D01*
X647581Y345558D02*
X647609Y345586D01*
X648753Y343992D02*
Y344386D01*
X644921Y348217D02*
X648753Y344386D01*
X626092Y325652D02*
X626120Y325680D01*
X624948Y326852D02*
Y327246D01*
Y326852D02*
X628780Y323021D01*
X644921Y347824D02*
X649449Y343296D01*
X624252Y327942D02*
X628780Y323414D01*
X649449Y325776D02*
Y343296D01*
X644921Y321839D02*
X645512D01*
X624252Y327942D02*
Y345461D01*
X628189Y349398D02*
X628780D01*
X556496Y179134D02*
Y187402D01*
X530905D02*
X556496D01*
X530905Y179134D02*
Y187402D01*
X531886Y215943D02*
Y224211D01*
Y215943D02*
X557477D01*
Y224211D01*
X-10236Y75492D02*
X498D01*
X-4331Y99401D02*
X1049D01*
X-37401Y76280D02*
X-36610Y75394D01*
X-31845Y76280D02*
X-31055Y75394D01*
X-32636D02*
X-31845Y76280D01*
X-26290D02*
X-25499Y75394D01*
X-27080D02*
X-26290Y76280D01*
X-23512D02*
X-22722Y75394D01*
X-24302D02*
X-23512Y76280D01*
X-29068D02*
X-28277Y75394D01*
X-29858D02*
X-29068Y76280D01*
X-34623D02*
X-33833Y75394D01*
X-35413D02*
X-34623Y76280D01*
X-36610Y75394D02*
X-35413D01*
X-31055D02*
X-29858D01*
X-25499D02*
X-24302D01*
X-22722D02*
X-22441D01*
X-28277D02*
X-27080D01*
X-33833D02*
X-32636D01*
X-40179Y76280D02*
X-39388Y75394D01*
X-38191D02*
X-37401Y76280D01*
X-39388Y75394D02*
X-38191D01*
X-42956Y76280D02*
X-42166Y75394D01*
X-40969D02*
X-40179Y76280D01*
X-42166Y75394D02*
X-40969D01*
X-43747D02*
X-42956Y76280D01*
X-45734D02*
X-44944Y75394D01*
X-43747D01*
X-48512Y76280D02*
X-47721Y75394D01*
X-46525D02*
X-45734Y76280D01*
X-47721Y75394D02*
X-46525D01*
X-51290Y76280D02*
X-50499Y75394D01*
X-49302D02*
X-48512Y76280D01*
X-50499Y75394D02*
X-49302D01*
X-54067Y76280D02*
X-53277Y75394D01*
X-52080D02*
X-51290Y76280D01*
X-53277Y75394D02*
X-52080D01*
X-55541D02*
Y98228D01*
X-51861Y75394D02*
X-51071Y76280D01*
X-55541Y75394D02*
X-51861D01*
X-10236Y66929D02*
Y107087D01*
X-12205Y66929D02*
Y107087D01*
X-10236D01*
X-12205Y66929D02*
X-10236D01*
X-16142Y71260D02*
Y102756D01*
X-22441D02*
X-16142D01*
X-22441Y71260D02*
Y102756D01*
X-21034Y87008D02*
X-17548D01*
X-31845Y76181D02*
Y98130D01*
X-26290Y76181D02*
Y98130D01*
X-23512Y76181D02*
Y98130D01*
X-29068Y76181D02*
Y98130D01*
X-34623Y76181D02*
Y98130D01*
X-15179Y76181D02*
Y98130D01*
X-37401D02*
X-36610Y99016D01*
X-31845Y98130D02*
X-31055Y99016D01*
X-32636D02*
X-31845Y98130D01*
X-26290D02*
X-25499Y99016D01*
X-27080D02*
X-26290Y98130D01*
X-23512D02*
X-22722Y99016D01*
X-24302D02*
X-23512Y98130D01*
X-29068D02*
X-28277Y99016D01*
X-29858D02*
X-29068Y98130D01*
X-34623D02*
X-33833Y99016D01*
X-35413D02*
X-34623Y98130D01*
X-15179D02*
X-14388Y99016D01*
X-12205D01*
X-36610D02*
X-35413D01*
X-31055D02*
X-29858D01*
X-25499D02*
X-24302D01*
X-22722D02*
X-22441D01*
X-28277D02*
X-27080D01*
X-33833D02*
X-32636D01*
X-22441Y71260D02*
X-16142D01*
Y76181D02*
X-12205D01*
X10534Y99401D02*
X21097Y99401D01*
X27559Y82095D02*
Y91929D01*
X3699Y74508D02*
X4035D01*
X10747Y74668D02*
X20847Y74615D01*
X3839Y91987D02*
X3937Y79331D01*
X-37401Y76181D02*
Y98130D01*
X-40179D02*
X-39388Y99016D01*
X-38191D02*
X-37401Y98130D01*
X-39388Y99016D02*
X-38191D01*
X-40179Y76181D02*
Y98130D01*
X-42956D02*
X-42166Y99016D01*
X-40969D02*
X-40179Y98130D01*
X-42166Y99016D02*
X-40969D01*
X-42956Y76181D02*
Y98130D01*
X-43747Y99016D02*
X-42956Y98130D01*
X-15969Y99016D02*
X-15179Y98130D01*
X-16142Y99016D02*
X-15969D01*
X-45734Y98130D02*
X-44944Y99016D01*
X-43747D01*
X-45734Y76181D02*
Y98130D01*
X-48512D02*
X-47721Y99016D01*
X-46525D02*
X-45734Y98130D01*
X-47721Y99016D02*
X-46525D01*
X-48512Y76181D02*
Y98130D01*
X-51290D02*
X-50499Y99016D01*
X-49302D02*
X-48512Y98130D01*
X-50499Y99016D02*
X-49302D01*
X-51290Y76181D02*
Y98130D01*
X-54067D02*
X-53277Y99016D01*
X-52080D02*
X-51290Y98130D01*
X-53277Y99016D02*
X-52080D01*
X-54067Y76181D02*
Y98130D01*
X-59449Y76910D02*
Y97106D01*
X-56299Y76478D02*
Y97538D01*
X-55541Y76181D02*
Y99016D01*
X-51071Y76181D02*
Y98130D01*
X-59449Y97106D02*
X-59055Y97500D01*
X-59449Y76910D02*
X-59055Y76516D01*
X-56299D01*
X-59055Y97500D02*
X-56299D01*
Y97538D02*
X-55541Y98258D01*
X-56299Y76478D02*
X-55987Y76181D01*
X-51861Y99016D02*
X-51071Y98130D01*
X-55541Y99016D02*
X-51861D01*
X-4331Y75492D02*
Y98425D01*
X-10236D02*
X-4331D01*
X460728Y339961D02*
X462894D01*
Y348228D01*
X460728D02*
X462894D01*
X460728Y339961D02*
Y348228D01*
X756693Y343646D02*
Y348174D01*
X866142Y72244D02*
Y74213D01*
Y68307D02*
Y70276D01*
Y64370D02*
Y66339D01*
Y60433D02*
Y62402D01*
Y56496D02*
Y58465D01*
Y52559D02*
Y54528D01*
Y48622D02*
Y50591D01*
Y44685D02*
Y46654D01*
Y40748D02*
Y42717D01*
Y36811D02*
Y38780D01*
Y32874D02*
Y34843D01*
Y28937D02*
Y30906D01*
X781102Y28150D02*
Y75000D01*
Y28150D02*
X846063D01*
X787008D02*
Y75000D01*
X781102D02*
X846063D01*
Y78937D01*
X911417D01*
X914173Y76181D01*
Y26969D02*
Y76181D01*
X846063Y24213D02*
Y28150D01*
X911417Y24213D02*
X914173Y26969D01*
X846063Y24213D02*
X911417D01*
X866142D02*
Y26969D01*
Y76181D02*
Y78937D01*
X-8268Y324016D02*
X-2362D01*
Y301083D02*
Y324016D01*
X-53572Y324606D02*
X-49893D01*
X-49893D02*
X-49102Y323720D01*
X-54331Y302068D02*
X-54018Y301772D01*
X-54331Y323129D02*
X-53572Y323849D01*
X-57087Y323091D02*
X-54331D01*
X-57087Y302106D02*
X-54331D01*
X-57480Y302500D02*
X-57087Y302106D01*
X-57480Y322697D02*
X-57087Y323091D01*
X-49102Y301772D02*
Y323720D01*
X-53572Y301772D02*
Y324606D01*
X-54331Y302068D02*
Y323129D01*
X-57480Y302500D02*
Y322697D01*
X-52099Y301772D02*
Y323720D01*
X-51309Y324606D02*
X-50112D01*
X-49321Y323720D01*
X-52099D02*
X-51309Y324606D01*
X-49321Y301772D02*
Y323720D01*
X-48531Y324606D02*
X-47334D01*
X-46543Y323720D01*
X-49321D02*
X-48531Y324606D01*
X-46543Y301772D02*
Y323720D01*
X-45753Y324606D02*
X-44556D01*
X-43766Y323720D01*
X-46543D02*
X-45753Y324606D01*
X-43766Y301772D02*
Y323720D01*
X-42975Y324606D02*
X-41778D01*
X-43766Y323720D02*
X-42975Y324606D01*
X-14173D02*
X-14001D01*
X-13210Y323720D01*
X-41778Y324606D02*
X-40988Y323720D01*
Y301772D02*
Y323720D01*
X-40197Y324606D02*
X-39000D01*
X-38210Y323720D01*
X-40988D02*
X-40197Y324606D01*
X-38210Y301772D02*
Y323720D01*
X-37420Y324606D02*
X-36223D01*
X-35432Y323720D01*
X-38210D02*
X-37420Y324606D01*
X-35432Y301772D02*
Y323720D01*
X5808Y317578D02*
X5906Y304921D01*
X12716Y300259D02*
X22815Y300205D01*
X5667Y300098D02*
X6004D01*
X29528Y307686D02*
Y317520D01*
X12503Y324991D02*
X23065Y324991D01*
X-14173Y301772D02*
X-10236D01*
X-20472Y296850D02*
X-14173D01*
X-31864Y324606D02*
X-30667D01*
X-26309D02*
X-25112D01*
X-20753D02*
X-20472D01*
X-23531D02*
X-22334D01*
X-29086D02*
X-27889D01*
X-34642D02*
X-33445D01*
X-12420D02*
X-10236D01*
X-13210Y323720D02*
X-12420Y324606D01*
X-33445D02*
X-32655Y323720D01*
X-31864Y324606D01*
X-27889D02*
X-27099Y323720D01*
X-26309Y324606D01*
X-22334D02*
X-21543Y323720D01*
X-20753Y324606D01*
X-25112D02*
X-24321Y323720D01*
X-23531Y324606D01*
X-30667D02*
X-29877Y323720D01*
X-29086Y324606D01*
X-35432Y323720D02*
X-34642Y324606D01*
X-13210Y301772D02*
Y323720D01*
X-32655Y301772D02*
Y323720D01*
X-27099Y301772D02*
Y323720D01*
X-21543Y301772D02*
Y323720D01*
X-24321Y301772D02*
Y323720D01*
X-29877Y301772D02*
Y323720D01*
X-19066Y312598D02*
X-15580D01*
X-20472Y296850D02*
Y328346D01*
X-14173D01*
Y296850D02*
Y328346D01*
X-10236Y292520D02*
X-8268D01*
X-10236Y332677D02*
X-8268D01*
X-10236Y292520D02*
Y332677D01*
X-8268Y292520D02*
Y332677D01*
X-53572Y300984D02*
X-49893D01*
X-49893D02*
X-49102Y301870D01*
X-53572Y300984D02*
Y323819D01*
X-51309Y300984D02*
X-50112D01*
X-49321Y301870D01*
X-52099D02*
X-51309Y300984D01*
X-48531D02*
X-47334D01*
X-46543Y301870D01*
X-49321D02*
X-48531Y300984D01*
X-45753D02*
X-44556D01*
X-43766Y301870D01*
X-46543D02*
X-45753Y300984D01*
X-42975D02*
X-41778D01*
X-43766Y301870D02*
X-42975Y300984D01*
X-41778D02*
X-40988Y301870D01*
X-40197Y300984D02*
X-39000D01*
X-38210Y301870D01*
X-40988D02*
X-40197Y300984D01*
X-37420D02*
X-36223D01*
X-35432Y301870D01*
X-38210D02*
X-37420Y300984D01*
X-31864D02*
X-30667D01*
X-26309D02*
X-25112D01*
X-20753D02*
X-20472D01*
X-23531D02*
X-22334D01*
X-29086D02*
X-27889D01*
X-34642D02*
X-33445D01*
X-32655Y301870D01*
X-31864Y300984D01*
X-27889D02*
X-27099Y301870D01*
X-26309Y300984D01*
X-22334D02*
X-21543Y301870D01*
X-20753Y300984D01*
X-25112D02*
X-24321Y301870D01*
X-23531Y300984D01*
X-30667D02*
X-29877Y301870D01*
X-29086Y300984D01*
X-35432Y301870D02*
X-34642Y300984D01*
X-2362Y324991D02*
X3018D01*
X-8268Y301083D02*
X2467D01*
X451968Y111614D02*
Y112598D01*
X450984D02*
X451968D01*
Y96850D02*
Y97835D01*
X450984Y96850D02*
X451968D01*
X436220Y111614D02*
Y112598D01*
X437205D01*
X436220Y97638D02*
Y97835D01*
Y97638D02*
X437008Y96850D01*
X437205D01*
X466791Y122402D02*
Y124055D01*
X459980Y122402D02*
Y124055D01*
X428209Y122402D02*
Y124055D01*
X421398Y122402D02*
Y124055D01*
X439508Y47028D02*
X450650D01*
X432579Y53858D02*
Y68189D01*
X457579Y53858D02*
Y68189D01*
X439508Y75020D02*
X450650D01*
X439508Y51181D02*
X450650D01*
X438189Y53858D02*
Y68189D01*
X439508Y70866D02*
X450650D01*
X451968Y53858D02*
Y68189D01*
X453878Y54016D02*
X457579D01*
X432579D02*
X436279D01*
Y53858D02*
Y54016D01*
X453878Y53858D02*
Y54016D01*
Y68032D02*
X457579D01*
X453878D02*
Y68189D01*
X432579Y68032D02*
X436279D01*
Y68189D01*
X854650Y280831D02*
Y321531D01*
X856150D01*
Y280831D02*
Y321531D01*
X854650Y280831D02*
X856150D01*
Y282432D02*
X862399D01*
X862400Y319931D01*
X856150D02*
X862400D01*
X858194Y301181D02*
X860383D01*
X803221Y286243D02*
Y295431D01*
X806501D02*
Y298174D01*
X807901Y295431D02*
Y296496D01*
X812521Y307242D02*
Y318381D01*
Y307242D02*
Y318381D01*
X803221Y287010D02*
X812521D01*
X835121Y289376D02*
Y312986D01*
X834252Y288841D02*
Y313521D01*
X814117Y306831D02*
X816001D01*
X816701Y306081D02*
X834035D01*
X816701Y296281D02*
X834035D01*
X814117Y295531D02*
X816001D01*
X812521Y290293D02*
X834035D01*
X804953Y295431D02*
Y306633D01*
X795932Y317498D02*
X812521Y317495D01*
X795932Y316081D02*
X812521D01*
X795913Y286243D02*
X804901D01*
X795913Y284843D02*
X804901D01*
X849321Y316727D02*
X865197Y316781D01*
Y285591D02*
Y316781D01*
X849321Y314831D02*
X866321D01*
X865197Y285591D02*
X866321Y287541D01*
X849321Y287531D02*
X866321D01*
X849321Y285581D02*
X865197Y285591D01*
Y316781D02*
X866321Y314831D01*
Y287531D02*
Y314831D01*
X844821Y285581D02*
X849321D01*
Y316781D01*
X844821D02*
X849321D01*
X843321Y279481D02*
Y322881D01*
X834035Y288643D02*
Y313720D01*
X838493Y289582D02*
Y312780D01*
X811101Y307242D02*
Y311347D01*
X806501Y308181D02*
X806501D01*
Y304188D02*
Y312081D01*
X807901D01*
Y305866D02*
Y313781D01*
X811101Y307242D02*
Y313781D01*
X803221Y295431D02*
X809767D01*
X807901Y313781D02*
X811101D01*
Y313681D02*
X812521Y313681D01*
X803221Y283775D02*
Y284843D01*
X812521Y283681D02*
X833321D01*
X812521D02*
Y295120D01*
X843321Y279481D02*
X844821Y280981D01*
X835767Y279481D02*
X843321D01*
X833321Y281718D02*
Y287614D01*
X835767Y289582D02*
X840321D01*
Y312780D01*
X835767D02*
X840321D01*
X835767Y279481D02*
X843321D01*
X844821Y280981D01*
Y321381D01*
X843321Y322881D02*
X844821Y321381D01*
X835767Y322881D02*
X843321D01*
X835767Y312780D02*
Y322881D01*
X833321Y314748D02*
Y320644D01*
X812521Y318381D02*
X833321D01*
X812521Y283775D02*
Y295120D01*
X803221Y283775D02*
X812521D01*
X795307Y344626D02*
X805087D01*
X795307Y361161D02*
X805087D01*
X815354Y331890D02*
Y337945D01*
Y331890D02*
X865748D01*
X865748Y371260D01*
X815354Y371260D02*
X865748Y371260D01*
X815354Y363630D02*
Y371260D01*
X856496Y344094D02*
Y357480D01*
X853258D02*
X865748D01*
X853258Y344094D02*
Y357480D01*
Y344094D02*
X865748D01*
X795307Y356949D02*
X805087D01*
X795307Y340413D02*
X805087D01*
X815354Y347094D02*
Y354481D01*
X675363Y291667D02*
Y307415D01*
X685993Y291667D02*
Y307415D01*
X669851D02*
X691504D01*
X669851Y291667D02*
X691504D01*
X648543Y140551D02*
X652480Y136614D01*
X649331Y140551D02*
X652480Y137402D01*
X650118Y140551D02*
X652480Y138189D01*
X650906Y140551D02*
X652480Y138976D01*
X651693Y140551D02*
X652480Y139764D01*
X593425Y81496D02*
Y140551D01*
Y81496D02*
X652480D01*
Y140551D01*
X593425D02*
X652480D01*
X669488Y39764D02*
X691142D01*
X669488Y55512D02*
X691142D01*
X685630Y39764D02*
Y55512D01*
X675000Y39764D02*
Y55512D01*
X669851Y132098D02*
X691504D01*
X669851Y147846D02*
X691504D01*
X685993Y132098D02*
Y147846D01*
X675363Y132098D02*
Y147846D01*
X669851Y86507D02*
X691504D01*
X669851Y102255D02*
X691504D01*
X685993Y86507D02*
Y102255D01*
X675363Y86507D02*
Y102255D01*
X669851Y154894D02*
X691504D01*
X669851Y170642D02*
X691504D01*
X685993Y154894D02*
Y170642D01*
X675363Y154894D02*
Y170642D01*
X669851Y109303D02*
X691504D01*
X669851Y125051D02*
X691504D01*
X685993Y109303D02*
Y125051D01*
X675363Y109303D02*
Y125051D01*
X669851Y63712D02*
X691504D01*
X669851Y79460D02*
X691504D01*
X685993Y63712D02*
Y79460D01*
X675363Y63712D02*
Y79460D01*
X669851Y314463D02*
X691504D01*
X669851Y330211D02*
X691504D01*
X685993Y314463D02*
Y330211D01*
X675363Y314463D02*
Y330211D01*
X669851Y268872D02*
X691504D01*
X669851Y284620D02*
X691504D01*
X685993Y268872D02*
Y284620D01*
X675363Y268872D02*
Y284620D01*
X669851Y223281D02*
X691504D01*
X669851Y239029D02*
X691504D01*
X685993Y223281D02*
Y239029D01*
X675363Y223281D02*
Y239029D01*
X669851Y246076D02*
X691504D01*
X669851Y261824D02*
X691504D01*
X685993Y246076D02*
Y261824D01*
X675363Y246076D02*
Y261824D01*
X669882Y336614D02*
X691535D01*
X669882Y352362D02*
X691535D01*
X686024Y336614D02*
Y352362D01*
X675394Y336614D02*
Y352362D01*
X633070Y60471D02*
Y64802D01*
X626770Y60471D02*
Y64802D01*
X646494Y60471D02*
Y64802D01*
X640195Y60471D02*
Y64802D01*
X619645Y60471D02*
Y64802D01*
X613346Y60471D02*
Y64802D01*
X368898Y260728D02*
Y265256D01*
X349051Y260811D02*
Y265142D01*
X851758Y201188D02*
Y201375D01*
X851946Y201750D01*
X852133Y201938D01*
X852508Y202125D01*
X853258D01*
X853633Y201938D01*
X853820Y201750D01*
X854008Y201375D01*
Y201000D01*
X853820Y200625D01*
X853445Y200063D01*
X851571Y198189D01*
X854195D01*
X842571Y201375D02*
X842946Y201563D01*
X843508Y202125D01*
Y198189D01*
X851601Y141739D02*
Y141926D01*
X851788Y142301D01*
X851976Y142489D01*
X852351Y142676D01*
X853100D01*
X853475Y142489D01*
X853663Y142301D01*
X853850Y141926D01*
Y141551D01*
X853663Y141177D01*
X853288Y140614D01*
X851413Y138740D01*
X854037D01*
X842413Y141926D02*
X842788Y142114D01*
X843351Y142676D01*
Y138740D01*
X811107Y368406D02*
X811332Y367956D01*
X812007Y367281D01*
X807283D01*
D15*
X441535Y155728D02*
G03*
X441535Y155728I-591J0D01*
G01*
X734453Y231811D02*
G03*
X734453Y231811I-591J0D01*
G01*
X449606Y48996D02*
G03*
X449606Y48996I-591J0D01*
G01*
D16*
X242660Y191701D02*
G03*
X242660Y191701I-28727J0D01*
G01*
X255800D02*
G03*
X255800Y191701I-41367J0D01*
G01*
X150710Y312787D02*
G03*
X150710Y312787I-41367J0D01*
G01*
X138070Y312287D02*
G03*
X138070Y312287I-28727J0D01*
G01*
X449055Y227543D02*
G03*
X449055Y227543I-23622J0D01*
G01*
X439213Y227043D02*
G03*
X439213Y227043I-13780J0D01*
G01*
X25250Y21700D02*
G03*
X25250Y21700I-11250J0D01*
G01*
Y371700D02*
G03*
X25250Y371700I-11250J0D01*
G01*
X-17001Y189298D02*
X-19001D01*
X-18001D01*
Y184300D01*
X-19001Y183300D01*
X-20000D01*
X-21000Y184300D01*
X-15002Y188298D02*
X-14002Y189298D01*
X-12003D01*
X-11003Y188298D01*
Y187299D01*
X-12003Y186299D01*
X-13003D01*
X-12003D01*
X-11003Y185299D01*
Y184300D01*
X-12003Y183300D01*
X-14002D01*
X-15002Y184300D01*
X839307Y253811D02*
X838307Y254811D01*
X836308D01*
X835308Y253811D01*
Y252811D01*
X836308Y251812D01*
X838307D01*
X839307Y250812D01*
Y249812D01*
X838307Y248813D01*
X836308D01*
X835308Y249812D01*
X841306Y254811D02*
Y248813D01*
X843305Y250812D01*
X845305Y248813D01*
Y254811D01*
X851303Y248813D02*
X847304D01*
X851303Y252811D01*
Y253811D01*
X850303Y254811D01*
X848304D01*
X847304Y253811D01*
X839207Y194411D02*
X838207Y195411D01*
X836208D01*
X835208Y194411D01*
Y193411D01*
X836208Y192412D01*
X838207D01*
X839207Y191412D01*
Y190412D01*
X838207Y189413D01*
X836208D01*
X835208Y190412D01*
X841206Y195411D02*
Y189413D01*
X843205Y191412D01*
X845205Y189413D01*
Y195411D01*
X847204Y189413D02*
X849203D01*
X848204D01*
Y195411D01*
X847204Y194411D01*
X789199Y332298D02*
X787199D01*
X788199D01*
Y327300D01*
X787199Y326300D01*
X786200D01*
X785200Y327300D01*
X791198Y331298D02*
X792198Y332298D01*
X794197D01*
X795197Y331298D01*
Y330299D01*
X794197Y329299D01*
X795197Y328299D01*
Y327300D01*
X794197Y326300D01*
X792198D01*
X791198Y327300D01*
Y328299D01*
X792198Y329299D01*
X791198Y330299D01*
Y331298D01*
X792198Y329299D02*
X794197D01*
X789199Y380698D02*
X787199D01*
X788199D01*
Y375700D01*
X787199Y374700D01*
X786200D01*
X785200Y375700D01*
X791198Y380698D02*
X795197D01*
Y379698D01*
X791198Y375700D01*
Y374700D01*
D17*
X802362Y112598D02*
G03*
X802362Y112598I-984J0D01*
G01*
D18*
X425097Y316966D02*
X426914Y317276D01*
X427554Y319005D01*
X426377Y320423D02*
X427554Y319005D01*
X424559Y320114D02*
X426377Y320423D01*
X423920Y318385D02*
X424559Y320114D01*
X423920Y318385D02*
X425097Y316966D01*
D19*
X766862Y93930D02*
Y91835D01*
X765338Y92978D01*
Y92407D01*
X765148Y92026D01*
X764957Y91835D01*
X764386Y91645D01*
X764005D01*
X763434Y91835D01*
X763053Y92216D01*
X762862Y92788D01*
Y93359D01*
X763053Y93930D01*
X763243Y94121D01*
X763624Y94311D01*
X766862Y89607D02*
X766671Y90179D01*
X766100Y90560D01*
X765148Y90750D01*
X764576D01*
X763624Y90560D01*
X763053Y90179D01*
X762862Y89607D01*
Y89227D01*
X763053Y88655D01*
X763624Y88274D01*
X764576Y88084D01*
X765148D01*
X766100Y88274D01*
X766671Y88655D01*
X766862Y89227D01*
Y89607D01*
D20*
X805145Y242284D02*
X805332Y241909D01*
X805895Y241346D01*
X801959D01*
X775957Y72131D02*
X775582Y71944D01*
X775394Y71381D01*
Y71007D01*
X775582Y70444D01*
X776144Y70069D01*
X777081Y69882D01*
X778019D01*
X778768Y70069D01*
X779143Y70444D01*
X779331Y71007D01*
Y71194D01*
X779143Y71756D01*
X778768Y72131D01*
X778206Y72319D01*
X778019D01*
X777456Y72131D01*
X777081Y71756D01*
X776894Y71194D01*
Y71007D01*
X777081Y70444D01*
X777456Y70069D01*
X778019Y69882D01*
X775394Y64257D02*
Y62383D01*
X777081Y62195D01*
X776894Y62383D01*
X776707Y62945D01*
Y63507D01*
X776894Y64070D01*
X777269Y64445D01*
X777831Y64632D01*
X778206D01*
X778768Y64445D01*
X779143Y64070D01*
X779331Y63507D01*
Y62945D01*
X779143Y62383D01*
X778956Y62195D01*
X778581Y62008D01*
X775394Y56008D02*
X778019Y54134D01*
Y56945D01*
X775394Y56008D02*
X779331D01*
X775394Y46635D02*
Y48697D01*
X776894Y47572D01*
Y48134D01*
X777081Y48509D01*
X777269Y48697D01*
X777831Y48884D01*
X778206D01*
X778768Y48697D01*
X779143Y48322D01*
X779331Y47759D01*
Y47197D01*
X779143Y46635D01*
X778956Y46447D01*
X778581Y46260D01*
X776332Y38573D02*
X776144D01*
X775769Y38761D01*
X775582Y38948D01*
X775394Y39323D01*
Y40073D01*
X775582Y40448D01*
X775769Y40635D01*
X776144Y40822D01*
X776519D01*
X776894Y40635D01*
X777456Y40260D01*
X779331Y38386D01*
Y41010D01*
X776144Y30512D02*
X775957Y30887D01*
X775394Y31449D01*
X779331D01*
X795276Y23228D02*
X799213D01*
Y25478D01*
X800788Y23228D02*
X804724D01*
X800788Y25852D02*
X803412Y23228D01*
X802475Y24166D02*
X804724Y25852D01*
X806300Y25103D02*
X809299D01*
X809861Y24915D01*
X810049Y24728D01*
X810236Y24353D01*
Y23978D01*
X810049Y23603D01*
X809861Y23416D01*
X809299Y23228D01*
X808924D01*
X811812Y24213D02*
X815748D01*
X817324Y23228D02*
X821260D01*
X817324Y25852D02*
X821260D01*
X819198Y23228D02*
Y25852D01*
X823773Y26040D02*
X823398Y25852D01*
X823023Y25478D01*
X822836Y25103D01*
Y24353D01*
X823023Y23978D01*
X823398Y23603D01*
X823773Y23416D01*
X824335Y23228D01*
X825272D01*
X825834Y23416D01*
X826209Y23603D01*
X826584Y23978D01*
X826772Y24353D01*
Y25103D01*
X826584Y25478D01*
X826209Y25852D01*
X825834Y26040D01*
X825272D01*
Y25103D02*
Y26040D01*
X828347Y23228D02*
X832283D01*
X828347D02*
Y25665D01*
X830222Y23228D02*
Y24728D01*
X833859Y25665D02*
Y23228D01*
X837795D01*
Y25665D01*
X835734Y23228D02*
Y24728D01*
X839371Y23228D02*
X843307D01*
X839371D02*
Y24540D01*
X839558Y25103D01*
X839933Y25478D01*
X840308Y25665D01*
X840870Y25852D01*
X841808D01*
X842370Y25665D01*
X842745Y25478D01*
X843120Y25103D01*
X843307Y24540D01*
Y23228D01*
X845820Y22103D02*
X845445Y21915D01*
X845070Y21541D01*
X844883Y21166D01*
Y20416D01*
X845070Y20041D01*
X845445Y19666D01*
X845820Y19479D01*
X846382Y19291D01*
X847319D01*
X847882Y19479D01*
X848257Y19666D01*
X848631Y20041D01*
X848819Y20416D01*
Y21166D01*
X848631Y21541D01*
X848257Y21915D01*
X847882Y22103D01*
X850395Y19291D02*
X854331D01*
X850395D02*
Y20978D01*
X850582Y21541D01*
X850769Y21728D01*
X851144Y21915D01*
X851519D01*
X851894Y21728D01*
X852081Y21541D01*
X852269Y20978D01*
Y19291D02*
Y20978D01*
X852456Y21541D01*
X852644Y21728D01*
X853019Y21915D01*
X853581D01*
X853956Y21728D01*
X854143Y21541D01*
X854331Y20978D01*
Y19291D01*
X859842Y22290D02*
X855906Y20791D01*
X859842Y19291D01*
X858531Y19854D02*
Y21728D01*
D21*
X292125Y76279D02*
Y72343D01*
X294093Y70375D01*
X296061Y72343D01*
Y76279D01*
X298029D02*
Y70375D01*
Y73327D01*
X301964D01*
Y76279D01*
Y70375D01*
X307868Y76279D02*
X303932D01*
Y73327D01*
X305900D01*
X303932D01*
Y70375D01*
X315739D02*
Y74311D01*
X317707Y76279D01*
X319675Y74311D01*
Y70375D01*
Y73327D01*
X315739D01*
X321643Y70375D02*
Y76279D01*
X323611Y74311D01*
X325579Y76279D01*
Y70375D01*
X327547D02*
Y76279D01*
X330499D01*
X331483Y75295D01*
Y73327D01*
X330499Y72343D01*
X327547D01*
X339354Y74311D02*
X341322Y70375D01*
X343290Y74311D01*
X345257Y70375D02*
X347225D01*
X346241D01*
Y76279D01*
X345257Y75295D01*
X350177Y70375D02*
Y71359D01*
X351161D01*
Y70375D01*
X350177D01*
X355097Y75295D02*
X356081Y76279D01*
X358049D01*
X359033Y75295D01*
Y71359D01*
X358049Y70375D01*
X356081D01*
X355097Y71359D01*
Y75295D01*
D22*
X308432Y63827D02*
Y59828D01*
X309765Y61161D01*
X311098Y59828D01*
Y63827D01*
X312431D02*
Y60494D01*
X313098Y59828D01*
X314430D01*
X315097Y60494D01*
Y63827D01*
X316430D02*
X319096D01*
X317763D01*
Y59828D01*
X324427Y63827D02*
X325760D01*
X325094D01*
Y59828D01*
X324427D01*
X325760D01*
X330425Y63160D02*
X329759Y63827D01*
X328426D01*
X327760Y63160D01*
Y62494D01*
X328426Y61827D01*
X329759D01*
X330425Y61161D01*
Y60494D01*
X329759Y59828D01*
X328426D01*
X327760Y60494D01*
X334424Y63827D02*
X331758D01*
Y59828D01*
X334424D01*
X331758Y61827D02*
X333091D01*
X342422Y59828D02*
X339756D01*
X342422Y62494D01*
Y63160D01*
X341755Y63827D01*
X340422D01*
X339756Y63160D01*
X343754D02*
X344421Y63827D01*
X345754D01*
X346420Y63160D01*
Y60494D01*
X345754Y59828D01*
X344421D01*
X343754Y60494D01*
Y63160D01*
X350419Y59828D02*
X347753D01*
X350419Y62494D01*
Y63160D01*
X349752Y63827D01*
X348419D01*
X347753Y63160D01*
X351752D02*
X352418Y63827D01*
X353751D01*
X354418Y63160D01*
Y62494D01*
X353751Y61827D01*
X353085D01*
X353751D01*
X354418Y61161D01*
Y60494D01*
X353751Y59828D01*
X352418D01*
X351752Y60494D01*
D23*
X421528Y300883D02*
D03*
M02*
