G04*
G04 #@! TF.GenerationSoftware,Altium Limited,Altium Designer,22.8.2 (66)*
G04*
G04 Layer_Color=128*
%FSLAX25Y25*%
%MOIN*%
G70*
G04*
G04 #@! TF.SameCoordinates,18DB8AE4-C2B3-415A-B087-6D5D449F6BFC*
G04*
G04*
G04 #@! TF.FilePolarity,Positive*
G04*
G01*
G75*
%ADD33R,0.02362X0.04331*%
%ADD35R,0.05709X0.01772*%
%ADD36R,0.02362X0.06102*%
%ADD39R,0.03740X0.05512*%
%ADD40R,0.03543X0.03937*%
%ADD44O,0.01181X0.03347*%
%ADD47R,0.05906X0.05906*%
%ADD59R,0.02441X0.02362*%
%ADD70R,0.07087X0.04528*%
%ADD73R,0.02441X0.02441*%
%ADD77R,0.03740X0.03937*%
%ADD78R,0.03937X0.03543*%
%ADD79R,0.02441X0.02284*%
%ADD80R,0.05512X0.04134*%
%ADD81R,0.04134X0.05512*%
%ADD82R,0.04528X0.07087*%
%ADD85R,0.05512X0.03740*%
%ADD86R,0.02284X0.02441*%
%ADD89R,0.07087X0.04528*%
%ADD90R,0.03543X0.01575*%
%ADD91R,0.04528X0.07087*%
%ADD92R,0.03937X0.03740*%
%ADD95R,0.02441X0.02441*%
%ADD96R,0.04331X0.02362*%
%ADD208R,0.06299X0.07874*%
%ADD209R,0.06299X0.05118*%
%ADD211O,0.10827X0.01181*%
%ADD212R,0.02362X0.04134*%
%ADD213R,0.04921X0.02362*%
%ADD214R,0.03937X0.02362*%
%ADD215R,0.03937X0.03937*%
%ADD216R,0.05709X0.01772*%
%ADD217R,0.05906X0.01772*%
%ADD218R,0.12197X0.09488*%
%ADD219R,0.02362X0.06102*%
%ADD220R,0.01968X0.03543*%
%ADD221R,0.07284X0.04921*%
%ADD222R,0.03937X0.05709*%
%ADD223R,0.12992X0.05512*%
%ADD224O,0.01181X0.03543*%
%ADD225O,0.03543X0.01181*%
%ADD226R,0.16732X0.16732*%
%ADD227R,0.06890X0.06890*%
%ADD228O,0.01181X0.03150*%
%ADD229O,0.03150X0.01181*%
%ADD230R,0.03150X0.03150*%
%ADD231R,0.10630X0.03937*%
%ADD232R,0.04921X0.07087*%
%ADD233R,0.04528X0.05709*%
%ADD234R,0.06102X0.02362*%
%ADD235R,0.03740X0.03740*%
%ADD237R,0.03150X0.03150*%
%ADD238R,0.03937X0.10630*%
D33*
X718580Y45276D02*
D03*
X714840D02*
D03*
X711100D02*
D03*
Y55512D02*
D03*
X718580D02*
D03*
D35*
X787776Y133740D02*
D03*
Y131181D02*
D03*
Y128622D02*
D03*
Y126063D02*
D03*
Y123504D02*
D03*
Y120945D02*
D03*
Y118386D02*
D03*
X810610D02*
D03*
Y120945D02*
D03*
Y123504D02*
D03*
Y126063D02*
D03*
Y128622D02*
D03*
Y131181D02*
D03*
Y133740D02*
D03*
D36*
X794216Y197453D02*
D03*
X799216D02*
D03*
X804216D02*
D03*
X809216D02*
D03*
X794216Y176194D02*
D03*
X799216D02*
D03*
X804216D02*
D03*
X809216D02*
D03*
X290567Y151181D02*
D03*
X285567D02*
D03*
X280567D02*
D03*
X275567D02*
D03*
X290567Y172441D02*
D03*
X285567D02*
D03*
X280567D02*
D03*
X275567D02*
D03*
D39*
X309838Y156693D02*
D03*
X301964D02*
D03*
X309838Y166142D02*
D03*
X301964D02*
D03*
D40*
X819371Y144108D02*
D03*
X813071D02*
D03*
X617106Y132677D02*
D03*
X610807D02*
D03*
X649213Y165061D02*
D03*
X642913D02*
D03*
X635984Y246234D02*
D03*
X642283D02*
D03*
X618898Y262205D02*
D03*
X612598D02*
D03*
X598101Y333257D02*
D03*
X591802D02*
D03*
X298425Y72047D02*
D03*
X292126D02*
D03*
X298425Y64961D02*
D03*
X292126D02*
D03*
X289764Y53347D02*
D03*
X296063D02*
D03*
X290158Y42913D02*
D03*
X296457D02*
D03*
X563605Y307626D02*
D03*
X569904D02*
D03*
X811398Y109134D02*
D03*
X805098D02*
D03*
X817323Y98032D02*
D03*
X811024D02*
D03*
X817326Y156509D02*
D03*
X811027D02*
D03*
X368898Y80709D02*
D03*
X375197D02*
D03*
Y73228D02*
D03*
X368898D02*
D03*
X368898Y64173D02*
D03*
X375197D02*
D03*
X503186Y259967D02*
D03*
X509485D02*
D03*
X503292Y310617D02*
D03*
X509591D02*
D03*
D44*
X592835Y325186D02*
D03*
X594803D02*
D03*
X596772D02*
D03*
X598740D02*
D03*
Y313769D02*
D03*
X596772D02*
D03*
X594803D02*
D03*
X592835D02*
D03*
D47*
X656105Y72096D02*
D03*
X648231D02*
D03*
D59*
X359474Y331323D02*
D03*
Y327701D02*
D03*
Y271480D02*
D03*
Y267858D02*
D03*
D70*
X256299Y225590D02*
D03*
Y213779D02*
D03*
D73*
X681496Y134843D02*
D03*
Y131299D02*
D03*
X631314Y44734D02*
D03*
Y48277D02*
D03*
X681496Y85630D02*
D03*
Y89173D02*
D03*
X631599Y60876D02*
D03*
Y64419D02*
D03*
X681496Y122244D02*
D03*
Y118701D02*
D03*
Y180512D02*
D03*
Y184055D02*
D03*
X440158Y307833D02*
D03*
Y304289D02*
D03*
X377390Y313756D02*
D03*
Y317299D02*
D03*
X371654Y325882D02*
D03*
Y329425D02*
D03*
X481522Y311614D02*
D03*
Y315158D02*
D03*
X416142Y302559D02*
D03*
Y306102D02*
D03*
X415728Y327653D02*
D03*
Y331197D02*
D03*
X440158Y247990D02*
D03*
Y244447D02*
D03*
X377390Y253913D02*
D03*
Y257456D02*
D03*
X366760Y278835D02*
D03*
Y275291D02*
D03*
X415728Y267811D02*
D03*
Y271354D02*
D03*
X326772Y76181D02*
D03*
Y79724D02*
D03*
X337795D02*
D03*
Y76181D02*
D03*
X298425Y81299D02*
D03*
Y77756D02*
D03*
X320472Y78937D02*
D03*
Y75394D02*
D03*
X315748Y78937D02*
D03*
Y75394D02*
D03*
X332677Y79527D02*
D03*
Y75984D02*
D03*
X399606Y102362D02*
D03*
Y98819D02*
D03*
X388976Y102362D02*
D03*
Y98819D02*
D03*
X409055Y102165D02*
D03*
Y98622D02*
D03*
X404331Y102165D02*
D03*
Y98622D02*
D03*
X393310Y102364D02*
D03*
Y98820D02*
D03*
X354659Y108732D02*
D03*
Y112275D02*
D03*
D77*
X383071Y117323D02*
D03*
X389370D02*
D03*
X348425Y304880D02*
D03*
X342126D02*
D03*
X582835Y246496D02*
D03*
X589134D02*
D03*
X348425Y245037D02*
D03*
X342126D02*
D03*
X696851Y43520D02*
D03*
X703150D02*
D03*
X300336Y93466D02*
D03*
X306635D02*
D03*
X401281Y117078D02*
D03*
X394982D02*
D03*
D78*
X492913Y330709D02*
D03*
Y337008D02*
D03*
Y306693D02*
D03*
Y300394D02*
D03*
X335433Y305077D02*
D03*
Y298778D02*
D03*
X657874Y183071D02*
D03*
Y189370D02*
D03*
X610787Y153583D02*
D03*
Y159882D02*
D03*
X627323Y153583D02*
D03*
Y159882D02*
D03*
X619055Y153583D02*
D03*
Y159882D02*
D03*
X637520Y153583D02*
D03*
Y159882D02*
D03*
X589134Y253976D02*
D03*
Y260276D02*
D03*
X605276Y252402D02*
D03*
Y246102D02*
D03*
X635984Y260276D02*
D03*
Y253976D02*
D03*
X627716Y252402D02*
D03*
Y246102D02*
D03*
X612776Y246496D02*
D03*
Y252795D02*
D03*
X649606Y225197D02*
D03*
Y218898D02*
D03*
X496063Y271197D02*
D03*
Y277496D02*
D03*
X492913Y260236D02*
D03*
Y253937D02*
D03*
X335433Y245234D02*
D03*
Y238935D02*
D03*
X584742Y317717D02*
D03*
Y311417D02*
D03*
X520472Y195669D02*
D03*
Y201969D02*
D03*
X542008Y331209D02*
D03*
Y337508D02*
D03*
X585433Y326772D02*
D03*
Y333071D02*
D03*
X374803Y112992D02*
D03*
Y106693D02*
D03*
X9587Y348430D02*
D03*
Y354729D02*
D03*
X9843Y45276D02*
D03*
Y38976D02*
D03*
D79*
X719291Y179803D02*
D03*
Y176102D02*
D03*
Y165866D02*
D03*
Y169567D02*
D03*
Y118386D02*
D03*
Y114685D02*
D03*
Y81614D02*
D03*
Y85315D02*
D03*
X366634Y325850D02*
D03*
Y329551D02*
D03*
X415748Y319803D02*
D03*
Y323504D02*
D03*
X408661Y320748D02*
D03*
Y317047D02*
D03*
X403321Y320705D02*
D03*
Y317004D02*
D03*
X366634Y266008D02*
D03*
Y269709D02*
D03*
X415748Y259961D02*
D03*
Y263661D02*
D03*
X410866Y257087D02*
D03*
Y260787D02*
D03*
X405526Y257043D02*
D03*
Y260744D02*
D03*
X758040Y76513D02*
D03*
Y80214D02*
D03*
X785827Y34567D02*
D03*
Y30866D02*
D03*
X793901Y144816D02*
D03*
Y148516D02*
D03*
X804216Y153871D02*
D03*
Y157572D02*
D03*
X799216Y153871D02*
D03*
Y157572D02*
D03*
X793901Y153871D02*
D03*
Y157572D02*
D03*
X803940Y164501D02*
D03*
Y168201D02*
D03*
X799216Y164501D02*
D03*
Y168201D02*
D03*
X809059Y209540D02*
D03*
Y205839D02*
D03*
X799216D02*
D03*
Y209540D02*
D03*
X719291Y108150D02*
D03*
Y104449D02*
D03*
Y75079D02*
D03*
Y71378D02*
D03*
X318744Y98856D02*
D03*
Y95155D02*
D03*
X312894Y98701D02*
D03*
Y95000D02*
D03*
X389873Y121663D02*
D03*
Y125364D02*
D03*
X394598Y121663D02*
D03*
Y125364D02*
D03*
X673495Y103116D02*
D03*
Y99415D02*
D03*
X417323Y86543D02*
D03*
Y82842D02*
D03*
X509842Y344606D02*
D03*
Y348307D02*
D03*
X770027Y105534D02*
D03*
Y101833D02*
D03*
X284262Y59301D02*
D03*
Y63002D02*
D03*
D80*
X19291Y46063D02*
D03*
Y38976D02*
D03*
X307480Y76378D02*
D03*
Y83465D02*
D03*
X266142Y218504D02*
D03*
Y225590D02*
D03*
X382677Y104724D02*
D03*
Y111811D02*
D03*
X18643Y347249D02*
D03*
Y354335D02*
D03*
D81*
X209055Y228346D02*
D03*
X201969D02*
D03*
D82*
X201969Y218110D02*
D03*
X213779D02*
D03*
D85*
X133858Y147638D02*
D03*
Y155512D02*
D03*
X143307Y147638D02*
D03*
Y155512D02*
D03*
D86*
X282953Y45276D02*
D03*
X279252D02*
D03*
X768622Y179291D02*
D03*
X772323D02*
D03*
X768622Y166299D02*
D03*
X772323D02*
D03*
Y161181D02*
D03*
X768622D02*
D03*
X673740Y139764D02*
D03*
X677441D02*
D03*
X680984Y175591D02*
D03*
X677283D02*
D03*
Y170472D02*
D03*
X680984D02*
D03*
X673740Y113791D02*
D03*
X677441D02*
D03*
Y80709D02*
D03*
X673740D02*
D03*
X772323Y231654D02*
D03*
X768622D02*
D03*
X772323Y213543D02*
D03*
X768622D02*
D03*
X772323Y205276D02*
D03*
X768622D02*
D03*
Y187165D02*
D03*
X772323D02*
D03*
X652090Y80493D02*
D03*
X648390D02*
D03*
X768622Y140315D02*
D03*
X772323D02*
D03*
X768622Y153307D02*
D03*
X772323D02*
D03*
X768622Y226536D02*
D03*
X772323D02*
D03*
X768622Y218661D02*
D03*
X772323D02*
D03*
X768622Y199764D02*
D03*
X772323D02*
D03*
X768622Y192284D02*
D03*
X772323D02*
D03*
X768622Y174173D02*
D03*
X772323D02*
D03*
X768622Y148189D02*
D03*
X772323D02*
D03*
Y135197D02*
D03*
X768622D02*
D03*
X432008Y307874D02*
D03*
X435709D02*
D03*
X377390Y308185D02*
D03*
X373689D02*
D03*
X430630Y315527D02*
D03*
X434331D02*
D03*
X443189Y327404D02*
D03*
X439488D02*
D03*
X432008Y248031D02*
D03*
X435709D02*
D03*
X377390Y248342D02*
D03*
X373689D02*
D03*
X430630Y255685D02*
D03*
X434331D02*
D03*
X443189Y267561D02*
D03*
X439488D02*
D03*
X673740Y108661D02*
D03*
X677441D02*
D03*
X673740Y144750D02*
D03*
X677441D02*
D03*
X673701Y75923D02*
D03*
X677402D02*
D03*
X660563Y99449D02*
D03*
X664264D02*
D03*
X452244Y319291D02*
D03*
X448543D02*
D03*
X452244Y272441D02*
D03*
X448543D02*
D03*
X342992Y56280D02*
D03*
X339291D02*
D03*
X672005Y219842D02*
D03*
X675706D02*
D03*
D89*
X345276Y88189D02*
D03*
Y76378D02*
D03*
D90*
X659646Y111221D02*
D03*
Y106102D02*
D03*
X667913D02*
D03*
Y108661D02*
D03*
Y111221D02*
D03*
D91*
X400978Y108783D02*
D03*
X412789D02*
D03*
X810633Y165957D02*
D03*
X822444D02*
D03*
D92*
X587402Y131102D02*
D03*
Y124803D02*
D03*
X325794Y97992D02*
D03*
Y91693D02*
D03*
D95*
X668516Y72096D02*
D03*
X664972D02*
D03*
X370053Y320825D02*
D03*
X366510D02*
D03*
X384449Y333071D02*
D03*
X387992D02*
D03*
X359646Y318504D02*
D03*
X356102D02*
D03*
X355931Y323073D02*
D03*
X359474D02*
D03*
X478937Y332283D02*
D03*
X475394D02*
D03*
X370276Y259055D02*
D03*
X366732D02*
D03*
X481561Y264866D02*
D03*
X485104D02*
D03*
X391803Y273372D02*
D03*
X388259D02*
D03*
X416752Y242837D02*
D03*
X413209D02*
D03*
X359646Y258661D02*
D03*
X356102D02*
D03*
X355931Y263230D02*
D03*
X359474D02*
D03*
X478937Y285039D02*
D03*
X475394D02*
D03*
X298622Y59055D02*
D03*
X295079D02*
D03*
X593032Y305512D02*
D03*
X596575D02*
D03*
X604053Y332674D02*
D03*
X607597D02*
D03*
X794295Y167926D02*
D03*
X790752D02*
D03*
X793901Y205839D02*
D03*
X790358D02*
D03*
X815948Y176194D02*
D03*
X819492D02*
D03*
X788208Y139284D02*
D03*
X791752D02*
D03*
X371850Y87205D02*
D03*
X375394D02*
D03*
X371850Y101378D02*
D03*
X375394D02*
D03*
X659770Y116061D02*
D03*
X663313D02*
D03*
D96*
X665169Y40797D02*
D03*
Y44537D02*
D03*
Y48277D02*
D03*
X675406D02*
D03*
Y40797D02*
D03*
X432211Y302482D02*
D03*
Y298742D02*
D03*
Y295002D02*
D03*
X421974D02*
D03*
Y302482D02*
D03*
X485655Y327010D02*
D03*
Y323270D02*
D03*
Y319530D02*
D03*
X475419D02*
D03*
Y327010D02*
D03*
X421974Y242640D02*
D03*
Y235159D02*
D03*
X432211D02*
D03*
Y238900D02*
D03*
Y242640D02*
D03*
X485655Y280553D02*
D03*
Y276813D02*
D03*
Y273073D02*
D03*
X475419D02*
D03*
Y280553D02*
D03*
D208*
X271063Y51968D02*
D03*
Y75590D02*
D03*
D209*
X259646Y56968D02*
D03*
Y46968D02*
D03*
Y80590D02*
D03*
Y70591D02*
D03*
D211*
X595788Y321446D02*
D03*
Y319477D02*
D03*
Y317509D02*
D03*
D212*
X341078Y108729D02*
D03*
X344818D02*
D03*
X348558D02*
D03*
Y119359D02*
D03*
X344818D02*
D03*
X341078D02*
D03*
D213*
X398864Y268606D02*
D03*
Y264866D02*
D03*
Y261125D02*
D03*
X388234D02*
D03*
Y268606D02*
D03*
X421679Y327404D02*
D03*
Y319923D02*
D03*
X432309D02*
D03*
Y323663D02*
D03*
Y327404D02*
D03*
X384423Y328305D02*
D03*
Y320825D02*
D03*
X395053D02*
D03*
Y324565D02*
D03*
Y328305D02*
D03*
X421679Y267561D02*
D03*
Y260081D02*
D03*
X432309D02*
D03*
Y263821D02*
D03*
Y267561D02*
D03*
D214*
X664972Y64419D02*
D03*
Y56939D02*
D03*
X674027D02*
D03*
D215*
Y63632D02*
D03*
D216*
X475616Y264116D02*
D03*
Y261557D02*
D03*
Y258998D02*
D03*
Y256439D02*
D03*
Y253880D02*
D03*
Y251321D02*
D03*
Y248762D02*
D03*
Y246203D02*
D03*
X452388Y264116D02*
D03*
Y261557D02*
D03*
Y258998D02*
D03*
Y256439D02*
D03*
Y253880D02*
D03*
Y251321D02*
D03*
Y248762D02*
D03*
Y246203D02*
D03*
Y292659D02*
D03*
Y295219D02*
D03*
Y297778D02*
D03*
Y300337D02*
D03*
Y302896D02*
D03*
Y305455D02*
D03*
Y308014D02*
D03*
Y310573D02*
D03*
X475616Y292659D02*
D03*
Y295219D02*
D03*
Y297778D02*
D03*
Y300337D02*
D03*
Y302896D02*
D03*
Y305455D02*
D03*
Y308014D02*
D03*
Y310573D02*
D03*
D217*
X655720Y64517D02*
D03*
Y61958D02*
D03*
Y59399D02*
D03*
Y56840D02*
D03*
X638398D02*
D03*
Y59399D02*
D03*
Y61958D02*
D03*
Y64517D02*
D03*
X638407Y48104D02*
D03*
Y45545D02*
D03*
Y42985D02*
D03*
Y40426D02*
D03*
X655730D02*
D03*
Y42985D02*
D03*
Y45545D02*
D03*
Y48104D02*
D03*
D218*
X604390Y280748D02*
D03*
D219*
X611890Y291181D02*
D03*
X606890D02*
D03*
X601890D02*
D03*
X596890D02*
D03*
Y270315D02*
D03*
X601890D02*
D03*
X606890D02*
D03*
X611890D02*
D03*
D220*
X785827Y40945D02*
D03*
Y51181D02*
D03*
D221*
X658661Y228740D02*
D03*
Y216929D02*
D03*
X666929Y180315D02*
D03*
Y192126D02*
D03*
D222*
X127832Y33465D02*
D03*
X135312D02*
D03*
X167789D02*
D03*
X160309D02*
D03*
X182087D02*
D03*
X174606D02*
D03*
X141995D02*
D03*
X149476D02*
D03*
D223*
X241929Y197638D02*
D03*
X258858D02*
D03*
X241929Y183465D02*
D03*
X258858D02*
D03*
X188386D02*
D03*
X171457D02*
D03*
X188386Y197638D02*
D03*
X171457D02*
D03*
D224*
X405751Y91385D02*
D03*
X403783D02*
D03*
X401814D02*
D03*
X399846D02*
D03*
X397877D02*
D03*
X395909D02*
D03*
X393940D02*
D03*
X391972D02*
D03*
X390003D02*
D03*
X388035D02*
D03*
Y68157D02*
D03*
X390003D02*
D03*
X391972D02*
D03*
X393940D02*
D03*
X395909D02*
D03*
X397877D02*
D03*
X399846D02*
D03*
X401814D02*
D03*
X403783D02*
D03*
X405751D02*
D03*
X328051Y43701D02*
D03*
X326083D02*
D03*
X324114D02*
D03*
X322146D02*
D03*
X320177D02*
D03*
X318209D02*
D03*
X316240D02*
D03*
X314272D02*
D03*
X312303D02*
D03*
X310335D02*
D03*
Y66929D02*
D03*
X312303D02*
D03*
X314272D02*
D03*
X316240D02*
D03*
X318209D02*
D03*
X320177D02*
D03*
X322146D02*
D03*
X324114D02*
D03*
X326083D02*
D03*
X328051D02*
D03*
D225*
X385279Y88629D02*
D03*
Y86661D02*
D03*
Y84692D02*
D03*
Y82724D02*
D03*
Y80755D02*
D03*
Y78787D02*
D03*
Y76818D02*
D03*
Y74850D02*
D03*
Y72881D02*
D03*
Y70913D02*
D03*
X408507D02*
D03*
Y72881D02*
D03*
Y74850D02*
D03*
Y76818D02*
D03*
Y78787D02*
D03*
Y80755D02*
D03*
Y82724D02*
D03*
Y84692D02*
D03*
Y86661D02*
D03*
Y88629D02*
D03*
X330807Y64173D02*
D03*
Y62205D02*
D03*
Y60236D02*
D03*
Y58268D02*
D03*
Y56299D02*
D03*
Y54331D02*
D03*
Y52362D02*
D03*
Y50394D02*
D03*
Y48425D02*
D03*
Y46457D02*
D03*
X307579D02*
D03*
Y48425D02*
D03*
Y50394D02*
D03*
Y52362D02*
D03*
Y54331D02*
D03*
Y56299D02*
D03*
Y58268D02*
D03*
Y60236D02*
D03*
Y62205D02*
D03*
Y64173D02*
D03*
D226*
X396893Y79771D02*
D03*
X319193Y55315D02*
D03*
D227*
X362474Y247990D02*
D03*
Y307833D02*
D03*
D228*
X359522Y242085D02*
D03*
X361490D02*
D03*
X363459D02*
D03*
X365427D02*
D03*
Y253896D02*
D03*
X363459D02*
D03*
X361490D02*
D03*
X359522D02*
D03*
Y301927D02*
D03*
X361490D02*
D03*
X363459D02*
D03*
X365427D02*
D03*
Y313738D02*
D03*
X363459D02*
D03*
X361490D02*
D03*
X359522D02*
D03*
D229*
X368380Y245037D02*
D03*
Y247006D02*
D03*
Y248974D02*
D03*
Y250943D02*
D03*
X356569D02*
D03*
Y248974D02*
D03*
Y247006D02*
D03*
Y245037D02*
D03*
X368380Y304880D02*
D03*
Y306848D02*
D03*
Y308817D02*
D03*
Y310785D02*
D03*
X356569D02*
D03*
Y308817D02*
D03*
Y306848D02*
D03*
Y304880D02*
D03*
D230*
X671980Y225354D02*
D03*
X678476D02*
D03*
X556615Y307628D02*
D03*
X550119D02*
D03*
X765184Y80214D02*
D03*
X771680D02*
D03*
X824883Y109131D02*
D03*
X818387D02*
D03*
X830709Y98031D02*
D03*
X824213D02*
D03*
X509191Y251697D02*
D03*
X502695D02*
D03*
X509297Y302346D02*
D03*
X502801D02*
D03*
D231*
X242519Y220079D02*
D03*
Y211417D02*
D03*
D232*
X726990Y42908D02*
D03*
Y53144D02*
D03*
D233*
X349148Y99873D02*
D03*
X342061D02*
D03*
D234*
X688976Y165335D02*
D03*
Y170335D02*
D03*
Y175335D02*
D03*
Y180335D02*
D03*
X710236Y165335D02*
D03*
Y170335D02*
D03*
Y175335D02*
D03*
Y180335D02*
D03*
X710236Y149750D02*
D03*
Y144750D02*
D03*
Y139750D02*
D03*
Y134750D02*
D03*
X688976Y149750D02*
D03*
Y144750D02*
D03*
Y139750D02*
D03*
Y134750D02*
D03*
X688976Y103791D02*
D03*
Y108791D02*
D03*
Y113791D02*
D03*
Y118791D02*
D03*
X710236Y103791D02*
D03*
Y108791D02*
D03*
Y113791D02*
D03*
Y118791D02*
D03*
Y85884D02*
D03*
Y80884D02*
D03*
Y75884D02*
D03*
Y70884D02*
D03*
X688976Y85884D02*
D03*
Y80884D02*
D03*
Y75884D02*
D03*
Y70884D02*
D03*
X127559Y166909D02*
D03*
Y171909D02*
D03*
Y176909D02*
D03*
Y181909D02*
D03*
X148819Y166909D02*
D03*
Y171909D02*
D03*
Y176909D02*
D03*
Y181909D02*
D03*
D235*
X594252Y160079D02*
D03*
Y154173D02*
D03*
X602520Y153976D02*
D03*
Y159882D02*
D03*
X620236Y246299D02*
D03*
Y252205D02*
D03*
D237*
X542008Y323138D02*
D03*
Y316642D02*
D03*
X520472Y208858D02*
D03*
Y215354D02*
D03*
X516139Y348129D02*
D03*
Y341633D02*
D03*
X775156Y105478D02*
D03*
Y98982D02*
D03*
D238*
X187393Y218677D02*
D03*
X178732D02*
D03*
M02*
