G04*
G04 #@! TF.GenerationSoftware,Altium Limited,Altium Designer,22.8.2 (66)*
G04*
G04 Layer_Color=16711935*
%FSLAX25Y25*%
%MOIN*%
G70*
G04*
G04 #@! TF.SameCoordinates,0D4134F5-1D43-4ED5-91CB-E042AC42DECA*
G04*
G04*
G04 #@! TF.FilePolarity,Negative*
G04*
G01*
G75*
%ADD12C,0.00394*%
%ADD100R,1.56693X0.05118*%
%ADD101R,2.16553X0.05103*%
%ADD104R,0.04331X0.02756*%
%ADD105R,0.04331X0.04331*%
%ADD106R,0.04331X0.04134*%
%ADD109R,0.02835X0.02835*%
%ADD110R,0.07480X0.04921*%
%ADD111R,0.03937X0.04331*%
%ADD115R,0.04921X0.07480*%
%ADD116R,0.07480X0.04921*%
%ADD118R,0.04921X0.07480*%
%ADD119R,0.04331X0.03937*%
%ADD121R,0.04134X0.04331*%
%ADD130R,0.02835X0.02756*%
%ADD131R,0.05906X0.04134*%
%ADD132R,0.04134X0.05906*%
%ADD137R,0.02835X0.02677*%
%ADD139R,0.02362X0.03937*%
%ADD145R,0.02835X0.02835*%
%ADD146R,0.06102X0.02165*%
%ADD148R,0.04724X0.02756*%
%ADD149R,0.02677X0.02835*%
%ADD154R,0.02756X0.06496*%
%ADD161R,0.06299X0.06299*%
%ADD162R,0.04528X0.05906*%
%ADD163R,0.05906X0.04528*%
%ADD174O,0.01575X0.03740*%
%ADD176C,0.22047*%
%ADD177C,0.08594*%
%ADD178C,0.07087*%
%ADD179C,0.07874*%
%ADD180C,0.09843*%
%ADD181C,0.04724*%
%ADD182C,0.06693*%
%ADD183R,0.07874X0.07874*%
%ADD184C,0.25591*%
%ADD185C,0.08268*%
%ADD186R,0.08268X0.08268*%
%ADD187C,0.08661*%
%ADD188C,0.09055*%
%ADD189C,0.11811*%
%ADD190C,0.10236*%
%ADD232R,2.35297X0.04962*%
%ADD233R,1.55555X0.05052*%
%ADD234R,0.06496X0.02756*%
%ADD235R,0.04331X0.06102*%
%ADD236R,0.05315X0.02756*%
%ADD237R,0.03543X0.03543*%
%ADD238R,0.03543X0.03543*%
%ADD239R,0.05394X0.05394*%
%ADD240R,0.05394X0.05394*%
%ADD241R,0.06102X0.02165*%
%ADD242O,0.03543X0.01575*%
%ADD243O,0.01575X0.03543*%
%ADD244R,0.07284X0.07284*%
%ADD245R,0.09843X0.06299*%
%ADD246R,0.06299X0.09843*%
%ADD247R,0.13386X0.05906*%
%ADD248O,0.01575X0.03937*%
%ADD249O,0.03937X0.01575*%
%ADD250R,0.17126X0.17126*%
%ADD251R,0.06299X0.02165*%
%ADD252O,0.11221X0.01575*%
%ADD253R,0.04134X0.04134*%
%ADD254R,0.02756X0.06496*%
%ADD255R,0.12591X0.09882*%
%ADD256R,0.07677X0.05315*%
%ADD257R,0.06299X0.06299*%
%ADD258C,0.03162*%
%ADD259C,0.02769*%
%ADD260C,0.08674*%
%ADD261C,0.04737*%
D12*
X1348404Y-32379D02*
D03*
D100*
X79091Y6517D02*
D03*
D101*
X285330Y6331D02*
D03*
D104*
X767817Y98245D02*
D03*
X776872Y94504D02*
D03*
Y101985D02*
D03*
X674027Y56939D02*
D03*
X664972D02*
D03*
Y64419D02*
D03*
D105*
X674027Y63632D02*
D03*
D106*
X587402Y124803D02*
D03*
Y131102D02*
D03*
X750125Y46005D02*
D03*
Y39706D02*
D03*
X724422Y51800D02*
D03*
Y45501D02*
D03*
D109*
X415728Y271354D02*
D03*
Y267811D02*
D03*
X481522Y255315D02*
D03*
Y251772D02*
D03*
X366760Y275291D02*
D03*
Y278835D02*
D03*
X377390Y257456D02*
D03*
Y253913D02*
D03*
X440158Y244447D02*
D03*
Y247990D02*
D03*
X415728Y331197D02*
D03*
Y327653D02*
D03*
X416142Y306102D02*
D03*
Y302559D02*
D03*
X481522Y315158D02*
D03*
Y311614D02*
D03*
X371654Y329425D02*
D03*
Y325882D02*
D03*
X377390Y317299D02*
D03*
Y313756D02*
D03*
X440158Y304289D02*
D03*
Y307833D02*
D03*
X320472Y75394D02*
D03*
Y78937D02*
D03*
X315748Y75394D02*
D03*
Y78937D02*
D03*
X332677Y75984D02*
D03*
Y79527D02*
D03*
X298425Y77756D02*
D03*
Y81299D02*
D03*
X326772Y79724D02*
D03*
Y76181D02*
D03*
X631314Y48277D02*
D03*
Y44734D02*
D03*
X631599Y64419D02*
D03*
Y60876D02*
D03*
X681496Y184055D02*
D03*
Y180512D02*
D03*
Y89173D02*
D03*
Y85630D02*
D03*
X337795Y76181D02*
D03*
Y79724D02*
D03*
X681496Y131299D02*
D03*
Y134843D02*
D03*
Y118701D02*
D03*
Y122244D02*
D03*
D110*
X256299Y211417D02*
D03*
Y223228D02*
D03*
D111*
X811027Y156509D02*
D03*
X817326D02*
D03*
X569904Y307626D02*
D03*
X563605D02*
D03*
X296457Y42913D02*
D03*
X290158D02*
D03*
X296063Y53347D02*
D03*
X289764D02*
D03*
X811024Y98032D02*
D03*
X817323D02*
D03*
X805098Y109134D02*
D03*
X811398D02*
D03*
X813071Y144108D02*
D03*
X819371D02*
D03*
X610807Y132677D02*
D03*
X617106D02*
D03*
X591802Y333257D02*
D03*
X598101D02*
D03*
X612598Y262205D02*
D03*
X618898D02*
D03*
X642283Y246234D02*
D03*
X635984D02*
D03*
X642913Y165061D02*
D03*
X649213D02*
D03*
X292126Y72047D02*
D03*
X298425D02*
D03*
X292126Y64961D02*
D03*
X298425D02*
D03*
D115*
X822444Y165957D02*
D03*
X810633D02*
D03*
X837441Y107539D02*
D03*
X849252D02*
D03*
D116*
X715110Y40049D02*
D03*
Y51860D02*
D03*
X345276Y76378D02*
D03*
Y88189D02*
D03*
D118*
X213779Y218110D02*
D03*
X201969D02*
D03*
D119*
X520472Y201969D02*
D03*
Y195669D02*
D03*
X542008Y337508D02*
D03*
Y331209D02*
D03*
X585433Y333071D02*
D03*
Y326772D02*
D03*
X335433Y238935D02*
D03*
Y245234D02*
D03*
X492913Y240551D02*
D03*
Y246850D02*
D03*
Y277165D02*
D03*
Y270866D02*
D03*
X335433Y298778D02*
D03*
Y305077D02*
D03*
X492913Y300394D02*
D03*
Y306693D02*
D03*
Y337008D02*
D03*
Y330709D02*
D03*
X584742Y311417D02*
D03*
Y317717D02*
D03*
X612776Y252795D02*
D03*
Y246496D02*
D03*
X627716Y246102D02*
D03*
Y252402D02*
D03*
X635984Y253976D02*
D03*
Y260276D02*
D03*
X589134D02*
D03*
Y253976D02*
D03*
X605276Y246102D02*
D03*
Y252402D02*
D03*
X649606Y218898D02*
D03*
Y225197D02*
D03*
X610787Y159882D02*
D03*
Y153583D02*
D03*
X657874Y189370D02*
D03*
Y183071D02*
D03*
X619055Y159882D02*
D03*
Y153583D02*
D03*
X637520Y159882D02*
D03*
Y153583D02*
D03*
X627323Y159882D02*
D03*
Y153583D02*
D03*
D121*
X342126Y245037D02*
D03*
X348425D02*
D03*
X342126Y304880D02*
D03*
X348425D02*
D03*
X589134Y246496D02*
D03*
X582835D02*
D03*
D130*
X359474Y267858D02*
D03*
Y271480D02*
D03*
Y327701D02*
D03*
Y331323D02*
D03*
D131*
X133858Y155512D02*
D03*
Y147638D02*
D03*
X143307Y155512D02*
D03*
Y147638D02*
D03*
D132*
X301964Y156693D02*
D03*
X309838D02*
D03*
X301964Y166142D02*
D03*
X309838D02*
D03*
D137*
X410866Y260787D02*
D03*
Y257087D02*
D03*
X405526Y260744D02*
D03*
Y257043D02*
D03*
X803940Y168201D02*
D03*
Y164501D02*
D03*
X799216Y168201D02*
D03*
Y164501D02*
D03*
X809059Y205839D02*
D03*
Y209540D02*
D03*
X803940D02*
D03*
Y205839D02*
D03*
X799216Y209540D02*
D03*
Y205839D02*
D03*
X793901Y148516D02*
D03*
Y144816D02*
D03*
Y157572D02*
D03*
Y153871D02*
D03*
X804216Y157572D02*
D03*
Y153871D02*
D03*
X799216Y157572D02*
D03*
Y153871D02*
D03*
X758040Y80214D02*
D03*
Y76513D02*
D03*
X785827Y30866D02*
D03*
Y34567D02*
D03*
X415748Y263661D02*
D03*
Y259961D02*
D03*
X366634Y269709D02*
D03*
Y266008D02*
D03*
X403321Y317004D02*
D03*
Y320705D02*
D03*
X408661Y317047D02*
D03*
Y320748D02*
D03*
X415748Y323504D02*
D03*
Y319803D02*
D03*
X366634Y329551D02*
D03*
Y325850D02*
D03*
X330709Y98701D02*
D03*
Y95000D02*
D03*
X324311Y98856D02*
D03*
Y95155D02*
D03*
X318744Y98856D02*
D03*
Y95155D02*
D03*
X312894Y98701D02*
D03*
Y95000D02*
D03*
X767717Y89646D02*
D03*
Y85945D02*
D03*
X719291Y71378D02*
D03*
Y75079D02*
D03*
Y104449D02*
D03*
Y108150D02*
D03*
Y85315D02*
D03*
Y81614D02*
D03*
Y114685D02*
D03*
Y118386D02*
D03*
Y169567D02*
D03*
Y165866D02*
D03*
Y176102D02*
D03*
Y179803D02*
D03*
D139*
X785827Y51181D02*
D03*
Y40945D02*
D03*
D145*
X388259Y273372D02*
D03*
X391803D02*
D03*
X791752Y139284D02*
D03*
X788208D02*
D03*
X790752Y167926D02*
D03*
X794295D02*
D03*
X819492Y176194D02*
D03*
X815948D02*
D03*
X790358Y205839D02*
D03*
X793901D02*
D03*
X475394Y272441D02*
D03*
X478937D02*
D03*
X359474Y263230D02*
D03*
X355931D02*
D03*
X356102Y258661D02*
D03*
X359646D02*
D03*
X413209Y242837D02*
D03*
X416752D02*
D03*
X366732Y259055D02*
D03*
X370276D02*
D03*
X475394Y332283D02*
D03*
X478937D02*
D03*
X359474Y323073D02*
D03*
X355931D02*
D03*
X356102Y318504D02*
D03*
X359646D02*
D03*
X387992Y333071D02*
D03*
X384449D02*
D03*
X366510Y320825D02*
D03*
X370053D02*
D03*
X295079Y59055D02*
D03*
X298622D02*
D03*
X664972Y72096D02*
D03*
X668516D02*
D03*
X596575Y305512D02*
D03*
X593032D02*
D03*
X607597Y332674D02*
D03*
X604053D02*
D03*
D146*
X810610Y133740D02*
D03*
Y131181D02*
D03*
Y128622D02*
D03*
Y126063D02*
D03*
Y123504D02*
D03*
Y120945D02*
D03*
Y118386D02*
D03*
X787776D02*
D03*
Y120945D02*
D03*
Y123504D02*
D03*
Y126063D02*
D03*
Y128622D02*
D03*
Y131181D02*
D03*
Y133740D02*
D03*
D148*
X742135Y52487D02*
D03*
Y48747D02*
D03*
Y45007D02*
D03*
X731899D02*
D03*
Y52487D02*
D03*
X432211Y242640D02*
D03*
Y238900D02*
D03*
Y235159D02*
D03*
X421974D02*
D03*
Y242640D02*
D03*
X475419Y267167D02*
D03*
Y259687D02*
D03*
X485655D02*
D03*
Y263427D02*
D03*
Y267167D02*
D03*
X475419Y327010D02*
D03*
Y319530D02*
D03*
X485655D02*
D03*
Y323270D02*
D03*
Y327010D02*
D03*
X421974Y302482D02*
D03*
Y295002D02*
D03*
X432211D02*
D03*
Y298742D02*
D03*
Y302482D02*
D03*
X675406Y40797D02*
D03*
Y48277D02*
D03*
X665169D02*
D03*
Y44537D02*
D03*
Y40797D02*
D03*
D149*
X439488Y267561D02*
D03*
X443189D02*
D03*
X434331Y255685D02*
D03*
X430630D02*
D03*
X373689Y248342D02*
D03*
X377390D02*
D03*
X435709Y248031D02*
D03*
X432008D02*
D03*
X439488Y327404D02*
D03*
X443189D02*
D03*
X434331Y315527D02*
D03*
X430630D02*
D03*
X373689Y308185D02*
D03*
X377390D02*
D03*
X435709Y307874D02*
D03*
X432008D02*
D03*
X677441Y108791D02*
D03*
X673740D02*
D03*
X677441Y144750D02*
D03*
X673740D02*
D03*
X648390Y80493D02*
D03*
X652090D02*
D03*
X673740Y75984D02*
D03*
X677441D02*
D03*
X673740Y80709D02*
D03*
X677441D02*
D03*
X768622Y161181D02*
D03*
X772323D02*
D03*
Y166299D02*
D03*
X768622D02*
D03*
X772323Y148189D02*
D03*
X768622D02*
D03*
X772323Y174173D02*
D03*
X768622D02*
D03*
Y135197D02*
D03*
X772323D02*
D03*
Y140315D02*
D03*
X768622D02*
D03*
X772323Y153307D02*
D03*
X768622D02*
D03*
X772323Y199764D02*
D03*
X768622D02*
D03*
X772323Y192284D02*
D03*
X768622D02*
D03*
X677283Y175591D02*
D03*
X680984D02*
D03*
X677441Y139764D02*
D03*
X673740D02*
D03*
X772323Y226536D02*
D03*
X768622D02*
D03*
X772323Y218661D02*
D03*
X768622D02*
D03*
X772323Y179291D02*
D03*
X768622D02*
D03*
Y205276D02*
D03*
X772323D02*
D03*
X680984Y170472D02*
D03*
X677283D02*
D03*
X677441Y113791D02*
D03*
X673740D02*
D03*
X768622Y213543D02*
D03*
X772323D02*
D03*
X768622Y231654D02*
D03*
X772323D02*
D03*
Y187165D02*
D03*
X768622D02*
D03*
D154*
X809216Y176194D02*
D03*
X804216D02*
D03*
X799216D02*
D03*
X794216D02*
D03*
X809216Y197453D02*
D03*
X804216D02*
D03*
X799216D02*
D03*
X794216D02*
D03*
X275567Y172441D02*
D03*
X280567D02*
D03*
X285567D02*
D03*
X290567D02*
D03*
X275567Y151181D02*
D03*
X280567D02*
D03*
X285567D02*
D03*
X290567D02*
D03*
D161*
X648231Y72096D02*
D03*
X656105D02*
D03*
D162*
X201969Y228346D02*
D03*
X209055D02*
D03*
D163*
X266142Y223008D02*
D03*
Y215921D02*
D03*
X307480Y83465D02*
D03*
Y76378D02*
D03*
D174*
X592835Y313769D02*
D03*
X594803D02*
D03*
X596772D02*
D03*
X598740D02*
D03*
Y325186D02*
D03*
X596772D02*
D03*
X594803D02*
D03*
X592835D02*
D03*
D176*
X43701Y20866D02*
D03*
X109449Y313386D02*
D03*
X42913Y208858D02*
D03*
X714567Y372441D02*
D03*
Y20866D02*
D03*
X215016Y191290D02*
D03*
X714567Y204252D02*
D03*
X502362Y20866D02*
D03*
X253937D02*
D03*
X399094D02*
D03*
X43701Y52953D02*
D03*
X237402Y372441D02*
D03*
X42264Y343504D02*
D03*
X502362Y372441D02*
D03*
Y180315D02*
D03*
X43701Y372441D02*
D03*
X399094Y180197D02*
D03*
X43701Y122835D02*
D03*
X253543D02*
D03*
D177*
X201933Y239701D02*
D03*
X187433Y234701D02*
D03*
X228433Y239701D02*
D03*
X243433Y234701D02*
D03*
X59842Y324787D02*
D03*
Y300787D02*
D03*
X158343Y324787D02*
D03*
Y300787D02*
D03*
X388933Y237543D02*
D03*
Y217543D02*
D03*
X461933Y237543D02*
D03*
Y217543D02*
D03*
D178*
X747363Y191811D02*
D03*
X757363D02*
D03*
X747363Y201811D02*
D03*
X757363D02*
D03*
X747363Y211811D02*
D03*
X757363D02*
D03*
Y221811D02*
D03*
X747363D02*
D03*
X757363Y231811D02*
D03*
X747363D02*
D03*
Y141811D02*
D03*
X757363D02*
D03*
X747363Y151811D02*
D03*
X757363D02*
D03*
X747363Y161811D02*
D03*
X757363D02*
D03*
Y171811D02*
D03*
X747363D02*
D03*
X757363Y181811D02*
D03*
X747363D02*
D03*
Y91811D02*
D03*
X757363D02*
D03*
X747363Y101811D02*
D03*
X757363D02*
D03*
X747363Y111811D02*
D03*
X757363D02*
D03*
Y121811D02*
D03*
X747363D02*
D03*
X757363Y131811D02*
D03*
X747363D02*
D03*
D179*
X3937Y165354D02*
D03*
X796457Y231496D02*
D03*
D180*
X-6063Y175354D02*
D03*
Y155354D02*
D03*
X13937D02*
D03*
Y175354D02*
D03*
X811811Y301181D02*
D03*
X789871Y316791D02*
D03*
X789851Y285543D02*
D03*
D181*
X813780Y47638D02*
D03*
X797244D02*
D03*
X857874Y31890D02*
D03*
X858268Y39764D02*
D03*
X857874Y47638D02*
D03*
X858268Y55512D02*
D03*
X857874Y63386D02*
D03*
X858268Y71260D02*
D03*
X852362Y31890D02*
D03*
X852756Y39764D02*
D03*
X852362Y47638D02*
D03*
X852756Y55512D02*
D03*
X852362Y63386D02*
D03*
X852756Y71260D02*
D03*
X846850Y31890D02*
D03*
X847244Y39764D02*
D03*
X846850Y47638D02*
D03*
X847244Y55512D02*
D03*
X846850Y63386D02*
D03*
X847244Y71260D02*
D03*
X841339Y31890D02*
D03*
X841732Y39764D02*
D03*
X841339Y47638D02*
D03*
X841732Y55512D02*
D03*
X841339Y63386D02*
D03*
X841732Y71260D02*
D03*
X835827Y31890D02*
D03*
X836220Y39764D02*
D03*
X835827Y47638D02*
D03*
X836220Y55512D02*
D03*
X835827Y63386D02*
D03*
X836220Y71260D02*
D03*
X830315Y31890D02*
D03*
X830709Y39764D02*
D03*
X830315Y47638D02*
D03*
X830709Y55512D02*
D03*
X830315Y63386D02*
D03*
X830709Y71260D02*
D03*
X824803Y31890D02*
D03*
X825197Y39764D02*
D03*
X824803Y47638D02*
D03*
X825197Y55512D02*
D03*
X824803Y63386D02*
D03*
X825197Y71260D02*
D03*
X819291Y31890D02*
D03*
X819685Y39764D02*
D03*
X819291Y47638D02*
D03*
X819685Y55512D02*
D03*
X819291Y63386D02*
D03*
X819685Y71260D02*
D03*
X813780Y31890D02*
D03*
X814173Y39764D02*
D03*
Y55512D02*
D03*
X813780Y63386D02*
D03*
X814173Y71260D02*
D03*
X808268Y31890D02*
D03*
X808661Y39764D02*
D03*
X808268Y47638D02*
D03*
X808661Y55512D02*
D03*
X808268Y63386D02*
D03*
X808661Y71260D02*
D03*
X802756Y31890D02*
D03*
X803150Y39764D02*
D03*
X802756Y47638D02*
D03*
X803150Y55512D02*
D03*
X802756Y63386D02*
D03*
X803150Y71260D02*
D03*
X797244Y31890D02*
D03*
X797638Y39764D02*
D03*
Y55512D02*
D03*
X797244Y63386D02*
D03*
X797638Y71260D02*
D03*
D182*
X842913Y219764D02*
D03*
X852913D02*
D03*
X842913Y209764D02*
D03*
X852913D02*
D03*
Y239764D02*
D03*
X842913D02*
D03*
X842756Y160315D02*
D03*
X852756D02*
D03*
X842756Y150315D02*
D03*
X852756D02*
D03*
Y180315D02*
D03*
X842756D02*
D03*
D183*
X796457Y241339D02*
D03*
D184*
X297480Y124394D02*
D03*
X297874Y329512D02*
D03*
D185*
X297480Y190646D02*
D03*
X307480D02*
D03*
X297874Y263260D02*
D03*
X287874D02*
D03*
D186*
X287480Y190646D02*
D03*
X307874Y263260D02*
D03*
D187*
X15748Y87008D02*
D03*
X17717Y312598D02*
D03*
D188*
X5748Y97008D02*
D03*
X25748D02*
D03*
Y77008D02*
D03*
X5748D02*
D03*
X7717Y302598D02*
D03*
X27716D02*
D03*
Y322598D02*
D03*
X7717D02*
D03*
D189*
X839764Y350787D02*
D03*
D190*
X789370Y342520D02*
D03*
X811024Y359055D02*
D03*
Y342520D02*
D03*
X789370Y359055D02*
D03*
D232*
X743726Y6274D02*
D03*
D233*
X550102Y6319D02*
D03*
D234*
X710236Y118791D02*
D03*
Y113791D02*
D03*
Y108791D02*
D03*
Y103791D02*
D03*
X688976Y118791D02*
D03*
Y113791D02*
D03*
Y108791D02*
D03*
Y103791D02*
D03*
Y70884D02*
D03*
Y75884D02*
D03*
Y80884D02*
D03*
Y85884D02*
D03*
X710236Y70884D02*
D03*
Y75884D02*
D03*
Y80884D02*
D03*
Y85884D02*
D03*
X148819Y181909D02*
D03*
Y176909D02*
D03*
Y171909D02*
D03*
Y166909D02*
D03*
X127559Y181909D02*
D03*
Y176909D02*
D03*
Y171909D02*
D03*
Y166909D02*
D03*
X710236Y180335D02*
D03*
Y175335D02*
D03*
Y170335D02*
D03*
Y165335D02*
D03*
X688976Y180335D02*
D03*
Y175335D02*
D03*
Y170335D02*
D03*
Y165335D02*
D03*
X688976Y134750D02*
D03*
Y139750D02*
D03*
Y144750D02*
D03*
Y149750D02*
D03*
X710236Y134750D02*
D03*
Y139750D02*
D03*
Y144750D02*
D03*
Y149750D02*
D03*
D235*
X149476Y33465D02*
D03*
X141995D02*
D03*
X174606D02*
D03*
X182087D02*
D03*
X135312D02*
D03*
X127832D02*
D03*
X160309D02*
D03*
X167789D02*
D03*
D236*
X388234Y268606D02*
D03*
Y261125D02*
D03*
X398864D02*
D03*
Y264866D02*
D03*
Y268606D02*
D03*
X432309Y267561D02*
D03*
Y263821D02*
D03*
Y260081D02*
D03*
X421679D02*
D03*
Y267561D02*
D03*
X395053Y328305D02*
D03*
Y324565D02*
D03*
Y320825D02*
D03*
X384423D02*
D03*
Y328305D02*
D03*
X432309Y327404D02*
D03*
Y323663D02*
D03*
Y319923D02*
D03*
X421679D02*
D03*
Y327404D02*
D03*
D237*
X520472Y215354D02*
D03*
Y208858D02*
D03*
X542008Y316642D02*
D03*
Y323138D02*
D03*
D238*
X771680Y80214D02*
D03*
X765184D02*
D03*
X550119Y307628D02*
D03*
X556615D02*
D03*
X824213Y98031D02*
D03*
X830709D02*
D03*
X818387Y109131D02*
D03*
X824883D02*
D03*
D239*
X527165Y337486D02*
D03*
X786221Y87008D02*
D03*
X520472Y186614D02*
D03*
X786221Y98032D02*
D03*
X751057Y78367D02*
D03*
D240*
X577737Y304660D02*
D03*
X796043Y109134D02*
D03*
X801968Y98031D02*
D03*
D241*
X475616Y250730D02*
D03*
Y248171D02*
D03*
Y245612D02*
D03*
Y243053D02*
D03*
Y240494D02*
D03*
Y237935D02*
D03*
Y235376D02*
D03*
Y232817D02*
D03*
X452388Y250730D02*
D03*
Y248171D02*
D03*
Y245612D02*
D03*
Y243053D02*
D03*
Y240494D02*
D03*
Y237935D02*
D03*
Y235376D02*
D03*
Y232817D02*
D03*
X475616Y310573D02*
D03*
Y308014D02*
D03*
Y305455D02*
D03*
Y302896D02*
D03*
Y300337D02*
D03*
Y297778D02*
D03*
Y295219D02*
D03*
Y292659D02*
D03*
X452388Y310573D02*
D03*
Y308014D02*
D03*
Y305455D02*
D03*
Y302896D02*
D03*
Y300337D02*
D03*
Y297778D02*
D03*
Y295219D02*
D03*
Y292659D02*
D03*
D242*
X356569Y245037D02*
D03*
Y247006D02*
D03*
Y248974D02*
D03*
Y250943D02*
D03*
X368380D02*
D03*
Y248974D02*
D03*
Y247006D02*
D03*
Y245037D02*
D03*
X356569Y304880D02*
D03*
Y306848D02*
D03*
Y308817D02*
D03*
Y310785D02*
D03*
X368380D02*
D03*
Y308817D02*
D03*
Y306848D02*
D03*
Y304880D02*
D03*
D243*
X359522Y253896D02*
D03*
X361490D02*
D03*
X363459D02*
D03*
X365427D02*
D03*
Y242085D02*
D03*
X363459D02*
D03*
X361490D02*
D03*
X359522D02*
D03*
Y313738D02*
D03*
X361490D02*
D03*
X363459D02*
D03*
X365427D02*
D03*
Y301927D02*
D03*
X363459D02*
D03*
X361490D02*
D03*
X359522D02*
D03*
D244*
X362474Y247990D02*
D03*
Y307833D02*
D03*
D245*
X242520Y208465D02*
D03*
Y223031D02*
D03*
D246*
X171269Y215921D02*
D03*
X185836D02*
D03*
D247*
X258858Y183465D02*
D03*
X241929D02*
D03*
X258858Y197638D02*
D03*
X241929D02*
D03*
X171457D02*
D03*
X188386D02*
D03*
X171457Y183465D02*
D03*
X188386D02*
D03*
D248*
X328051Y66929D02*
D03*
X326083D02*
D03*
X324114D02*
D03*
X322146D02*
D03*
X320177D02*
D03*
X318209D02*
D03*
X316240D02*
D03*
X314272D02*
D03*
X312303D02*
D03*
X310335D02*
D03*
Y43701D02*
D03*
X312303D02*
D03*
X314272D02*
D03*
X316240D02*
D03*
X318209D02*
D03*
X320177D02*
D03*
X322146D02*
D03*
X324114D02*
D03*
X326083D02*
D03*
X328051D02*
D03*
D249*
X307579Y64173D02*
D03*
Y62205D02*
D03*
Y60236D02*
D03*
Y58268D02*
D03*
Y56299D02*
D03*
Y54331D02*
D03*
Y52362D02*
D03*
Y50394D02*
D03*
Y48425D02*
D03*
Y46457D02*
D03*
X330807D02*
D03*
Y48425D02*
D03*
Y50394D02*
D03*
Y52362D02*
D03*
Y54331D02*
D03*
Y56299D02*
D03*
Y58268D02*
D03*
Y60236D02*
D03*
Y62205D02*
D03*
Y64173D02*
D03*
D250*
X319193Y55315D02*
D03*
D251*
X638398Y64517D02*
D03*
Y61958D02*
D03*
Y59399D02*
D03*
Y56840D02*
D03*
X655720D02*
D03*
Y59399D02*
D03*
Y61958D02*
D03*
Y64517D02*
D03*
X655730Y48104D02*
D03*
Y45545D02*
D03*
Y42985D02*
D03*
Y40426D02*
D03*
X638407D02*
D03*
Y42985D02*
D03*
Y45545D02*
D03*
Y48104D02*
D03*
D252*
X595788Y317509D02*
D03*
Y319477D02*
D03*
Y321446D02*
D03*
D253*
X620236Y252205D02*
D03*
Y246299D02*
D03*
X594252Y154173D02*
D03*
Y160079D02*
D03*
X602520Y159882D02*
D03*
Y153976D02*
D03*
D254*
X611890Y270315D02*
D03*
X606890D02*
D03*
X601890D02*
D03*
X596890D02*
D03*
Y291181D02*
D03*
X601890D02*
D03*
X606890D02*
D03*
X611890D02*
D03*
D255*
X604390Y280748D02*
D03*
D256*
X658661Y216929D02*
D03*
Y228740D02*
D03*
X666929Y192126D02*
D03*
Y180315D02*
D03*
D257*
X341929Y267417D02*
D03*
Y275291D02*
D03*
Y335039D02*
D03*
Y342913D02*
D03*
D258*
X133071Y350394D02*
D03*
X107480Y350342D02*
D03*
D259*
X154724Y33465D02*
D03*
X781025Y101985D02*
D03*
X601799Y328150D02*
D03*
X811763Y102854D02*
D03*
X363383Y318174D02*
D03*
X840665Y98425D02*
D03*
X853646Y136929D02*
D03*
X797444Y146268D02*
D03*
X355139Y271437D02*
D03*
X527249Y186614D02*
D03*
X680906Y48277D02*
D03*
X855706Y118401D02*
D03*
X741732Y243701D02*
D03*
X741741Y261221D02*
D03*
X804216Y191823D02*
D03*
X818307Y121319D02*
D03*
X822037Y156509D02*
D03*
X786972Y144816D02*
D03*
X783381Y136925D02*
D03*
X799484Y150217D02*
D03*
X804323Y150315D02*
D03*
X819291Y149809D02*
D03*
X777559Y20276D02*
D03*
X627323Y64517D02*
D03*
X627165Y48104D02*
D03*
X656320Y80493D02*
D03*
X664972Y76513D02*
D03*
X794807Y209540D02*
D03*
X794216Y161746D02*
D03*
X764167Y85843D02*
D03*
X797659Y188818D02*
D03*
X295276Y62230D02*
D03*
X92520Y81102D02*
D03*
X94488Y105512D02*
D03*
X318209Y36692D02*
D03*
X834055Y95421D02*
D03*
X836549Y76921D02*
D03*
Y83465D02*
D03*
X782020Y109378D02*
D03*
X784339Y111772D02*
D03*
X821215Y101575D02*
D03*
X824606Y104213D02*
D03*
X471717Y359842D02*
D03*
X841278Y88197D02*
D03*
X859449Y85039D02*
D03*
X845673Y85158D02*
D03*
X653031Y174386D02*
D03*
X352065Y269376D02*
D03*
X361767Y294150D02*
D03*
X365111Y297313D02*
D03*
X359938Y234039D02*
D03*
X479288Y122480D02*
D03*
X409620D02*
D03*
X837441Y113334D02*
D03*
X829721Y114290D02*
D03*
X649703Y246076D02*
D03*
X574347Y210866D02*
D03*
X677900Y85884D02*
D03*
X677279Y180512D02*
D03*
X677528Y134884D02*
D03*
Y118701D02*
D03*
X487795Y291971D02*
D03*
X513508Y272441D02*
D03*
X518110Y319291D02*
D03*
X463976Y262652D02*
D03*
X465354Y321002D02*
D03*
X410472Y327404D02*
D03*
X416142Y298205D02*
D03*
D260*
X229134Y262205D02*
D03*
X244479Y277962D02*
D03*
D261*
X270768Y287008D02*
D03*
X268110Y290158D02*
D03*
X261319Y296850D02*
D03*
X264665Y293307D02*
D03*
X285039Y229528D02*
D03*
X281890Y232677D02*
D03*
X278736Y235827D02*
D03*
X288189Y226378D02*
D03*
M02*
