G04*
G04 #@! TF.GenerationSoftware,Altium Limited,Altium Designer,22.8.2 (66)*
G04*
G04 Layer_Color=8388736*
%FSLAX25Y25*%
%MOIN*%
G70*
G04*
G04 #@! TF.SameCoordinates,3C8BE9B3-E5C5-456B-A35A-4EEED5C43101*
G04*
G04*
G04 #@! TF.FilePolarity,Negative*
G04*
G01*
G75*
%ADD55R,0.01575X0.01575*%
%ADD97R,1.60616X0.05052*%
%ADD98R,1.56693X0.05118*%
%ADD99R,2.16553X0.05103*%
%ADD100R,2.29473X0.04962*%
%ADD101R,0.06496X0.06496*%
%ADD102R,0.06890X0.03386*%
%ADD103R,0.04331X0.08661*%
%ADD104R,0.22047X0.23425*%
%ADD105R,0.04528X0.12008*%
%ADD106R,0.42126X0.35827*%
%ADD107R,0.03543X0.04331*%
%ADD108R,0.03543X0.04331*%
%ADD109R,0.06299X0.03150*%
%ADD110R,0.02756X0.04724*%
%ADD111R,0.02953X0.04528*%
%ADD112R,0.06102X0.02165*%
%ADD113R,0.02756X0.06496*%
%ADD114R,0.04646X0.04016*%
%ADD115R,0.05315X0.11024*%
%ADD116R,0.04134X0.05906*%
%ADD117R,0.03937X0.04331*%
%ADD118O,0.04528X0.01772*%
%ADD119O,0.01772X0.04528*%
%ADD120R,0.13189X0.13189*%
%ADD121O,0.01575X0.03740*%
%ADD122O,0.03740X0.01575*%
%ADD123R,0.10827X0.10827*%
%ADD124R,0.06299X0.06299*%
%ADD125R,0.02126X0.01181*%
%ADD126R,0.01181X0.02126*%
%ADD127R,0.04528X0.02362*%
%ADD128R,0.10236X0.12205*%
%ADD129R,0.13110X0.07795*%
%ADD130R,0.13110X0.08268*%
%ADD131R,0.01968X0.01968*%
%ADD132R,0.03543X0.03150*%
%ADD133R,0.09055X0.05118*%
%ADD134R,0.04331X0.04134*%
%ADD135R,0.02835X0.02756*%
%ADD136R,0.13780X0.07677*%
G04:AMPARAMS|DCode=137|XSize=62.21mil|YSize=207.09mil|CornerRadius=0mil|HoleSize=0mil|Usage=FLASHONLY|Rotation=225.000|XOffset=0mil|YOffset=0mil|HoleType=Round|Shape=Rectangle|*
%AMROTATEDRECTD137*
4,1,4,-0.05122,0.09521,0.09521,-0.05122,0.05122,-0.09521,-0.09521,0.05122,-0.05122,0.09521,0.0*
%
%ADD137ROTATEDRECTD137*%

%ADD138R,0.08189X0.04409*%
%ADD139R,0.10236X0.15354*%
%ADD140R,0.09449X0.13780*%
%ADD141R,0.09449X0.31496*%
%ADD142R,0.09449X0.08858*%
%ADD143R,0.04724X0.11417*%
%ADD144R,0.11024X0.04921*%
%ADD145R,0.04921X0.11024*%
%ADD146R,0.07480X0.04921*%
%ADD147R,0.04724X0.06102*%
%ADD148R,0.04134X0.04134*%
%ADD149R,0.02835X0.02835*%
%ADD150R,0.02638X0.03071*%
%ADD151R,0.12992X0.06299*%
%ADD152C,0.02953*%
%ADD153R,0.04134X0.04331*%
%ADD154R,0.04331X0.03937*%
%ADD155R,0.02835X0.02677*%
%ADD156R,0.05906X0.04528*%
%ADD157R,0.04528X0.05906*%
%ADD158R,0.04921X0.07480*%
%ADD159R,0.06496X0.02756*%
%ADD160R,0.09882X0.12591*%
%ADD161R,0.05906X0.04134*%
%ADD162R,0.02677X0.02835*%
%ADD163R,0.06102X0.04724*%
%ADD164R,0.06299X0.12992*%
%ADD165R,0.07480X0.04921*%
%ADD166R,0.03937X0.01968*%
%ADD167R,0.04921X0.07480*%
%ADD168R,0.04331X0.04134*%
%ADD169R,0.04528X0.02953*%
%ADD170R,0.07677X0.13780*%
%ADD171R,0.02835X0.02835*%
%ADD172R,0.04724X0.02756*%
%ADD173C,0.08268*%
%ADD174R,0.08268X0.08268*%
%ADD175C,0.25591*%
%ADD176C,0.09843*%
%ADD177C,0.03543*%
%ADD178C,0.20079*%
%ADD179C,0.07087*%
%ADD180C,0.22047*%
%ADD181C,0.10236*%
%ADD182C,0.11811*%
%ADD183R,0.07874X0.07874*%
%ADD184C,0.07874*%
%ADD185C,0.09055*%
%ADD186C,0.08661*%
%ADD187C,0.08594*%
%ADD188C,0.04724*%
G36*
X722441Y380118D02*
Y365551D01*
Y28543D01*
Y13976D01*
Y13386D01*
X707874D01*
Y13976D01*
X509842D01*
Y12598D01*
X495276D01*
Y13976D01*
X35827D01*
Y27165D01*
X35630D01*
X35630Y44488D01*
X-9939Y44488D01*
Y59055D01*
X35630Y59055D01*
X35630Y115354D01*
X-9831Y115354D01*
Y129921D01*
X35630Y129921D01*
X35630Y201181D01*
X-10314Y201181D01*
Y208661D01*
X-10433D01*
X-10433Y291339D01*
X4724Y291339D01*
X4724Y215748D01*
X50472Y215748D01*
Y201181D01*
X50197D01*
X50197Y129921D01*
X54713D01*
Y129527D01*
X262598Y129528D01*
Y114961D01*
X262598D01*
X262598Y28543D01*
X392520D01*
X392520Y185827D01*
X400000D01*
Y187402D01*
X495276Y187402D01*
Y365551D01*
X50591Y365551D01*
X50590Y287402D01*
X36024D01*
X36024Y336417D01*
X-10392Y336417D01*
Y350984D01*
X36024Y350984D01*
X36024Y365551D01*
X35827D01*
Y380118D01*
X722441Y380118D01*
D02*
G37*
%LPC*%
G36*
X509842Y365551D02*
Y28543D01*
X707874D01*
Y365551D01*
X509842Y365551D01*
D02*
G37*
G36*
X495276Y172835D02*
X407087Y172835D01*
X407087Y28543D01*
X495276D01*
Y172835D01*
D02*
G37*
G36*
X248031Y114961D02*
X50197Y114961D01*
X50197Y59055D01*
X50591D01*
Y52716D01*
X50591D01*
X50591Y28543D01*
X248031D01*
X248031Y114961D01*
D02*
G37*
%LPD*%
G36*
X72992Y92044D02*
X73029Y92033D01*
X73063Y92015D01*
X73093Y91990D01*
X73118Y91960D01*
X73136Y91926D01*
X73147Y91889D01*
X73151Y91850D01*
Y88465D01*
X73147Y88426D01*
X73136Y88389D01*
X73118Y88355D01*
X73093Y88325D01*
X73063Y88300D01*
X73029Y88282D01*
X72992Y88271D01*
X72953Y88267D01*
X69567D01*
X69529Y88271D01*
X69492Y88282D01*
X69457Y88300D01*
X69427Y88325D01*
X69403Y88355D01*
X69384Y88389D01*
X69373Y88426D01*
X69370Y88465D01*
Y91063D01*
X69370Y91073D01*
Y91082D01*
X69372Y91092D01*
X69373Y91102D01*
X69376Y91111D01*
X69378Y91120D01*
X69382Y91129D01*
X69384Y91139D01*
X69389Y91147D01*
X69393Y91156D01*
X69398Y91164D01*
X69403Y91173D01*
X69409Y91180D01*
X69414Y91189D01*
X69421Y91195D01*
X69427Y91203D01*
X69435Y91209D01*
X69442Y91216D01*
X69450Y91221D01*
X69457Y91227D01*
X69466Y91232D01*
X69474Y91237D01*
X69483Y91241D01*
X69492Y91246D01*
X69501Y91249D01*
X69510Y91252D01*
X69519Y91254D01*
X69529Y91257D01*
X69538Y91258D01*
X69548Y91260D01*
X69672Y91272D01*
X69893Y91363D01*
X70054Y91525D01*
X70146Y91745D01*
X70158Y91870D01*
X70160Y91879D01*
X70161Y91889D01*
X70164Y91898D01*
X70165Y91908D01*
X70169Y91917D01*
X70172Y91926D01*
X70177Y91935D01*
X70180Y91944D01*
X70186Y91952D01*
X70190Y91960D01*
X70196Y91968D01*
X70202Y91976D01*
X70209Y91983D01*
X70215Y91990D01*
X70222Y91996D01*
X70229Y92003D01*
X70237Y92009D01*
X70245Y92015D01*
X70253Y92019D01*
X70261Y92025D01*
X70270Y92028D01*
X70279Y92033D01*
X70288Y92036D01*
X70297Y92040D01*
X70307Y92042D01*
X70316Y92044D01*
X70326Y92045D01*
X70335Y92047D01*
X70345D01*
X70355Y92048D01*
X72953D01*
X72992Y92044D01*
D02*
G37*
D55*
X71260Y90158D02*
D03*
D97*
X552584Y6298D02*
D03*
D98*
X79042Y6496D02*
D03*
D99*
X285281Y6310D02*
D03*
D100*
X746589Y6181D02*
D03*
D101*
X454882Y155295D02*
D03*
Y132106D02*
D03*
X434882D02*
D03*
Y155295D02*
D03*
X435079Y49429D02*
D03*
Y72618D02*
D03*
X455079D02*
D03*
Y49429D02*
D03*
D102*
X85473Y65630D02*
D03*
Y60630D02*
D03*
Y55630D02*
D03*
X97992D02*
D03*
Y60630D02*
D03*
Y65630D02*
D03*
X215315Y66417D02*
D03*
Y61417D02*
D03*
Y56417D02*
D03*
X202795D02*
D03*
Y66417D02*
D03*
D103*
X552677Y192913D02*
D03*
X534724D02*
D03*
X535705Y210432D02*
D03*
X553658D02*
D03*
D104*
X543701Y166142D02*
D03*
X544681Y237203D02*
D03*
D105*
X537008Y85827D02*
D03*
X543701D02*
D03*
X550394D02*
D03*
X557087D02*
D03*
X563779D02*
D03*
D106*
X550394Y123425D02*
D03*
D107*
X336024Y334252D02*
D03*
X329331D02*
D03*
D108*
X846384Y182968D02*
D03*
Y154228D02*
D03*
X853983D02*
D03*
Y182968D02*
D03*
X853930Y264380D02*
D03*
Y235640D02*
D03*
X846331D02*
D03*
Y264380D02*
D03*
D109*
X843294Y159740D02*
D03*
Y171551D02*
D03*
Y177456D02*
D03*
X843241Y258868D02*
D03*
Y252962D02*
D03*
Y241151D02*
D03*
D110*
X852610Y92215D02*
D03*
X856350D02*
D03*
X860090D02*
D03*
Y102845D02*
D03*
X856350D02*
D03*
X852610D02*
D03*
D111*
X790443Y212756D02*
D03*
X797924D02*
D03*
X794183Y221811D02*
D03*
D112*
X816142Y114370D02*
D03*
Y111811D02*
D03*
Y109252D02*
D03*
Y106693D02*
D03*
Y104134D02*
D03*
Y101575D02*
D03*
Y99016D02*
D03*
X793307D02*
D03*
Y101575D02*
D03*
Y104134D02*
D03*
Y106693D02*
D03*
Y109252D02*
D03*
Y111811D02*
D03*
Y114370D02*
D03*
D113*
X792500Y179921D02*
D03*
X797500D02*
D03*
X802500D02*
D03*
X807500D02*
D03*
X792500Y201181D02*
D03*
X797500D02*
D03*
X802500D02*
D03*
X807500D02*
D03*
X754744Y40551D02*
D03*
X749744D02*
D03*
X744744D02*
D03*
X739744D02*
D03*
X754744Y19291D02*
D03*
X749744D02*
D03*
X744744D02*
D03*
X739744D02*
D03*
D114*
X589764Y58661D02*
D03*
Y46063D02*
D03*
D115*
X180905Y38976D02*
D03*
X199409D02*
D03*
X199803Y89370D02*
D03*
X181299D02*
D03*
D116*
X472047Y40157D02*
D03*
X464173D02*
D03*
X334091Y257858D02*
D03*
X326217D02*
D03*
X372677Y253134D02*
D03*
X364803D02*
D03*
X370709Y201953D02*
D03*
X362835D02*
D03*
X352992Y192110D02*
D03*
X345118D02*
D03*
X333858Y196063D02*
D03*
X325984D02*
D03*
X352988Y262976D02*
D03*
X345114D02*
D03*
X422441Y237402D02*
D03*
X430315D02*
D03*
X422441Y217717D02*
D03*
X430315D02*
D03*
X825193Y194108D02*
D03*
X817319D02*
D03*
X430315Y246850D02*
D03*
X422441D02*
D03*
X430315Y208661D02*
D03*
X422441D02*
D03*
X472047Y49213D02*
D03*
X464173D02*
D03*
Y72362D02*
D03*
X472047D02*
D03*
X83803Y249213D02*
D03*
X91677D02*
D03*
X91732Y230315D02*
D03*
X99606D02*
D03*
D117*
X65373Y72087D02*
D03*
X59073D02*
D03*
X86221Y86516D02*
D03*
X92520D02*
D03*
X78740Y106299D02*
D03*
X85039D02*
D03*
X219332Y106224D02*
D03*
X225631D02*
D03*
X174409Y51181D02*
D03*
X168110D02*
D03*
X174409Y71260D02*
D03*
X168110D02*
D03*
X107087Y46063D02*
D03*
X113386D02*
D03*
X107087Y74410D02*
D03*
X113386D02*
D03*
X237402Y56693D02*
D03*
X231102D02*
D03*
X419685Y97047D02*
D03*
X425984D02*
D03*
X464173Y64173D02*
D03*
X470472D02*
D03*
X562795Y261648D02*
D03*
X569094D02*
D03*
X639213Y283257D02*
D03*
X645512D02*
D03*
X231496Y66142D02*
D03*
X225197D02*
D03*
X88583Y72047D02*
D03*
X94882D02*
D03*
X71653Y65630D02*
D03*
X65354D02*
D03*
X192913Y66417D02*
D03*
X186614D02*
D03*
X192913Y56693D02*
D03*
X186614D02*
D03*
X100787Y38189D02*
D03*
X107087D02*
D03*
X539102Y348872D02*
D03*
X545401D02*
D03*
X554457D02*
D03*
X560756D02*
D03*
D118*
X546779Y337258D02*
D03*
Y334699D02*
D03*
Y332140D02*
D03*
Y329581D02*
D03*
Y327022D02*
D03*
X565283D02*
D03*
Y329581D02*
D03*
Y332140D02*
D03*
Y334699D02*
D03*
Y337258D02*
D03*
X147638Y90551D02*
D03*
Y93110D02*
D03*
Y95669D02*
D03*
Y98228D02*
D03*
Y100787D02*
D03*
X166142D02*
D03*
Y98228D02*
D03*
Y95669D02*
D03*
Y93110D02*
D03*
Y90551D02*
D03*
D119*
X550913Y322888D02*
D03*
X553472D02*
D03*
X556031D02*
D03*
X558590D02*
D03*
X561150D02*
D03*
Y341392D02*
D03*
X558590D02*
D03*
X556031D02*
D03*
X553472D02*
D03*
X550913D02*
D03*
X162008Y86417D02*
D03*
X159449D02*
D03*
X156890D02*
D03*
X154331D02*
D03*
X151772D02*
D03*
Y104921D02*
D03*
X154331D02*
D03*
X156890D02*
D03*
X159449D02*
D03*
X162008D02*
D03*
D120*
X556031Y332140D02*
D03*
X156890Y95669D02*
D03*
D121*
X439173Y97047D02*
D03*
X441142D02*
D03*
X443110D02*
D03*
X445079D02*
D03*
X447047D02*
D03*
X449016D02*
D03*
Y112402D02*
D03*
X447047D02*
D03*
X445079D02*
D03*
X443110D02*
D03*
X441142D02*
D03*
X439173D02*
D03*
D122*
X451772Y99803D02*
D03*
Y101772D02*
D03*
Y103740D02*
D03*
Y105709D02*
D03*
Y107677D02*
D03*
Y109646D02*
D03*
X436417D02*
D03*
Y107677D02*
D03*
Y105709D02*
D03*
Y103740D02*
D03*
Y101772D02*
D03*
Y99803D02*
D03*
D123*
X444095Y104724D02*
D03*
D124*
X627402Y283257D02*
D03*
X619527D02*
D03*
D125*
X67618Y92126D02*
D03*
Y90158D02*
D03*
Y88189D02*
D03*
X74902D02*
D03*
Y90158D02*
D03*
Y92126D02*
D03*
D126*
X69291Y86516D02*
D03*
X71260D02*
D03*
X73228D02*
D03*
Y93799D02*
D03*
X71260D02*
D03*
X69291D02*
D03*
D127*
X121457Y68130D02*
D03*
Y63130D02*
D03*
Y58130D02*
D03*
Y53130D02*
D03*
X143898D02*
D03*
Y58130D02*
D03*
Y63130D02*
D03*
Y68130D02*
D03*
D128*
X132677Y60630D02*
D03*
D129*
X21682Y271299D02*
D03*
Y241299D02*
D03*
X50365D02*
D03*
Y271299D02*
D03*
D130*
X21682Y259567D02*
D03*
Y253031D02*
D03*
X50365D02*
D03*
Y259567D02*
D03*
D131*
X811417Y219882D02*
D03*
D132*
X815354Y221260D02*
D03*
X807480D02*
D03*
D133*
X105905Y88386D02*
D03*
Y97441D02*
D03*
X546063Y59252D02*
D03*
Y50197D02*
D03*
D134*
X94488Y93701D02*
D03*
Y100000D02*
D03*
X86221Y99803D02*
D03*
Y93898D02*
D03*
D135*
X211811Y39134D02*
D03*
Y42756D02*
D03*
X212205Y89134D02*
D03*
Y92756D02*
D03*
D136*
X610890Y320166D02*
D03*
Y298316D02*
D03*
X636850Y346544D02*
D03*
Y324694D02*
D03*
D137*
X272839Y230920D02*
D03*
X268106Y211600D02*
D03*
X255901Y266718D02*
D03*
X260634Y286038D02*
D03*
D138*
X463386Y119016D02*
D03*
Y127441D02*
D03*
X424803Y119016D02*
D03*
Y127441D02*
D03*
X156299Y68622D02*
D03*
Y77047D02*
D03*
Y53031D02*
D03*
Y44606D02*
D03*
D139*
X748031Y275787D02*
D03*
Y329725D02*
D03*
X764960Y275787D02*
D03*
Y329725D02*
D03*
D140*
X776771Y289961D02*
D03*
D141*
X736614Y298819D02*
D03*
D142*
X826181Y257087D02*
D03*
X809252D02*
D03*
D143*
X376378Y216929D02*
D03*
X364567D02*
D03*
X376378Y237008D02*
D03*
X364567D02*
D03*
D144*
X575984Y46457D02*
D03*
Y58268D02*
D03*
X561024Y46457D02*
D03*
Y58268D02*
D03*
D145*
X534449Y70079D02*
D03*
X522638D02*
D03*
X534449Y55118D02*
D03*
X522638D02*
D03*
D146*
X563504Y237598D02*
D03*
Y225787D02*
D03*
X348031Y242913D02*
D03*
Y231102D02*
D03*
Y211024D02*
D03*
Y222835D02*
D03*
X585433Y336864D02*
D03*
Y348675D02*
D03*
X534772Y325408D02*
D03*
Y337218D02*
D03*
X116535Y88583D02*
D03*
Y100394D02*
D03*
X562323Y167461D02*
D03*
Y155650D02*
D03*
D147*
X760236Y345910D02*
D03*
X753150D02*
D03*
D148*
X608504Y243701D02*
D03*
X602598D02*
D03*
D149*
X471404Y346654D02*
D03*
Y350197D02*
D03*
X206299Y92716D02*
D03*
Y89173D02*
D03*
X415009Y124541D02*
D03*
Y128084D02*
D03*
X438976Y92323D02*
D03*
Y88779D02*
D03*
X439173Y122480D02*
D03*
Y118937D02*
D03*
X473179Y124370D02*
D03*
Y127913D02*
D03*
X449016Y88780D02*
D03*
Y92323D02*
D03*
X767717Y34055D02*
D03*
Y37598D02*
D03*
X369921Y156087D02*
D03*
Y159630D02*
D03*
X333429Y160811D02*
D03*
Y164354D02*
D03*
X80315Y97441D02*
D03*
Y93898D02*
D03*
X449016Y122480D02*
D03*
Y118937D02*
D03*
X206299Y35591D02*
D03*
Y39134D02*
D03*
D150*
X468071Y55512D02*
D03*
X464213D02*
D03*
D151*
X160630Y146063D02*
D03*
Y166535D02*
D03*
Y251181D02*
D03*
Y271654D02*
D03*
X161417Y220866D02*
D03*
Y200394D02*
D03*
X181890Y251181D02*
D03*
Y271654D02*
D03*
X140945Y220866D02*
D03*
Y200394D02*
D03*
X116142Y146063D02*
D03*
Y166535D02*
D03*
X138976Y146063D02*
D03*
Y166535D02*
D03*
D152*
X598228Y178858D02*
D03*
Y183858D02*
D03*
Y188858D02*
D03*
Y193858D02*
D03*
Y198858D02*
D03*
Y203858D02*
D03*
Y208858D02*
D03*
Y213858D02*
D03*
Y218858D02*
D03*
Y223858D02*
D03*
Y228858D02*
D03*
X603228Y178858D02*
D03*
Y183858D02*
D03*
Y188858D02*
D03*
Y193858D02*
D03*
Y198858D02*
D03*
Y203858D02*
D03*
Y208858D02*
D03*
Y213858D02*
D03*
Y218858D02*
D03*
Y223858D02*
D03*
X608228Y178858D02*
D03*
Y183858D02*
D03*
Y188858D02*
D03*
Y193858D02*
D03*
Y198858D02*
D03*
Y203858D02*
D03*
Y208858D02*
D03*
Y213858D02*
D03*
Y218858D02*
D03*
Y223858D02*
D03*
Y228858D02*
D03*
X613228Y178858D02*
D03*
Y183858D02*
D03*
Y188858D02*
D03*
Y193858D02*
D03*
Y198858D02*
D03*
Y203858D02*
D03*
Y208858D02*
D03*
Y213858D02*
D03*
Y218858D02*
D03*
Y223858D02*
D03*
Y228858D02*
D03*
X618228Y178858D02*
D03*
Y183858D02*
D03*
Y188858D02*
D03*
Y193858D02*
D03*
Y198858D02*
D03*
Y203858D02*
D03*
Y208858D02*
D03*
Y213858D02*
D03*
Y218858D02*
D03*
Y223858D02*
D03*
Y228858D02*
D03*
X623228Y178858D02*
D03*
Y183858D02*
D03*
Y188858D02*
D03*
Y193858D02*
D03*
Y198858D02*
D03*
Y203858D02*
D03*
Y208858D02*
D03*
Y213858D02*
D03*
Y218858D02*
D03*
Y223858D02*
D03*
Y228858D02*
D03*
X628228Y178858D02*
D03*
Y183858D02*
D03*
Y188858D02*
D03*
Y193858D02*
D03*
Y198858D02*
D03*
Y203858D02*
D03*
Y208858D02*
D03*
Y213858D02*
D03*
Y218858D02*
D03*
Y223858D02*
D03*
Y228858D02*
D03*
X633228Y178858D02*
D03*
Y183858D02*
D03*
Y188858D02*
D03*
Y193858D02*
D03*
Y198858D02*
D03*
Y203858D02*
D03*
Y208858D02*
D03*
Y213858D02*
D03*
Y218858D02*
D03*
Y223858D02*
D03*
Y228858D02*
D03*
X638228Y178858D02*
D03*
Y183858D02*
D03*
Y188858D02*
D03*
Y193858D02*
D03*
Y198858D02*
D03*
Y203858D02*
D03*
Y208858D02*
D03*
Y213858D02*
D03*
Y218858D02*
D03*
Y223858D02*
D03*
Y228858D02*
D03*
X643228Y178858D02*
D03*
Y183858D02*
D03*
Y188858D02*
D03*
Y193858D02*
D03*
Y198858D02*
D03*
Y203858D02*
D03*
Y208858D02*
D03*
Y213858D02*
D03*
Y218858D02*
D03*
Y223858D02*
D03*
Y228858D02*
D03*
X648228Y178858D02*
D03*
Y183858D02*
D03*
Y188858D02*
D03*
Y193858D02*
D03*
Y198858D02*
D03*
Y203858D02*
D03*
Y208858D02*
D03*
Y213858D02*
D03*
Y218858D02*
D03*
Y223858D02*
D03*
Y228858D02*
D03*
X603228D02*
D03*
X647953Y136024D02*
D03*
Y131024D02*
D03*
Y126024D02*
D03*
Y121024D02*
D03*
Y116024D02*
D03*
Y111024D02*
D03*
Y106024D02*
D03*
Y101024D02*
D03*
Y96024D02*
D03*
Y91024D02*
D03*
Y86024D02*
D03*
X642953Y136024D02*
D03*
Y131024D02*
D03*
Y126024D02*
D03*
Y121024D02*
D03*
Y116024D02*
D03*
Y111024D02*
D03*
Y106024D02*
D03*
Y101024D02*
D03*
Y96024D02*
D03*
Y91024D02*
D03*
Y86024D02*
D03*
X637953Y136024D02*
D03*
Y131024D02*
D03*
Y126024D02*
D03*
Y121024D02*
D03*
Y116024D02*
D03*
Y111024D02*
D03*
Y106024D02*
D03*
Y101024D02*
D03*
Y96024D02*
D03*
Y91024D02*
D03*
Y86024D02*
D03*
X632953Y136024D02*
D03*
Y131024D02*
D03*
Y126024D02*
D03*
Y121024D02*
D03*
Y116024D02*
D03*
Y111024D02*
D03*
Y106024D02*
D03*
Y101024D02*
D03*
Y96024D02*
D03*
Y91024D02*
D03*
Y86024D02*
D03*
X627953Y136024D02*
D03*
Y131024D02*
D03*
Y126024D02*
D03*
Y121024D02*
D03*
Y116024D02*
D03*
Y111024D02*
D03*
Y106024D02*
D03*
Y101024D02*
D03*
Y96024D02*
D03*
Y91024D02*
D03*
Y86024D02*
D03*
X622953Y136024D02*
D03*
Y131024D02*
D03*
Y126024D02*
D03*
Y121024D02*
D03*
Y116024D02*
D03*
Y111024D02*
D03*
Y106024D02*
D03*
Y101024D02*
D03*
Y96024D02*
D03*
Y91024D02*
D03*
Y86024D02*
D03*
X617953Y136024D02*
D03*
Y131024D02*
D03*
Y126024D02*
D03*
Y121024D02*
D03*
Y116024D02*
D03*
Y111024D02*
D03*
Y106024D02*
D03*
Y101024D02*
D03*
Y96024D02*
D03*
Y91024D02*
D03*
Y86024D02*
D03*
X612953Y136024D02*
D03*
Y131024D02*
D03*
Y126024D02*
D03*
Y121024D02*
D03*
Y116024D02*
D03*
Y111024D02*
D03*
Y106024D02*
D03*
Y101024D02*
D03*
Y96024D02*
D03*
Y91024D02*
D03*
Y86024D02*
D03*
X607953Y136024D02*
D03*
Y131024D02*
D03*
Y126024D02*
D03*
Y121024D02*
D03*
Y116024D02*
D03*
Y111024D02*
D03*
Y106024D02*
D03*
Y101024D02*
D03*
Y96024D02*
D03*
Y91024D02*
D03*
Y86024D02*
D03*
X602953Y136024D02*
D03*
Y131024D02*
D03*
Y126024D02*
D03*
Y121024D02*
D03*
Y116024D02*
D03*
Y111024D02*
D03*
Y106024D02*
D03*
Y101024D02*
D03*
Y96024D02*
D03*
Y91024D02*
D03*
Y86024D02*
D03*
X597953Y136024D02*
D03*
Y131024D02*
D03*
Y126024D02*
D03*
Y121024D02*
D03*
Y116024D02*
D03*
Y111024D02*
D03*
Y106024D02*
D03*
Y101024D02*
D03*
Y96024D02*
D03*
Y91024D02*
D03*
Y86024D02*
D03*
D153*
X174409Y57874D02*
D03*
X168110D02*
D03*
X107087Y65748D02*
D03*
X113386D02*
D03*
X174409Y64567D02*
D03*
X168110D02*
D03*
X107087Y55512D02*
D03*
X113386D02*
D03*
X808661Y155512D02*
D03*
X802362D02*
D03*
X791313Y170669D02*
D03*
X797612D02*
D03*
X71653Y78740D02*
D03*
X65354D02*
D03*
D154*
X774016Y34252D02*
D03*
Y40551D02*
D03*
X450787Y350394D02*
D03*
Y344094D02*
D03*
X224410Y56732D02*
D03*
Y50433D02*
D03*
X131572Y103542D02*
D03*
Y97243D02*
D03*
X138661Y97244D02*
D03*
Y103543D02*
D03*
X231890Y66142D02*
D03*
Y72441D02*
D03*
X574409Y77894D02*
D03*
Y84193D02*
D03*
Y71063D02*
D03*
Y64764D02*
D03*
X186221Y66535D02*
D03*
Y72835D02*
D03*
X77165Y65827D02*
D03*
Y59528D02*
D03*
D155*
X762992Y30827D02*
D03*
Y34528D02*
D03*
X375157Y169157D02*
D03*
Y165457D02*
D03*
X328067Y172716D02*
D03*
Y169016D02*
D03*
X807550Y210315D02*
D03*
Y214016D02*
D03*
X334055Y324016D02*
D03*
Y327717D02*
D03*
X329331D02*
D03*
Y324016D02*
D03*
X339606Y324016D02*
D03*
Y327716D02*
D03*
X780731Y20295D02*
D03*
Y23996D02*
D03*
X580315Y74134D02*
D03*
Y77835D02*
D03*
D156*
X287795Y241339D02*
D03*
Y248425D02*
D03*
X336221Y220472D02*
D03*
Y213386D02*
D03*
X287402Y206299D02*
D03*
Y213386D02*
D03*
X336063Y233449D02*
D03*
Y240535D02*
D03*
D157*
X352205Y253134D02*
D03*
X345118D02*
D03*
X370453Y192110D02*
D03*
X363366D02*
D03*
X372441Y262992D02*
D03*
X365354D02*
D03*
X352205Y201953D02*
D03*
X345118D02*
D03*
X333701Y146441D02*
D03*
X340787D02*
D03*
X333701Y135811D02*
D03*
X340787D02*
D03*
X480709Y237543D02*
D03*
X473622D02*
D03*
X481102Y216929D02*
D03*
X474016D02*
D03*
D158*
X174016Y300787D02*
D03*
X185827D02*
D03*
X174409Y324787D02*
D03*
X186221D02*
D03*
X175591Y103542D02*
D03*
X187402D02*
D03*
X219685Y89134D02*
D03*
X231496D02*
D03*
X231102Y38976D02*
D03*
X219291D02*
D03*
D159*
X361850Y155083D02*
D03*
Y160083D02*
D03*
Y165083D02*
D03*
Y170083D02*
D03*
X340984D02*
D03*
Y165083D02*
D03*
Y160083D02*
D03*
Y155083D02*
D03*
D160*
X351417Y162583D02*
D03*
D161*
X325827Y240535D02*
D03*
Y248409D02*
D03*
X325984Y213386D02*
D03*
Y205512D02*
D03*
X307480Y213386D02*
D03*
Y205512D02*
D03*
Y249213D02*
D03*
Y241339D02*
D03*
X466142Y137008D02*
D03*
Y144882D02*
D03*
X422047Y136614D02*
D03*
Y144488D02*
D03*
X424016Y89370D02*
D03*
Y81496D02*
D03*
X77110Y248819D02*
D03*
Y240945D02*
D03*
X97976Y249213D02*
D03*
Y241339D02*
D03*
X84984Y222728D02*
D03*
Y230602D02*
D03*
X105905Y222441D02*
D03*
Y230315D02*
D03*
X432283Y81496D02*
D03*
Y89370D02*
D03*
D162*
X328067Y164354D02*
D03*
X324366D02*
D03*
Y160118D02*
D03*
X328067D02*
D03*
X375157Y160083D02*
D03*
X378858D02*
D03*
Y155083D02*
D03*
X375157D02*
D03*
X795945Y155512D02*
D03*
X792244D02*
D03*
X798543Y164567D02*
D03*
X802244D02*
D03*
X780039Y114567D02*
D03*
X783740D02*
D03*
X780039Y106693D02*
D03*
X783740D02*
D03*
X827283Y99016D02*
D03*
X830984D02*
D03*
X827165Y106693D02*
D03*
X830866D02*
D03*
D163*
X790729Y261811D02*
D03*
Y268898D02*
D03*
X780902Y261811D02*
D03*
Y268898D02*
D03*
D164*
X690914Y71586D02*
D03*
X670441D02*
D03*
Y117177D02*
D03*
X690914D02*
D03*
X670441Y162768D02*
D03*
X690914D02*
D03*
Y94381D02*
D03*
X670441D02*
D03*
Y139972D02*
D03*
X690914D02*
D03*
X670079Y47638D02*
D03*
X690551D02*
D03*
X670472Y344488D02*
D03*
X690945D02*
D03*
X670441Y253950D02*
D03*
X690914D02*
D03*
Y299541D02*
D03*
X670441D02*
D03*
Y231155D02*
D03*
X690914D02*
D03*
X670441Y276746D02*
D03*
X690914D02*
D03*
X670441Y322337D02*
D03*
X690914D02*
D03*
D165*
X601536Y150134D02*
D03*
Y161945D02*
D03*
X628385Y150134D02*
D03*
Y161945D02*
D03*
X614961Y150134D02*
D03*
Y161945D02*
D03*
X641810Y150134D02*
D03*
Y161945D02*
D03*
X616495Y68542D02*
D03*
Y56731D02*
D03*
X643344Y68542D02*
D03*
Y56731D02*
D03*
X629920Y68542D02*
D03*
Y56731D02*
D03*
X603071D02*
D03*
Y68542D02*
D03*
X643173Y310028D02*
D03*
Y298217D02*
D03*
X631756Y310028D02*
D03*
Y298217D02*
D03*
X546653Y282514D02*
D03*
Y270703D02*
D03*
D166*
X465945Y346654D02*
D03*
Y341535D02*
D03*
X457677D02*
D03*
Y344094D02*
D03*
Y346654D02*
D03*
D167*
X577211Y311614D02*
D03*
X565400D02*
D03*
X750394Y259842D02*
D03*
X762205D02*
D03*
D168*
X562913Y217165D02*
D03*
Y210866D02*
D03*
X525787Y199606D02*
D03*
Y193307D02*
D03*
X785039Y194882D02*
D03*
Y201181D02*
D03*
X124803Y97244D02*
D03*
Y103543D02*
D03*
X71260Y100000D02*
D03*
Y106299D02*
D03*
X62205Y96438D02*
D03*
Y90139D02*
D03*
X824803Y120669D02*
D03*
Y114370D02*
D03*
X576673Y328270D02*
D03*
Y334569D02*
D03*
D169*
X772244Y20276D02*
D03*
Y27756D02*
D03*
X763189Y24016D02*
D03*
D170*
X559055Y282514D02*
D03*
X580905D02*
D03*
D171*
X813583Y201181D02*
D03*
X817126D02*
D03*
X557283Y73740D02*
D03*
X553740D02*
D03*
D172*
X799685Y89370D02*
D03*
Y85630D02*
D03*
Y81890D02*
D03*
X810316D02*
D03*
Y85630D02*
D03*
Y89370D02*
D03*
D173*
X287874Y263260D02*
D03*
X297874D02*
D03*
X11811Y136221D02*
D03*
Y163819D02*
D03*
X297480Y190646D02*
D03*
X307480D02*
D03*
D174*
X307874Y263260D02*
D03*
X287480Y190646D02*
D03*
D175*
X297874Y329512D02*
D03*
X297480Y124394D02*
D03*
D176*
X789851Y285543D02*
D03*
X789871Y316791D02*
D03*
X811811Y301181D02*
D03*
X15905Y192677D02*
D03*
Y172677D02*
D03*
X-4095D02*
D03*
Y192677D02*
D03*
D177*
X850183Y162693D02*
D03*
Y174504D02*
D03*
X850130Y255915D02*
D03*
Y244104D02*
D03*
D178*
X14173Y21654D02*
D03*
Y371654D02*
D03*
D179*
X2008Y141161D02*
D03*
Y158878D02*
D03*
X747363Y131811D02*
D03*
X757363D02*
D03*
X747363Y121811D02*
D03*
X757363D02*
D03*
Y111811D02*
D03*
X747363D02*
D03*
X757363Y101811D02*
D03*
X747363D02*
D03*
X757363Y91811D02*
D03*
X747363D02*
D03*
Y181811D02*
D03*
X757363D02*
D03*
X747363Y171811D02*
D03*
X757363D02*
D03*
Y161811D02*
D03*
X747363D02*
D03*
X757363Y151811D02*
D03*
X747363D02*
D03*
X757363Y141811D02*
D03*
X747363D02*
D03*
Y231811D02*
D03*
X757363D02*
D03*
X747363Y221811D02*
D03*
X757363D02*
D03*
Y211811D02*
D03*
X747363D02*
D03*
X757363Y201811D02*
D03*
X747363D02*
D03*
X757363Y191811D02*
D03*
X747363D02*
D03*
D180*
X109449Y313386D02*
D03*
X502362Y372441D02*
D03*
Y180315D02*
D03*
X43701Y372441D02*
D03*
X399094Y180197D02*
D03*
X43701Y122835D02*
D03*
X253543D02*
D03*
X43701Y20866D02*
D03*
X253937D02*
D03*
X502362D02*
D03*
X399094D02*
D03*
X43701Y52953D02*
D03*
X237402Y372441D02*
D03*
X42264Y343504D02*
D03*
X42913Y208858D02*
D03*
X714567Y372441D02*
D03*
Y204252D02*
D03*
Y20866D02*
D03*
X215016Y191290D02*
D03*
D181*
X789370Y359055D02*
D03*
X811024Y342520D02*
D03*
Y359055D02*
D03*
X789370Y342520D02*
D03*
D182*
X839764Y350787D02*
D03*
D183*
X796457Y241339D02*
D03*
D184*
Y231496D02*
D03*
X5906Y182677D02*
D03*
D185*
X5748Y77008D02*
D03*
X25748D02*
D03*
Y97008D02*
D03*
X5748D02*
D03*
Y322598D02*
D03*
X25748D02*
D03*
Y302598D02*
D03*
X5748D02*
D03*
D186*
X15748Y87008D02*
D03*
Y312598D02*
D03*
D187*
X201933Y239701D02*
D03*
X187433Y234701D02*
D03*
X228433Y239701D02*
D03*
X243433Y234701D02*
D03*
X158343Y300787D02*
D03*
Y324787D02*
D03*
X59842Y300787D02*
D03*
Y324787D02*
D03*
X388933Y237543D02*
D03*
Y217543D02*
D03*
X461933Y237543D02*
D03*
Y217543D02*
D03*
D188*
X797638Y71260D02*
D03*
X797244Y63386D02*
D03*
X797638Y55512D02*
D03*
Y39764D02*
D03*
X797244Y31890D02*
D03*
X803150Y71260D02*
D03*
X802756Y63386D02*
D03*
X803150Y55512D02*
D03*
X802756Y47638D02*
D03*
X803150Y39764D02*
D03*
X802756Y31890D02*
D03*
X808661Y71260D02*
D03*
X808268Y63386D02*
D03*
X808661Y55512D02*
D03*
X808268Y47638D02*
D03*
X808661Y39764D02*
D03*
X808268Y31890D02*
D03*
X814173Y71260D02*
D03*
X813780Y63386D02*
D03*
X814173Y55512D02*
D03*
Y39764D02*
D03*
X813780Y31890D02*
D03*
X819685Y71260D02*
D03*
X819291Y63386D02*
D03*
X819685Y55512D02*
D03*
X819291Y47638D02*
D03*
X819685Y39764D02*
D03*
X819291Y31890D02*
D03*
X825197Y71260D02*
D03*
X824803Y63386D02*
D03*
X825197Y55512D02*
D03*
X824803Y47638D02*
D03*
X825197Y39764D02*
D03*
X824803Y31890D02*
D03*
X830709Y71260D02*
D03*
X830315Y63386D02*
D03*
X830709Y55512D02*
D03*
X830315Y47638D02*
D03*
X830709Y39764D02*
D03*
X830315Y31890D02*
D03*
X836220Y71260D02*
D03*
X835827Y63386D02*
D03*
X836220Y55512D02*
D03*
X835827Y47638D02*
D03*
X836220Y39764D02*
D03*
X835827Y31890D02*
D03*
X841732Y71260D02*
D03*
X841339Y63386D02*
D03*
X841732Y55512D02*
D03*
X841339Y47638D02*
D03*
X841732Y39764D02*
D03*
X841339Y31890D02*
D03*
X847244Y71260D02*
D03*
X846850Y63386D02*
D03*
X847244Y55512D02*
D03*
X846850Y47638D02*
D03*
X847244Y39764D02*
D03*
X846850Y31890D02*
D03*
X852756Y71260D02*
D03*
X852362Y63386D02*
D03*
X852756Y55512D02*
D03*
X852362Y47638D02*
D03*
X852756Y39764D02*
D03*
X852362Y31890D02*
D03*
X858268Y71260D02*
D03*
X857874Y63386D02*
D03*
X858268Y55512D02*
D03*
X857874Y47638D02*
D03*
X858268Y39764D02*
D03*
X857874Y31890D02*
D03*
X797244Y47638D02*
D03*
X813780D02*
D03*
M02*
