G04*
G04 #@! TF.GenerationSoftware,Altium Limited,Altium Designer,22.8.2 (66)*
G04*
G04 Layer_Color=128*
%FSLAX25Y25*%
%MOIN*%
G70*
G04*
G04 #@! TF.SameCoordinates,0D4134F5-1D43-4ED5-91CB-E042AC42DECA*
G04*
G04*
G04 #@! TF.FilePolarity,Positive*
G04*
G01*
G75*
%ADD25R,0.03937X0.02362*%
%ADD26R,0.03937X0.03937*%
%ADD27R,0.03937X0.03740*%
%ADD30R,0.02441X0.02441*%
%ADD31R,0.07087X0.04528*%
%ADD32R,0.03543X0.03937*%
%ADD36R,0.04528X0.07087*%
%ADD37R,0.07087X0.04528*%
%ADD39R,0.04528X0.07087*%
%ADD40R,0.03937X0.03543*%
%ADD42R,0.03740X0.03937*%
%ADD52R,0.02441X0.02362*%
%ADD53R,0.05512X0.03740*%
%ADD54R,0.03740X0.05512*%
%ADD59R,0.02441X0.02284*%
%ADD62R,0.01968X0.03543*%
%ADD68R,0.02441X0.02441*%
%ADD69R,0.05709X0.01772*%
%ADD71R,0.04331X0.02362*%
%ADD72R,0.02284X0.02441*%
%ADD77R,0.02362X0.06102*%
%ADD84R,0.05906X0.05906*%
%ADD85R,0.04134X0.05512*%
%ADD86R,0.05512X0.04134*%
%ADD97O,0.01181X0.03347*%
%ADD208R,0.06102X0.02362*%
%ADD209R,0.03937X0.05709*%
%ADD210R,0.04921X0.02362*%
%ADD211R,0.03150X0.03150*%
%ADD212R,0.03150X0.03150*%
%ADD215R,0.05709X0.01772*%
%ADD216O,0.03150X0.01181*%
%ADD217O,0.01181X0.03150*%
%ADD218R,0.06890X0.06890*%
%ADD219R,0.09449X0.05906*%
%ADD220R,0.05906X0.09449*%
%ADD221R,0.12992X0.05512*%
%ADD222O,0.01181X0.03543*%
%ADD223O,0.03543X0.01181*%
%ADD224R,0.16732X0.16732*%
%ADD225R,0.05906X0.01772*%
%ADD226O,0.10827X0.01181*%
%ADD227R,0.03740X0.03740*%
%ADD228R,0.02362X0.06102*%
%ADD229R,0.12197X0.09488*%
%ADD230R,0.07284X0.04921*%
%ADD231R,0.05906X0.05906*%
D25*
X767817Y98245D02*
D03*
X776872Y94504D02*
D03*
Y101985D02*
D03*
X674027Y56939D02*
D03*
X664972D02*
D03*
Y64419D02*
D03*
D26*
X674027Y63632D02*
D03*
D27*
X587402Y124803D02*
D03*
Y131102D02*
D03*
X750125Y46005D02*
D03*
Y39706D02*
D03*
X724422Y51800D02*
D03*
Y45501D02*
D03*
D30*
X415728Y271354D02*
D03*
Y267811D02*
D03*
X481522Y255315D02*
D03*
Y251772D02*
D03*
X366760Y275291D02*
D03*
Y278835D02*
D03*
X377390Y257456D02*
D03*
Y253913D02*
D03*
X440158Y244447D02*
D03*
Y247990D02*
D03*
X415728Y331197D02*
D03*
Y327653D02*
D03*
X416142Y306102D02*
D03*
Y302559D02*
D03*
X481522Y315158D02*
D03*
Y311614D02*
D03*
X371654Y329425D02*
D03*
Y325882D02*
D03*
X377390Y317299D02*
D03*
Y313756D02*
D03*
X440158Y304289D02*
D03*
Y307833D02*
D03*
X320472Y75394D02*
D03*
Y78937D02*
D03*
X315748Y75394D02*
D03*
Y78937D02*
D03*
X332677Y75984D02*
D03*
Y79527D02*
D03*
X298425Y77756D02*
D03*
Y81299D02*
D03*
X326772Y79724D02*
D03*
Y76181D02*
D03*
X631314Y48277D02*
D03*
Y44734D02*
D03*
X631599Y64419D02*
D03*
Y60876D02*
D03*
X681496Y184055D02*
D03*
Y180512D02*
D03*
Y89173D02*
D03*
Y85630D02*
D03*
X337795Y76181D02*
D03*
Y79724D02*
D03*
X681496Y131299D02*
D03*
Y134843D02*
D03*
Y118701D02*
D03*
Y122244D02*
D03*
D31*
X256299Y211417D02*
D03*
Y223228D02*
D03*
D32*
X811027Y156509D02*
D03*
X817326D02*
D03*
X569904Y307626D02*
D03*
X563605D02*
D03*
X296457Y42913D02*
D03*
X290158D02*
D03*
X296063Y53347D02*
D03*
X289764D02*
D03*
X811024Y98032D02*
D03*
X817323D02*
D03*
X805098Y109134D02*
D03*
X811398D02*
D03*
X813071Y144108D02*
D03*
X819371D02*
D03*
X610807Y132677D02*
D03*
X617106D02*
D03*
X591802Y333257D02*
D03*
X598101D02*
D03*
X612598Y262205D02*
D03*
X618898D02*
D03*
X642283Y246234D02*
D03*
X635984D02*
D03*
X642913Y165061D02*
D03*
X649213D02*
D03*
X292126Y72047D02*
D03*
X298425D02*
D03*
X292126Y64961D02*
D03*
X298425D02*
D03*
D36*
X822444Y165957D02*
D03*
X810633D02*
D03*
X837441Y107539D02*
D03*
X849252D02*
D03*
D37*
X715110Y40049D02*
D03*
Y51860D02*
D03*
X345276Y76378D02*
D03*
Y88189D02*
D03*
D39*
X213779Y218110D02*
D03*
X201969D02*
D03*
D40*
X520472Y201969D02*
D03*
Y195669D02*
D03*
X542008Y337508D02*
D03*
Y331209D02*
D03*
X585433Y333071D02*
D03*
Y326772D02*
D03*
X335433Y238935D02*
D03*
Y245234D02*
D03*
X492913Y240551D02*
D03*
Y246850D02*
D03*
Y277165D02*
D03*
Y270866D02*
D03*
X335433Y298778D02*
D03*
Y305077D02*
D03*
X492913Y300394D02*
D03*
Y306693D02*
D03*
Y337008D02*
D03*
Y330709D02*
D03*
X584742Y311417D02*
D03*
Y317717D02*
D03*
X612776Y252795D02*
D03*
Y246496D02*
D03*
X627716Y246102D02*
D03*
Y252402D02*
D03*
X635984Y253976D02*
D03*
Y260276D02*
D03*
X589134D02*
D03*
Y253976D02*
D03*
X605276Y246102D02*
D03*
Y252402D02*
D03*
X649606Y218898D02*
D03*
Y225197D02*
D03*
X610787Y159882D02*
D03*
Y153583D02*
D03*
X657874Y189370D02*
D03*
Y183071D02*
D03*
X619055Y159882D02*
D03*
Y153583D02*
D03*
X637520Y159882D02*
D03*
Y153583D02*
D03*
X627323Y159882D02*
D03*
Y153583D02*
D03*
D42*
X342126Y245037D02*
D03*
X348425D02*
D03*
X342126Y304880D02*
D03*
X348425D02*
D03*
X589134Y246496D02*
D03*
X582835D02*
D03*
D52*
X359474Y267858D02*
D03*
Y271480D02*
D03*
Y327701D02*
D03*
Y331323D02*
D03*
D53*
X133858Y155512D02*
D03*
Y147638D02*
D03*
X143307Y155512D02*
D03*
Y147638D02*
D03*
D54*
X301964Y156693D02*
D03*
X309838D02*
D03*
X301964Y166142D02*
D03*
X309838D02*
D03*
D59*
X410866Y260787D02*
D03*
Y257087D02*
D03*
X405526Y260744D02*
D03*
Y257043D02*
D03*
X803940Y168201D02*
D03*
Y164501D02*
D03*
X799216Y168201D02*
D03*
Y164501D02*
D03*
X809059Y205839D02*
D03*
Y209540D02*
D03*
X803940D02*
D03*
Y205839D02*
D03*
X799216Y209540D02*
D03*
Y205839D02*
D03*
X793901Y148516D02*
D03*
Y144816D02*
D03*
Y157572D02*
D03*
Y153871D02*
D03*
X804216Y157572D02*
D03*
Y153871D02*
D03*
X799216Y157572D02*
D03*
Y153871D02*
D03*
X758040Y80214D02*
D03*
Y76513D02*
D03*
X785827Y30866D02*
D03*
Y34567D02*
D03*
X415748Y263661D02*
D03*
Y259961D02*
D03*
X366634Y269709D02*
D03*
Y266008D02*
D03*
X403321Y317004D02*
D03*
Y320705D02*
D03*
X408661Y317047D02*
D03*
Y320748D02*
D03*
X415748Y323504D02*
D03*
Y319803D02*
D03*
X366634Y329551D02*
D03*
Y325850D02*
D03*
X330709Y98701D02*
D03*
Y95000D02*
D03*
X324311Y98856D02*
D03*
Y95155D02*
D03*
X318744Y98856D02*
D03*
Y95155D02*
D03*
X312894Y98701D02*
D03*
Y95000D02*
D03*
X767717Y89646D02*
D03*
Y85945D02*
D03*
X719291Y71378D02*
D03*
Y75079D02*
D03*
Y104449D02*
D03*
Y108150D02*
D03*
Y85315D02*
D03*
Y81614D02*
D03*
Y114685D02*
D03*
Y118386D02*
D03*
Y169567D02*
D03*
Y165866D02*
D03*
Y176102D02*
D03*
Y179803D02*
D03*
D62*
X785827Y51181D02*
D03*
Y40945D02*
D03*
D68*
X388259Y273372D02*
D03*
X391803D02*
D03*
X791752Y139284D02*
D03*
X788208D02*
D03*
X790752Y167926D02*
D03*
X794295D02*
D03*
X819492Y176194D02*
D03*
X815948D02*
D03*
X790358Y205839D02*
D03*
X793901D02*
D03*
X475394Y272441D02*
D03*
X478937D02*
D03*
X359474Y263230D02*
D03*
X355931D02*
D03*
X356102Y258661D02*
D03*
X359646D02*
D03*
X413209Y242837D02*
D03*
X416752D02*
D03*
X366732Y259055D02*
D03*
X370276D02*
D03*
X475394Y332283D02*
D03*
X478937D02*
D03*
X359474Y323073D02*
D03*
X355931D02*
D03*
X356102Y318504D02*
D03*
X359646D02*
D03*
X387992Y333071D02*
D03*
X384449D02*
D03*
X366510Y320825D02*
D03*
X370053D02*
D03*
X295079Y59055D02*
D03*
X298622D02*
D03*
X664972Y72096D02*
D03*
X668516D02*
D03*
X596575Y305512D02*
D03*
X593032D02*
D03*
X607597Y332674D02*
D03*
X604053D02*
D03*
D69*
X810610Y133740D02*
D03*
Y131181D02*
D03*
Y128622D02*
D03*
Y126063D02*
D03*
Y123504D02*
D03*
Y120945D02*
D03*
Y118386D02*
D03*
X787776D02*
D03*
Y120945D02*
D03*
Y123504D02*
D03*
Y126063D02*
D03*
Y128622D02*
D03*
Y131181D02*
D03*
Y133740D02*
D03*
D71*
X742135Y52487D02*
D03*
Y48747D02*
D03*
Y45007D02*
D03*
X731899D02*
D03*
Y52487D02*
D03*
X432211Y242640D02*
D03*
Y238900D02*
D03*
Y235159D02*
D03*
X421974D02*
D03*
Y242640D02*
D03*
X475419Y267167D02*
D03*
Y259687D02*
D03*
X485655D02*
D03*
Y263427D02*
D03*
Y267167D02*
D03*
X475419Y327010D02*
D03*
Y319530D02*
D03*
X485655D02*
D03*
Y323270D02*
D03*
Y327010D02*
D03*
X421974Y302482D02*
D03*
Y295002D02*
D03*
X432211D02*
D03*
Y298742D02*
D03*
Y302482D02*
D03*
X675406Y40797D02*
D03*
Y48277D02*
D03*
X665169D02*
D03*
Y44537D02*
D03*
Y40797D02*
D03*
D72*
X439488Y267561D02*
D03*
X443189D02*
D03*
X434331Y255685D02*
D03*
X430630D02*
D03*
X373689Y248342D02*
D03*
X377390D02*
D03*
X435709Y248031D02*
D03*
X432008D02*
D03*
X439488Y327404D02*
D03*
X443189D02*
D03*
X434331Y315527D02*
D03*
X430630D02*
D03*
X373689Y308185D02*
D03*
X377390D02*
D03*
X435709Y307874D02*
D03*
X432008D02*
D03*
X677441Y108791D02*
D03*
X673740D02*
D03*
X677441Y144750D02*
D03*
X673740D02*
D03*
X648390Y80493D02*
D03*
X652090D02*
D03*
X673740Y75984D02*
D03*
X677441D02*
D03*
X673740Y80709D02*
D03*
X677441D02*
D03*
X768622Y161181D02*
D03*
X772323D02*
D03*
Y166299D02*
D03*
X768622D02*
D03*
X772323Y148189D02*
D03*
X768622D02*
D03*
X772323Y174173D02*
D03*
X768622D02*
D03*
Y135197D02*
D03*
X772323D02*
D03*
Y140315D02*
D03*
X768622D02*
D03*
X772323Y153307D02*
D03*
X768622D02*
D03*
X772323Y199764D02*
D03*
X768622D02*
D03*
X772323Y192284D02*
D03*
X768622D02*
D03*
X677283Y175591D02*
D03*
X680984D02*
D03*
X677441Y139764D02*
D03*
X673740D02*
D03*
X772323Y226536D02*
D03*
X768622D02*
D03*
X772323Y218661D02*
D03*
X768622D02*
D03*
X772323Y179291D02*
D03*
X768622D02*
D03*
Y205276D02*
D03*
X772323D02*
D03*
X680984Y170472D02*
D03*
X677283D02*
D03*
X677441Y113791D02*
D03*
X673740D02*
D03*
X768622Y213543D02*
D03*
X772323D02*
D03*
X768622Y231654D02*
D03*
X772323D02*
D03*
Y187165D02*
D03*
X768622D02*
D03*
D77*
X809216Y176194D02*
D03*
X804216D02*
D03*
X799216D02*
D03*
X794216D02*
D03*
X809216Y197453D02*
D03*
X804216D02*
D03*
X799216D02*
D03*
X794216D02*
D03*
X275567Y172441D02*
D03*
X280567D02*
D03*
X285567D02*
D03*
X290567D02*
D03*
X275567Y151181D02*
D03*
X280567D02*
D03*
X285567D02*
D03*
X290567D02*
D03*
D84*
X648231Y72096D02*
D03*
X656105D02*
D03*
D85*
X201969Y228346D02*
D03*
X209055D02*
D03*
D86*
X266142Y223008D02*
D03*
Y215921D02*
D03*
X307480Y83465D02*
D03*
Y76378D02*
D03*
D97*
X592835Y313769D02*
D03*
X594803D02*
D03*
X596772D02*
D03*
X598740D02*
D03*
Y325186D02*
D03*
X596772D02*
D03*
X594803D02*
D03*
X592835D02*
D03*
D208*
X710236Y118791D02*
D03*
Y113791D02*
D03*
Y108791D02*
D03*
Y103791D02*
D03*
X688976Y118791D02*
D03*
Y113791D02*
D03*
Y108791D02*
D03*
Y103791D02*
D03*
Y70884D02*
D03*
Y75884D02*
D03*
Y80884D02*
D03*
Y85884D02*
D03*
X710236Y70884D02*
D03*
Y75884D02*
D03*
Y80884D02*
D03*
Y85884D02*
D03*
X148819Y181909D02*
D03*
Y176909D02*
D03*
Y171909D02*
D03*
Y166909D02*
D03*
X127559Y181909D02*
D03*
Y176909D02*
D03*
Y171909D02*
D03*
Y166909D02*
D03*
X710236Y180335D02*
D03*
Y175335D02*
D03*
Y170335D02*
D03*
Y165335D02*
D03*
X688976Y180335D02*
D03*
Y175335D02*
D03*
Y170335D02*
D03*
Y165335D02*
D03*
X688976Y134750D02*
D03*
Y139750D02*
D03*
Y144750D02*
D03*
Y149750D02*
D03*
X710236Y134750D02*
D03*
Y139750D02*
D03*
Y144750D02*
D03*
Y149750D02*
D03*
D209*
X149476Y33465D02*
D03*
X141995D02*
D03*
X174606D02*
D03*
X182087D02*
D03*
X135312D02*
D03*
X127832D02*
D03*
X160309D02*
D03*
X167789D02*
D03*
D210*
X388234Y268606D02*
D03*
Y261125D02*
D03*
X398864D02*
D03*
Y264866D02*
D03*
Y268606D02*
D03*
X432309Y267561D02*
D03*
Y263821D02*
D03*
Y260081D02*
D03*
X421679D02*
D03*
Y267561D02*
D03*
X395053Y328305D02*
D03*
Y324565D02*
D03*
Y320825D02*
D03*
X384423D02*
D03*
Y328305D02*
D03*
X432309Y327404D02*
D03*
Y323663D02*
D03*
Y319923D02*
D03*
X421679D02*
D03*
Y327404D02*
D03*
D211*
X520472Y215354D02*
D03*
Y208858D02*
D03*
X542008Y316642D02*
D03*
Y323138D02*
D03*
D212*
X771680Y80214D02*
D03*
X765184D02*
D03*
X550119Y307628D02*
D03*
X556615D02*
D03*
X824213Y98031D02*
D03*
X830709D02*
D03*
X818387Y109131D02*
D03*
X824883D02*
D03*
D215*
X475616Y250730D02*
D03*
Y248171D02*
D03*
Y245612D02*
D03*
Y243053D02*
D03*
Y240494D02*
D03*
Y237935D02*
D03*
Y235376D02*
D03*
Y232817D02*
D03*
X452388Y250730D02*
D03*
Y248171D02*
D03*
Y245612D02*
D03*
Y243053D02*
D03*
Y240494D02*
D03*
Y237935D02*
D03*
Y235376D02*
D03*
Y232817D02*
D03*
X475616Y310573D02*
D03*
Y308014D02*
D03*
Y305455D02*
D03*
Y302896D02*
D03*
Y300337D02*
D03*
Y297778D02*
D03*
Y295219D02*
D03*
Y292659D02*
D03*
X452388Y310573D02*
D03*
Y308014D02*
D03*
Y305455D02*
D03*
Y302896D02*
D03*
Y300337D02*
D03*
Y297778D02*
D03*
Y295219D02*
D03*
Y292659D02*
D03*
D216*
X356569Y245037D02*
D03*
Y247006D02*
D03*
Y248974D02*
D03*
Y250943D02*
D03*
X368380D02*
D03*
Y248974D02*
D03*
Y247006D02*
D03*
Y245037D02*
D03*
X356569Y304880D02*
D03*
Y306848D02*
D03*
Y308817D02*
D03*
Y310785D02*
D03*
X368380D02*
D03*
Y308817D02*
D03*
Y306848D02*
D03*
Y304880D02*
D03*
D217*
X359522Y253896D02*
D03*
X361490D02*
D03*
X363459D02*
D03*
X365427D02*
D03*
Y242085D02*
D03*
X363459D02*
D03*
X361490D02*
D03*
X359522D02*
D03*
Y313738D02*
D03*
X361490D02*
D03*
X363459D02*
D03*
X365427D02*
D03*
Y301927D02*
D03*
X363459D02*
D03*
X361490D02*
D03*
X359522D02*
D03*
D218*
X362474Y247990D02*
D03*
Y307833D02*
D03*
D219*
X242520Y208465D02*
D03*
Y223031D02*
D03*
D220*
X171269Y215921D02*
D03*
X185836D02*
D03*
D221*
X258858Y183465D02*
D03*
X241929D02*
D03*
X258858Y197638D02*
D03*
X241929D02*
D03*
X171457D02*
D03*
X188386D02*
D03*
X171457Y183465D02*
D03*
X188386D02*
D03*
D222*
X328051Y66929D02*
D03*
X326083D02*
D03*
X324114D02*
D03*
X322146D02*
D03*
X320177D02*
D03*
X318209D02*
D03*
X316240D02*
D03*
X314272D02*
D03*
X312303D02*
D03*
X310335D02*
D03*
Y43701D02*
D03*
X312303D02*
D03*
X314272D02*
D03*
X316240D02*
D03*
X318209D02*
D03*
X320177D02*
D03*
X322146D02*
D03*
X324114D02*
D03*
X326083D02*
D03*
X328051D02*
D03*
D223*
X307579Y64173D02*
D03*
Y62205D02*
D03*
Y60236D02*
D03*
Y58268D02*
D03*
Y56299D02*
D03*
Y54331D02*
D03*
Y52362D02*
D03*
Y50394D02*
D03*
Y48425D02*
D03*
Y46457D02*
D03*
X330807D02*
D03*
Y48425D02*
D03*
Y50394D02*
D03*
Y52362D02*
D03*
Y54331D02*
D03*
Y56299D02*
D03*
Y58268D02*
D03*
Y60236D02*
D03*
Y62205D02*
D03*
Y64173D02*
D03*
D224*
X319193Y55315D02*
D03*
D225*
X638398Y64517D02*
D03*
Y61958D02*
D03*
Y59399D02*
D03*
Y56840D02*
D03*
X655720D02*
D03*
Y59399D02*
D03*
Y61958D02*
D03*
Y64517D02*
D03*
X655730Y48104D02*
D03*
Y45545D02*
D03*
Y42985D02*
D03*
Y40426D02*
D03*
X638407D02*
D03*
Y42985D02*
D03*
Y45545D02*
D03*
Y48104D02*
D03*
D226*
X595788Y317509D02*
D03*
Y319477D02*
D03*
Y321446D02*
D03*
D227*
X620236Y252205D02*
D03*
Y246299D02*
D03*
X594252Y154173D02*
D03*
Y160079D02*
D03*
X602520Y159882D02*
D03*
Y153976D02*
D03*
D228*
X611890Y270315D02*
D03*
X606890D02*
D03*
X601890D02*
D03*
X596890D02*
D03*
Y291181D02*
D03*
X601890D02*
D03*
X606890D02*
D03*
X611890D02*
D03*
D229*
X604390Y280748D02*
D03*
D230*
X658661Y216929D02*
D03*
Y228740D02*
D03*
X666929Y192126D02*
D03*
Y180315D02*
D03*
D231*
X341929Y267417D02*
D03*
Y275291D02*
D03*
Y335039D02*
D03*
Y342913D02*
D03*
M02*
