G04*
G04 #@! TF.GenerationSoftware,Altium Limited,Altium Designer,22.8.2 (66)*
G04*
G04 Layer_Color=8421504*
%FSLAX25Y25*%
%MOIN*%
G70*
G04*
G04 #@! TF.SameCoordinates,0D4134F5-1D43-4ED5-91CB-E042AC42DECA*
G04*
G04*
G04 #@! TF.FilePolarity,Positive*
G04*
G01*
G75*
%ADD24R,0.12598X0.05906*%
%ADD25R,0.03937X0.02362*%
%ADD26R,0.03937X0.03937*%
%ADD27R,0.03937X0.03740*%
%ADD28R,0.13386X0.07284*%
%ADD29R,0.06102X0.06102*%
%ADD30R,0.02441X0.02441*%
%ADD31R,0.07087X0.04528*%
%ADD32R,0.03543X0.03937*%
%ADD33R,0.12795X0.12795*%
%ADD34O,0.01378X0.04134*%
%ADD35O,0.04134X0.01378*%
%ADD36R,0.04528X0.07087*%
%ADD37R,0.07087X0.04528*%
%ADD38R,0.07284X0.13386*%
%ADD39R,0.04528X0.07087*%
%ADD40R,0.03937X0.03543*%
%ADD41R,0.06496X0.02992*%
%ADD42R,0.03740X0.03937*%
%ADD43R,0.09843X0.11811*%
%ADD44R,0.04134X0.01968*%
%ADD45R,0.00787X0.01732*%
%ADD46R,0.01732X0.00787*%
%ADD47R,0.01181X0.01181*%
%ADD48R,0.03937X0.03740*%
%ADD49R,0.08661X0.04724*%
%ADD50R,0.07795X0.04016*%
%ADD51R,0.04921X0.10630*%
%ADD52R,0.02441X0.02362*%
%ADD53R,0.05512X0.03740*%
%ADD54R,0.03740X0.05512*%
G04:AMPARAMS|DCode=55|XSize=58.27mil|YSize=203.15mil|CornerRadius=0mil|HoleSize=0mil|Usage=FLASHONLY|Rotation=45.000|XOffset=0mil|YOffset=0mil|HoleType=Round|Shape=Rectangle|*
%AMROTATEDRECTD55*
4,1,4,0.05122,-0.09243,-0.09243,0.05122,-0.05122,0.09243,0.09243,-0.05122,0.05122,-0.09243,0.0*
%
%ADD55ROTATEDRECTD55*%

%ADD56R,0.12717X0.07402*%
%ADD57R,0.12717X0.07874*%
%ADD58R,0.02244X0.02677*%
%ADD59R,0.02441X0.02284*%
%ADD60R,0.03543X0.01968*%
%ADD61R,0.02362X0.04331*%
%ADD62R,0.01968X0.03543*%
%ADD63R,0.41732X0.35433*%
%ADD64R,0.04134X0.11614*%
%ADD65R,0.04252X0.03622*%
%ADD66R,0.10630X0.04528*%
%ADD67R,0.04528X0.10630*%
%ADD68R,0.02441X0.02441*%
%ADD69R,0.05709X0.01772*%
%ADD70R,0.03740X0.03740*%
%ADD71R,0.04331X0.02362*%
%ADD72R,0.02284X0.02441*%
%ADD73C,0.02559*%
%ADD74R,0.09055X0.31102*%
%ADD75R,0.09055X0.13386*%
%ADD76R,0.09843X0.14961*%
%ADD77R,0.02362X0.06102*%
%ADD78R,0.03150X0.02756*%
%ADD79R,0.01575X0.01575*%
%ADD80R,0.02559X0.04134*%
%ADD81R,0.05709X0.04331*%
%ADD82R,0.09055X0.08465*%
%ADD83R,0.04134X0.02559*%
%ADD84R,0.05906X0.05906*%
%ADD85R,0.04134X0.05512*%
%ADD86R,0.05512X0.04134*%
%ADD87R,0.04331X0.11024*%
%ADD88R,0.09488X0.12197*%
%ADD89R,0.06102X0.02362*%
%ADD90R,0.03150X0.03937*%
%ADD91R,0.21654X0.23032*%
%ADD92R,0.03937X0.08268*%
%ADD93R,0.03543X0.01575*%
%ADD94R,0.04331X0.05709*%
%ADD95R,0.10433X0.10433*%
%ADD96O,0.03347X0.01181*%
%ADD97O,0.01181X0.03347*%
%ADD98R,0.05906X0.12598*%
G36*
X552752Y238581D02*
X546059D01*
Y245983D01*
X552752D01*
Y238581D01*
D02*
G37*
G36*
X543303D02*
X536610D01*
Y245983D01*
X543303D01*
Y238581D01*
D02*
G37*
G36*
X552752Y228424D02*
X546059D01*
Y235825D01*
X552752D01*
Y228424D01*
D02*
G37*
G36*
X543303D02*
X536610D01*
Y235825D01*
X543303D01*
Y228424D01*
D02*
G37*
G36*
X551772Y167520D02*
X545079D01*
Y174921D01*
X551772D01*
Y167520D01*
D02*
G37*
G36*
X542323D02*
X535630D01*
Y174921D01*
X542323D01*
Y167520D01*
D02*
G37*
G36*
X551772Y157362D02*
X545079D01*
Y164764D01*
X551772D01*
Y157362D01*
D02*
G37*
G36*
X542323D02*
X535630D01*
Y164764D01*
X542323D01*
Y157362D01*
D02*
G37*
G36*
X568898Y133031D02*
X563386D01*
Y138386D01*
X568898D01*
Y133031D01*
D02*
G37*
G36*
X561024D02*
X555512D01*
Y138386D01*
X561024D01*
Y133031D01*
D02*
G37*
G36*
X553150D02*
X547638D01*
Y138386D01*
X553150D01*
Y133031D01*
D02*
G37*
G36*
X545276D02*
X539764D01*
Y138386D01*
X545276D01*
Y133031D01*
D02*
G37*
G36*
X537402D02*
X531890D01*
Y138386D01*
X537402D01*
Y133031D01*
D02*
G37*
G36*
X568898Y124843D02*
X563386D01*
Y130197D01*
X568898D01*
Y124843D01*
D02*
G37*
G36*
X561024D02*
X555512D01*
Y130197D01*
X561024D01*
Y124843D01*
D02*
G37*
G36*
X553150D02*
X547638D01*
Y130197D01*
X553150D01*
Y124843D01*
D02*
G37*
G36*
X545276D02*
X539764D01*
Y130197D01*
X545276D01*
Y124843D01*
D02*
G37*
G36*
X537402D02*
X531890D01*
Y130197D01*
X537402D01*
Y124843D01*
D02*
G37*
G36*
X568898Y116654D02*
X563386D01*
Y122008D01*
X568898D01*
Y116654D01*
D02*
G37*
G36*
X561024D02*
X555512D01*
Y122008D01*
X561024D01*
Y116654D01*
D02*
G37*
G36*
X553150D02*
X547638D01*
Y122008D01*
X553150D01*
Y116654D01*
D02*
G37*
G36*
X545276D02*
X539764D01*
Y122008D01*
X545276D01*
Y116654D01*
D02*
G37*
G36*
X537402D02*
X531890D01*
Y122008D01*
X537402D01*
Y116654D01*
D02*
G37*
G36*
X568898Y108465D02*
X563386D01*
Y113819D01*
X568898D01*
Y108465D01*
D02*
G37*
G36*
X561024D02*
X555512D01*
Y113819D01*
X561024D01*
Y108465D01*
D02*
G37*
G36*
X553150D02*
X547638D01*
Y113819D01*
X553150D01*
Y108465D01*
D02*
G37*
G36*
X545276D02*
X539764D01*
Y113819D01*
X545276D01*
Y108465D01*
D02*
G37*
G36*
X537402D02*
X531890D01*
Y113819D01*
X537402D01*
Y108465D01*
D02*
G37*
G36*
X72953Y88465D02*
X69567D01*
Y91063D01*
X69721Y91078D01*
X70005Y91196D01*
X70222Y91413D01*
X70340Y91697D01*
X70355Y91850D01*
X72953D01*
Y88465D01*
D02*
G37*
D24*
X138976Y166535D02*
D03*
Y146063D02*
D03*
X116142Y166535D02*
D03*
Y146063D02*
D03*
X160630Y166535D02*
D03*
Y146063D02*
D03*
Y271654D02*
D03*
Y251181D02*
D03*
X161417Y200394D02*
D03*
Y220866D02*
D03*
X181890Y271654D02*
D03*
Y251181D02*
D03*
X140945Y200394D02*
D03*
Y220866D02*
D03*
D25*
X814370Y146260D02*
D03*
Y138779D02*
D03*
X805315D02*
D03*
D26*
Y145473D02*
D03*
D27*
X824803Y114370D02*
D03*
Y120669D02*
D03*
X576673Y334569D02*
D03*
Y328270D02*
D03*
X62205Y90139D02*
D03*
Y96438D02*
D03*
X124803Y103543D02*
D03*
Y97244D02*
D03*
X71260Y106299D02*
D03*
Y100000D02*
D03*
X848032Y127218D02*
D03*
Y133517D02*
D03*
X785039Y201181D02*
D03*
Y194882D02*
D03*
X562913Y167264D02*
D03*
Y160965D02*
D03*
X525787Y193307D02*
D03*
Y199606D02*
D03*
X562913Y237402D02*
D03*
Y231102D02*
D03*
Y210866D02*
D03*
Y217165D02*
D03*
D28*
X610890Y298316D02*
D03*
Y320166D02*
D03*
X636850Y324694D02*
D03*
Y346544D02*
D03*
D29*
X434882Y155295D02*
D03*
Y132106D02*
D03*
X454882D02*
D03*
Y155295D02*
D03*
X455079Y49429D02*
D03*
Y72618D02*
D03*
X435079D02*
D03*
Y49429D02*
D03*
D30*
X415009Y128084D02*
D03*
Y124541D02*
D03*
X473179Y127913D02*
D03*
Y124370D02*
D03*
X80315Y93898D02*
D03*
Y97441D02*
D03*
X206299Y39134D02*
D03*
Y35591D02*
D03*
Y89173D02*
D03*
Y92716D02*
D03*
X767717Y37598D02*
D03*
Y34055D02*
D03*
X449016Y118937D02*
D03*
Y122480D02*
D03*
X333429Y164354D02*
D03*
Y160811D02*
D03*
X369921Y159630D02*
D03*
Y156087D02*
D03*
X438976Y88779D02*
D03*
Y92323D02*
D03*
X439173Y118937D02*
D03*
Y122480D02*
D03*
X449016Y92323D02*
D03*
Y88780D02*
D03*
D31*
X585433Y348675D02*
D03*
Y336864D02*
D03*
X534772Y337218D02*
D03*
Y325408D02*
D03*
X116535Y100394D02*
D03*
Y88583D02*
D03*
X348031Y222835D02*
D03*
Y211024D02*
D03*
Y231102D02*
D03*
Y242913D02*
D03*
D32*
X545401Y348872D02*
D03*
X539102D02*
D03*
X560756D02*
D03*
X554457D02*
D03*
X569094Y261648D02*
D03*
X562795D02*
D03*
X82677Y72047D02*
D03*
X76378D02*
D03*
X101181Y55512D02*
D03*
X94882D02*
D03*
Y65630D02*
D03*
X101181D02*
D03*
X107087Y38189D02*
D03*
X100787D02*
D03*
X113386Y46063D02*
D03*
X107087D02*
D03*
X113386Y74410D02*
D03*
X107087D02*
D03*
X92520Y86516D02*
D03*
X86221D02*
D03*
X168110Y51181D02*
D03*
X174409D02*
D03*
X186614Y56693D02*
D03*
X192913D02*
D03*
X225197Y66142D02*
D03*
X231496D02*
D03*
X231102Y56693D02*
D03*
X237402D02*
D03*
X168110Y71260D02*
D03*
X174409D02*
D03*
X186614Y66417D02*
D03*
X192913D02*
D03*
X85039Y106299D02*
D03*
X78740D02*
D03*
X225631Y106224D02*
D03*
X219332D02*
D03*
X425984Y97047D02*
D03*
X419685D02*
D03*
X645512Y283257D02*
D03*
X639213D02*
D03*
X470472Y64173D02*
D03*
X464173D02*
D03*
D33*
X556031Y332140D02*
D03*
X156890Y95669D02*
D03*
D34*
X550913Y341392D02*
D03*
X553472D02*
D03*
X556031D02*
D03*
X558590D02*
D03*
X561150D02*
D03*
Y322888D02*
D03*
X558590D02*
D03*
X556031D02*
D03*
X553472D02*
D03*
X550913D02*
D03*
X162008Y104921D02*
D03*
X159449D02*
D03*
X156890D02*
D03*
X154331D02*
D03*
X151772D02*
D03*
Y86417D02*
D03*
X154331D02*
D03*
X156890D02*
D03*
X159449D02*
D03*
X162008D02*
D03*
D35*
X565283Y337258D02*
D03*
Y334699D02*
D03*
Y332140D02*
D03*
Y329581D02*
D03*
Y327022D02*
D03*
X546779D02*
D03*
Y329581D02*
D03*
Y332140D02*
D03*
Y334699D02*
D03*
Y337258D02*
D03*
X166142Y90551D02*
D03*
Y93110D02*
D03*
Y95669D02*
D03*
Y98228D02*
D03*
Y100787D02*
D03*
X147638D02*
D03*
Y98228D02*
D03*
Y95669D02*
D03*
Y93110D02*
D03*
Y90551D02*
D03*
D36*
X565400Y311614D02*
D03*
X577211D02*
D03*
X762205Y259842D02*
D03*
X750394D02*
D03*
D37*
X546653Y270703D02*
D03*
Y282514D02*
D03*
X614961Y161945D02*
D03*
Y150134D02*
D03*
X628385Y161945D02*
D03*
Y150134D02*
D03*
X641810Y161945D02*
D03*
Y150134D02*
D03*
X601536Y161945D02*
D03*
Y150134D02*
D03*
X603071Y68542D02*
D03*
Y56731D02*
D03*
X631756Y298217D02*
D03*
Y310028D02*
D03*
X643173Y298217D02*
D03*
Y310028D02*
D03*
X629920Y56731D02*
D03*
Y68542D02*
D03*
X643344Y56731D02*
D03*
Y68542D02*
D03*
X616495Y56731D02*
D03*
Y68542D02*
D03*
D38*
X580905Y282514D02*
D03*
X559055D02*
D03*
D39*
X187402Y103542D02*
D03*
X175591D02*
D03*
X219291Y38976D02*
D03*
X231102D02*
D03*
X231496Y89134D02*
D03*
X219685D02*
D03*
X185827Y300787D02*
D03*
X174016D02*
D03*
X186221Y324787D02*
D03*
X174409D02*
D03*
D40*
X65197Y72087D02*
D03*
Y65787D02*
D03*
X131572Y97243D02*
D03*
Y103542D02*
D03*
X138661Y103543D02*
D03*
Y97244D02*
D03*
X224410Y50433D02*
D03*
Y56732D02*
D03*
X231890Y72441D02*
D03*
Y66142D02*
D03*
X186221Y72835D02*
D03*
Y66535D02*
D03*
X574409Y64764D02*
D03*
Y71063D02*
D03*
Y84193D02*
D03*
Y77894D02*
D03*
X774016Y40551D02*
D03*
Y34252D02*
D03*
X450787Y344094D02*
D03*
Y350394D02*
D03*
D41*
X85787Y65630D02*
D03*
Y60630D02*
D03*
Y55630D02*
D03*
X73268D02*
D03*
Y60630D02*
D03*
Y65630D02*
D03*
X202795Y66417D02*
D03*
Y56417D02*
D03*
X215315D02*
D03*
Y61417D02*
D03*
Y66417D02*
D03*
D42*
X113386Y65748D02*
D03*
X107087D02*
D03*
X113386Y55512D02*
D03*
X107087D02*
D03*
X65354Y78740D02*
D03*
X71653D02*
D03*
X168110Y57874D02*
D03*
X174409D02*
D03*
X168110Y64567D02*
D03*
X174409D02*
D03*
X851181Y100610D02*
D03*
X844882D02*
D03*
X802362Y155512D02*
D03*
X808661D02*
D03*
X797612Y170669D02*
D03*
X791313D02*
D03*
D43*
X132677Y60630D02*
D03*
D44*
X143898Y68130D02*
D03*
Y63130D02*
D03*
Y58130D02*
D03*
Y53130D02*
D03*
X121457D02*
D03*
Y58130D02*
D03*
Y63130D02*
D03*
Y68130D02*
D03*
D45*
X69291Y93799D02*
D03*
X71260D02*
D03*
X73228D02*
D03*
Y86516D02*
D03*
X71260D02*
D03*
X69291D02*
D03*
D46*
X74902Y92126D02*
D03*
Y90158D02*
D03*
Y88189D02*
D03*
X67618D02*
D03*
Y90158D02*
D03*
Y92126D02*
D03*
D47*
X71260Y90158D02*
D03*
D48*
X86221Y93898D02*
D03*
Y99803D02*
D03*
X94488Y100000D02*
D03*
Y93701D02*
D03*
D49*
X105905Y97441D02*
D03*
Y88386D02*
D03*
X546063Y50197D02*
D03*
Y59252D02*
D03*
D50*
X156299Y44606D02*
D03*
Y53031D02*
D03*
Y77047D02*
D03*
Y68622D02*
D03*
X463386Y127441D02*
D03*
Y119016D02*
D03*
X424803Y127441D02*
D03*
Y119016D02*
D03*
D51*
X199409Y38976D02*
D03*
X180905D02*
D03*
X181299Y89370D02*
D03*
X199803D02*
D03*
D52*
X211811Y42756D02*
D03*
Y39134D02*
D03*
X212205Y92756D02*
D03*
Y89134D02*
D03*
D53*
X105905Y230315D02*
D03*
Y222441D02*
D03*
X84984Y230602D02*
D03*
Y222728D02*
D03*
X97976Y241339D02*
D03*
Y249213D02*
D03*
X77110Y240945D02*
D03*
Y248819D02*
D03*
X432283Y89370D02*
D03*
Y81496D02*
D03*
X424016D02*
D03*
Y89370D02*
D03*
X422047Y144488D02*
D03*
Y136614D02*
D03*
X466142Y144882D02*
D03*
Y137008D02*
D03*
X325827Y248409D02*
D03*
Y240535D02*
D03*
X325984Y205512D02*
D03*
Y213386D02*
D03*
X307480Y205512D02*
D03*
Y213386D02*
D03*
Y241339D02*
D03*
Y249213D02*
D03*
D54*
X99606Y230315D02*
D03*
X91732D02*
D03*
X91677Y249213D02*
D03*
X83803D02*
D03*
X464173Y40157D02*
D03*
X472047D02*
D03*
X464173Y49213D02*
D03*
X472047D02*
D03*
X817319Y194108D02*
D03*
X825193D02*
D03*
X472047Y72362D02*
D03*
X464173D02*
D03*
X422441Y208661D02*
D03*
X430315D02*
D03*
X422441Y246850D02*
D03*
X430315D02*
D03*
Y237402D02*
D03*
X422441D02*
D03*
X430315Y217717D02*
D03*
X422441D02*
D03*
X364803Y253134D02*
D03*
X372677D02*
D03*
X326217Y257858D02*
D03*
X334091D02*
D03*
X325984Y196063D02*
D03*
X333858D02*
D03*
X345118Y192110D02*
D03*
X352992D02*
D03*
X362835Y201953D02*
D03*
X370709D02*
D03*
X345114Y262976D02*
D03*
X352988D02*
D03*
D55*
X260634Y286038D02*
D03*
X255901Y266718D02*
D03*
X268106Y211600D02*
D03*
X272839Y230920D02*
D03*
D56*
X50365Y271299D02*
D03*
Y241299D02*
D03*
X21682D02*
D03*
Y271299D02*
D03*
D57*
X50365Y259567D02*
D03*
Y253031D02*
D03*
X21682D02*
D03*
Y259567D02*
D03*
D58*
X464213Y55512D02*
D03*
X468071D02*
D03*
D59*
X328067Y169016D02*
D03*
Y172716D02*
D03*
X580315Y77835D02*
D03*
Y74134D02*
D03*
X762992Y34528D02*
D03*
Y30827D02*
D03*
X807550Y214016D02*
D03*
Y210315D02*
D03*
X375157Y165457D02*
D03*
Y169157D02*
D03*
X339606Y327716D02*
D03*
Y324016D02*
D03*
X329331Y324016D02*
D03*
Y327717D02*
D03*
X334055D02*
D03*
Y324016D02*
D03*
D60*
X851575Y91948D02*
D03*
X841339D02*
D03*
D61*
X851772Y119114D02*
D03*
X848032D02*
D03*
X844291D02*
D03*
Y108878D02*
D03*
X851772D02*
D03*
D62*
X856999Y136929D02*
D03*
Y126693D02*
D03*
D63*
X550394Y123425D02*
D03*
D64*
X563779Y85827D02*
D03*
X557087D02*
D03*
X550394D02*
D03*
X543701D02*
D03*
X537008D02*
D03*
D65*
X589764Y46063D02*
D03*
Y58661D02*
D03*
D66*
X575984Y58268D02*
D03*
Y46457D02*
D03*
X561024Y58268D02*
D03*
Y46457D02*
D03*
D67*
X522638Y70079D02*
D03*
X534449D02*
D03*
X522638Y55118D02*
D03*
X534449D02*
D03*
D68*
X553740Y73740D02*
D03*
X557283D02*
D03*
X817126Y201181D02*
D03*
X813583D02*
D03*
D69*
X793307Y114370D02*
D03*
Y111811D02*
D03*
Y109252D02*
D03*
Y106693D02*
D03*
Y104134D02*
D03*
Y101575D02*
D03*
Y99016D02*
D03*
X816142D02*
D03*
Y101575D02*
D03*
Y104134D02*
D03*
Y106693D02*
D03*
Y109252D02*
D03*
Y111811D02*
D03*
Y114370D02*
D03*
D70*
X602598Y243701D02*
D03*
X608504D02*
D03*
D71*
X810316Y89370D02*
D03*
Y85630D02*
D03*
Y81890D02*
D03*
X799685D02*
D03*
Y85630D02*
D03*
Y89370D02*
D03*
D72*
X830866Y106693D02*
D03*
X827165D02*
D03*
X830984Y99016D02*
D03*
X827283D02*
D03*
X783740Y106693D02*
D03*
X780039D02*
D03*
X783740Y114567D02*
D03*
X780039D02*
D03*
X792244Y155512D02*
D03*
X795945D02*
D03*
X802244Y164567D02*
D03*
X798543D02*
D03*
X328067Y160118D02*
D03*
X324366D02*
D03*
Y164354D02*
D03*
X328067D02*
D03*
X375157Y155083D02*
D03*
X378858D02*
D03*
Y160083D02*
D03*
X375157D02*
D03*
D73*
X603228Y228858D02*
D03*
X648228D02*
D03*
Y223858D02*
D03*
Y218858D02*
D03*
Y213858D02*
D03*
Y208858D02*
D03*
Y203858D02*
D03*
Y198858D02*
D03*
Y193858D02*
D03*
Y188858D02*
D03*
Y183858D02*
D03*
Y178858D02*
D03*
X643228Y228858D02*
D03*
Y223858D02*
D03*
Y218858D02*
D03*
Y213858D02*
D03*
Y208858D02*
D03*
Y203858D02*
D03*
Y198858D02*
D03*
Y193858D02*
D03*
Y188858D02*
D03*
Y183858D02*
D03*
Y178858D02*
D03*
X638228Y228858D02*
D03*
Y223858D02*
D03*
Y218858D02*
D03*
Y213858D02*
D03*
Y208858D02*
D03*
Y203858D02*
D03*
Y198858D02*
D03*
Y193858D02*
D03*
Y188858D02*
D03*
Y183858D02*
D03*
Y178858D02*
D03*
X633228Y228858D02*
D03*
Y223858D02*
D03*
Y218858D02*
D03*
Y213858D02*
D03*
Y208858D02*
D03*
Y203858D02*
D03*
Y198858D02*
D03*
Y193858D02*
D03*
Y188858D02*
D03*
Y183858D02*
D03*
Y178858D02*
D03*
X628228Y228858D02*
D03*
Y223858D02*
D03*
Y218858D02*
D03*
Y213858D02*
D03*
Y208858D02*
D03*
Y203858D02*
D03*
Y198858D02*
D03*
Y193858D02*
D03*
Y188858D02*
D03*
Y183858D02*
D03*
Y178858D02*
D03*
X623228Y228858D02*
D03*
Y223858D02*
D03*
Y218858D02*
D03*
Y213858D02*
D03*
Y208858D02*
D03*
Y203858D02*
D03*
Y198858D02*
D03*
Y193858D02*
D03*
Y188858D02*
D03*
Y183858D02*
D03*
Y178858D02*
D03*
X618228Y228858D02*
D03*
Y223858D02*
D03*
Y218858D02*
D03*
Y213858D02*
D03*
Y208858D02*
D03*
Y203858D02*
D03*
Y198858D02*
D03*
Y193858D02*
D03*
Y188858D02*
D03*
Y183858D02*
D03*
Y178858D02*
D03*
X613228Y228858D02*
D03*
Y223858D02*
D03*
Y218858D02*
D03*
Y213858D02*
D03*
Y208858D02*
D03*
Y203858D02*
D03*
Y198858D02*
D03*
Y193858D02*
D03*
Y188858D02*
D03*
Y183858D02*
D03*
Y178858D02*
D03*
X608228Y228858D02*
D03*
Y223858D02*
D03*
Y218858D02*
D03*
Y213858D02*
D03*
Y208858D02*
D03*
Y203858D02*
D03*
Y198858D02*
D03*
Y193858D02*
D03*
Y188858D02*
D03*
Y183858D02*
D03*
Y178858D02*
D03*
X603228Y223858D02*
D03*
Y218858D02*
D03*
Y213858D02*
D03*
Y208858D02*
D03*
Y203858D02*
D03*
Y198858D02*
D03*
Y193858D02*
D03*
Y188858D02*
D03*
Y183858D02*
D03*
Y178858D02*
D03*
X598228Y228858D02*
D03*
Y223858D02*
D03*
Y218858D02*
D03*
Y213858D02*
D03*
Y208858D02*
D03*
Y203858D02*
D03*
Y198858D02*
D03*
Y193858D02*
D03*
Y188858D02*
D03*
Y183858D02*
D03*
Y178858D02*
D03*
X597953Y86024D02*
D03*
Y91024D02*
D03*
Y96024D02*
D03*
Y101024D02*
D03*
Y106024D02*
D03*
Y111024D02*
D03*
Y116024D02*
D03*
Y121024D02*
D03*
Y126024D02*
D03*
Y131024D02*
D03*
Y136024D02*
D03*
X602953Y86024D02*
D03*
Y91024D02*
D03*
Y96024D02*
D03*
Y101024D02*
D03*
Y106024D02*
D03*
Y111024D02*
D03*
Y116024D02*
D03*
Y121024D02*
D03*
Y126024D02*
D03*
Y131024D02*
D03*
Y136024D02*
D03*
X607953Y86024D02*
D03*
Y91024D02*
D03*
Y96024D02*
D03*
Y101024D02*
D03*
Y106024D02*
D03*
Y111024D02*
D03*
Y116024D02*
D03*
Y121024D02*
D03*
Y126024D02*
D03*
Y131024D02*
D03*
Y136024D02*
D03*
X612953Y86024D02*
D03*
Y91024D02*
D03*
Y96024D02*
D03*
Y101024D02*
D03*
Y106024D02*
D03*
Y111024D02*
D03*
Y116024D02*
D03*
Y121024D02*
D03*
Y126024D02*
D03*
Y131024D02*
D03*
Y136024D02*
D03*
X617953Y86024D02*
D03*
Y91024D02*
D03*
Y96024D02*
D03*
Y101024D02*
D03*
Y106024D02*
D03*
Y111024D02*
D03*
Y116024D02*
D03*
Y121024D02*
D03*
Y126024D02*
D03*
Y131024D02*
D03*
Y136024D02*
D03*
X622953Y86024D02*
D03*
Y91024D02*
D03*
Y96024D02*
D03*
Y101024D02*
D03*
Y106024D02*
D03*
Y111024D02*
D03*
Y116024D02*
D03*
Y121024D02*
D03*
Y126024D02*
D03*
Y131024D02*
D03*
Y136024D02*
D03*
X627953Y86024D02*
D03*
Y91024D02*
D03*
Y96024D02*
D03*
Y101024D02*
D03*
Y106024D02*
D03*
Y111024D02*
D03*
Y116024D02*
D03*
Y121024D02*
D03*
Y126024D02*
D03*
Y131024D02*
D03*
Y136024D02*
D03*
X632953Y86024D02*
D03*
Y91024D02*
D03*
Y96024D02*
D03*
Y101024D02*
D03*
Y106024D02*
D03*
Y111024D02*
D03*
Y116024D02*
D03*
Y121024D02*
D03*
Y126024D02*
D03*
Y131024D02*
D03*
Y136024D02*
D03*
X637953Y86024D02*
D03*
Y91024D02*
D03*
Y96024D02*
D03*
Y101024D02*
D03*
Y106024D02*
D03*
Y111024D02*
D03*
Y116024D02*
D03*
Y121024D02*
D03*
Y126024D02*
D03*
Y131024D02*
D03*
Y136024D02*
D03*
X642953Y86024D02*
D03*
Y91024D02*
D03*
Y96024D02*
D03*
Y101024D02*
D03*
Y106024D02*
D03*
Y111024D02*
D03*
Y116024D02*
D03*
Y121024D02*
D03*
Y126024D02*
D03*
Y131024D02*
D03*
Y136024D02*
D03*
X647953Y86024D02*
D03*
Y91024D02*
D03*
Y96024D02*
D03*
Y101024D02*
D03*
Y106024D02*
D03*
Y111024D02*
D03*
Y116024D02*
D03*
Y121024D02*
D03*
Y126024D02*
D03*
Y131024D02*
D03*
Y136024D02*
D03*
D74*
X736614Y298819D02*
D03*
D75*
X776771Y289961D02*
D03*
D76*
X764960Y329725D02*
D03*
Y275787D02*
D03*
X748031Y329725D02*
D03*
Y275787D02*
D03*
D77*
X807500Y201181D02*
D03*
X802500D02*
D03*
X797500D02*
D03*
X792500D02*
D03*
X807500Y179921D02*
D03*
X802500D02*
D03*
X797500D02*
D03*
X792500D02*
D03*
X739744Y19291D02*
D03*
X744744D02*
D03*
X749744D02*
D03*
X754744D02*
D03*
X739744Y40551D02*
D03*
X744744D02*
D03*
X749744D02*
D03*
X754744D02*
D03*
D78*
X807480Y221260D02*
D03*
X815354D02*
D03*
D79*
X811417Y219882D02*
D03*
D80*
X794183Y221811D02*
D03*
X797924Y212756D02*
D03*
X790443D02*
D03*
D81*
X790729Y268898D02*
D03*
Y261811D02*
D03*
X780902Y268898D02*
D03*
Y261811D02*
D03*
D82*
X809252Y257087D02*
D03*
X826181D02*
D03*
D83*
X763189Y24016D02*
D03*
X772244Y27756D02*
D03*
Y20276D02*
D03*
D84*
X619527Y283257D02*
D03*
X627402D02*
D03*
D85*
X474016Y216929D02*
D03*
X481102D02*
D03*
X473622Y237543D02*
D03*
X480709D02*
D03*
X345118Y253134D02*
D03*
X352205D02*
D03*
X363366Y192110D02*
D03*
X370453D02*
D03*
X345118Y201953D02*
D03*
X352205D02*
D03*
X340787Y135811D02*
D03*
X333701D02*
D03*
X340787Y146441D02*
D03*
X333701D02*
D03*
X365354Y262992D02*
D03*
X372441D02*
D03*
D86*
X336221Y213386D02*
D03*
Y220472D02*
D03*
X336063Y240535D02*
D03*
Y233449D02*
D03*
X287402Y213386D02*
D03*
Y206299D02*
D03*
X287795Y248425D02*
D03*
Y241339D02*
D03*
D87*
X364567Y237008D02*
D03*
X376378D02*
D03*
X364567Y216929D02*
D03*
X376378D02*
D03*
D88*
X351417Y162583D02*
D03*
D89*
X340984Y155083D02*
D03*
Y160083D02*
D03*
Y165083D02*
D03*
Y170083D02*
D03*
X361850D02*
D03*
Y165083D02*
D03*
Y160083D02*
D03*
Y155083D02*
D03*
D90*
X329331Y334252D02*
D03*
X336024D02*
D03*
D91*
X543701Y166142D02*
D03*
X544681Y237203D02*
D03*
D92*
X534724Y192913D02*
D03*
X552677D02*
D03*
X553658Y210432D02*
D03*
X535705D02*
D03*
D93*
X457677Y346654D02*
D03*
Y344094D02*
D03*
Y341535D02*
D03*
X465945D02*
D03*
Y346654D02*
D03*
D94*
X753150Y345910D02*
D03*
X760236D02*
D03*
D95*
X444095Y104724D02*
D03*
D96*
X436417Y99803D02*
D03*
Y101772D02*
D03*
Y103740D02*
D03*
Y105709D02*
D03*
Y107677D02*
D03*
Y109646D02*
D03*
X451772D02*
D03*
Y107677D02*
D03*
Y105709D02*
D03*
Y103740D02*
D03*
Y101772D02*
D03*
Y99803D02*
D03*
D97*
X439173Y112402D02*
D03*
X441142D02*
D03*
X443110D02*
D03*
X445079D02*
D03*
X447047D02*
D03*
X449016D02*
D03*
Y97047D02*
D03*
X447047D02*
D03*
X445079D02*
D03*
X443110D02*
D03*
X441142D02*
D03*
X439173D02*
D03*
D98*
X670441Y299541D02*
D03*
X690914D02*
D03*
X690551Y47638D02*
D03*
X670079D02*
D03*
X690914Y139972D02*
D03*
X670441D02*
D03*
X690914Y94381D02*
D03*
X670441D02*
D03*
X690914Y162768D02*
D03*
X670441D02*
D03*
X690914Y117177D02*
D03*
X670441D02*
D03*
X690914Y71586D02*
D03*
X670441D02*
D03*
X690914Y322337D02*
D03*
X670441D02*
D03*
X690914Y276746D02*
D03*
X670441D02*
D03*
X690914Y231155D02*
D03*
X670441D02*
D03*
X690914Y253950D02*
D03*
X670441D02*
D03*
X690945Y344488D02*
D03*
X670472D02*
D03*
M02*
