M48
;Layer_Color=9474304
;FILE_FORMAT=4:4
METRIC,LZ
;TYPE=PLATED
T1F00S00C0.2500
T2F00S00C0.3000
T3F00S00C0.5000
T4F00S00C0.5000
T5F00S00C1.0000
T6F00S00C1.0668
T7F00S00C1.2000
T8F00S00C1.3000
T9F00S00C1.4000
T10F00S00C1.5000
T11F00S00C1.7000
T12F00S00C1.8000
T13F00S00C2.7000
T14F00S00C3.2000
;TYPE=NON_PLATED
T15F00S00C0.9000
T16F00S00C3.0000
T17F00S00C6.5000
%
T01
X02178791Y00042
X02024881
X01721Y00053
X01667143
X01613286
X01559429
X01505571
X01451714
X01397857
X01344
X0106Y0004
X0096
X0091
X0086
X0081
X0076
X0071
X0061
X0057
X00568Y00053
X0053Y0004
X00511143Y00053
X0048Y0004
X00454286Y00053
X0044Y0004
X0039
X00397429Y00053
X00340571
X0035Y0004
X003
X00283714Y00053
X0025Y0004
X00226857Y00053
X002Y0004
X0017Y00053
X00168Y00141
X00111Y0019
Y00258
X00158Y002575
X00111Y00387
Y00455
X002Y0046
Y00403
Y0036
Y0031
X00204Y00256
X0023Y00254
X00228Y0027
X0024Y00268
X00261Y00261
X00269
X00277
X00296Y002665
Y00241182
X00308924Y00206
X00334Y00224
X00334193Y00273
X00317
X003522
X00374884Y002665
X003855Y00256
X003985Y00243
X003855Y0023
X004115Y00229703
X004205Y0021975
X00432Y002333
X00438726Y00239976
X004445Y00246
X004475Y00233557
X0047632Y00246734
X004922Y002525
X00487Y00263
X0047632Y00279148
X0048Y00312
X00412
X00405Y00279148
X00422Y002665
X004115Y00256
X003985Y00206796
X00370168Y00206
X003755Y0016035
Y0014765
X003545Y00154
X00405
X00414192Y00103524
X0044Y00107392
X00493Y0012
X00508
X00524Y00081309
X00538Y0009
X0057Y00116
X00535451Y00212769
X00524Y00245
X00543102Y00269808
X00556Y00312
X0052432Y00405
Y00413
Y00421
Y00429
Y00437
X0051632
X0050832
X0050032
Y00429
X0050732
X0051532
Y00421
Y00413
X0050732
Y00421
X0049932
Y00413
Y00405
X0049132
X0048332
X0047632
Y00413
Y00421
X0048432
X0049132
Y00413
X0048432
Y00429
X0049232
Y00437
X0048432
X0047632
Y00429
X0050732Y00405
X0051532
X00436Y00371
X00408Y00353
X00380672Y00371
X00353Y00353
X0032375Y00371
X00295069Y00353
X002685Y00371
X0026Y00312
X00316
X00367
X00434717Y001995
X00482028Y0020489
X00393Y00085
X003545Y00101549
X00330378
X0029235Y00096645
X002435Y00097
X0025Y0012
X00263Y00154
X00299Y0016035
Y0014765
X002489Y00207271
X00235Y00206
X0021Y00205622
X00195Y002125
X00181Y00229
X001861Y0013
X002Y0012
Y0009
X00304Y00456198
X0066Y0044
Y0039
X00645Y00394
X00712751Y004226
X0071264Y00451416
X0076Y0044
X00792895Y004355
X0082389Y004293
X0084859Y0043201
X00842451Y00398
X0085Y0039
X0083Y0037
Y00357
X00783Y0036
X0078699Y00380735
X007585Y003785
X0074638Y00384
X00744Y00266
X00730671Y00265993
X00719926Y00233534
X00758Y00217
X0078125Y00224
X0079475Y00232739
X00809611
X00817181Y002225
X00814211Y00212
X00801984
X00808Y00181
X00793855Y00157368
X00767389Y00163
X00774184Y0017
X00738549Y00149881
X00742Y00197327
X00777333Y00263474
X00795Y0026
X00809611
X00817181Y00276308
X00856938Y00276172
X0086Y0029
X0084805Y00308834
X00847695Y003237
X0091Y0034
X00912534Y00367317
X00879838Y00372817
X008926Y00392108
Y00434565
X009191Y00442488
X00935Y0043201
Y0042
X009623Y00429461
X0095281Y004397
X009623Y00383
X0096Y0034
X00939049Y00287
X0091Y0029
X00910257Y00276178
X00905166Y00262246
X00900828Y00223948
X00910457Y00212
X00926Y00204855
X00966643Y002255
X00963Y00235
X00877556Y0024
X0086
X00858Y00212
X00845
Y0018375
X00858Y00184598
X00885011Y00182049
X008875Y00139049
X00874698Y00116
X00858Y00111
X0086Y0009
X0091
X0096
X0081Y0008
X00809611Y00123
X00793855
X0082835
Y00157268
X00851252Y00154624
X0076Y0009
X0071
X0066
X00645Y00132
X00603Y00158
Y00168
X0061Y001957
X006Y00226
X00645Y00217
X0066Y0024
X00588602Y00269808
X0058Y00279148
X00598Y00099
X00912534Y00306669
X00990278Y00284103
X01002279
X01006279Y00276178
X01032771Y002735
X010316Y00297379
X01040434Y003111
X01054124Y003071
X01048483Y00291
X01046821Y0033555
X00996022Y00336724
X01030035Y00398
X01072Y0038546
X0109Y00409991
X01089477Y0045
X0112153
X01123895Y0039445
X011046Y00368
X011554
X01184Y0038546
X01184366Y00414435
X01176912Y00437675
X011554Y004167
X01209451Y00398549
X01217391Y003111
X01202Y003071
X0116Y002735
Y00258375
X011355Y002585
X01128Y00266
X011355Y002735
X011205
Y00258375
X0110056Y002585
X010985Y00273625
X01055Y002465
X01052298Y00204172
X01053947Y00195442
X01065224Y00184198
X01025Y00186
X00991561Y00186065
X0097616Y00170119
X01008108Y00202619
X00991561Y00219307
X01024841Y00219352
X01037983Y00163
X01042724Y0012
X01054124Y00110968
X0106Y0009
X0101
X0111Y0008
X0116
X0121
X01214Y00125
X0124Y0012
Y0015
Y0017
Y002
X01214Y001838
X01206116Y00154126
X0116Y00163461
X011305Y00172905
Y00195442
X01137535Y00207
X011205
X0118Y0021
X01190709Y00217041
X0117561Y00233681
X01276Y00232
Y002925
Y00353
X01305Y00396895
X01362Y00346
Y00283
X013275Y002005
X01314Y00178
X01327Y00159
X01314Y0014
X01327Y0012
X01276Y00111
Y001715
X01093Y00161684
X0111245Y0013927
X01124914Y00126
X01129194Y0033555
X00977055Y00251
X013979Y002435
X01399Y00283
X0143
X01398Y003135
Y00346
X0143
X01446337Y00396
X01385Y0041685
X01377
Y0042485
X01385
X01509549Y00419255
X01531113Y00426305
X01535Y00433
X01543
X01551
X01559
X01579245Y00421805
X01579179Y00381339
X015823Y0035553
X01581405Y00337
X01589Y00314
X01563
Y00289
X01538Y00288
Y00263
X01563
X01589
Y00288
X0161429Y00263
X0164
X01639Y00238
X01614Y00237
Y00212
X0164
X01667054Y00215469
Y00204451
X0168903Y00194344
X01702921Y00205247
X01721867Y00218145
Y00226583
X01731Y00236518
X01736762Y00263542
X017238Y00301344
X01731Y00322604
X0172347Y003425
X01755Y00327
Y00389
X01731Y00419886
X01720289Y004585
X01701Y00444
X01694
X01687
X016587Y00442941
X01640066Y00446332
X0161429
X01606598Y00396
X01610249Y00380365
X01596391Y00368708
X016077Y00355115
X01630584Y00368708
X0163629Y00396
X0166Y00419255
X01680833Y00367815
X01675711Y003025
X01664476Y00243
X01680833Y00174125
X01700086Y00158855
X0172403Y00161639
X017356Y00180045
X017295Y00122624
Y00085829
X01720125
X0174
X0175
X0176
X01755Y00110662
X0169953Y00093827
X01653Y00144451
X01653222Y00159248
X01634Y00129
X01617Y00144
X01599946Y00132105
X01593Y00122183
X01582Y00144
X01566Y00129
X01548Y00144
X015315Y001295
X01511Y00117
X01498Y00106
X01486Y00117
X01463Y00102884
X01444Y00118
X01425Y00102884
X01395Y00099
X01387
X01379
X01398Y001873
Y00194294
X01444Y00190344
X01441Y00167
X01433
X01425
X014725Y001765
X01491076Y001883
X01513845Y0020585
X01521845
X01529845
X01537845
X01545845
X01594391Y0016267
X01459Y0022585
X01507105Y00322604
X01507Y003328
X01525Y00339
X015315Y0035553
X015442
X015569
X01551064Y00364
X01538
X0152745Y00368708
X01545Y00377
X01564398Y00364
X01537845Y003135
X01527Y00433
X01771Y00414
Y00356
Y00298
X01762951Y00263635
X01783502Y0026474
Y00256859
Y002486
Y00241202
Y00233494
Y00225605
X01771Y0024
X017655Y00212
X01771Y00181
X01781Y00165
Y00157
Y00149
Y00141
Y00133
X01797Y0012
Y00112
Y00104
X01815694Y00104482
X01835Y00109
X01859
X01862785Y00155379
X01871
Y00163
Y00170549
X01856Y001795
Y001925
Y002055
Y002185
X01865383Y00238978
X01856Y002635
Y002765
Y002895
Y003025
X01873202Y00292021
Y00326604
X01856Y00342115
Y00355115
Y00367515
Y00380515
X0185612Y00400284
X01856Y004195
Y004325
Y004455
Y004585
X01818327Y00438941
X01815Y00390284
X01818815Y00341627
X01818327Y00283104
X0181793Y00244314
X01818084Y00195657
X01901451Y00171
Y00163
Y00155
X01909451
X01917451
X01925451
X01933451
Y00147
Y00139
X01925451
X01917451
Y00147
X01901451
Y00139
X01909451
Y00171
X01917451
X01925451
X01933451
Y00163
X01917451
X01928Y00102
X01904Y000783
Y00064
X01892
X01879
X01917
X0195Y000705
X01974204
X01977Y00086981
X01963302Y00219192
X02012355Y0022063
X02014849Y00238978
X02002146Y00258
X01984716Y00259106
X01983821Y002786
X0199222Y002834
X02021658Y00314563
X02028695
X02028621Y00322465
X02021658
X02017525Y00344505
X01989789Y00347789
X01975Y003434
Y003564
Y003764
Y003894
Y004094
Y004224
Y004424
Y004554
X01987821Y00457
X01996361Y00448899
X01997821Y00428556
X02009964Y004195
X02017309Y00410834
X02032724Y004094
X0203069Y00381552
X0204298Y003818
X02063702Y003856
X02070702Y004094
X02089276Y00405567
X02087973Y00397532
X021019Y00421403
X02116451Y00434216
X02126918Y00450739
X02081509Y00458
Y00437314
X02049469Y00434216
X02025509Y00371521
X0199891Y00367832
X02081Y00352598
X020785Y0030815
X02082802Y00300587
X02106696Y003065
X02095204Y00318475
X02113055Y00283549
X02108078Y00261309
X020945Y002647
X02085885Y00258
X02059621Y00261128
X02053309Y0026744
X02041796Y00304018
X02135289Y00294
X02145743Y00265676
X02135289Y0025
X02150881Y00241221
X02148009Y00216302
X02124834Y00212
Y00195381
X02117334
X02114298Y002332
X021022Y00240042
X02080881Y002332
X02069119Y002175
X02058201Y00196255
X02141851Y00339133
X02141Y00363832
X02154Y00353002
X0177Y00085829
X02176228Y00198411
X02187928Y00201079
X02183Y00216
X02168702Y00291
X02166119Y00363832
X02189316Y00642524
X02118378Y00652831
X02097491Y00672024
Y00632663
X02124161Y00612524
X02082241Y00561496
X02071Y005719
X02060831
X0206722Y00521084
X02095991Y005079
X02109757Y00493033
X02095991Y00477333
X02051201Y004733
X02042709Y0048723
X02026055Y00479598
X01994Y00482989
X01997821Y00465692
X01975Y004754
Y004884
Y005079
Y005209
Y005424
Y005554
Y005754
Y005884
X019617Y00604315
X01954402Y00644451
X01980327Y00638024
X01988Y00638
X01996
X02004
X02012
X0202
X02028
X020085Y00697
X01983492
X01972999Y00712698
X01954402Y007365
X01972999Y00760835
X01893862Y00758972
X019Y00728521
X01870999Y00712698
X01878Y007005
X01899999Y00675976
X01906Y00645034
X01815Y006315
Y00583
X01771Y00587
Y00645
Y00703
Y00761
Y00819
X01815Y008255
Y00777
Y007285
Y0068
X01848Y00758972
X01870999Y00805
X0192245Y00826
Y00855
X0199589Y005404
X02018809Y00532232
X02005Y00495
X01738Y00504
Y00512
X0173
X01722
X01714
X01707
X01699
Y0052
X01707
Y00528
X01699
Y00536
X01707
X01715
Y00528
Y0052
X01723
X0173
Y00528
X01723
Y00536
X01731
X01738
Y00528
Y0052
X0173Y00504
X01722
X01714
X01706
X01698
X0169
Y00512
Y0052
Y00528
Y00536
X0168Y00594
X01673
X01666
X01650245Y00625034
X016084Y00593
X015957Y00594
X01577Y00613
X015576Y00615201
X015515Y006035
X01564398
X015576Y00593
X015449
X01539326Y00604657
X015215Y00604395
X01511Y00590451
X01508Y00625829
X015456Y00633246
X015374Y006511
X01575105
X015944
X01583704Y00666
X016154Y00672394
X01561Y007131
X01565991Y007396
X01568Y00781
X01561
X01553
X01545
X01537
X01528692Y00780835
X01529103Y00797956
X01538Y00811472
X01544104
X015497
X01564398Y00797956
X01591154Y00798736
X01591653Y00776
X01576Y00781
X01579609Y00823222
X01553895Y00845175
X01528569Y008335
X01497177Y00830635
X01475302Y0083
X0146475Y00822581
X01462084Y00807651
X01455035
X01469359Y00807609
X01476421Y0080763
X01436324Y00806756
X01445499Y00825577
X0145032Y00837135
X0142532Y00830635
X0139932
X0139932Y00856479
X0141232Y00843635
X0142532Y00856815
X0140582Y00808546
X01422413Y007915
X01436324Y00768712
X01405Y00758
X01397
X01389
X01381
X01388499Y00675
X01413475Y00664586
X01444414Y0069684
X01502108Y006866
X01509177Y007131
X01502108Y007396
X01495245Y00776
X016191
Y00798736
X01650547Y007875
X01719974Y00787972
X01724974Y00783
X01729974Y00778
X0173Y00788
X01735Y00783
X01755Y0079
X01754921Y00847724
X01755Y00732
Y00674
Y00616
Y00558
X0174075Y004675
X01721Y00467
X01640066Y00473
Y00499
X0161429
X01589
X01564
X01539
Y00524
X01564
X01589
X0158914Y0055
X01564
X0153892Y005501
X01508Y00543
X01513Y00524
Y00499
X01475452Y005356
X01467452
X01458841
X01441663Y005516
X01418499Y00551853
X01450535Y005735
X01446337Y00612105
X01384Y00611
Y00595
X01392Y00603
X01375
X014038Y00510046
Y00471774
X01589Y00473
X0161429Y00473634
X01659Y00725972
X01664Y00721
X01669Y00716
X01674Y00712
X01679Y00707
X01631376Y00845175
X014804Y006551
X01298138Y00678605
X01305024Y00700375
X01276Y00721
X01247895Y0072032
Y0071
X01222688Y00709
X0122542Y0072324
X01233565
X01239Y00741607
X01223065Y00743355
Y00769355
X01229565Y00776
X0123Y007915
X01233565Y0080144
X01243843Y00811472
X01244444Y0083
X01233565Y0084124
X01224565Y00844
X012165Y00852935
X012075Y00853
X01233565Y00856
X01214Y008005
X01195Y00811605
X01182Y00815345
X01184266Y00794049
X01193451Y00775855
Y0074341
X01197266Y007245
X0117608Y0072324
X01160297Y00724135
X01144933Y00723704
X01133Y00749855
Y0076
Y00768
X01107904Y00758805
X011032Y00791944
X01087Y00781895
X01056695Y00788855
X01057Y0075744
X01055856Y00706913
X01045Y0068024
X01046106Y00671499
X01066682Y0067126
X01087Y00669685
X0110964Y00667091
X01113Y006395
X011349Y0065673
X0114Y00679
X011487Y00681848
X01127662Y00691166
X011163Y00692
X01195Y00693605
X01212Y006825
X01223165
X01233565
X01246976Y00682259
X01266872Y00673241
X01264859Y00649439
X0122975Y00664355
X01224565Y006326
X01237Y00604
X01219Y00577
X0120821Y005825
X01187Y00577
X01172
X01155
X01136
X01130451Y00584734
X01120115Y00577094
X0109627
X01066682
X01035838
X01006903
X00976962Y00576697
X01010735Y00625355
X01028912Y00627
X01030035Y00643475
X01024841Y00672759
X00986114Y00671499
X00976678Y00694364
X00986114Y00706913
X00976435Y00726
X01003435Y00754497
X0100363Y0069464
X01063315Y00650395
X0105855Y00627395
X01049838Y0062621
X01135018Y00617355
X01175254Y00664586
X01190709Y00657013
X01195209Y00515205
X01160297Y00513861
X011554Y00472912
X01092618Y00481
X01061129
X0111Y0053036
X0126Y00525255
X01249944Y00513
X0126Y00499
X01219135Y00481
X01309451Y00513
X013355Y00526
X0135Y00507
X0136069Y0051431
Y00554955
X01322Y0056223
X01294908Y00565005
X01276Y00567
X01339212Y00474
X01322Y00760451
X01287846Y00752665
X01262266Y00771157
X01259116Y00797655
X01316Y00811
X01304309Y00823654
X01343Y00826535
X0135832Y00815229
X0135852Y00838691
X011163Y00844
X0110925Y00822
X01066682Y0084274
X0104815Y0084124
X010426Y00831605
X01040334Y00822105
X01015Y00824996
X01003435Y00846
X009855Y00856
X01029035
X01024435Y00796895
X00990124Y00802585
X00976435Y00806815
X01149065Y0079694
X00964451Y00775625
X0095175Y00769355
X00935Y00765451
X00927382Y00755174
X00913Y00758
X00915074Y00744593
X0094095Y00744383
X0093157Y00723799
X00946769Y0069924
X00921943Y00689422
X00913Y00697
X00902052Y00689451
X00894245Y00684215
X00890026Y00694
X00884Y00701437
X00891979Y00714
X008926Y00655931
X009016Y00611
X00914243Y0059446
X00907Y00586537
X00902052Y00575
X00907Y00542
X0094536Y00564116
X00920685Y00629895
X00964878Y00666614
X00967Y00714
X00920685Y00781895
X00922994Y00808162
X009235Y0082774
X0095175
X00967Y00846
X00913Y00849
X00894245Y00820605
Y00809
X00895Y00796895
X008626Y00812678
X008485
X008365Y00813573
X00826291Y00823
X00826437Y008324
X00833Y00775
X008535Y00689089
X00806025Y0065496
X0080089Y00613336
X00782Y00578
X007581Y00593461
X00731564Y0059146
X00724091Y00564453
X00692314Y00563338
X00705481Y0054844
Y00498
X00676241Y00514877
X00650976
X006385Y00519105
X00639445Y0055725
X00674726Y00584709
X00650976Y00618864
X00666474Y00638
X00635605Y00648
X00614852Y0067196
X00587521Y00699024
X00603Y00752
Y00842
X00705481Y00654159
X00706719Y00611
X0080089Y00539547
X0084181Y00577094
X00863549
X0066Y0049
X00557273Y00554
X0056Y00583
X00442279Y00603209
X00435181Y0069
X00462Y00706024
X00489634Y0069
X00519Y00756881
X0054Y0075
X0056Y0073
X005Y0079
X00473Y00796
X00443
X00400179
X00408Y0071754
X00379884Y0069
X0035
X003
X0025
X0026086Y006608
Y00633
X0029Y0061
X0028836Y0058514
X00269Y00552283
X002Y0056
Y0051
X0021Y0061
X0023
X0018
X0021286Y00655252
X002Y0069
Y0074
X0019Y00763766
X002Y0079
Y0084
X00512Y00842
X00457Y0052
X004877Y00482
X00378Y00473
X00378Y00493
X00384306Y00509
X00358Y00489185
X0033222Y00509
X00156338Y006515
X000915Y00650865
Y006891
Y006115
X00045Y0058
X0002729Y00650865
X00117796Y00764
X002Y0089
Y00926
X00273Y00934
Y00889868
X00338Y0089
X0034Y00934
X00407
X00474
X00541
X00689Y00932
X00774667
X00860333
X00842112Y00882676
X00946Y00932
X01031667
X01117333
X01145065Y00902
X01172Y00904
X01198161Y00914
X01203Y00932
X01210648Y00880759
X01233Y00885
X01276Y00875
X01352Y008715
X0136Y00871
X0135982Y00886135
X01197266Y008675
X011625Y00858996
X01368Y00871
X01376
X01384
X0139532Y00886135
X01412227Y00876385
X0136972Y00896
X01401Y00932
X01459
X01547
X01625
X01683
X01745
X01755Y00897
X01503177Y00857971
X01771Y00875
X01815Y00874
T02
X01889818Y00015343
X01910766
X01504766Y0001575
T03
X02025Y00081
X02039
X02053
X02067
X02081
X02095
X02109
X02123
X02137
X02151
X02152Y00101
X02138
X02124
X0211
X02096
X02082
X02068
X02054
X0204
X02026
X02025Y00121
X02039
X02053
X02067
X02081
X02095
X02109
X02123
X02137
X02151
X02152Y00141
X02138
X02124
X0211
X02096
X02082
X02068
X02054
X0204
X02026
X02025Y00161
X02039
X02053
X02067
X02081
X02095
X02109
X02123
X02137
X02151
X02152Y00181
X02138
X02124
X0211
X02096
X02082
X02068
X02054
X0204
X02026
X02166
X0218
X02179Y00161
X02165
X02166Y00141
X0218
X02179Y00121
X02165
X02166Y00101
X0218
X02179Y00081
X02165
T04
X0070799Y00599
X00716Y00591
X00724Y00583
X00732Y00575
X0068775Y00729
X00681Y00737
X0067225Y00745
X0066375Y00754
T05
X000051Y0035855
Y0040355
X01898301Y00411
Y004364
X01923701
Y00411
Y003856
X01898301
Y003602
Y003348
X01923701
Y003094
X01898301
Y00284
X01923701
Y002586
X01898301
Y002332
X01923701
Y003602
Y004618
X01898301
Y004872
Y005126
Y00538
Y005634
Y005888
X01923701
Y005634
Y00538
Y005126
Y004872
X00582Y00666
X00620976Y00706024
T06
X0098789Y0055256
Y0060336
X0117331
Y0055256
X0061832Y0059614
X0058022Y0060884
X0051291
X0047608Y0059614
X0040219Y00764
Y0082496
X00152
Y00764
T07
X02023Y00588
Y00613
X00782Y0066868
X007566
X007312
X007302Y0048424
X007556
X00781
X00015Y00464
T08
X0003Y00346
Y004161
T09
X0004Y00221
Y00794
T10
X000146Y001956
X000654
Y002464
X000146
Y007686
Y008194
X000654
Y007686
T11
X-000104Y004386
X000404
X02006222Y00725278
X02006272Y00804649
X02062Y00765
X000404Y004894
X-000104
T12
X02005Y0087
Y00912
X0206
Y0087
T13
X00036Y00055
Y00944
T14
X01815Y00053
X01276
X010137
X00645
X00111
Y001345
Y00312
X00644
X010137Y004577
X01276Y00458
X01815Y005188
X00546141Y00485877
X00278Y00796
X00109Y005305
X0010735Y008725
X00111Y00946
X00603
X01276Y00946
X01815
T15
X02159466Y00413239
Y00443239
X02159331Y00620024
Y00650024
T16
X02133Y00891
T17
X007556Y0031596
X007566Y0083696
M30
